<svg width="144" height="29" viewBox="0 0 144 29" fill="none" xmlns="http://www.w3.org/2000/svg">
<g clip-path="url(#clip0_997_746)">
<path d="M3.94741 4.49453H7.06916C9.92075 4.49453 11.1514 5.36862 11.1514 7.14594C11.1514 8.69016 9.89074 9.73907 7.39934 9.73907H3.97743V4.49453H3.94741ZM0.195312 21.8889H7.81958C11.8118 21.8889 15.8341 20.4904 15.8341 16.0325C15.8341 13.3811 13.913 11.3707 11.2715 11.0793V11.0211C13.4627 10.3801 14.9336 8.83584 14.9336 6.53408C14.9336 2.80463 11.6617 1.37695 8.44993 1.37695H0.195312V21.8889ZM3.94741 12.8567H7.54943C10.6111 12.8567 12.0219 13.6142 12.0219 15.7703C12.0219 18.48 9.32042 18.8005 7.39934 18.8005H3.94741V12.8567Z" fill="#83848F"/>
<path d="M18.2656 0.881836H21.8376V21.8891H18.2656V0.881836Z" fill="#83848F"/>
<path d="M27.8415 14.9255C27.8415 12.7403 29.4324 10.759 32.0439 10.759C34.6854 10.759 36.2462 12.7694 36.2462 14.9255C36.2462 17.1107 34.6553 19.092 32.0439 19.092C29.4324 19.1211 27.8415 17.1107 27.8415 14.9255ZM24.2695 14.9255C24.2695 19.296 27.7215 22.2387 32.0739 22.2387C36.3963 22.2387 39.8783 19.296 39.8783 14.9255C39.8783 10.5551 36.4263 7.6123 32.0739 7.6123C27.7215 7.64144 24.2695 10.5551 24.2695 14.9255Z" fill="#83848F"/>
<path d="M45.0708 14.9255C45.0708 12.7403 46.6617 10.759 49.2731 10.759C51.9146 10.759 53.4755 12.7694 53.4755 14.9255C53.4755 17.1107 51.8846 19.092 49.2731 19.092C46.6316 19.1211 45.0708 17.1107 45.0708 14.9255ZM41.4688 14.9255C41.4688 19.296 44.9207 22.2387 49.2731 22.2387C53.5955 22.2387 57.0775 19.296 57.0775 14.9255C57.0775 10.5551 53.6256 7.6123 49.2731 7.6123C44.9507 7.64144 41.4688 10.5551 41.4688 14.9255Z" fill="#83848F"/>
<path d="M59.2683 7.99123H62.6602V10.1765H62.7202C63.3506 8.86532 64.7314 7.6416 67.1027 7.6416C69.3239 7.6416 70.8248 8.48655 71.5752 10.2347C72.6258 8.45742 74.1566 7.6416 76.2878 7.6416C80.1 7.6416 81.4507 10.293 81.4507 13.6145V21.9184H77.8787V14.0224C77.8787 12.2743 77.3384 10.7883 75.2072 10.7883C72.956 10.7883 72.1155 12.5948 72.1155 14.3721V21.9184H68.5435V13.6145C68.5435 11.8955 67.8231 10.7592 66.0821 10.7592C63.7108 10.7592 62.8103 12.4491 62.8103 14.2847V21.8892H59.2383V7.99123H59.2683Z" fill="#83848F"/>
<path d="M96.2773 14.9255C96.2773 17.1108 94.6864 19.092 92.0749 19.092C89.4335 19.092 87.8726 17.0816 87.8726 14.9255C87.8726 12.7403 89.4635 10.7591 92.0749 10.7591C94.6864 10.7591 96.2773 12.7695 96.2773 14.9255ZM84.3906 21.8891H87.7825V19.7913H87.8426C88.8931 21.4812 90.7842 22.2388 92.7653 22.2388C97.1778 22.2388 99.8493 19.0629 99.8493 14.9255C99.8493 10.8173 96.9977 7.61233 92.9154 7.61233C90.2139 7.61233 88.8031 8.83605 88.0527 9.73927H87.9626V0.881836H84.3906V21.8891Z" fill="#83848F"/>
<path d="M105.075 13.5561C105.345 11.5457 106.666 10.2637 108.767 10.2637C111.018 10.2637 112.369 11.5457 112.399 13.5561H105.075ZM116.001 16.1493V15.1877C116.001 10.3511 113.269 7.6123 109.277 7.6123C104.955 7.6123 101.473 10.5551 101.473 14.9255C101.473 19.296 104.925 22.2387 109.277 22.2387C111.558 22.2387 113.659 21.4521 115.34 19.4417L112.759 17.5478C111.858 18.6258 110.688 19.4417 108.917 19.4417C106.906 19.4417 105.315 18.1888 105.075 16.1493H116.001Z" fill="#83848F"/>
<path d="M118.34 7.99123H121.912V10.2056H121.972C122.752 8.6031 124.343 7.6416 126.204 7.6416C126.654 7.6416 127.075 7.72901 127.495 7.84555V11.1962C126.895 11.0506 126.324 10.934 125.754 10.934C122.392 10.934 121.912 13.702 121.912 14.4304V21.8893H118.34V7.99123Z" fill="#83848F"/>
<path d="M135.541 10.7592C138.153 10.7592 139.774 12.4491 139.774 14.8383C139.774 17.1692 138.153 18.9174 135.511 18.9174C133.08 18.9174 131.309 17.0818 131.309 14.8965C131.309 12.4491 133.02 10.7592 135.541 10.7592ZM139.774 7.99123V10.0891H139.714C138.663 8.39914 136.772 7.6416 134.791 7.6416C130.379 7.6416 127.707 10.8466 127.707 14.9548C127.707 18.8882 130.559 22.0932 134.851 22.0932C136.652 22.0932 138.483 21.4231 139.534 20.0537H139.594V21.0734C139.594 23.8414 138.513 25.7352 135.061 25.7352C133.05 25.7352 131.579 25.0069 130.138 23.7249L127.977 26.5802C130.018 28.3284 132.42 28.882 135.091 28.882C140.674 28.882 143.196 25.7061 143.196 20.6655V7.99123H139.774Z" fill="#83848F"/>
</g>
<defs>
<clipPath id="clip0_997_746">
<rect width="143" height="28" fill="white" transform="translate(0.195312 0.881836)"/>
</clipPath>
</defs>
</svg>
