<svg width="111" height="39" viewBox="0 0 111 39" fill="none" xmlns="http://www.w3.org/2000/svg">
<path opacity="0.5" fill-rule="evenodd" clip-rule="evenodd" d="M-0.00390625 0.701566H7.45144C11.6012 0.701566 13.7653 2.85292 13.7653 5.50626C13.7653 7.33491 12.7427 8.57792 11.3159 9.22332V9.27113C13.1351 9.92849 14.1577 11.3747 14.1577 13.2272C14.1577 15.8686 12.1363 18.1873 7.74871 18.1873H-0.00390625V0.701566ZM7.21363 7.63371C8.45025 7.63371 9.0091 7.00026 9.0091 6.29509C9.0091 5.58992 8.45025 4.93257 7.21363 4.93257H5.02578V7.62176H7.21363V7.63371ZM7.28498 13.9563C8.59293 13.9563 9.22313 13.3229 9.22313 12.5101C9.22313 11.6974 8.56915 11.0639 7.30876 11.0639H5.02578V13.9563H7.28498ZM15.2278 11.0759V0.701566H20.3051V11.0281C20.3051 12.9762 21.2563 14.0041 22.8853 14.0041C24.5143 14.0041 25.5369 12.9762 25.5369 11.0042V0.701566H30.6379V11.0759C30.6379 15.4742 27.701 18.6415 22.8853 18.6415C18.0697 18.6415 15.2278 15.4742 15.2278 11.0759ZM43.5748 1.55016V6.0441C42.4809 5.26722 40.6141 4.72938 39.104 4.72938C37.7247 4.72938 37.035 5.17161 37.035 5.75725C37.035 6.3429 37.8079 6.6417 39.1753 7.14368C41.5059 7.96837 44.6687 9.06795 44.6687 12.785C44.6687 16.1077 42.1717 18.5698 37.796 18.5698C35.5368 18.5698 33.4679 17.9124 32.1837 17.0519V12.3189C33.4441 13.3468 35.3466 14.1714 37.1896 14.1714C38.7473 14.1714 39.4726 13.5858 39.4726 12.9284C39.4726 12.0798 38.2835 11.7093 36.8686 11.1954C35.0018 10.5141 32.0529 9.29504 32.0529 5.90068C32.041 2.84097 34.4429 0.331055 38.7235 0.331055C40.6141 0.331055 42.3144 0.821086 43.5748 1.55016ZM45.9648 0.701566H51.0421V18.1873H45.9648V0.701566ZM69.0919 18.1993H64.2524L57.9861 8.81696H57.9623V18.1993H53.1467V0.701566H57.9861L64.2524 9.92849H64.2762V0.701566H69.0919V18.1993ZM71.1965 0.701566H83.2178V5.24332H76.2737V7.34686H82.5162V11.4703H76.2737V13.6456H83.2178V18.1873H71.1965V0.701566ZM95.9525 1.55016V6.0441C94.8586 5.26722 92.9918 4.72938 91.4817 4.72938C90.1024 4.72938 89.4127 5.17161 89.4127 5.75725C89.4127 6.3429 90.1856 6.6417 91.553 7.14368C93.8836 7.96837 97.0464 9.06795 97.0464 12.785C97.0464 16.1077 94.5494 18.5698 90.1737 18.5698C87.9145 18.5698 85.8456 17.9124 84.5614 17.0519V12.3189C85.8218 13.3468 87.7243 14.1714 89.5673 14.1714C91.125 14.1714 91.8503 13.5858 91.8503 12.9284C91.8503 12.0798 90.6612 11.7093 89.2463 11.1954C87.3795 10.5141 84.4306 9.29504 84.4306 5.90068C84.4187 2.84097 86.8206 0.331055 91.1012 0.331055C92.9918 0.331055 94.6921 0.821086 95.9525 1.55016ZM109.389 1.55016V6.0441C108.295 5.26722 106.428 4.72938 104.918 4.72938C103.539 4.72938 102.849 5.17161 102.849 5.75725C102.849 6.3429 103.622 6.6417 104.989 7.14368C107.32 7.96837 110.483 9.06795 110.483 12.785C110.483 16.1077 107.986 18.5698 103.61 18.5698C101.351 18.5698 99.2819 17.9124 97.9977 17.0519V12.3189C99.2581 13.3468 101.161 14.1714 103.004 14.1714C104.561 14.1714 105.287 13.5858 105.287 12.9284C105.287 12.0798 104.098 11.7093 102.683 11.1954C100.816 10.5141 97.8669 9.29504 97.8669 5.90068C97.855 2.84097 100.257 0.331055 104.537 0.331055C106.428 0.331055 108.128 0.821086 109.389 1.55016ZM11.1375 38.2069H16.2148V20.7211H11.1375V38.2069ZM34.2645 20.7211H29.437V29.948H29.4132L23.1469 20.7211H18.3075V38.2069H23.135V28.8246H23.1588L29.4251 38.2069H34.2645V20.7211ZM42.4452 20.3387C38.1646 20.3387 35.7628 22.8486 35.7628 25.9083C35.7628 29.3026 38.7235 30.5217 40.5784 31.203C42.0053 31.7169 43.1824 32.0875 43.1824 32.936C43.1824 33.5934 42.4571 34.1791 40.8995 34.1791C39.0564 34.1791 37.1539 33.3544 35.8935 32.3265V37.0595C37.1777 37.92 39.2467 38.5774 41.5059 38.5774C45.8816 38.5774 48.3786 36.1153 48.3786 32.7926C48.3786 29.0756 45.2157 27.964 42.8852 27.1513C41.5059 26.6613 40.7449 26.3744 40.7449 25.7649C40.7449 25.1553 41.4464 24.737 42.8138 24.737C44.3239 24.737 46.1907 25.2748 47.2847 26.0517V21.5578C46.0243 20.8287 44.3239 20.3387 42.4452 20.3387ZM49.5676 38.2069H54.6449V20.7211H49.5676V38.2069ZM61.8149 33.5934H62.7899C65.4177 33.5934 67.118 32.0994 67.118 29.47C67.118 26.8405 65.4177 25.3226 62.7899 25.3226H61.8149V33.5934ZM72.2547 29.47C72.2547 34.7408 68.2952 38.2069 62.6115 38.2069H56.7376V20.7211H62.6115C68.2952 20.7211 72.2547 24.2111 72.2547 29.47ZM73.6221 38.2069H85.6434V33.6651H78.6994V31.4899H84.9419V27.3664H78.6994V25.2629H85.6434V20.7211H73.6221V38.2069ZM93.6339 28.9799C94.9181 28.9799 95.9168 28.3704 95.9168 27.1513C95.9168 25.9322 94.9181 25.3226 93.6101 25.3226H92.5399V28.9799H93.6339ZM101.945 38.2069H95.9644L92.6589 32.8046H92.5399V38.2069H87.4627V20.7211H93.6577C98.0096 20.7211 101.042 22.6693 101.042 26.8047C101.042 28.4421 100.316 30.8325 97.4269 32.0516L101.945 38.2069Z" fill="white"/>
</svg>
