<svg width="213" height="51" viewBox="0 0 213 51" fill="none" xmlns="http://www.w3.org/2000/svg">
<g clip-path="url(#clip0_997_760)">
<mask id="mask0_997_760" style="mask-type:luminance" maskUnits="userSpaceOnUse" x="0" y="0" width="213" height="51">
<path d="M0.695312 0.623047H212.695V50.623H0.695312V0.623047Z" fill="white"/>
</mask>
<g mask="url(#mask0_997_760)">
<path d="M70.388 14.3164C70.293 15.6616 69.8051 16.7211 68.9245 17.495C68.0444 18.267 66.8844 18.653 65.4443 18.653C63.8694 18.653 62.6313 18.1134 61.7298 17.0342C60.8266 15.9563 60.375 14.475 60.375 12.5905V11.8253C60.375 10.6235 60.5831 9.5643 60.9994 8.64763C61.4157 7.73215 62.0101 7.02977 62.7827 6.54049C63.5565 6.05001 64.4553 5.80507 65.479 5.80567C66.8953 5.80567 68.037 6.19227 68.904 6.96549C69.7692 7.73751 70.2698 8.82233 70.4058 10.22H67.8752C67.8128 9.41281 67.5919 8.82739 67.2124 8.4637C66.8324 8.10061 66.2546 7.91906 65.479 7.91906C64.6352 7.91906 64.0039 8.2265 63.5853 8.84138C63.166 9.45745 62.9508 10.4122 62.9395 11.7057V12.6503C62.9395 14.0015 63.1405 14.989 63.5425 15.6128C63.9452 16.2378 64.5794 16.55 65.4452 16.5494C66.2267 16.5494 66.8101 16.3679 67.1955 16.0048C67.5809 15.6405 67.8015 15.078 67.8574 14.3173L70.388 14.3164ZM83.4554 12.5128C83.4554 13.745 83.2416 14.8241 82.814 15.7503C82.3871 16.6783 81.7754 17.3941 80.9791 17.8976C80.1839 18.4012 79.2718 18.653 78.2427 18.653C77.2248 18.653 76.3163 18.4042 75.517 17.9066C74.7194 17.4077 74.101 16.6964 73.6615 15.7726C73.2227 14.8482 73.0006 13.7842 72.9952 12.5807V11.9628C72.9952 10.7319 73.2132 9.64852 73.6491 8.71281C74.0849 7.77709 74.701 7.05834 75.4974 6.55656C76.2931 6.05656 77.2026 5.80626 78.2258 5.80567C79.2495 5.80567 80.1593 6.05596 80.955 6.55656C81.7508 7.05834 82.3663 7.77709 82.8016 8.71281C83.238 9.64852 83.4563 10.7289 83.4563 11.9539L83.4554 12.5128ZM80.8918 11.9458C80.8918 10.6345 80.6614 9.6384 80.2006 8.95745C79.7392 8.2759 79.0809 7.93513 78.2258 7.93513C77.3766 7.93513 76.7213 8.27144 76.2599 8.94406C75.7984 9.61668 75.5654 10.6033 75.5606 11.9039V12.5137C75.5606 13.7905 75.791 14.7807 76.2518 15.4842C76.7127 16.189 77.3763 16.5414 78.2427 16.5414C79.0913 16.5414 79.7439 16.2021 80.2006 15.5235C80.6554 14.845 80.8858 13.8557 80.8918 12.5557V11.9458ZM89.3005 18.4816H86.7708V5.97709H89.3005V18.4816ZM102.951 18.4816H100.42L95.494 10.2548V18.4816H92.9633V5.97709H95.494L100.429 14.2217V5.97709H102.951V18.4816ZM115.48 8.06459H111.717V18.4816H109.187V8.06459H105.475V5.97709H115.48V8.06459ZM125.628 13.0628H120.77V16.4119H126.472V18.4816H118.239V5.97709H126.456V8.06459H120.77V11.0441H125.628V13.0628ZM131.804 16.4119H137.178V18.4816H129.273V5.97709H131.804V16.4119ZM147.335 13.0619H142.476V16.4119H148.178V18.4816H139.945V5.97709H148.162V8.06459H142.476V11.0441H147.335V13.0619ZM160.698 16.9012C160.242 17.4566 159.598 17.8872 158.765 18.1932C157.934 18.5003 157.012 18.6539 155.999 18.6539C154.936 18.6539 154.004 18.4176 153.202 17.945C152.401 17.4723 151.782 16.7866 151.346 15.8878C150.91 14.989 150.687 13.9327 150.675 12.7191V11.8682C150.675 10.62 150.882 9.53959 151.296 8.62709C151.709 7.714 152.305 7.01549 153.084 6.53156C153.863 6.04763 154.775 5.80567 155.822 5.80567C157.278 5.80567 158.417 6.15924 159.238 6.86638C160.06 7.57352 160.546 8.60269 160.698 9.95388H158.234C158.122 9.23781 157.873 8.714 157.488 8.38245C157.103 8.05031 156.573 7.88424 155.898 7.88424C155.037 7.88424 154.381 8.2134 153.931 8.87174C153.482 9.53007 153.255 10.5092 153.249 11.8092V12.6075C153.249 13.9188 153.493 14.9092 153.982 15.5789C154.472 16.2485 155.189 16.5833 156.134 16.5833C157.084 16.5833 157.762 16.3774 158.167 15.9655V13.8101H155.864V11.9119H160.698V16.9012ZM168.611 13.9048H166.595V18.4816H164.063V5.97709H168.628C170.079 5.97709 171.198 6.30656 171.985 6.96549C172.772 7.62322 173.166 8.55328 173.166 9.75567C173.166 10.6092 172.985 11.3205 172.622 11.8896C172.259 12.4598 171.709 12.9137 170.973 13.2512L173.63 18.361V18.4816H170.913L168.611 13.9048ZM166.595 11.8173H168.636C169.271 11.8173 169.763 11.6527 170.113 11.3235C170.461 10.9938 170.635 10.5399 170.635 9.96192C170.635 9.37263 170.471 8.90894 170.142 8.57084C169.812 8.23334 169.308 8.06459 168.628 8.06459H166.594L166.595 11.8173ZM183.34 15.9048H178.903L178.06 18.4816H175.368L179.941 5.97709H182.286L186.883 18.4816H184.193L183.34 15.9048ZM179.587 13.8191H182.657L181.113 9.13692L179.587 13.8191ZM191.877 14.0762V18.4816H189.347V5.97709H194.138C195.061 5.97709 195.872 6.14912 196.572 6.49317C197.272 6.83602 197.811 7.32412 198.187 7.95745C198.565 8.58959 198.753 9.30953 198.753 10.1173C198.753 11.3423 198.341 12.308 197.518 13.0146C196.693 13.7229 195.552 14.0768 194.096 14.0762H191.877ZM191.877 11.9887H194.138C194.808 11.9887 195.318 11.8286 195.669 11.5083C196.021 11.1869 196.197 10.7289 196.197 10.1342C196.197 9.52114 196.02 9.02561 195.666 8.64763C195.311 8.27084 194.822 8.0765 194.198 8.06459H191.877V11.9887ZM211.804 18.4816H209.273V13.1226H204.338V18.4816H201.807V5.97709H204.338V11.0441H209.273V5.97709H211.804V18.4816Z" fill="#8F919A"/>
<path d="M67.1823 29.5177H64.5064V36.9132H63.0278V29.5177H60.376V28.3132H67.1823V29.5177ZM70.063 31.2195C70.2784 30.9585 70.5499 30.7496 70.8571 30.6084C71.1644 30.4673 71.4994 30.3975 71.8373 30.4043C73.1972 30.4043 73.8861 31.182 73.9039 32.7373V36.9132H72.4733V32.7909C72.4733 32.3498 72.3783 32.0376 72.1883 31.8543C71.9965 31.6716 71.7162 31.5802 71.3474 31.5802C70.7738 31.5802 70.3456 31.8358 70.063 32.3472V36.9132H68.6306V27.8409H70.063V31.2195ZM78.6427 37.0311C77.7353 37.0311 76.9996 36.7448 76.4354 36.1722C75.8719 35.5989 75.5901 34.8361 75.5901 33.8838V33.7061C75.5901 33.068 75.713 32.498 75.9589 31.9963C76.1858 31.5154 76.5441 31.1089 76.9921 30.8239C77.4369 30.5439 77.9527 30.3983 78.4779 30.4043C79.3455 30.4043 80.0163 30.6817 80.4902 31.2364C80.9628 31.7924 81.1995 32.5781 81.2001 33.5936V34.173H77.0331C77.0771 34.7004 77.2531 35.1177 77.5613 35.4248C77.8695 35.732 78.2573 35.8855 78.7247 35.8855C79.3809 35.8855 79.9153 35.6195 80.328 35.0873L81.1003 35.8266C80.8441 36.209 80.4908 36.516 80.0768 36.7159C79.6295 36.9307 79.1386 37.0386 78.6427 37.0311ZM78.4717 31.5552C78.0786 31.5552 77.7615 31.6933 77.5204 31.9695C77.2787 32.2445 77.1243 32.6284 77.0572 33.1213H79.7847V33.0141C79.7544 32.5344 79.627 32.1713 79.4025 31.9248C79.1781 31.6784 78.8678 31.5552 78.4717 31.5552ZM86.7851 36.9132V31.5855H85.8124V30.5222H86.7851V29.9373C86.7851 29.2284 86.9817 28.6811 87.3748 28.2954C87.7673 27.9097 88.3172 27.7168 89.0245 27.7168C89.2763 27.7168 89.5435 27.7522 89.8262 27.823L89.7905 28.9454C89.61 28.9108 89.4265 28.8949 89.2427 28.898C88.5592 28.898 88.2178 29.2504 88.2184 29.9552V30.5222H89.5126V31.5855H88.2175V36.9132H86.7851ZM94.9053 36.2882C94.4848 36.7835 93.8874 37.0311 93.1131 37.0311C92.4212 37.0311 91.8981 36.8284 91.5435 36.423C91.1878 36.0183 91.01 35.4314 91.01 34.6623V30.5222H92.4423V34.6445C92.4423 35.4564 92.7781 35.8623 93.4498 35.8623C94.1451 35.8623 94.6143 35.6123 94.8572 35.1123V30.5222H96.2895V36.9132H94.94L94.9053 36.2882ZM100.025 28.9686V30.5222H101.151V31.5855H100.025V35.1525C100.025 35.3972 100.073 35.5736 100.17 35.682C100.266 35.7891 100.438 35.843 100.685 35.8436C100.851 35.8436 101.018 35.8239 101.186 35.7847V36.8954C100.88 36.9838 100.562 37.0293 100.244 37.0311C99.1438 37.0311 98.5939 36.4228 98.5939 35.2061V31.5855H97.5446V30.5222H98.593V28.9695L100.025 28.9686ZM106.589 36.2882C106.169 36.7847 105.572 37.0326 104.798 37.032C104.106 37.032 103.583 36.8293 103.228 36.4239C102.871 36.0192 102.693 35.4323 102.694 34.6632V30.523H104.126V34.6454C104.126 35.4573 104.462 35.8632 105.134 35.8632C105.829 35.8632 106.298 35.6132 106.542 35.1132V30.523H107.974V36.9141H106.625L106.589 36.2882ZM113.254 31.8347C113.061 31.8029 112.866 31.787 112.671 31.7873C112.014 31.7873 111.572 32.0394 111.344 32.5436V36.9141H109.913V30.523H111.28L111.315 31.2373C111.661 30.6826 112.14 30.4052 112.752 30.4052C112.957 30.4052 113.126 30.4326 113.259 30.4873L113.254 31.8347ZM117.337 37.032C116.429 37.032 115.693 36.7457 115.13 36.173C114.567 35.5998 114.285 34.837 114.285 33.8847V33.707C114.285 33.0689 114.407 32.4989 114.652 31.9972C114.88 31.5162 115.238 31.1097 115.687 30.8248C116.131 30.545 116.647 30.3993 117.171 30.4052C118.04 30.4052 118.711 30.6826 119.184 31.2373C119.657 31.7933 119.894 32.579 119.895 33.5945V34.1739H115.728C115.772 34.7013 115.948 35.1186 116.256 35.4257C116.564 35.7329 116.952 35.8864 117.419 35.8864C118.075 35.8864 118.61 35.6204 119.022 35.0882L119.795 35.8275C119.539 36.2099 119.185 36.5169 118.771 36.7168C118.324 36.9316 117.833 37.0395 117.337 37.032ZM117.166 31.5561C116.773 31.5561 116.456 31.6942 116.215 31.9704C115.973 32.2454 115.819 32.6293 115.752 33.1222H118.479V33.015C118.448 32.5352 118.321 32.1722 118.097 31.9257C117.873 31.6799 117.562 31.5567 117.166 31.5561ZM124.707 33.6588C124.707 33.0326 124.831 32.4686 125.079 31.9668C125.306 31.4868 125.669 31.0841 126.122 30.8088C126.57 30.5391 127.084 30.4043 127.666 30.4043C128.526 30.4043 129.224 30.6817 129.761 31.2364C130.297 31.7924 130.587 32.529 130.63 33.4463L130.636 33.7829C130.636 34.4126 130.515 34.9757 130.274 35.4722C130.049 35.9503 129.688 36.3511 129.236 36.6239C128.786 36.8954 128.267 37.0311 127.678 37.0311C126.778 37.0311 126.058 36.7311 125.518 36.1311C124.977 35.5299 124.707 34.7293 124.707 33.7293V33.6588ZM126.14 33.7829C126.14 34.4406 126.275 34.9555 126.547 35.3275C126.817 35.6995 127.194 35.8855 127.678 35.8855C128.161 35.8855 128.537 35.6963 128.806 35.3177C129.075 34.9409 129.21 34.3879 129.209 33.6588C129.209 33.0135 129.071 32.5016 128.794 32.123C128.517 31.7445 128.141 31.5555 127.665 31.5561C127.199 31.5561 126.828 31.7421 126.552 32.1141C126.277 32.4861 126.139 33.0424 126.14 33.7829ZM132.835 36.9132V31.5855H131.862V30.5222H132.835V29.9373C132.835 29.2284 133.031 28.6811 133.423 28.2954C133.816 27.9097 134.366 27.7168 135.073 27.7168C135.325 27.7168 135.592 27.7522 135.875 27.823L135.839 28.9454C135.659 28.9108 135.476 28.895 135.292 28.898C134.608 28.898 134.266 29.2504 134.266 29.9552V30.5222H135.562V31.5855H134.266V36.9132H132.835ZM141.926 30.5222L141.967 31.19C142.414 30.6662 143.027 30.4043 143.805 30.4043C144.657 30.4043 145.241 30.7314 145.555 31.3855C146.019 30.7308 146.671 30.4037 147.512 30.4043C148.215 30.4043 148.738 30.5992 149.082 30.9891C149.426 31.3784 149.602 31.9531 149.61 32.7132V36.9132H148.178V32.7552C148.178 32.3492 148.089 32.0519 147.912 31.8632C147.735 31.6739 147.443 31.5793 147.035 31.5793C146.709 31.5793 146.443 31.6671 146.236 31.8427C146.027 32.023 145.875 32.2623 145.803 32.5302L145.809 36.9141H144.377V32.7079C144.357 31.9555 143.974 31.5793 143.228 31.5793C142.654 31.5793 142.247 31.8138 142.008 32.2829V36.9132H140.576V30.5222H141.926ZM151.295 33.6597C151.295 33.0329 151.418 32.4686 151.665 31.9668C151.893 31.487 152.256 31.0844 152.709 30.8088C153.156 30.5391 153.671 30.4043 154.253 30.4043C155.114 30.4043 155.812 30.6817 156.347 31.2364C156.884 31.7924 157.174 32.529 157.216 33.4463L157.223 33.7829C157.223 34.4126 157.102 34.9757 156.861 35.4722C156.636 35.9504 156.274 36.3512 155.822 36.6239C155.373 36.8954 154.853 37.0311 154.264 37.0311C153.365 37.0311 152.645 36.7311 152.105 36.1311C151.565 35.5299 151.295 34.7293 151.295 33.7293V33.6597ZM152.727 33.7829C152.727 34.4406 152.862 34.9555 153.133 35.3275C153.404 35.6995 153.782 35.8855 154.264 35.8855C154.747 35.8855 155.123 35.6963 155.393 35.3177C155.662 34.9409 155.796 34.3879 155.796 33.6588C155.796 33.0135 155.658 32.5016 155.381 32.123C155.104 31.7445 154.728 31.5555 154.253 31.5561C153.785 31.5561 153.413 31.7421 153.138 32.1141C152.864 32.4861 152.726 33.0424 152.727 33.7829ZM160.245 30.5222L160.286 31.2605C160.758 30.6891 161.377 30.4037 162.142 30.4043C163.47 30.4043 164.146 31.1662 164.17 32.69V36.9132H162.738V32.773C162.738 32.3677 162.651 32.0674 162.475 31.8722C162.301 31.6769 162.015 31.5793 161.618 31.5793C161.04 31.5793 160.61 31.8412 160.328 32.365V36.9132H158.895V30.5222H160.245ZM168.918 37.0311C168.011 37.0311 167.276 36.7448 166.713 36.1722C166.149 35.5989 165.866 34.8361 165.866 33.8838V33.7061C165.866 33.068 165.989 32.498 166.234 31.9963C166.462 31.5152 166.821 31.1087 167.269 30.8239C167.714 30.5443 168.229 30.3986 168.753 30.4043C169.622 30.4043 170.293 30.6817 170.767 31.2364C171.24 31.7924 171.476 32.5781 171.476 33.5936V34.173H167.31C167.353 34.7004 167.529 35.1177 167.837 35.4248C168.146 35.732 168.534 35.8855 169.001 35.8855C169.657 35.8855 170.191 35.6195 170.604 35.0873L171.377 35.8266C171.121 36.2089 170.768 36.5159 170.354 36.7159C169.906 36.931 169.415 37.0389 168.918 37.0311ZM168.748 31.5552C168.356 31.5552 168.038 31.6933 167.796 31.9695C167.555 32.2445 167.401 32.6284 167.334 33.1213H170.062V33.0141C170.03 32.5344 169.903 32.1713 169.679 31.9248C169.455 31.6784 169.145 31.5552 168.748 31.5552ZM175.224 34.8579L176.52 30.5222H178.046L175.512 37.882C175.123 38.957 174.463 39.4945 173.532 39.4945C173.299 39.4905 173.067 39.4547 172.843 39.3882V38.2775L173.115 38.2954C173.476 38.2954 173.747 38.2296 173.93 38.098C174.112 37.9653 174.257 37.7439 174.363 37.4338L174.569 36.8838L172.331 30.5222H173.874L175.224 34.8579ZM31.943 37.0052L22.9589 40.8757V40.4882C21.2264 40.9275 19.3077 41.1811 17.4896 41.2623C9.0417 41.1811 2.33609 36.7998 2.2577 31.5864V29.6498C5.0324 33.648 10.6816 36.3266 17.4896 36.2302C19.794 36.3266 22.1501 35.9659 24.1302 35.4561L24.9114 33.5204C22.5634 34.215 19.9998 34.698 17.4905 34.6811C9.0417 34.698 2.33609 30.3168 2.25859 25.0061V23.4579C5.0324 27.1543 10.6691 29.8329 17.4905 29.6507C20.5592 29.8338 23.5601 29.1936 26.0828 28.1016L26.4747 26.1668C24.0091 27.4552 20.8139 28.2034 17.4905 28.1016C9.0417 28.2034 2.33609 23.8222 2.25859 18.4266V16.8775C5.0324 20.6597 10.6816 23.3391 17.4905 23.4579C21.36 23.3391 25.029 22.3257 28.0371 20.748L28.4272 18.4257C25.6979 20.4302 21.7127 21.7222 17.4905 21.9088C9.0417 21.7222 2.33698 17.34 2.25859 11.8463C2.33609 6.62126 9.0417 2.23912 17.4905 2.17037C22.5269 2.24001 27.2042 3.99001 29.9896 6.81501L30.2613 7.26233L32.2299 7.27126L31.943 6.81501C29.1728 3.08555 23.6323 0.623047 17.4905 0.623047C8.14203 0.623047 0.695312 5.7284 0.695312 11.8472V31.973C1.024 37.9463 8.30059 42.8097 17.4905 42.8097C23.5601 42.8097 29.0151 40.4436 31.943 37.0052Z" fill="#83848F"/>
<path d="M28.2874 50.623L31.4406 37.3418L22.3754 41.248L27.8945 18.2016H17.25L20.0087 6.87305H53.91L51.1504 18.2016H40.1139L37.7481 24.4516L49.9675 19.373L28.2874 50.623ZM33.8065 34.607L32.2298 42.4195L45.2376 22.8891L34.5939 27.5766L39.3247 16.6391H49.9675L51.9387 8.43555H21.1907L19.2195 16.6391H29.864L24.7386 38.5141L33.8056 34.6088L33.8065 34.607Z" fill="#8F919A"/>
<path d="M86.7628 36.9268H88.1826V31.575H89.4974V30.534H88.1826V29.9197C88.1826 29.6953 88.2218 29.5063 88.3002 29.3527C88.3784 29.2021 88.5022 29.0802 88.6538 29.0045C88.8112 28.9212 88.998 28.8795 89.2141 28.8795C89.321 28.8795 89.419 28.8837 89.5081 28.892C89.6031 28.8997 89.6898 28.9134 89.7682 28.9331L89.8038 27.8349C89.6723 27.7991 89.5383 27.7734 89.403 27.7581C89.2644 27.7373 89.1244 27.7274 88.9843 27.7286C88.5282 27.7286 88.1333 27.8131 87.7996 27.9822C87.4716 28.1415 87.2015 28.3997 87.0273 28.7206C86.8509 29.0438 86.7628 29.4435 86.7628 29.9197V30.534H85.7838V31.5741H86.7628V36.9268ZM70.0682 31.2688V27.8536H68.6546V36.9268H70.0682V32.3643C70.1104 32.2834 70.1579 32.2072 70.2107 32.1358C70.3402 31.959 70.5011 31.8191 70.6935 31.7161C70.8895 31.6143 71.1151 31.5634 71.3705 31.5634C71.6146 31.5634 71.8209 31.6048 71.9896 31.6875C72.1588 31.7661 72.2865 31.8959 72.3726 32.0768C72.4635 32.2584 72.5089 32.5024 72.5089 32.809V36.9268H73.9341V32.8215C73.9341 32.384 73.8851 32.0137 73.7871 31.7108C73.7098 31.4322 73.5661 31.1767 73.3685 30.9661C73.1866 30.7739 72.9602 30.6298 72.7093 30.5465C72.4355 30.4561 72.1486 30.4124 71.8604 30.417C71.5165 30.4119 71.1761 30.486 70.8654 30.6337C70.5546 30.7814 70.2819 30.9987 70.0682 31.2688ZM64.5117 36.9268V29.5072H67.2053V28.3259H60.375V29.5072H63.0446V36.9268H64.5117Z" fill="#83848F"/>
<path fill-rule="evenodd" clip-rule="evenodd" d="M78.655 37.0448C78.2178 37.0516 77.7834 36.9733 77.3759 36.8144C77.0121 36.6651 76.6831 36.442 76.4094 36.1591C76.1437 35.8738 75.9372 35.5384 75.8019 35.1725C75.6587 34.7808 75.5869 34.3664 75.5899 33.9493V33.7136C75.5899 33.2136 75.6627 32.7606 75.8082 32.3546C75.9531 31.9493 76.1553 31.6028 76.4148 31.3153C76.668 31.0271 76.982 30.799 77.334 30.6475C77.697 30.4918 78.0883 30.4133 78.4831 30.4171C78.9392 30.4171 79.3382 30.4939 79.6803 30.6475C80.0211 30.8011 80.3038 31.0177 80.5283 31.2975C80.7563 31.5731 80.9256 31.9019 81.036 32.2841C81.1488 32.6662 81.2056 33.0877 81.2062 33.5484V34.1564H77.0232C77.0374 34.3582 77.0724 34.5493 77.1283 34.7296C77.2067 34.9659 77.3204 35.1728 77.4694 35.3502C77.6191 35.5269 77.8002 35.6668 78.0128 35.7698C78.2242 35.868 78.4656 35.9171 78.737 35.9171C79.079 35.9171 79.3837 35.8481 79.6509 35.71C79.9181 35.5719 80.1497 35.3769 80.3457 35.1252L81.0939 35.8519C80.9419 36.0681 80.7615 36.2627 80.5577 36.4305C80.338 36.6121 80.069 36.7597 79.7507 36.8734C79.3981 36.9939 79.0274 37.0519 78.655 37.0448ZM77.1105 32.8216C77.0865 32.9248 77.0672 33.0291 77.0526 33.1341H79.8032V33.0225C79.7982 32.7748 79.7465 32.5303 79.6509 32.3019C79.5662 32.084 79.4209 31.895 79.2322 31.7573C79.0434 31.6204 78.7919 31.5519 78.4778 31.5519C78.242 31.5519 78.0318 31.6028 77.8471 31.7046C77.6616 31.8073 77.5052 31.9558 77.3928 32.1359C77.2626 32.3478 77.1673 32.5793 77.1105 32.8216Z" fill="#83848F"/>
<path d="M94.1808 36.8268C94.4517 36.6965 94.6908 36.5082 94.881 36.275L94.9175 36.9268H96.2607V30.5348H94.8346V35.1223C94.7353 35.3392 94.5781 35.5242 94.3803 35.6571C94.1488 35.8143 93.8307 35.8929 93.4263 35.8929C93.2905 35.8938 93.1554 35.8739 93.0255 35.8339C92.9007 35.795 92.7872 35.726 92.695 35.633C92.5937 35.5272 92.5173 35.4 92.4715 35.2607C92.4116 35.0717 92.3837 34.8741 92.3886 34.6759V30.5348H90.9688V34.6643C90.9688 35.0857 91.0198 35.4482 91.122 35.7518C91.2241 36.0554 91.3675 36.3012 91.5522 36.4893C91.7404 36.6786 91.9643 36.8185 92.2238 36.9089C92.4833 36.9994 92.7681 37.0446 93.0781 37.0446C93.5062 37.0446 93.8738 36.972 94.1808 36.8268ZM101.11 31.575V30.5339H99.9725V28.9688H98.5526V30.5339H97.5149V31.5741H98.5526V35.2482C98.5526 35.6857 98.6233 36.0363 98.7646 36.3C98.906 36.5643 99.1025 36.7551 99.3543 36.8723C99.6055 36.9866 99.8941 37.0438 100.22 37.0438C100.421 37.0438 100.598 37.0301 100.751 37.0027C100.908 36.9753 101.045 36.9438 101.163 36.908L101.157 35.8214C100.992 35.855 100.825 35.873 100.657 35.875C100.519 35.875 100.399 35.8571 100.297 35.8214C100.194 35.7845 100.108 35.7107 100.055 35.6143C100 35.5083 99.9725 35.3565 99.9725 35.1589V31.5741L101.11 31.575ZM105.86 36.8268C106.139 36.6899 106.372 36.506 106.561 36.275L106.596 36.9268H107.94V30.5348H106.514V35.1223C106.414 35.3389 106.257 35.5239 106.06 35.6571C105.828 35.8143 105.51 35.8929 105.105 35.8929C104.964 35.8929 104.83 35.8732 104.704 35.8339C104.58 35.7949 104.467 35.7259 104.375 35.633C104.273 35.5273 104.196 35.4001 104.15 35.2607C104.091 35.0717 104.063 34.874 104.068 34.6759V30.5348H102.647V34.6643C102.647 35.0857 102.699 35.4482 102.801 35.7518C102.903 36.0554 103.046 36.3012 103.231 36.4893C103.42 36.6786 103.644 36.8185 103.903 36.9089C104.162 36.9994 104.447 37.0446 104.758 37.0446C105.186 37.0446 105.553 36.972 105.86 36.8268ZM111.292 32.558V36.9268H109.872V30.5348H111.228L111.268 31.2857L111.292 31.2437C111.454 30.9842 111.654 30.7815 111.894 30.6357C112.137 30.4899 112.418 30.417 112.736 30.417C112.823 30.417 112.915 30.4247 113.013 30.4402C113.115 30.4563 113.192 30.4741 113.243 30.4938L113.231 31.817C113.041 31.786 112.848 31.7702 112.654 31.7696C112.411 31.7696 112.197 31.8054 112.012 31.8768C111.851 31.9331 111.704 32.023 111.58 32.1404C111.455 32.2578 111.358 32.4001 111.292 32.558Z" fill="#83848F"/>
<path fill-rule="evenodd" clip-rule="evenodd" d="M117.3 37.0441C116.828 37.0441 116.402 36.9673 116.02 36.8137C115.657 36.6644 115.328 36.4413 115.054 36.1584C114.788 35.8731 114.582 35.5377 114.446 35.1718C114.303 34.7801 114.231 34.3657 114.234 33.9486V33.7128C114.234 33.2128 114.307 32.7599 114.453 32.3539C114.598 31.9486 114.8 31.6021 115.059 31.3146C115.313 31.0263 115.627 30.7982 115.979 30.6468C116.342 30.491 116.734 30.4126 117.129 30.4164C117.584 30.4164 117.983 30.4932 118.325 30.6468C118.667 30.8003 118.95 31.017 119.174 31.2968C119.401 31.5724 119.57 31.9012 119.68 32.2834C119.794 32.6655 119.851 33.087 119.851 33.5477V34.1557H115.668C115.682 34.3575 115.717 34.5486 115.773 34.7289C115.851 34.9652 115.965 35.1721 116.115 35.3495C116.263 35.5262 116.444 35.6661 116.656 35.7691C116.869 35.8673 117.111 35.9164 117.382 35.9164C117.698 35.9225 118.012 35.8514 118.295 35.7093C118.563 35.5712 118.794 35.3762 118.99 35.1245L119.739 35.8512C119.587 36.0673 119.407 36.2619 119.203 36.4298C118.961 36.6232 118.688 36.773 118.395 36.8727C118.043 36.9932 117.672 37.0512 117.3 37.0441ZM115.755 32.8209C115.731 32.9241 115.712 33.0284 115.697 33.1334H118.449V33.0218C118.443 32.7741 118.391 32.5296 118.295 32.3012C118.211 32.0833 118.065 31.8943 117.877 31.7566C117.688 31.6197 117.436 31.5512 117.122 31.5512C116.887 31.5512 116.676 31.6021 116.492 31.7039C116.311 31.8027 116.159 31.9465 116.038 32.1352C115.906 32.3463 115.811 32.5781 115.755 32.8209ZM124.635 33.6655V33.8012C124.635 34.262 124.702 34.6893 124.835 35.0834C124.969 35.4762 125.163 35.8209 125.419 36.1173C125.674 36.409 125.984 36.6373 126.35 36.8021C126.72 36.9634 127.138 37.0441 127.606 37.0441C128.069 37.0441 128.483 36.9637 128.849 36.803C129.214 36.637 129.525 36.4084 129.78 36.1173C130.04 35.8145 130.239 35.4632 130.363 35.0834C130.497 34.6893 130.564 34.262 130.564 33.8012V33.6655C130.564 33.2048 130.497 32.7774 130.363 32.3834C130.24 32.0031 130.041 31.6515 129.78 31.3495C129.523 31.0529 129.203 30.8188 128.843 30.6646C128.449 30.494 128.023 30.4094 127.593 30.4164C127.13 30.4164 126.714 30.4992 126.344 30.6646C125.979 30.8259 125.669 31.0542 125.413 31.3495C125.154 31.6528 124.958 32.0041 124.835 32.3834C124.702 32.7774 124.635 33.2048 124.635 33.6655ZM126.056 33.8012V33.6655C126.056 33.3816 126.085 33.1137 126.144 32.862C126.197 32.6215 126.29 32.3919 126.421 32.1834C126.547 31.9864 126.706 31.8325 126.898 31.7218C127.094 31.6075 127.326 31.5503 127.593 31.5503C127.86 31.5503 128.09 31.6075 128.283 31.7218C128.48 31.8325 128.641 31.9861 128.766 32.1825C128.896 32.3789 128.99 32.6054 129.05 32.862C129.112 33.1137 129.143 33.3816 129.143 33.6655V33.8012C129.143 34.0887 129.112 34.3605 129.05 34.6164C128.99 34.8724 128.898 35.0968 128.773 35.2896C128.651 35.4788 128.485 35.6352 128.289 35.745C128.08 35.8602 127.844 35.9172 127.606 35.9102C127.334 35.9102 127.1 35.8551 126.904 35.745C126.708 35.6351 126.542 35.4787 126.421 35.2896C126.289 35.0836 126.195 34.8556 126.144 34.6164C126.083 34.349 126.054 34.0755 126.056 33.8012Z" fill="#83848F"/>
<path d="M134.145 36.9267H132.724V31.5749H131.746V30.5339H132.724V29.9196C132.724 29.4434 132.813 29.0437 132.99 28.7205C133.171 28.3931 133.428 28.147 133.762 27.9821C134.096 27.8124 134.491 27.7279 134.947 27.7285C135.087 27.7285 135.227 27.7383 135.364 27.758C135.503 27.7735 135.636 27.7991 135.765 27.8348L135.73 28.933C135.645 28.9129 135.558 28.8992 135.47 28.8919C135.373 28.884 135.274 28.8801 135.176 28.8803C134.96 28.8803 134.773 28.9217 134.616 29.0044C134.465 29.0811 134.342 29.2027 134.262 29.3526C134.18 29.5298 134.139 29.724 134.145 29.9196V30.5339H135.459V31.5741H134.145V36.9267ZM141.858 32.3321V36.9267H140.437V30.5348H141.775L141.821 31.2553C142.028 30.9934 142.282 30.791 142.582 30.6482C142.901 30.4934 143.269 30.4163 143.685 30.4169C143.976 30.4169 144.241 30.4604 144.48 30.5473C144.724 30.6294 144.934 30.7613 145.111 30.9428C145.242 31.0738 145.35 31.2324 145.436 31.4187C145.474 31.3651 145.512 31.3127 145.553 31.2616C145.765 30.9979 146.027 30.791 146.337 30.641C146.671 30.4854 147.036 30.4087 147.404 30.4169C147.73 30.4169 148.021 30.4621 148.276 30.5526C148.535 30.6395 148.755 30.7773 148.936 30.966C149.116 31.1547 149.254 31.4008 149.348 31.7044C149.443 32.0038 149.49 32.3663 149.49 32.7919V36.9267H148.064V32.7857C148.064 32.4624 148.017 32.2124 147.922 32.0357C147.843 31.8688 147.704 31.738 147.533 31.6696C147.364 31.5982 147.162 31.5624 146.926 31.5624C146.706 31.5624 146.512 31.6041 146.343 31.6874C146.179 31.7652 146.036 31.8805 145.924 32.0241C145.811 32.1674 145.724 32.3301 145.668 32.5044C145.67 32.558 145.67 32.6124 145.67 32.6678V36.9267H144.251V32.7928C144.251 32.4815 144.203 32.2374 144.109 32.0607C144.027 31.8911 143.887 31.7568 143.714 31.6821C143.523 31.5987 143.315 31.5585 143.107 31.5642C142.84 31.5642 142.612 31.6154 142.424 31.7178C142.241 31.8191 142.085 31.963 141.969 32.1374C141.928 32.1994 141.891 32.2642 141.858 32.3321Z" fill="#83848F"/>
<path fill-rule="evenodd" clip-rule="evenodd" d="M151.153 33.8012V33.6655C151.153 33.2048 151.219 32.7774 151.353 32.3834C151.487 31.9864 151.679 31.6417 151.93 31.3495C152.185 31.0537 152.503 30.8196 152.861 30.6646C153.255 30.494 153.681 30.4094 154.111 30.4164C154.578 30.4164 154.995 30.4992 155.36 30.6646C155.729 30.8259 156.042 31.0542 156.298 31.3495C156.553 31.6411 156.747 31.9858 156.881 32.3834C157.015 32.7774 157.081 33.2048 157.081 33.6655V33.8012C157.081 34.262 157.015 34.6893 156.881 35.0834C156.747 35.4762 156.552 35.8209 156.298 36.1173C156.041 36.411 155.723 36.6447 155.366 36.8021C155.001 36.9634 154.586 37.0441 154.122 37.0441C153.692 37.0515 153.265 36.9694 152.867 36.803C152.511 36.6452 152.193 36.4112 151.936 36.1173C151.676 35.8145 151.478 35.4632 151.353 35.0834C151.216 34.6701 151.148 34.2368 151.153 33.8012ZM152.572 33.6655V33.8012C152.572 34.0887 152.602 34.3605 152.661 34.6164C152.72 34.8724 152.812 35.0968 152.938 35.2896C153.063 35.4831 153.224 35.6349 153.421 35.745C153.617 35.8551 153.851 35.9102 154.122 35.9102C154.386 35.9102 154.614 35.8551 154.806 35.745C155.002 35.6351 155.168 35.4787 155.289 35.2896C155.421 35.0836 155.515 34.8556 155.566 34.6164C155.629 34.3605 155.661 34.0887 155.661 33.8012V33.6655C155.661 33.3816 155.629 33.1137 155.566 32.862C155.514 32.6206 155.418 32.3907 155.284 32.1834C155.164 31.991 154.998 31.8321 154.8 31.7218C154.59 31.6033 154.352 31.5441 154.111 31.5503C153.844 31.5503 153.612 31.6075 153.415 31.7218C153.221 31.8339 153.057 31.9921 152.938 32.1825C152.812 32.3789 152.72 32.6054 152.661 32.862C152.601 33.1256 152.571 33.3952 152.572 33.6655Z" fill="#83848F"/>
<path d="M160.151 32.3851V36.9271H158.73V30.5351H160.068L160.115 31.3056L160.145 31.2681C160.362 31.0014 160.636 30.7871 160.947 30.6413C161.271 30.4888 161.625 30.4121 161.984 30.4172C162.29 30.4172 162.567 30.4607 162.815 30.5476C163.066 30.6297 163.28 30.7654 163.457 30.9547C163.638 31.144 163.776 31.3901 163.87 31.6931C163.964 31.9925 164.011 32.3607 164.011 32.7976V36.9271H162.585V32.7931C162.585 32.486 162.54 32.2437 162.449 32.0663C162.373 31.8954 162.237 31.7587 162.066 31.6824C161.871 31.5973 161.66 31.557 161.447 31.5646C161.204 31.5646 160.986 31.6157 160.793 31.7181C160.602 31.8201 160.435 31.9634 160.304 32.1378C160.247 32.2151 160.196 32.2976 160.151 32.3851Z" fill="#83848F"/>
<path fill-rule="evenodd" clip-rule="evenodd" d="M168.74 37.0448C168.303 37.0514 167.869 36.9732 167.462 36.8144C167.098 36.6651 166.769 36.442 166.495 36.1591C166.23 35.8738 166.023 35.5384 165.888 35.1725C165.745 34.7808 165.673 34.3664 165.676 33.9493V33.7136C165.676 33.2136 165.749 32.7606 165.894 32.3546C166.039 31.9493 166.241 31.6028 166.501 31.3153C166.754 31.0271 167.068 30.799 167.42 30.6475C167.783 30.4918 168.174 30.4133 168.569 30.4171C169.025 30.4171 169.424 30.4939 169.766 30.6475C170.108 30.8011 170.39 31.0177 170.614 31.2975C170.842 31.5731 171.011 31.9019 171.121 32.2841C171.235 32.6662 171.292 33.0877 171.292 33.5484V34.1564H167.109C167.123 34.3582 167.158 34.5493 167.214 34.7296C167.293 34.9659 167.406 35.1728 167.555 35.3502C167.705 35.5269 167.886 35.6668 168.098 35.7698C168.31 35.868 168.552 35.9171 168.823 35.9171C169.164 35.9171 169.469 35.8481 169.736 35.71C170.003 35.5719 170.235 35.3769 170.432 35.1252L171.18 35.8519C171.028 36.0681 170.847 36.2627 170.644 36.4305C170.402 36.6238 170.129 36.7736 169.837 36.8734C169.484 36.994 169.113 37.052 168.74 37.0448ZM167.196 32.8216C167.172 32.9248 167.153 33.0291 167.138 33.1341H169.889V33.0225C169.884 32.7748 169.832 32.5303 169.736 32.3019C169.651 32.0841 169.506 31.8951 169.318 31.7573C169.129 31.6204 168.878 31.5519 168.564 31.5519C168.327 31.5519 168.117 31.6028 167.933 31.7046C167.752 31.8034 167.601 31.9472 167.479 32.1359C167.349 32.3478 167.253 32.5793 167.196 32.8216Z" fill="#83848F"/>
<path d="M174.387 36.9102L172.129 30.5352H173.661L175.043 34.9012L176.372 30.5352H177.892L175.335 37.9012C175.267 38.0763 175.19 38.2476 175.105 38.4146C175.006 38.6067 174.881 38.784 174.733 38.9414C174.584 39.1105 174.397 39.2462 174.174 39.3486C173.95 39.4545 173.679 39.5075 173.361 39.5075C173.235 39.5075 173.113 39.4956 172.995 39.4718C172.886 39.4532 172.778 39.4318 172.67 39.4075L172.665 38.32C172.759 38.3284 172.853 38.3344 172.948 38.3378C173.148 38.3436 173.347 38.3137 173.537 38.2494C173.689 38.1993 173.822 38.1047 173.92 37.978C174.022 37.8518 174.109 37.6822 174.179 37.4691L174.387 36.9102Z" fill="#83848F"/>
</g>
</g>
<defs>
<clipPath id="clip0_997_760">
<rect width="212" height="50" fill="white" transform="translate(0.695312 0.623047)"/>
</clipPath>
</defs>
</svg>
