<svg width="209" height="37" viewBox="0 0 209 37" fill="none" xmlns="http://www.w3.org/2000/svg">
<g opacity="0.5" clip-path="url(#clip0_941_364)">
<path d="M54.7766 13.0469C55.9377 13.0469 57.0053 13.312 57.9883 13.8464C58.9715 14.3809 59.75 15.1058 60.3238 16.0214C60.8977 16.9369 61.1823 17.9352 61.1823 19.0123C61.1823 19.6586 61.0756 20.2883 60.8621 20.8973C60.6485 21.5062 60.3416 22.0531 59.9457 22.542C59.5498 23.0308 59.0871 23.4616 58.5622 23.8303C58.0373 24.199 57.4501 24.4849 56.7962 24.6837C56.1422 24.8826 55.4705 24.982 54.7721 24.982H52.063V22.9189H54.7721C55.2215 22.9189 55.6618 22.8526 56.0889 22.7242C56.5159 22.5916 56.8985 22.4053 57.241 22.1608C57.5836 21.9164 57.886 21.6347 58.1485 21.3157C58.4109 20.9968 58.6111 20.6404 58.7535 20.2427C58.8914 19.845 58.9626 19.4349 58.9626 19.0165C58.9626 17.9352 58.5533 17.0156 57.7348 16.2533C56.9163 15.4911 55.9288 15.1099 54.7677 15.1099H52.0586V13.0469H54.7677H54.7766Z" fill="#F3F5F6"/>
<path d="M74.065 15.1099H65.0435V13.0469H74.065V15.1099ZM72.5436 20.0522H65.0391V17.9726H72.5436V20.0522ZM74.065 24.9778H65.0435V22.9147H74.065V24.9778Z" fill="#F3F5F6"/>
<path d="M80.1405 22.9147H86.9511V24.9778H77.9297V13.0469H80.1449V22.9147H80.1405Z" fill="#F3F5F6"/>
<path d="M96.0838 13.0469C97.1202 13.0469 98.0058 13.3866 98.7397 14.0701C99.4736 14.7536 99.8387 15.5739 99.8387 16.5433C99.8387 17.5127 99.4736 18.3329 98.7397 19.0165C98.0058 19.7 97.1247 20.0398 96.0838 20.0398H93.0283V24.982H90.8125V17.9767H96.0838C96.5107 17.9767 96.8758 17.8359 97.1738 17.5583C97.4717 17.2807 97.6234 16.941 97.6234 16.5433C97.6234 16.1456 97.4717 15.8059 97.1738 15.5284C96.8758 15.2508 96.5107 15.1099 96.0838 15.1099H90.8125V13.0469H96.0838Z" fill="#F3F5F6"/>
<path d="M111.274 13.0469H113.49V24.9778H111.274V20.0522H105.915V24.9778H103.699V13.0469H105.915V17.9726H111.274V13.0469Z" fill="#F3F5F6"/>
<path d="M119.567 24.9778H117.352V13.0469H119.567V24.9778Z" fill="#F3F5F6"/>
<path d="M133.64 13.0469C134.801 13.0469 135.868 13.312 136.851 13.8464C137.835 14.3809 138.613 15.1058 139.187 16.0214C139.761 16.9369 140.046 17.9352 140.046 19.0123C140.046 19.6586 139.939 20.2883 139.725 20.8973C139.512 21.5062 139.205 22.0531 138.809 22.542C138.413 23.0308 137.95 23.4616 137.425 23.8303C136.9 24.199 136.314 24.4849 135.66 24.6837C135.006 24.8826 134.333 24.982 133.636 24.982H130.926V22.9189H133.636C134.085 22.9189 134.525 22.8526 134.952 22.7242C135.379 22.5916 135.762 22.4053 136.105 22.1608C136.447 21.9164 136.75 21.6347 137.012 21.3157C137.275 20.9968 137.474 20.6404 137.617 20.2427C137.755 19.845 137.826 19.4349 137.826 19.0165C137.826 17.9352 137.416 17.0156 136.598 16.2533C135.779 15.4911 134.792 15.1099 133.631 15.1099H130.922V13.0469H133.631H133.64Z" fill="#F3F5F6"/>
<path d="M146.122 24.9778H143.906V13.0469H146.122V24.9778Z" fill="#F3F5F6"/>
<path d="M162.796 17.9891V19.0123C162.796 20.0936 162.512 21.0878 161.938 22.0034C161.364 22.9189 160.585 23.6439 159.602 24.1783C158.619 24.7127 157.547 24.9778 156.39 24.9778C155.233 24.9778 154.162 24.7127 153.178 24.1783C152.195 23.6439 151.417 22.9189 150.843 22.0034C150.269 21.0878 149.984 20.0936 149.984 19.0123C149.984 17.9311 150.269 16.9369 150.843 16.0214C151.417 15.1058 152.195 14.3809 153.178 13.8464C154.162 13.312 155.229 13.0469 156.39 13.0469C156.83 13.0469 157.258 13.0883 157.68 13.167C158.103 13.2458 158.503 13.3617 158.89 13.515C159.273 13.6683 159.638 13.8547 159.98 14.0701C160.323 14.2855 160.634 14.53 160.914 14.8034L159.357 16.2533C158.539 15.4911 157.551 15.1099 156.39 15.1099C155.229 15.1099 154.242 15.4911 153.423 16.2533C152.605 17.0156 152.195 17.9352 152.195 19.0165C152.195 20.0977 152.605 21.0175 153.423 21.7797C154.242 22.542 155.229 22.923 156.39 22.923C157.342 22.923 158.187 22.6537 158.935 22.1153C159.678 21.5767 160.171 20.889 160.416 20.0605H158.201V17.9974H162.796V17.9891Z" fill="#F3F5F6"/>
<path d="M168.856 24.9778H166.641V13.0469H168.856V24.9778Z" fill="#F3F5F6"/>
<path d="M172.719 13.0469H181.74V15.1099H178.337V24.9778H176.121V15.1099H172.719V13.0469Z" fill="#F3F5F6"/>
<path d="M190.619 13.0469L195.286 24.9778H192.923L189.427 16.0628L185.948 24.9778H183.586L188.253 13.0469H190.614H190.619Z" fill="#F3F5F6"/>
<path d="M201.344 22.9147H208.155V24.9778H199.133V13.0469H201.348V22.9147H201.344Z" fill="#F3F5F6"/>
<path d="M24.7683 4.64139C24.3587 4.82367 23.9407 5.04324 23.5103 5.31252C23.3138 5.42851 23.13 5.54865 22.9502 5.66878C22.6702 5.12609 21.4624 3.05475 19.4145 3.05475H19.402C18.8085 3.09203 16.1128 3.45244 15.3145 7.00687L15.3062 7.03587C15.2143 7.40457 15.1474 7.79813 15.0763 8.2124C14.8799 9.35163 14.6584 10.64 13.7974 11.8621C12.6481 13.5192 10.8635 14.2483 9.73922 14.5549C9.57626 14.3146 9.41327 14.0868 9.25446 13.863C9.02041 13.5358 8.7989 13.225 8.60665 12.9102L8.58994 12.8812C8.55231 12.8233 8.51888 12.7652 8.48545 12.7072C8.63173 12.6865 10.9137 12.3592 12.0797 10.6773C12.6774 9.83219 12.8445 8.87523 13.0159 7.86441C13.0911 7.43357 13.1663 6.9903 13.2792 6.54704C14.161 2.62805 17.0824 1.10354 19.3142 0.983398H19.356C19.356 0.983398 19.3936 0.983398 19.4145 0.983398C22.5407 0.983398 24.2542 3.68029 24.7641 4.64139H24.7683ZM6.91818 15.5077C7.51583 16.3445 8.08422 17.1358 8.26394 18.1549C8.6359 20.1641 7.26089 21.991 7.16894 22.1112C7.23582 22.1277 7.29851 22.1443 7.36956 22.1608L7.39881 22.1691C7.75824 22.2603 8.13438 22.3224 8.53142 22.3887C8.80308 22.4343 9.08727 22.4839 9.37565 22.5379C9.94822 21.5311 10.6879 19.7664 10.3202 17.7903C10.061 16.3197 9.29625 15.255 8.62337 14.3146C8.37679 13.9708 8.14691 13.6476 7.95049 13.3203L7.93377 13.2955C5.96111 10.2258 7.61195 8.07569 8.00482 7.63656C9.45088 6.19076 11.7955 6.81217 12.3806 6.99858C12.4224 6.78731 12.4684 6.57189 12.5227 6.35647C12.6314 5.86764 12.7735 5.41608 12.9323 5.00181C11.8791 4.67868 8.71113 3.96613 6.49607 6.20733L6.46681 6.24048C4.9706 7.88927 3.99681 11.0128 6.16171 14.3974C6.39994 14.7869 6.66324 15.1555 6.91818 15.5118V15.5077ZM12.0923 24.4186C10.8593 23.5611 9.55954 23.3415 8.41022 23.1509C7.99229 23.0806 7.59942 23.0142 7.22328 22.9231L7.19402 22.9148C3.60812 22.1236 3.24452 19.4515 3.2069 18.8632C3.19854 16.825 5.29659 15.6237 5.84408 15.3461C5.72289 15.1679 5.60168 14.9857 5.48466 14.791C5.213 14.3643 4.99149 13.9501 4.8076 13.5441C3.83799 14.0577 1.08796 15.7728 1.1214 18.9088V18.9503C1.2426 21.1625 2.7806 24.0582 6.73012 24.9323C7.17731 25.0442 7.6245 25.1187 8.05915 25.1933C9.07892 25.3673 10.0443 25.5288 10.8969 26.1213C12.5937 27.2771 12.924 29.539 12.9449 29.6839C13.0034 29.6508 13.0619 29.6177 13.1204 29.5804L13.1496 29.5638C13.4672 29.3733 13.7807 29.1578 14.1109 28.9259C14.3366 28.7685 14.5706 28.6069 14.8089 28.4453C14.4954 27.3309 13.7598 25.562 12.0923 24.4227V24.4186ZM18.0771 27.8653C16.5934 28.1222 15.5194 28.8802 14.5706 29.5472C14.2238 29.7917 13.8978 30.0196 13.5676 30.2142L13.5424 30.2308C10.4456 32.1861 8.27648 30.5498 7.83346 30.1604C6.37486 28.727 7.00177 26.403 7.18984 25.8229C6.97669 25.7815 6.75936 25.736 6.54204 25.6821C6.04888 25.5745 5.59332 25.4336 5.17538 25.2761C4.8494 26.3201 4.13054 29.4603 6.39158 31.6559L6.42502 31.6849C7.39464 32.5466 8.86577 33.2384 10.6044 33.2384C11.8498 33.2384 13.229 32.8862 14.6584 31.9873C15.0512 31.7512 15.4232 31.4902 15.7827 31.2374C16.6268 30.6451 17.4251 30.0817 18.4532 29.9035C20.4803 29.5348 22.3233 30.8978 22.4446 30.9889C22.4613 30.9226 22.478 30.8605 22.4947 30.79L22.5031 30.7611C22.595 30.4006 22.6577 30.0278 22.7246 29.626C22.7706 29.3567 22.8165 29.0833 22.875 28.8016C21.8594 28.234 20.079 27.5008 18.0855 27.8653H18.0771ZM29.9716 25.0856L29.9549 25.0566C29.7668 24.7418 29.5411 24.431 29.3071 24.1038C29.1483 23.88 28.9852 23.6522 28.8223 23.4119C27.698 23.7226 25.9134 24.4517 24.7641 26.1046C23.8989 27.3268 23.6775 28.6152 23.4852 29.7544C23.4142 30.1687 23.3473 30.5581 23.2553 30.9309L23.247 30.9599C22.4487 34.5143 19.753 34.8748 19.1595 34.912C17.1075 34.9245 15.8913 32.8366 15.6113 32.298C15.4315 32.4181 15.2435 32.5383 15.0512 32.6543C14.6375 32.9153 14.2154 33.1348 13.7932 33.3213C14.3031 34.2782 16.0166 36.9834 19.147 36.9834C19.1679 36.9834 19.1846 36.9834 19.2055 36.9834H19.2474C21.4791 36.8632 24.3963 35.3387 25.2824 31.4239C25.3952 30.9807 25.4704 30.5373 25.5457 30.1065C25.7212 29.0957 25.8842 28.1387 26.4819 27.2936C27.652 25.6117 29.9298 25.2845 30.0761 25.2637C30.0427 25.2057 30.0092 25.1478 29.9716 25.0897V25.0856ZM32.404 23.5693C32.1658 23.1799 31.9025 22.8113 31.6475 22.455C31.0499 21.6181 30.4815 20.8269 30.3018 19.8078C29.9256 17.7985 31.3048 15.9716 31.3967 15.8515C31.3299 15.8349 31.2672 15.8184 31.1962 15.8018L31.1669 15.7935C30.8074 15.7024 30.4313 15.6403 30.0343 15.5739C29.7626 15.5284 29.4784 15.4787 29.19 15.4248C28.6174 16.4315 27.8777 18.1963 28.2455 20.1724C28.5046 21.643 29.2694 22.7077 29.9424 23.6481C30.1889 23.9919 30.4188 24.3151 30.6152 24.6423L30.632 24.6672C32.6046 27.7369 30.9538 29.887 30.5609 30.3261C29.1148 31.7719 26.7702 31.1505 26.1851 30.9641C26.1432 31.1753 26.0973 31.3908 26.043 31.6062C25.9343 32.095 25.7922 32.5466 25.6334 32.9608C26.1056 33.1058 27.0042 33.3296 28.0491 33.3296C29.3364 33.3296 30.845 32.994 32.0654 31.7553L32.0947 31.7222C33.5909 30.0734 34.5647 26.9498 32.3998 23.5652L32.404 23.5693ZM37.4401 19.0082C37.3231 16.796 35.7809 13.9003 31.8356 13.0262C31.3884 12.9143 30.9412 12.8398 30.5065 12.7652C29.4868 12.5912 28.5213 12.4297 27.6687 11.8372C25.9719 10.6814 25.6418 8.41953 25.6209 8.27454C25.5624 8.30768 25.5038 8.34082 25.4453 8.3781L25.4202 8.39467C25.0984 8.58524 24.785 8.8048 24.4548 9.04094C24.2333 9.19835 23.9993 9.35992 23.7611 9.51734C24.0745 10.6318 24.81 12.4006 26.4777 13.5399C27.7105 14.3974 29.0104 14.617 30.1596 14.8076C30.5776 14.878 30.9705 14.9443 31.3466 15.0354L31.3759 15.0437C34.9617 15.8349 35.3254 18.507 35.363 19.0953C35.3714 21.1335 33.2733 22.3348 32.7258 22.6124C32.847 22.7905 32.9682 22.9728 33.0853 23.1675C33.3568 23.5942 33.5784 24.0085 33.7623 24.4144C34.7361 23.905 37.4861 22.1857 37.4526 19.0539V19.0124L37.4401 19.0082ZM30.7322 7.79813C32.1909 9.2315 31.564 11.5555 31.3759 12.1356C31.589 12.177 31.8063 12.2225 32.0237 12.2764C32.5169 12.3841 32.9724 12.5249 33.3903 12.6823C33.7164 11.6384 34.4352 8.49825 32.1742 6.30261L32.1407 6.27362C30.4773 4.79053 27.326 3.82528 23.9115 5.9712C23.5186 6.20733 23.1467 6.46832 22.7873 6.72102C21.943 7.31343 21.1448 7.87684 20.1166 8.05498C18.0938 8.42367 16.2465 7.06073 16.1254 6.96959C16.1087 7.03587 16.0919 7.09802 16.0752 7.16844L16.0668 7.19744C15.9749 7.55785 15.9122 7.9307 15.8453 8.33254C15.7994 8.60181 15.7533 8.87523 15.6948 9.15693C16.7105 9.72448 18.4908 10.4618 20.4845 10.0932C21.9639 9.83633 23.0422 9.07822 23.9909 8.41124C24.3378 8.16683 24.6638 7.93898 24.994 7.74427L25.019 7.7277C28.116 5.77235 30.2851 7.40871 30.7281 7.79813H30.7322Z" fill="#F3F5F6"/>
</g>
<defs>
<clipPath id="clip0_941_364">
<rect width="208" height="36" fill="white" transform="translate(0.636719 0.983398)"/>
</clipPath>
</defs>
</svg>
