<svg width="142" height="37" viewBox="0 0 142 37" fill="none" xmlns="http://www.w3.org/2000/svg">
<path opacity="0.5" d="M80.5504 12.5751C80.5504 8.42501 80.622 4.5611 80.8366 0.983398L69.8889 3.05846V4.06022L70.9622 4.20333C71.7493 4.27488 72.2502 4.5611 72.5364 4.99042C72.8226 5.4913 73.0373 6.20684 73.1804 7.28015C73.3235 9.35521 73.4666 14.0778 73.395 21.5194C73.395 28.8895 73.3235 33.5405 73.1804 35.3293C77.1158 36.188 80.1927 36.5457 82.4824 36.5457C86.7756 36.5457 90.1387 35.3293 92.5715 32.8249C95.0043 30.3921 96.2923 26.9575 96.2923 22.7358C96.2923 19.3728 95.3621 16.5822 93.5017 14.364C91.6413 12.1458 89.28 11.0725 86.4894 11.0725C84.629 11.0725 82.6971 11.5734 80.5504 12.5751ZM80.7651 34.6138C80.622 32.324 80.4789 25.4549 80.4789 14.2209C81.1229 14.0062 81.9815 13.8631 83.0548 13.8631C84.7721 13.8631 86.1316 14.7218 87.1334 16.5106C88.1352 18.2995 88.636 20.4461 88.636 23.1651C88.636 26.5282 88.0636 29.2472 86.9187 31.5369C85.7739 33.7551 84.3428 34.9 82.5539 34.9C81.9815 34.7569 81.4091 34.6853 80.7651 34.6138ZM28.8169 1.69894H0.195312V3.13002L1.69795 3.27313C2.84281 3.48779 3.6299 3.91711 4.13078 4.5611C4.63166 5.27664 4.91788 6.4215 4.98943 7.99569C5.56186 15.7235 5.56186 22.9505 4.98943 29.605C4.84632 31.1792 4.56011 32.324 4.13078 33.0396C3.6299 33.7551 2.84281 34.1844 1.69795 34.3276L0.195312 34.5422V35.9733H18.6562V34.5422L16.7243 34.3991C15.5794 34.256 14.7923 33.7551 14.2914 33.1111C13.7906 32.3956 13.5044 31.2507 13.4328 29.6765C13.2181 26.8144 13.075 23.5229 13.075 19.8736L16.9389 19.9452C19.014 20.0168 20.4451 21.5909 21.1606 24.7393H22.5917V13.076H21.1606C20.4451 16.1528 19.0856 17.727 16.9389 17.7986L13.075 17.8701C13.075 11.4303 13.2181 6.85083 13.4328 4.06022H19.0856C23.0926 4.06022 25.8116 6.63616 27.3858 11.788L29.1031 11.2872L28.8169 1.69894ZM25.4539 23.7376C25.4539 27.4584 26.5272 30.5352 28.6022 32.968C30.6773 35.4009 33.7541 36.5457 37.618 36.5457C41.482 36.5457 44.6303 35.3293 46.9201 32.8249C49.2098 30.3921 50.2831 27.3153 50.2831 23.5945C50.2831 19.8736 49.2098 16.7968 47.1347 14.364C45.0597 11.9312 41.9828 10.7863 38.1189 10.7863C34.255 10.7863 31.1066 12.0027 28.8169 14.5071C26.5272 16.9399 25.4539 20.0168 25.4539 23.7376ZM41.4104 15.5804C42.2691 17.6555 42.6268 20.3745 42.6268 23.666C42.6268 31.2507 41.0526 34.9715 37.9758 34.9715C36.4016 34.9715 35.1852 33.8982 34.3266 31.7516C33.4679 29.605 33.1101 26.8859 33.1101 23.666C33.1101 16.1528 34.6843 12.432 37.7612 12.432C39.3353 12.3605 40.5518 13.4338 41.4104 15.5804ZM101.874 32.968C104.235 35.3293 107.24 36.5457 110.818 36.5457C113.036 36.5457 114.968 36.1164 116.685 35.1862C118.402 34.3276 119.762 33.2542 120.692 31.9663L119.977 31.1076C118.402 32.324 116.614 32.8965 114.539 32.8965C111.676 32.8965 109.458 31.9663 107.956 30.0343C106.381 28.1024 105.666 25.6695 105.809 22.5211H121.122C121.122 19.0866 120.263 16.2959 118.474 14.0778C116.685 11.9312 114.181 10.8578 110.961 10.8578C106.954 10.8578 103.877 12.1458 101.659 14.6502C99.4407 17.1546 98.3674 20.2314 98.3674 23.8807C98.3674 27.6015 99.5122 30.6067 101.874 32.968ZM107.169 15.008C107.956 13.2907 108.957 12.432 110.317 12.432C112.464 12.432 113.537 15.1511 113.537 20.6607L105.952 20.8039C106.024 18.6572 106.381 16.7253 107.169 15.008ZM140.37 12.1458C138.438 11.2872 136.005 10.7863 133.071 10.7863C130.066 10.7863 127.705 11.5734 125.916 13.076C124.127 14.5787 123.197 16.4391 123.197 18.6572C123.197 20.5892 123.769 22.0918 124.842 23.1651C125.916 24.2384 127.633 25.1686 129.851 25.9557C131.855 26.6713 133.286 27.3868 134.001 28.0308C134.717 28.7463 135.146 29.5334 135.146 30.6067C135.146 31.6085 134.788 32.5387 134.001 33.2542C133.286 34.0413 132.284 34.3991 130.996 34.3991C127.848 34.3991 125.486 32.1094 123.841 27.5299L122.624 27.8877L122.91 35.0431C125.486 36.0448 128.348 36.5457 131.497 36.5457C134.788 36.5457 137.293 35.8302 139.153 34.3276C141.014 32.8965 141.944 30.8214 141.944 28.2455C141.944 26.5282 141.514 25.0971 140.584 24.0238C139.654 22.9505 138.151 22.0203 136.005 21.1616C133.643 20.303 131.998 19.5159 131.139 18.8003C130.28 18.0848 129.851 17.2262 129.851 16.1528C129.851 15.0795 130.137 14.2209 130.781 13.5053C131.425 12.7898 132.212 12.5036 133.214 12.5036C136.076 12.5036 138.151 14.5787 139.439 18.6572L140.656 18.2995L140.37 12.1458ZM71.5346 11.5018C70.5329 11.001 69.4596 10.7863 68.2431 10.7863C67.0267 10.7863 65.8103 11.2872 64.4508 12.2889C63.0913 13.2907 62.0895 14.6502 61.3024 16.5106L61.374 10.7863L50.4978 12.9329V13.9347L51.5711 14.0062C52.9306 14.1493 53.7177 15.2226 53.8608 17.1546C54.2901 21.5909 54.2901 26.3135 53.8608 31.3223C53.7177 33.2542 52.9306 34.256 51.5711 34.4707L50.4978 34.6138V35.9733H65.6672V34.6138L63.7352 34.4707C62.3757 34.3276 61.5886 33.2542 61.4455 31.3223C61.0162 27.1722 60.9446 22.7358 61.3024 18.1564C61.7317 17.4408 62.6619 17.0115 64.093 16.8684C65.5241 16.7253 67.1698 17.1546 68.8871 18.1564L71.5346 11.5018Z" fill="white"/>
</svg>
