<svg width="122" height="51" viewBox="0 0 122 51" fill="none" xmlns="http://www.w3.org/2000/svg">
<g clip-path="url(#clip0_941_323)">
<path opacity="0.5" d="M45.2423 0.915039H18.1797V10.0078H45.2423V0.915039Z" fill="white"/>
<path opacity="0.5" d="M45.2423 37.2861H18.1797V46.3789H45.2423V37.2861Z" fill="white"/>
<path opacity="0.5" d="M54.2631 28.1934H45.2422V37.2861H54.2631V28.1934Z" fill="white"/>
<path opacity="0.5" d="M45.2397 19.1006H36.2188V28.1933H45.2397V19.1006Z" fill="white"/>
<path opacity="0.5" d="M18.1772 28.1934H9.15625V37.2861H18.1772V28.1934Z" fill="white"/>
<path opacity="0.5" d="M18.1772 10.0078H9.15625V19.1005H18.1772V10.0078Z" fill="white"/>
<path opacity="0.5" d="M9.15756 19.1006H0.136719V28.1933H9.15756V19.1006Z" fill="white"/>
<path opacity="0.5" d="M61.9609 49.0557H69.0574V50.9146H61.9609V49.0557Z" fill="white"/>
<path opacity="0.5" d="M70.9922 35.0635H78.4494V37.0033H73.077V39.7513H78.0485V41.6911H73.077V46.3789H70.9922V35.0635Z" fill="white"/>
<path opacity="0.5" d="M82.3281 35.0635H84.413V46.3789H82.3281V35.0635Z" fill="white"/>
<path opacity="0.5" d="M88.8711 35.0635H96.4093V37.0033H90.9561V39.7513H96.0883V41.6911H90.9561V44.4391H96.4093V46.3789H88.8711V35.0635Z" fill="white"/>
<path opacity="0.5" d="M100.781 35.0635H102.866V44.3583H108.108V46.3789H100.781V35.0635Z" fill="white"/>
<path opacity="0.5" d="M111.594 35.0635H115.683C118.72 35.0635 121.135 37.4882 121.135 40.7212C121.135 43.9542 118.71 46.3789 115.683 46.3789H111.594V35.0635ZM115.683 44.3583C117.608 44.3583 119.05 42.9236 119.05 40.7212C119.05 38.5187 117.608 37.0841 115.683 37.0841H113.679V44.3583H115.683Z" fill="white"/>
<path opacity="0.5" d="M70.7195 26.9107H70.6393C70.4289 27.1835 70.1582 27.4259 69.8475 27.6381C69.2862 28.0119 68.5044 28.3554 67.3717 28.3554C64.3548 28.3554 61.9492 25.961 61.9492 22.5663C61.9492 19.1718 64.3548 16.7773 67.3717 16.7773C70.3888 16.7773 72.0126 19.0303 72.3934 20.7983H70.2384C69.7573 19.7476 68.8652 18.7878 67.3618 18.7878C65.4474 18.7878 64.014 20.2528 64.014 22.5663C64.014 24.88 65.4474 26.3449 67.3618 26.3449C69.4366 26.3449 70.3888 24.6577 70.3888 23.9303V23.8494H67.6023V22.2431H72.4635V28.1938H70.8699L70.7095 26.9107H70.7195Z" fill="white"/>
<path opacity="0.5" d="M76.4531 16.9482H81.555C83.5293 16.9482 85.0628 18.4738 85.0628 20.7268C85.0628 22.9798 83.5499 24.2629 81.7955 24.3437L85.3838 28.2031H82.758L79.1694 24.3437H78.528V28.2031H76.4531V16.9482ZM81.4748 22.414C82.2666 22.414 82.9885 21.6866 82.9885 20.7268C82.9885 19.6862 82.2666 18.9587 81.4748 18.9587H78.528V22.414H81.4748Z" fill="white"/>
<path opacity="0.5" d="M88.7617 16.9482H96.2596V18.878H90.8368V21.6159H95.9386V23.5456H90.8368V26.2734H96.2596V28.2031H88.7617V16.9482Z" fill="white"/>
<path opacity="0.5" d="M100.27 16.9482H107.767V18.878H102.344V21.6159H107.446V23.5456H102.344V26.2734H107.767V28.2031H100.27V16.9482Z" fill="white"/>
<path opacity="0.5" d="M111.844 16.9482H114.63L118.7 24.7377H119.021V16.9482H121.095V28.2031H118.309L114.239 20.4035H113.919V28.2031H111.844V16.9482Z" fill="white"/>
</g>
<defs>
<clipPath id="clip0_941_323">
<rect width="121" height="50" fill="white" transform="translate(0.136719 0.915039)"/>
</clipPath>
</defs>
</svg>
