<svg width="142" height="30" viewBox="0 0 142 30" fill="none" xmlns="http://www.w3.org/2000/svg">
<g opacity="0.5" clip-path="url(#clip0_941_379)">
<path d="M40.4727 25.0393H43.8741V9.18712H44.1699L50.3368 25.0393H53.398L59.5649 9.18712H59.8607V25.0393H63.2473V3.68555H58.4558L52.0079 20.2644H51.7121L45.279 3.68555H40.4727V25.0393Z" fill="white"/>
<path d="M64.9414 17.3729C64.9414 22.652 67.8991 25.3954 72.5132 25.3954C77.1717 25.3954 78.9611 22.6224 79.3456 20.6205V20.1756H76.2695C76.0477 21.4064 74.9977 22.8596 72.4689 22.8596C69.8513 22.8596 68.3576 21.0208 68.2984 18.233H79.6562V16.7649C79.6562 12.1531 77.0681 9.36523 72.4836 9.36523C67.8844 9.36523 64.9414 12.0938 64.9414 17.3729ZM68.3428 15.8158C68.5351 13.547 69.8808 11.8713 72.4541 11.8713C75.0717 11.8713 76.3139 13.5025 76.3435 15.8158H68.3428Z" fill="white"/>
<path d="M80.9355 13.9174C80.9355 16.6163 82.9468 17.9361 85.8158 18.4106L88.4778 18.8407C90.1045 19.1224 91.1989 19.5525 91.1989 20.8278C91.1989 22.1327 90.0602 22.978 87.8714 22.978C85.6827 22.978 84.0412 22.1031 83.8785 20.3087H80.625V20.7536C80.9947 23.497 83.5088 25.3951 87.8714 25.3951C92.2193 25.3951 94.5116 23.5118 94.5116 20.5905C94.5116 17.7285 92.382 16.6608 89.3207 16.1566L86.644 15.7266C85.2982 15.4893 84.2334 15.0444 84.2334 13.784C84.2334 12.5532 85.4313 11.8117 87.3686 11.8117C89.3503 11.8117 90.6665 12.5383 90.7848 14.2288H93.9792V13.784C93.6538 11.1889 91.2728 9.39453 87.2799 9.39453C83.3165 9.39453 80.9355 11.1296 80.9355 13.9174Z" fill="white"/>
<path d="M95.6114 13.9174C95.6114 16.6163 97.6226 17.9361 100.492 18.4106L103.154 18.8407C104.78 19.1224 105.875 19.5525 105.875 20.8278C105.875 22.1327 104.736 22.978 102.547 22.978C100.359 22.978 98.717 22.1031 98.5543 20.3087H95.3008V20.7536C95.6705 23.497 98.1846 25.3951 102.547 25.3951C106.895 25.3951 109.187 23.5118 109.187 20.5905C109.187 17.7285 107.058 16.6608 103.997 16.1566L101.32 15.7266C99.974 15.4893 98.9092 15.0444 98.9092 13.784C98.9092 12.5532 100.107 11.8117 102.045 11.8117C104.026 11.8117 105.342 12.5383 105.461 14.2288H108.655V13.784C108.33 11.1889 105.949 9.39453 101.956 9.39453C97.9923 9.39453 95.6114 11.1296 95.6114 13.9174Z" fill="white"/>
<path d="M114.026 14.2291C114.1 12.6573 115.431 11.8417 117.413 11.8417C119.409 11.8417 120.533 12.6721 120.533 14.2588C120.533 15.2672 119.942 15.5934 118.803 15.6972L115.298 16.0383C112.34 16.3349 110.004 17.6102 110.004 20.6649C110.004 23.5121 112.37 25.3361 115.727 25.3361C118.759 25.3361 120.178 24.1201 120.947 22.8151H121.243C121.391 24.046 122.219 25.0395 124.112 25.0395H125.665V22.6224H124.911C124.171 22.6224 123.831 22.2665 123.831 21.5399V15.0299C123.831 11.0706 121.302 9.36523 117.472 9.36523C113.671 9.36523 111.157 11.0706 110.832 13.7843V14.2291H114.026ZM113.435 20.5463C113.435 19.0931 114.5 18.4702 116.171 18.3071L118.138 18.0995C119.291 17.9809 119.764 17.8326 120.223 17.5657H120.519V18.5147C120.519 21.7326 118.374 22.8745 116.392 22.8745C114.588 22.8745 113.435 21.9699 113.435 20.5463Z" fill="white"/>
<path d="M126.98 25.0391H130.485V16.8831C130.485 13.1017 132.599 12.1527 135.69 12.5382V9.57239C132.585 9.24615 131.283 10.477 130.647 11.9747H130.352V9.72068H126.98V25.0391Z" fill="white"/>
<path d="M137.09 7.89737H140.639V4.45703H137.09V7.89737ZM137.119 25.0396H140.624V9.72118H137.119V25.0396Z" fill="white"/>
<path d="M0.199219 0.514648V28.5669L7.8558 20.8881V8.19338L0.199219 0.514648Z" fill="white"/>
<path d="M14.1877 14.5254L10.3594 10.7021V28.4193L18.016 20.7727V10.7021L14.1877 14.5254Z" fill="white"/>
<path d="M20.5195 8.18086V28.4192L28.1761 20.753V0.514648L20.5195 8.18086Z" fill="white"/>
</g>
<defs>
<clipPath id="clip0_941_379">
<rect width="141" height="29" fill="white" transform="translate(0.136719 0.514648)"/>
</clipPath>
</defs>
</svg>
