<svg width="128" height="37" viewBox="0 0 128 37" fill="none" xmlns="http://www.w3.org/2000/svg">
<g clip-path="url(#clip0_941_275)">
<path opacity="0.5" fill-rule="evenodd" clip-rule="evenodd" d="M94.3923 28.3054C90.0689 28.3054 87.3828 25.7843 87.3828 21.7237C87.3828 17.5042 89.8613 14.8824 93.8517 14.8824L94.1891 14.8805C94.688 14.8805 95.3775 14.8963 96.3189 15.0167V9.92578H99.1422V27.8476C99.1422 27.8476 96.4611 28.3054 94.3923 28.3054ZM94.3677 17.1179C91.6357 17.1179 90.3073 18.6017 90.3073 21.6534C90.3073 24.3918 91.9087 26.0927 94.4854 26.0927C94.98 26.0927 95.5469 26.0617 96.3189 25.9933V17.2991C95.5462 17.1756 94.9258 17.1179 94.3677 17.1179Z" fill="white"/>
<path opacity="0.5" fill-rule="evenodd" clip-rule="evenodd" d="M55.764 27.8972L48.1448 14.5141L48.1429 27.8972H45.4883V10.957H49.2039L56.823 24.2204L56.8198 10.957H59.5085V27.8972H55.764Z" fill="white"/>
<path opacity="0.5" fill-rule="evenodd" clip-rule="evenodd" d="M80.0272 28.1566C78.7449 28.1566 77.4065 28.0123 75.8133 27.7039L75.644 27.6703V25.3037L75.8964 25.3594C77.2989 25.6597 78.5114 25.9192 79.7226 25.9192C80.7036 25.9192 82.9852 25.7621 82.9852 24.3119C82.9852 23.0942 81.4083 22.7896 80.1411 22.5458L80.0618 22.5299C79.8265 22.4831 79.6037 22.4387 79.413 22.3906C77.5557 21.9049 75.5742 21.1766 75.5742 18.6707C75.5742 16.2275 77.4965 14.8262 80.8476 14.8262C82.4553 14.8262 83.6231 15.0009 84.5607 15.1415L85.0194 15.2105V17.5042L84.7746 17.4619C83.7131 17.2648 82.4692 17.0629 81.2705 17.0629C79.9422 17.0629 78.3597 17.3131 78.3597 18.5055C78.3597 19.4933 79.6528 19.7764 81.1503 20.1039C83.2425 20.5623 85.8393 21.1329 85.8393 24.0061C85.8393 26.6437 83.7206 28.1566 80.0272 28.1566Z" fill="white"/>
<path opacity="0.5" fill-rule="evenodd" clip-rule="evenodd" d="M107.059 28.1566C104.137 28.1566 101.434 27.6399 101.434 23.8883C101.434 19.8062 105.615 19.8062 108.113 19.8062C108.363 19.8062 109.537 19.8601 109.899 19.8765C109.896 17.5865 109.865 17.0401 106.565 17.0401C105.257 17.0401 103.804 17.3017 102.522 17.5321L102.277 17.5765V15.3143L102.444 15.2801C103.93 14.975 105.362 14.8262 106.824 14.8262C110.022 14.8262 112.732 15.151 112.732 19.1432V27.8521L112.537 27.8722C110.322 28.1224 108.562 28.1566 107.059 28.1566ZM108.042 21.8251C105.634 21.8251 104.141 22.1817 104.141 23.9579C104.141 26.0129 106.046 26.1845 107.832 26.1845C108.501 26.1845 109.701 26.0991 110.068 26.0713V21.8948C109.55 21.8751 108.205 21.8251 108.042 21.8251Z" fill="white"/>
<path opacity="0.5" fill-rule="evenodd" clip-rule="evenodd" d="M67.4845 28.1566C64.5624 28.1566 61.8594 27.6399 61.8594 23.8883C61.8594 19.8062 66.0405 19.8062 68.5392 19.8062C68.7883 19.8062 69.963 19.8601 70.3248 19.8765C70.3217 17.5865 70.2909 17.0401 66.9913 17.0401C65.6831 17.0401 64.2302 17.3017 62.9472 17.5321L62.7025 17.5765V15.3143L62.8699 15.2801C64.3561 14.975 65.7882 14.8262 67.2492 14.8262C70.4476 14.8262 73.1575 15.151 73.1575 19.1432V27.8521L72.9625 27.8722C70.7477 28.1224 68.9878 28.1566 67.4845 28.1566ZM68.468 21.8251C66.0594 21.8251 64.5668 22.1817 64.5668 23.9579C64.5668 26.0129 66.4721 26.1845 68.2579 26.1845C68.9267 26.1845 70.1266 26.0991 70.4935 26.0713V21.8948C69.9757 21.8751 68.631 21.8251 68.468 21.8251Z" fill="white"/>
<path opacity="0.5" fill-rule="evenodd" clip-rule="evenodd" d="M123.961 33.651V28.0953C122.859 28.251 122.273 28.251 121.801 28.251C120.685 28.251 119.445 28.0066 118.482 27.5962C116.334 26.6982 115.051 24.4121 115.051 21.48C115.051 20.014 115.405 17.3385 117.777 15.8964C118.964 15.1809 120.371 14.875 122.481 14.875C123.239 14.875 124.26 14.9339 125.246 14.9915L126.848 15.0744V32.3649L123.961 33.651ZM122.27 17.1111C119.406 17.1111 117.953 18.581 117.953 21.48C117.953 25.2088 120.122 25.9916 121.942 25.9916C122.385 25.9916 122.884 25.9916 123.988 25.8515V17.1915C123.123 17.1326 122.726 17.1111 122.27 17.1111Z" fill="white"/>
<path opacity="0.5" fill-rule="evenodd" clip-rule="evenodd" d="M32.8855 0.915039L23.5561 26.7104C23.3271 27.3468 22.7488 27.8116 22.0554 27.8819V27.8972H31.9165C32.6898 27.8972 33.3505 27.4025 33.5984 26.7104L42.9279 0.915039H32.8855ZM21.2533 27.5031C21.8227 27.5031 22.3248 27.2194 22.6319 26.7862C22.6641 26.7412 22.7761 26.5829 22.854 26.3669L26.2764 16.902L24.2748 11.3748C24.0193 10.7611 23.4159 10.3298 22.7131 10.3298C22.1442 10.3298 21.6415 10.6129 21.3344 11.0467C21.3024 11.0911 21.169 11.2931 21.1123 11.4659L17.6913 20.9271L19.7011 26.4765C19.9615 27.0801 20.5574 27.5031 21.2533 27.5031ZM12.0152 9.93425H21.9839V9.93995C21.2433 9.97098 20.6159 10.4504 20.3756 11.1204L11.0468 36.915H1.00391L10.3327 11.1204C10.5818 10.4282 11.2413 9.93425 12.0152 9.93425Z" fill="white"/>
</g>
<defs>
<clipPath id="clip0_941_275">
<rect width="127" height="36" fill="white" transform="translate(0.855469 0.915039)"/>
</clipPath>
</defs>
</svg>
