<svg width="125" height="36" viewBox="0 0 125 36" fill="none" xmlns="http://www.w3.org/2000/svg">
<g opacity="0.5" clip-path="url(#clip0_941_390)">
<path d="M39.9034 9.08301H46.9084C50.6934 9.08301 53.2254 11.291 53.2254 14.737C53.2254 16.922 52.0694 18.668 50.2774 19.517L53.6674 26.069H49.5874L46.6844 20.366H43.5884V26.069H39.8984V9.08301H39.9034ZM43.5934 12.115V17.332H46.6174C48.3634 17.332 49.4674 16.312 49.4674 14.734C49.4674 13.156 48.3634 12.113 46.6174 12.113H43.5924V12.115H43.5934ZM54.1944 19.854C54.1944 15.971 56.7744 13.45 60.6824 13.45C64.5914 13.45 67.0254 15.778 67.0744 19.442C67.0744 19.808 67.0504 20.218 66.9754 20.607H57.8064V20.776C57.8804 22.546 59.0354 23.615 60.7804 23.615C62.1834 23.615 63.1654 23.008 63.4604 21.845H66.8784C66.4844 24.272 64.2984 26.212 60.9284 26.212C56.7244 26.212 54.1944 23.714 54.1944 19.854ZM63.5844 18.373C63.3374 16.844 62.2794 15.995 60.7074 15.995C59.1344 15.995 58.0764 16.893 57.8814 18.373H63.5844ZM77.0904 13.598H80.5574V26.071H77.4844L77.1664 24.566C76.3564 25.536 75.2514 26.216 73.4534 26.216C70.8494 26.216 68.4384 24.929 68.4384 20.512V13.596H71.9064V20.05C71.9064 22.282 72.6464 23.375 74.3654 23.375C76.0854 23.375 77.0924 22.139 77.0924 19.832V13.596H77.0904L77.0924 13.598H77.0904ZM82.6084 10.112H86.0744V13.605H88.9514V16.494H86.0744V21.955C86.0744 22.829 86.4194 23.192 87.3034 23.192H89.0964V26.078H86.2184C83.8084 26.078 82.6064 24.891 82.6064 22.513V10.113L82.6084 10.112ZM89.6694 19.854C89.6694 15.971 92.2494 13.45 96.1594 13.45C100.069 13.45 102.501 15.778 102.55 19.442C102.55 19.808 102.523 20.218 102.451 20.607H93.2814V20.776C93.3534 22.546 94.5104 23.615 96.2554 23.615C97.6584 23.615 98.6404 23.008 98.9384 21.845H102.353C101.959 24.272 99.7734 26.212 96.4054 26.212C92.2014 26.212 89.6694 23.714 89.6694 19.854ZM99.0614 18.373C98.8144 16.844 97.7564 15.995 96.1844 15.995C94.6114 15.995 93.5534 16.893 93.3584 18.373H99.0614ZM111.785 13.596V16.704H110.408C108.342 16.704 107.558 18.062 107.558 19.956V26.071H104.091V13.599H107.237L107.558 15.465C108.246 14.349 109.227 13.599 111.195 13.599H111.785V13.596ZM115.632 21.921C115.756 23.012 116.712 23.765 118.411 23.765C119.86 23.765 120.746 23.304 120.746 22.431C120.746 21.412 119.887 21.34 117.845 21.074C114.894 20.734 112.608 20.079 112.608 17.508C112.608 14.938 114.797 13.408 118.039 13.432C121.43 13.432 123.768 14.914 123.94 17.459H120.621C120.524 16.464 119.564 15.857 118.163 15.857C116.763 15.857 115.927 16.343 115.927 17.143C115.927 18.09 117.009 18.187 118.829 18.405C121.731 18.695 124.14 19.352 124.14 22.167C124.14 24.641 121.78 26.219 118.387 26.219C114.995 26.219 112.489 24.591 112.339 21.925H115.633H115.631L115.632 21.921Z" fill="white"/>
<path d="M29.3998 5.3423C29.8318 5.7753 30.0718 6.3543 30.0718 6.9673C30.0716 7.3447 29.9783 7.71623 29.8002 8.04896C29.6221 8.3817 29.3647 8.66538 29.0507 8.87487C28.7368 9.08437 28.3761 9.21321 28.0005 9.24999C27.6249 9.28677 27.246 9.23035 26.8974 9.08574C26.5488 8.94112 26.2412 8.71276 26.002 8.4209C25.7627 8.12903 25.5991 7.78266 25.5257 7.41247C25.4522 7.04228 25.4712 6.65969 25.581 6.29859C25.6907 5.93749 25.8878 5.60903 26.1548 5.3423C26.3676 5.12871 26.6206 4.95929 26.8991 4.8438C27.1777 4.7283 27.4763 4.669 27.7778 4.6693C28.0792 4.66869 28.3778 4.72785 28.6562 4.84337C28.9346 4.95889 29.1874 5.12847 29.3998 5.3423ZM4.57781 30.2093C4.14816 29.778 3.90691 29.1941 3.90691 28.5853C3.90691 27.9765 4.14816 27.3926 4.57781 26.9613C4.7904 26.7471 5.04345 26.5773 5.32225 26.4618C5.60104 26.3462 5.90003 26.2873 6.20181 26.2883C6.81581 26.2883 7.39181 26.5263 7.82381 26.9613C8.25298 27.3928 8.49389 27.9767 8.49389 28.5853C8.49389 29.1939 8.25298 29.7778 7.82381 30.2093C7.61143 30.4232 7.3587 30.5929 7.08027 30.7084C6.80184 30.8239 6.50325 30.883 6.20181 30.8823C5.58981 30.8823 5.01081 30.6443 4.57781 30.2093ZM22.0688 5.5213L22.0528 5.5153C21.8121 5.41414 21.5937 5.26651 21.4101 5.08084C21.2265 4.89518 21.0813 4.67513 20.9828 4.4333C20.8806 4.18962 20.828 3.92803 20.828 3.6638C20.828 3.39956 20.8806 3.13798 20.9828 2.8943C21.134 2.52664 21.391 2.21224 21.7214 1.99108C22.0517 1.76992 22.4403 1.65199 22.8378 1.6523C23.1682 1.65324 23.4932 1.73546 23.7842 1.89171C24.0753 2.04797 24.3234 2.27345 24.5067 2.54826C24.69 2.82308 24.8029 3.13878 24.8353 3.46752C24.8678 3.79627 24.8188 4.12794 24.6928 4.4333C24.4888 4.9253 24.0979 5.31622 23.6059 5.52022C23.1139 5.72422 22.5611 5.7246 22.0688 5.5213ZM11.1488 29.8823C11.4088 29.8823 11.6688 29.9343 11.9148 30.0343C12.2813 30.1873 12.5943 30.4454 12.8144 30.7759C13.0345 31.1064 13.152 31.4947 13.152 31.8918C13.152 32.2889 13.0345 32.6772 12.8144 33.0077C12.5943 33.3382 12.2813 33.5962 11.9148 33.7493C11.6715 33.8515 11.4102 33.9041 11.1463 33.9041C10.8824 33.9041 10.6211 33.8515 10.3778 33.7493C9.9493 33.57 9.59598 33.248 9.37776 32.838C9.15953 32.4279 9.08983 31.955 9.18048 31.4995C9.27112 31.0439 9.51653 30.6337 9.87509 30.3384C10.2337 30.0431 10.6833 29.8809 11.1478 29.8793L11.1488 29.8823ZM18.7098 2.5023C18.7098 3.4263 17.9798 4.1823 17.0678 4.2253H16.9898C16.543 4.21007 16.1196 4.02187 15.8089 3.70041C15.4982 3.37895 15.3245 2.94936 15.3245 2.5023C15.3245 2.05523 15.4982 1.62564 15.8089 1.30418C16.1196 0.98272 16.543 0.794522 16.9898 0.779297C17.9368 0.779297 18.7098 1.5553 18.7098 2.5043V2.5023ZM15.2658 33.0563C15.2658 32.1043 16.0388 31.3323 16.9868 31.3323C17.9358 31.3323 18.7078 32.1063 18.7078 33.0563C18.7078 34.0063 17.9358 34.7793 16.9878 34.7793C16.5312 34.7785 16.0935 34.5967 15.7707 34.2737C15.4479 33.9507 15.2663 33.5129 15.2658 33.0563ZM11.7028 4.9913C11.5287 5.06379 11.3419 5.10117 11.1533 5.10128C10.9647 5.10139 10.7779 5.06423 10.6036 4.99194C10.4294 4.91965 10.2712 4.81364 10.138 4.68002C10.0049 4.5464 9.89947 4.38779 9.82781 4.2133C9.73774 3.99524 9.7027 3.75836 9.72579 3.52356C9.74888 3.28876 9.82938 3.06325 9.96021 2.86691C10.091 2.67057 10.2682 2.50944 10.476 2.39772C10.6838 2.286 10.9159 2.22713 11.1518 2.2263C11.7158 2.2263 12.2498 2.5623 12.4808 3.1143C12.6268 3.4713 12.6268 3.8613 12.4808 4.2133C12.4099 4.3885 12.3045 4.54766 12.1708 4.68131C12.0372 4.81497 11.878 4.92038 11.7028 4.9913ZM22.2738 30.5653C22.4538 30.4913 22.6388 30.4533 22.8248 30.4533C23.0108 30.4533 23.1968 30.4913 23.3738 30.5633C23.7298 30.7103 24.0058 30.9863 24.1508 31.3413C24.2968 31.6983 24.2968 32.0873 24.1508 32.4403C24.0604 32.6583 23.9176 32.8507 23.7351 33.0004C23.5526 33.1501 23.3361 33.2525 23.1046 33.2985C22.8731 33.3446 22.6338 33.3329 22.4079 33.2644C22.182 33.196 21.9765 33.0729 21.8095 32.9061C21.6425 32.7393 21.5192 32.5339 21.4505 32.3081C21.3818 32.0823 21.3699 31.843 21.4157 31.6114C21.4615 31.3799 21.5637 31.1632 21.7132 30.9806C21.8627 30.7979 22.0549 30.655 22.2728 30.5643L22.2738 30.5653ZM7.01081 6.1693C7.45281 6.6113 7.45881 7.3233 7.03281 7.7743L7.00781 7.7993C6.79173 8.01443 6.49923 8.13521 6.19431 8.13521C5.8894 8.13521 5.59689 8.01443 5.38081 7.7993C5.16531 7.583 5.04431 7.29012 5.04431 6.9848C5.04431 6.67947 5.16531 6.38659 5.38081 6.1703C5.60481 5.9463 5.89881 5.8343 6.19381 5.8343C6.48981 5.8343 6.78381 5.9463 7.00781 6.1703L7.01081 6.1693ZM26.9548 27.7663C27.2597 27.7666 27.552 27.8879 27.7675 28.1037C27.983 28.3194 28.1039 28.6119 28.1038 28.9168C28.1037 29.2217 27.9825 29.5141 27.7668 29.7296C27.5512 29.9452 27.2587 30.0663 26.9538 30.0663C26.6489 30.0663 26.3565 29.9452 26.1408 29.7296C25.9252 29.5141 25.8039 29.2217 25.8038 28.9168C25.8037 28.6119 25.9246 28.3194 26.1401 28.1037C26.3556 27.8879 26.6479 27.7666 26.9528 27.7663H26.9548ZM2.34281 13.2593C2.00149 13.1061 1.7333 12.826 1.59517 12.4783C1.45704 12.1306 1.45986 11.7428 1.60301 11.3971C1.74616 11.0515 2.01838 10.7752 2.36189 10.627C2.70539 10.4788 3.09314 10.4703 3.44281 10.6033C3.70494 10.7125 3.92889 10.8968 4.08642 11.133C4.24395 11.3693 4.32801 11.6468 4.32801 11.9308C4.32801 12.2147 4.24395 12.4923 4.08642 12.7286C3.92889 12.9648 3.70494 13.1491 3.44281 13.2583C3.26879 13.3305 3.08223 13.3677 2.89381 13.3677C2.7054 13.3677 2.51883 13.3305 2.34481 13.2583L2.34281 13.2593ZM31.6408 22.3043C31.9968 22.4503 32.2718 22.7263 32.4178 23.0823C32.5274 23.3447 32.5566 23.6337 32.5015 23.9127C32.4465 24.1917 32.3097 24.4481 32.1087 24.6491C31.9076 24.8502 31.6513 24.987 31.3723 25.042C31.0933 25.0971 30.8042 25.0679 30.5418 24.9583C30.3668 24.887 30.2078 24.7813 30.0744 24.6475C29.9409 24.5137 29.8356 24.3545 29.7648 24.1793C29.6555 23.917 29.6266 23.628 29.6817 23.3492C29.7369 23.0704 29.8737 22.8143 30.0747 22.6134C30.2758 22.4125 30.532 22.2758 30.8108 22.2208C31.0896 22.1658 31.3785 22.1948 31.6408 22.3043ZM0.0078125 17.7883C0.0078125 16.8373 0.779813 16.0653 1.72781 16.0653C2.67781 16.0653 3.44981 16.8393 3.44981 17.7883C3.44981 18.7383 2.67681 19.5113 1.72881 19.5113C1.27261 19.51 0.83548 19.3281 0.512987 19.0054C0.190494 18.6827 0.00886785 18.2445 0.0078125 17.7883ZM30.5278 17.7883C30.5278 16.8373 31.3008 16.0653 32.2498 16.0653C33.1978 16.0653 33.9708 16.8393 33.9708 17.7883C33.9708 18.7383 33.1978 19.5113 32.2498 19.5113C31.7934 19.5102 31.3559 19.3283 31.0333 19.0054C30.7108 18.6824 30.5283 18.2448 30.5278 17.7883ZM1.02681 24.3943C0.823611 23.9017 0.823913 23.3486 1.02765 22.8563C1.23139 22.3639 1.62196 21.9723 2.11381 21.7673C2.35714 21.6651 2.6184 21.6125 2.88231 21.6125C3.14622 21.6125 3.40748 21.6651 3.65081 21.7673C4.14581 21.9743 4.53081 22.3593 4.73781 22.8553C4.84012 23.0991 4.89282 23.3609 4.89282 23.6253C4.89282 23.8897 4.84012 24.1515 4.73781 24.3953C4.63709 24.6391 4.48922 24.8606 4.30269 25.0472C4.11615 25.2337 3.89462 25.3816 3.65081 25.4823C3.40748 25.5845 3.14622 25.6371 2.88231 25.6371C2.6184 25.6371 2.35714 25.5845 2.11381 25.4823C1.86991 25.3815 1.64833 25.2334 1.46179 25.0467C1.27525 24.86 1.12743 24.6383 1.02681 24.3943ZM29.2248 12.6993C29.1238 12.4556 29.0719 12.1945 29.0719 11.9307C29.0718 11.667 29.1238 11.4058 29.2247 11.1621C29.3257 10.9184 29.4736 10.697 29.6602 10.5106C29.8467 10.3241 30.0681 10.1762 30.3118 10.0753C30.7985 9.89971 31.3342 9.91848 31.8074 10.1277C32.2806 10.3369 32.655 10.7205 32.8527 11.1987C33.0504 11.6768 33.0561 12.2128 32.8688 12.6951C32.6815 13.1774 32.3154 13.5689 31.8468 13.7883C31.6035 13.8905 31.3422 13.9431 31.0783 13.9431C30.8144 13.9431 30.5531 13.8905 30.3098 13.7883C30.0659 13.6874 29.8444 13.5394 29.6578 13.3527C29.4713 13.166 29.3235 12.9443 29.2228 12.7003L29.2248 12.6993ZM21.8718 22.6673C21.6458 22.8928 21.4917 23.1803 21.4291 23.4935C21.3665 23.8066 21.3982 24.1312 21.5202 24.4263C21.6422 24.7214 21.8489 24.9737 22.1143 25.1513C22.3797 25.3288 22.6918 25.4237 23.0111 25.4238C23.3304 25.424 23.6426 25.3294 23.9081 25.1521C24.1737 24.9747 24.3807 24.7226 24.5029 24.4276C24.6251 24.1326 24.6571 23.808 24.5948 23.4949C24.5325 23.1817 24.3787 22.894 24.1528 22.6683C23.8496 22.3676 23.44 22.1987 23.0129 22.1981C22.5859 22.1976 22.1759 22.3654 21.8718 22.6653V22.6673ZM8.42381 16.8023C8.09601 16.7148 7.81639 16.5006 7.64648 16.2069C7.47658 15.9133 7.43029 15.5641 7.51781 15.2363C7.60533 14.9085 7.81949 14.6289 8.11317 14.459C8.40686 14.2891 8.75601 14.2428 9.08381 14.3303C9.40813 14.4212 9.68355 14.6362 9.85038 14.9288C10.0172 15.2214 10.062 15.568 9.97501 15.8933C9.88804 16.2187 9.67633 16.4967 9.38577 16.6671C9.09521 16.8374 8.74922 16.8863 8.42281 16.8033L8.42381 16.8023ZM24.8878 21.2193C24.5576 21.1393 24.2727 20.9315 24.0958 20.6415C23.9188 20.3514 23.8643 20.003 23.9443 19.6728C24.0243 19.3426 24.2321 19.0577 24.5222 18.8808C24.8122 18.7038 25.1606 18.6493 25.4908 18.7293L25.5508 18.7463C25.8643 18.8463 26.1272 19.0632 26.285 19.352C26.4428 19.6408 26.4833 19.9792 26.3981 20.2971C26.3129 20.615 26.1086 20.8878 25.8275 21.0589C25.5465 21.2301 25.2103 21.2865 24.8888 21.2163V21.2193H24.8878ZM7.76981 20.2503C7.70237 19.9979 7.73372 19.7294 7.85747 19.4993C7.98123 19.2693 8.18807 19.0951 8.43581 19.0123L8.49381 18.9963C8.68965 18.9435 8.89676 18.9501 9.08883 19.0153C9.2809 19.0805 9.44925 19.2013 9.5725 19.3624C9.69576 19.5235 9.76834 19.7176 9.78104 19.92C9.79374 20.1224 9.74597 20.3241 9.64381 20.4993C9.50756 20.7344 9.28403 20.9061 9.02181 20.9773C8.8919 21.0126 8.75625 21.0216 8.62281 21.0038C8.48938 20.9859 8.36086 20.9415 8.24481 20.8733C8.01047 20.7374 7.83909 20.5147 7.76781 20.2533L7.76981 20.2503ZM24.7038 16.4643L24.6598 16.4373C24.4939 16.3291 24.3629 16.1753 24.2825 15.9943C24.2021 15.8133 24.1758 15.6129 24.2068 15.4173C24.2378 15.2218 24.3247 15.0393 24.4571 14.892C24.5895 14.7447 24.7616 14.6389 24.9528 14.5873C25.1155 14.5438 25.2864 14.5412 25.4503 14.5795C25.6143 14.6179 25.7662 14.6961 25.8927 14.8072C26.0192 14.9183 26.1164 15.0589 26.1756 15.2165C26.2348 15.3741 26.2543 15.5439 26.2322 15.7108C26.2101 15.8777 26.1473 16.0366 26.0491 16.1735C25.951 16.3103 25.8206 16.4208 25.6696 16.4952C25.5185 16.5696 25.3515 16.6056 25.1832 16.6001C25.0149 16.5945 24.8506 16.5475 24.7048 16.4633L24.7038 16.4643ZM11.5328 24.3113L11.5028 24.3413C11.357 24.4788 11.1634 24.5541 10.963 24.5512C10.7626 24.5482 10.5713 24.4672 10.4296 24.3255C10.288 24.1837 10.2072 23.9923 10.2044 23.7919C10.2017 23.5915 10.2771 23.3979 10.4148 23.2523C10.5557 23.1062 10.7487 23.0216 10.9516 23.0171C11.1546 23.0125 11.3511 23.0882 11.4985 23.2278C11.6459 23.3674 11.7322 23.5596 11.7386 23.7625C11.745 23.9654 11.6711 24.1627 11.5328 24.3113ZM23.5528 11.1993C23.6247 11.2707 23.6818 11.3556 23.7207 11.4491C23.7597 11.5427 23.7797 11.643 23.7797 11.7443C23.7797 11.8456 23.7597 11.9459 23.7207 12.0395C23.6818 12.133 23.6247 12.2179 23.5528 12.2893C23.4448 12.3963 23.3075 12.4689 23.1583 12.4981C23.0091 12.5272 22.8545 12.5114 22.7142 12.4529C22.5739 12.3943 22.4541 12.2955 22.3699 12.1689C22.2856 12.0423 22.2407 11.8936 22.2409 11.7416C22.241 11.5895 22.2862 11.4409 22.3706 11.3145C22.4551 11.1881 22.5751 11.0895 22.7155 11.0312C22.856 10.9729 23.0105 10.9574 23.1597 10.9868C23.3089 11.0162 23.446 11.0891 23.5538 11.1963V11.1983L23.5528 11.1993ZM15.6678 25.5053C15.7865 25.7104 15.8303 25.9504 15.7919 26.1843C15.7534 26.4181 15.635 26.6314 15.4568 26.7877C15.2787 26.9441 15.0518 27.0337 14.815 27.0415C14.5781 27.0493 14.3458 26.9746 14.1578 26.8303C13.9699 26.6859 13.8378 26.4809 13.7841 26.25C13.7304 26.0192 13.7584 25.7769 13.8634 25.5644C13.9684 25.3519 14.1439 25.1824 14.3598 25.0849C14.5758 24.9873 14.819 24.9676 15.0478 25.0293C15.3118 25.1013 15.5318 25.2693 15.6678 25.5073V25.5053ZM18.3028 10.0583C18.2017 9.88296 18.1548 9.68162 18.1679 9.47965C18.181 9.27767 18.2537 9.08411 18.3767 8.92337C18.4997 8.76262 18.6675 8.64189 18.859 8.57639C19.0505 8.51088 19.2571 8.50355 19.4528 8.5553C19.5828 8.5901 19.7047 8.65016 19.8115 8.73207C19.9183 8.81397 20.0079 8.91611 20.0752 9.03264C20.1426 9.14918 20.1863 9.27784 20.2039 9.41127C20.2215 9.5447 20.2126 9.68029 20.1778 9.8103C20.143 9.94031 20.0829 10.0622 20.001 10.169C19.9191 10.2758 19.817 10.3654 19.7005 10.4327C19.5839 10.5 19.4553 10.5437 19.3218 10.5613C19.1884 10.5789 19.0528 10.5701 18.9228 10.5353C18.793 10.5009 18.6713 10.441 18.5649 10.3591C18.4584 10.2772 18.3693 10.175 18.3028 10.0583ZM19.8398 24.9153L19.8938 24.9473C20.161 25.134 20.347 25.4156 20.4137 25.7347C20.4804 26.0537 20.4229 26.3863 20.2528 26.6644C20.0828 26.9425 19.813 27.1452 19.4986 27.2313C19.1842 27.3173 18.8488 27.2801 18.5608 27.1273C18.4152 27.0437 18.2875 26.9321 18.1852 26.7989C18.0829 26.6657 18.008 26.5136 17.9648 26.3513C17.8748 26.0213 17.9218 25.6763 18.0918 25.3793C18.1755 25.2337 18.2871 25.1061 18.4203 25.0037C18.5535 24.9014 18.7055 24.8264 18.8678 24.783C19.03 24.7396 19.1992 24.7287 19.3657 24.7509C19.5322 24.7731 19.6926 24.8279 19.8378 24.9123L19.8398 24.9153ZM15.1128 10.7773C14.7856 10.8635 14.4375 10.8169 14.1445 10.6476C13.8516 10.4782 13.6374 10.1999 13.5488 9.8733C13.4987 9.68422 13.4926 9.48618 13.5309 9.29436C13.5693 9.10255 13.651 8.92208 13.77 8.76681C13.889 8.61154 14.0419 8.4856 14.2172 8.39866C14.3924 8.31172 14.5852 8.2661 14.7808 8.2653C15.062 8.26544 15.3353 8.35817 15.5585 8.52915C15.7817 8.70013 15.9424 8.93986 16.0158 9.2113C16.1032 9.53869 16.0573 9.88739 15.888 10.181C15.7187 10.4745 15.44 10.689 15.1128 10.7773ZM10.9628 13.3463C11.1744 13.3462 11.384 13.3044 11.5794 13.2232C11.7749 13.1421 11.9525 13.0233 12.102 12.8736C12.2516 12.7239 12.3702 12.5461 12.451 12.3506C12.5319 12.155 12.5734 11.9454 12.5733 11.7338C12.5732 11.5222 12.5314 11.3126 12.4503 11.1172C12.3692 10.9217 12.2503 10.7441 12.1006 10.5946C11.9509 10.445 11.7731 10.3264 11.5776 10.2456C11.382 10.1647 11.1724 10.1232 10.9608 10.1233C10.5334 10.1236 10.1236 10.2936 9.8216 10.596C9.51958 10.8984 9.35005 11.3084 9.35031 11.7358C9.35058 12.1632 9.52061 12.573 9.82302 12.875C10.1254 13.177 10.5354 13.3466 10.9628 13.3463Z" fill="white"/>
</g>
<defs>
<clipPath id="clip0_941_390">
<rect width="125" height="35" fill="white" transform="translate(0.0078125 0.779297)"/>
</clipPath>
</defs>
</svg>
