<svg width="216" height="33" viewBox="0 0 216 33" fill="none" xmlns="http://www.w3.org/2000/svg">
<g clip-path="url(#clip0_941_312)">
<path opacity="0.5" d="M30.5701 6.4681L16.316 1.03489C15.7835 0.875089 15.6197 0.875089 15.0872 1.03489L0.833042 6.4681C0.259599 6.7078 0.136719 6.90755 0.136719 7.46685V26.0836C0.136719 26.6828 0.259599 26.8027 0.833042 27.0823L15.0872 32.7552C15.3739 32.8751 15.5377 32.915 15.7425 32.915C15.9064 32.915 16.1112 32.8751 16.357 32.7552L30.6111 27.0823C31.1845 26.8826 31.3074 26.6828 31.3074 26.0836V7.46685C31.2665 6.90755 31.1436 6.7078 30.5701 6.4681ZM27.662 26.1635L15.7016 30.8376L3.74121 26.1635L15.7016 21.9687L27.662 26.1635ZM3.78218 7.38695L15.7016 2.95249L27.621 7.38695L15.7016 11.6217L3.78218 7.38695ZM20.2482 20.2509C20.4939 20.171 20.6578 19.9313 20.6578 19.6916V13.8988C20.6578 13.6591 20.4939 13.4194 20.2482 13.3395L18.6507 12.7003L29.2184 8.90505V24.6853L18.6507 20.8901L20.2482 20.2509ZM18.5688 14.8976V18.6928L15.7016 19.8114L12.8753 18.6928V14.8976L15.7016 13.779L18.5688 14.8976ZM11.196 13.3395C10.9502 13.4194 10.7864 13.6591 10.7864 13.9388V19.6916C10.7864 19.9313 10.9502 20.171 11.196 20.2509L12.7934 20.8901L2.22569 24.6853V8.90505L12.7934 12.7403L11.196 13.3395Z" fill="white"/>
<g opacity="0.5">
<path d="M47.1582 10.7023H39.9492V6.82715H59.3234V10.7023H52.1554V26.8022H47.1992V10.7023H47.1582Z" fill="white"/>
<path d="M61.125 6.86719H66.0812V14.3778H75.502V6.86719H80.4582V26.8422H75.502V18.213H66.0812V26.8023H61.125V6.86719Z" fill="white"/>
<path d="M99.343 18.4128H87.9151V22.9671H100.203V26.8422H82.918V6.86719H100.203V10.7423H87.9151V14.4976H99.343V18.4128Z" fill="white"/>
<path d="M110.156 6.86719H121.502C126.417 6.86719 128.547 9.18429 128.547 12.0207C128.547 14.3378 127.073 15.6962 125.475 16.2954C127.441 16.8947 129.285 18.3728 129.285 20.9296C129.285 24.6849 126.336 26.8822 121.338 26.8822H110.197V6.86719H110.156ZM120.437 14.6575C122.649 14.6575 123.386 13.7785 123.386 12.58C123.386 11.0619 122.199 10.4627 120.478 10.4627H115.031V14.6575H120.437ZM115.031 23.2068H120.642C122.567 23.2068 124.001 22.6475 124.001 20.6899C124.001 19.0919 122.895 18.2929 120.724 18.2929H115.031V23.2068Z" fill="white"/>
<path d="M131.453 6.86719H136.409V22.9671H147.223V26.8422H131.453V6.86719Z" fill="white"/>
<path d="M169.833 16.7748C169.833 22.3279 166.065 27.2417 158.61 27.2417C151.647 27.2417 147.715 22.6075 147.715 16.7748C147.715 11.2617 151.934 6.42773 158.856 6.42773C165.983 6.42773 169.833 11.3416 169.833 16.7748ZM152.917 16.7349C152.917 20.5301 154.883 23.4864 158.856 23.4864C162.993 23.4864 164.59 20.0907 164.59 16.8547C164.59 13.2991 162.829 10.223 158.692 10.223C154.678 10.223 152.917 13.379 152.917 16.7349Z" fill="white"/>
<path d="M192.157 20.4902C191.215 24.0058 188.348 27.2417 181.917 27.2417C174.585 27.2417 171.062 22.2879 171.062 16.8547C171.062 11.4215 174.954 6.42773 182.163 6.42773C188.43 6.42773 191.584 9.82349 192.157 13.1793H187.119C186.709 12.0207 185.603 10.183 182.081 10.183C178.231 10.183 176.264 13.0195 176.264 16.655C176.264 20.3304 178.067 23.4864 182.122 23.4864C185.03 23.4864 186.3 22.3678 187.119 20.4502H192.157V20.4902Z" fill="white"/>
<path d="M193.836 6.86719H198.792V15.6163C201.741 12.9396 204.568 10.4227 208.459 6.86719H214.521L204.895 15.4565L215.053 26.8422H208.868L201.414 18.0932L198.792 20.2105V26.8023H193.836V6.86719Z" fill="white"/>
</g>
</g>
<defs>
<clipPath id="clip0_941_312">
<rect width="215" height="32" fill="white" transform="translate(0.136719 0.915039)"/>
</clipPath>
</defs>
</svg>
