<svg width="99" height="40" viewBox="0 0 99 40" fill="none" xmlns="http://www.w3.org/2000/svg">
<path opacity="0.5" d="M29.1575 7.21289V8.61727C28.3507 7.57246 26.857 6.85333 25.1269 6.85333C21.038 6.85333 17.9951 10.4703 17.9951 14.7173C17.9951 19.0839 21.0073 22.581 25.1269 22.581C26.857 22.581 28.3507 21.8927 29.1575 20.7865V22.1938H34.2495V7.21289H29.1575ZM36.0224 0.575195V22.1969H41.3045V14.2071C41.3045 12.6521 42.0498 11.7241 43.2431 11.7241C44.4363 11.7241 45.0651 12.5323 45.0651 14.0258V22.1969H50.3227V12.7781C50.3227 9.13045 48.3534 6.8564 45.1878 6.8564C44.4344 6.82895 43.685 6.97994 43.0006 7.2971C42.3163 7.61427 41.7163 8.08869 41.2492 8.6818V0.578272L36.0224 0.575195ZM84.3435 14.711C84.3435 19.1977 80.9111 22.5748 76.3437 22.5748C71.7762 22.5748 68.3438 19.1946 68.3438 14.711C68.3438 10.2275 71.7762 6.84722 76.3437 6.84722C80.9111 6.84722 84.3435 10.2275 84.3435 14.711ZM67.4481 14.711C67.4481 19.1977 64.0157 22.5748 59.4514 22.5748C54.8871 22.5748 51.4516 19.1946 51.4516 14.711C51.4516 10.2275 54.884 6.84722 59.4514 6.84722C64.0187 6.84722 67.4481 10.2275 67.4481 14.711ZM0.921875 7.20674L7.30824 22.3076L5.01075 27.7498H10.6211L19.1271 7.20674H13.5351L10.072 15.9986L6.63955 7.20674H0.921875ZM26.2005 17.7902C25.7935 17.7992 25.3888 17.7262 25.0105 17.5755C24.6321 17.4248 24.2881 17.1993 23.9984 16.9127C23.7088 16.626 23.4796 16.2839 23.3247 15.9067C23.1698 15.5296 23.092 15.1251 23.0962 14.7173C23.0925 14.3094 23.1705 13.9051 23.3255 13.5281C23.4808 13.1512 23.7098 12.8092 23.9993 12.5226C24.2889 12.2361 24.6328 12.0106 25.0109 11.8597C25.389 11.7088 25.7935 11.6355 26.2005 11.6442C26.6046 11.6397 27.0055 11.7161 27.3797 11.8689C27.7539 12.0217 28.0939 12.2479 28.3796 12.5342C28.6653 12.8204 28.8911 13.161 29.0437 13.5359C29.1963 13.9108 29.2725 14.3123 29.2679 14.7173C29.2729 15.1222 29.197 15.524 29.0445 15.899C28.8921 16.2741 28.6663 16.6148 28.3804 16.9012C28.0947 17.1875 27.7546 17.4137 27.3802 17.5664C27.0058 17.719 26.6047 17.7952 26.2005 17.7902ZM62.4359 14.7173C62.4454 14.3204 62.3751 13.9259 62.2288 13.5571C62.0825 13.1883 61.8635 12.8529 61.5849 12.5709C61.3063 12.2889 60.9737 12.0661 60.6071 11.9158C60.2405 11.7656 59.8475 11.6909 59.4514 11.6964C59.0553 11.6909 58.6622 11.7656 58.2955 11.9158C57.929 12.0661 57.5964 12.2889 57.3178 12.5709C57.0391 12.8529 56.8201 13.1883 56.6739 13.5571C56.5277 13.9259 56.4572 14.3204 56.4668 14.7173C56.4572 15.1139 56.5277 15.5084 56.6739 15.8773C56.8201 16.246 57.0391 16.5814 57.3178 16.8635C57.5964 17.1455 57.929 17.3684 58.2955 17.5186C58.6622 17.6689 59.0553 17.7434 59.4514 17.738C59.8475 17.7434 60.2405 17.6689 60.6071 17.5186C60.9737 17.3684 61.3063 17.1455 61.5849 16.8635C61.8635 16.5814 62.0825 16.246 62.2288 15.8773C62.3751 15.5084 62.4454 15.1139 62.4359 14.7173ZM79.3283 14.7173C79.3378 14.3204 79.2673 13.9259 79.1212 13.5571C78.9749 13.1883 78.7559 12.8529 78.4773 12.5709C78.1986 12.2889 77.866 12.0661 77.4994 11.9158C77.1328 11.7656 76.7397 11.6909 76.3437 11.6964C75.9476 11.6909 75.5546 11.7656 75.1879 11.9158C74.8212 12.0661 74.4888 12.2889 74.21 12.5709C73.9314 12.8529 73.7124 13.1883 73.5662 13.5571C73.42 13.9259 73.3495 14.3204 73.359 14.7173C73.3495 15.1139 73.42 15.5084 73.5662 15.8773C73.7124 16.246 73.9314 16.5814 74.21 16.8635C74.4888 17.1455 74.8212 17.3684 75.1879 17.5186C75.5546 17.6689 75.9476 17.7434 76.3437 17.738C76.7397 17.7434 77.1328 17.6689 77.4994 17.5186C77.866 17.3684 78.1986 17.1455 78.4773 16.8635C78.7559 16.5814 78.9749 16.246 79.1212 15.8773C79.2673 15.5084 79.3378 15.1139 79.3283 14.7173ZM85 19.0194C84.9949 19.4723 85.0804 19.9218 85.2512 20.3412C85.4219 20.7606 85.6745 21.1417 85.9943 21.4619C86.3139 21.7822 86.6943 22.0354 87.113 22.2064C87.5317 22.3775 87.9802 22.463 88.4324 22.4582C88.8999 22.4618 89.3634 22.3722 89.7961 22.1948C90.2286 22.0172 90.6217 21.7553 90.9522 21.424C91.2829 21.0928 91.5443 20.6991 91.7215 20.2657C91.8988 19.8323 91.9881 19.3679 91.9845 18.8995C91.9923 18.4458 91.909 17.9951 91.7393 17.5744C91.5695 17.1536 91.3171 16.7713 90.9967 16.4504C90.6764 16.1295 90.2948 15.8766 89.8748 15.7066C89.4548 15.5364 89.005 15.453 88.5521 15.4608C88.0836 15.4576 87.6193 15.5475 87.1859 15.7251C86.7523 15.9028 86.3583 16.1648 86.0266 16.496C85.6948 16.8272 85.432 17.2211 85.253 17.6548C85.0742 18.0883 84.9829 18.5532 84.9846 19.0225L85 19.0194ZM92.5213 0.581346L86.9109 14.1548H93.1777L98.788 0.575195L92.5213 0.581346Z" fill="white"/>
<path opacity="0.15" d="M40.5612 30.4556C40.5612 29.5104 41.1489 29.099 41.897 29.099C42.2357 29.0963 42.5706 29.17 42.8769 29.3148V26.62C42.3826 26.4061 41.8477 26.3025 41.3094 26.3165C38.7966 26.3165 37.3184 27.8687 37.3184 30.3843V30.6713H36.125V33.2947H37.3184V39.5947H40.5612V33.2947H42.7511V30.6713H40.5612V30.4556ZM47.1307 39.5965V30.6731H43.8752V39.5965H47.1307ZM47.326 28.0497C47.3193 27.5692 47.1241 27.1108 46.7826 26.7735C46.441 26.4361 45.9808 26.247 45.5011 26.2471C45.0215 26.247 44.5612 26.4361 44.2197 26.7735C43.8782 27.1108 43.683 27.5692 43.6762 28.0497C43.683 28.5301 43.8782 28.9885 44.2197 29.3259C44.5612 29.6632 45.0215 29.8523 45.5011 29.8523C45.9808 29.8523 46.441 29.6632 46.7826 29.3259C47.1241 28.9885 47.3193 28.5301 47.326 28.0497ZM64.9269 30.6731V31.6183C64.3797 30.8505 63.414 30.4226 62.3445 30.4226C59.9212 30.4226 58.1584 32.5104 58.1584 35.1339C58.1584 37.7573 59.903 39.8451 62.3445 39.8451C63.414 39.8451 64.3523 39.4173 64.9269 38.6495V39.5965H68.1346V30.6731H64.9269ZM65.0166 35.1339C65.0158 35.3735 64.9684 35.6107 64.8754 35.8315C64.7824 36.0524 64.6471 36.2526 64.4769 36.4204C64.3058 36.5882 64.1032 36.7203 63.8815 36.8089C63.659 36.8975 63.4215 36.9408 63.1823 36.9365C62.9432 36.9411 62.7049 36.8979 62.4823 36.8094C62.2606 36.7209 62.058 36.5889 61.887 36.4211C61.7159 36.2533 61.5797 36.053 61.4875 35.832C61.3945 35.611 61.3464 35.3737 61.3464 35.1339C61.3464 34.8941 61.3945 34.6568 61.4875 34.4358C61.5797 34.2148 61.7159 34.0146 61.887 33.8467C62.058 33.6789 62.2606 33.5469 62.4823 33.4584C62.7049 33.3699 62.9432 33.3267 63.1823 33.3313C63.4215 33.3269 63.659 33.3703 63.8815 33.4589C64.1032 33.5475 64.3058 33.6796 64.4769 33.8474C64.6471 34.0152 64.7824 34.2154 64.8754 34.4362C64.9684 34.6572 65.0158 34.8943 65.0166 35.1339ZM75.015 39.5947H78.2742V33.9273C78.2742 31.7499 77.0801 30.4117 75.1719 30.4117C74.1207 30.4117 73.2646 30.8578 72.7481 31.6914V30.6567H69.4906V39.5801H72.7514V34.8268C72.7514 33.9127 73.1973 33.3642 73.909 33.3642C74.6206 33.3642 75.015 33.8651 75.015 34.7207V39.5947ZM54.0105 39.5947H57.2715V33.9273C57.2715 31.7499 56.0781 30.4117 54.1692 30.4117C53.1181 30.4117 52.264 30.8578 51.7458 31.6914V30.6567H48.4885V39.5801H51.7476V34.8268C51.7476 33.9127 52.1929 33.3642 52.9064 33.3642C53.6199 33.3642 54.0013 33.8651 54.0013 34.7207L54.0105 39.5947ZM79.1643 35.132C79.1643 38.0243 81.2319 39.8433 83.9215 39.8433C84.663 39.8465 85.3954 39.6755 86.0588 39.3442V36.3807C85.5889 36.727 85.0217 36.9146 84.438 36.9164C83.2979 36.9164 82.46 36.2034 82.46 35.132C82.46 34.0607 83.3161 33.3477 84.438 33.3477C85.0159 33.3483 85.5806 33.5222 86.0588 33.8469V30.8852C85.4062 30.5801 84.6946 30.4216 83.9746 30.4208C81.1605 30.4208 79.1643 32.4007 79.1643 35.132ZM92.9168 36.5781C92.7532 36.8168 92.5315 37.0093 92.2733 37.1374C92.0142 37.2654 91.7269 37.3247 91.4388 37.3094C90.5843 37.3094 89.8893 36.761 89.8362 35.9529H95.9825C96.0058 35.7276 96.0174 35.5012 96.0174 35.2747C96.0174 32.3496 94.1283 30.4208 91.3856 30.4208C90.762 30.4084 90.1426 30.5222 89.5646 30.7555C88.9859 30.9888 88.4603 31.3367 88.0193 31.7784C87.5784 32.2201 87.2313 32.7464 86.9988 33.3258C86.7655 33.9053 86.6525 34.5259 86.6642 35.1504C86.6642 37.9877 88.5167 39.8433 91.4205 39.8433C93.3802 39.8433 94.8416 39.0937 95.6961 37.6495L92.9168 36.5781ZM89.8528 34.0973C89.9242 33.366 90.5478 32.8834 91.3674 32.8834C92.1869 32.8834 92.7923 33.366 92.8637 34.0973H89.8528Z" fill="white"/>
</svg>
