<svg width="260" height="48" viewBox="0 0 260 48" fill="none" xmlns="http://www.w3.org/2000/svg">
<g clip-path="url(#clip0_628_99418)">
<path fill-rule="evenodd" clip-rule="evenodd" d="M256.971 15.5992C256.84 15.8604 256.685 16.0443 256.507 16.1513C256.341 16.2581 256.139 16.3115 255.901 16.3115C255.665 16.3115 255.397 16.2225 255.1 16.0443C254.803 15.8544 254.453 15.6467 254.05 15.4211C253.647 15.1955 253.171 14.9936 252.625 14.8156C252.09 14.6256 251.455 14.5306 250.719 14.5306C250.054 14.5306 249.472 14.6137 248.974 14.7799C248.487 14.9343 248.071 15.1539 247.727 15.4389C247.395 15.7238 247.146 16.0681 246.979 16.4718C246.813 16.8637 246.73 17.297 246.73 17.7719C246.73 18.3773 246.897 18.8821 247.229 19.2857C247.573 19.6894 248.023 20.0337 248.582 20.3186C249.14 20.6036 249.775 20.8589 250.488 21.0845C251.2 21.31 251.925 21.5533 252.661 21.8147C253.409 22.0639 254.138 22.3608 254.851 22.7051C255.563 23.0375 256.198 23.4649 256.756 23.9874C257.315 24.4979 257.759 25.1271 258.092 25.8752C258.437 26.6232 258.608 27.5314 258.608 28.6C258.608 29.7635 258.407 30.8559 258.003 31.8769C257.612 32.8862 257.029 33.7706 256.258 34.5306C255.498 35.2785 254.567 35.8721 253.463 36.3114C252.358 36.7389 251.094 36.9526 249.669 36.9526C248.849 36.9526 248.043 36.8694 247.246 36.7032C246.451 36.5489 245.685 36.3233 244.949 36.0265C244.225 35.7296 243.543 35.3734 242.9 34.9578C242.272 34.5423 241.707 34.0793 241.209 33.5687L242.599 31.2714C242.729 31.1051 242.883 30.9687 243.062 30.8618C243.251 30.7431 243.459 30.6837 243.684 30.6837C243.981 30.6837 244.301 30.8083 244.645 31.0577C244.99 31.2951 245.394 31.5623 245.858 31.8591C246.332 32.156 246.884 32.429 247.514 32.6783C248.155 32.9158 248.92 33.0345 249.812 33.0345C251.176 33.0345 252.233 32.714 252.982 32.0728C253.729 31.4198 254.103 30.4878 254.103 29.2767C254.103 28.6 253.931 28.0478 253.586 27.6205C253.255 27.1931 252.809 26.8369 252.25 26.5519C251.693 26.2551 251.057 26.0058 250.345 25.804C249.632 25.602 248.909 25.3824 248.173 25.145C247.436 24.9075 246.713 24.6226 246 24.2902C245.288 23.9578 244.652 23.5243 244.095 22.9901C243.536 22.4558 243.084 21.7909 242.74 20.9953C242.408 20.188 242.242 19.1967 242.242 18.0213C242.242 17.0833 242.426 16.1691 242.794 15.2786C243.175 14.3881 243.72 13.5986 244.433 12.91C245.156 12.2213 246.042 11.6692 247.086 11.2537C248.131 10.8381 249.325 10.6304 250.665 10.6304C252.185 10.6304 253.586 10.8678 254.868 11.3427C256.15 11.8176 257.243 12.4825 258.146 13.3374L256.971 15.5992Z" fill="white"/>
<path fill-rule="evenodd" clip-rule="evenodd" d="M237.009 30.5946C237.271 30.5946 237.496 30.6955 237.687 30.8974L239.573 32.9455C238.529 34.2396 237.241 35.2309 235.71 35.9197C234.19 36.6083 232.36 36.9526 230.225 36.9526C228.313 36.9526 226.591 36.6261 225.059 35.973C223.54 35.3201 222.239 34.4117 221.159 33.2482C220.078 32.0847 219.248 30.6955 218.666 29.0809C218.096 27.4662 217.811 25.7031 217.811 23.7915C217.811 21.8562 218.131 20.0871 218.772 18.4843C219.413 16.8696 220.316 15.4804 221.479 14.3169C222.644 13.1534 224.032 12.251 225.647 11.6099C227.274 10.9569 229.066 10.6304 231.026 10.6304C232.936 10.6304 234.605 10.9391 236.03 11.5565C237.466 12.162 238.696 12.9693 239.716 13.9785L238.114 16.2048C238.018 16.3472 237.895 16.4718 237.739 16.5787C237.596 16.6855 237.395 16.739 237.135 16.739C236.862 16.739 236.582 16.632 236.297 16.4185C236.013 16.2048 235.649 15.9731 235.21 15.7238C234.772 15.4745 234.214 15.243 233.536 15.0293C232.871 14.8156 232.022 14.7087 230.989 14.7087C229.779 14.7087 228.663 14.9224 227.642 15.3498C226.633 15.7654 225.76 16.365 225.024 17.1486C224.3 17.9321 223.729 18.8879 223.313 20.0159C222.91 21.1319 222.709 22.3905 222.709 23.7915C222.709 25.2399 222.91 26.5281 223.313 27.6561C223.729 28.784 224.287 29.7338 224.989 30.5055C225.688 31.2773 226.514 31.871 227.464 32.2866C228.413 32.6902 229.435 32.892 230.526 32.892C231.18 32.892 231.767 32.8565 232.29 32.7852C232.824 32.714 233.311 32.6012 233.75 32.4468C234.201 32.2924 234.623 32.0965 235.015 31.8591C235.418 31.6097 235.816 31.307 236.208 30.9508C236.327 30.844 236.451 30.7608 236.582 30.7015C236.712 30.6303 236.855 30.5946 237.009 30.5946Z" fill="white"/>
<path fill-rule="evenodd" clip-rule="evenodd" d="M213.503 36.6679H208.694V10.9155H213.503V36.6679Z" fill="white"/>
<path fill-rule="evenodd" clip-rule="evenodd" d="M205.035 10.9155V14.8514H197.289V36.6679H192.497V14.8514H184.715V10.9155H205.035Z" fill="white"/>
<path fill-rule="evenodd" clip-rule="evenodd" d="M175.035 26.6589V36.6679H170.243V26.6589L160.858 10.9155H165.078C165.494 10.9155 165.821 11.0165 166.059 11.2183C166.308 11.4201 166.516 11.6754 166.681 11.9841L171.401 20.586C171.674 21.0965 171.912 21.5832 172.114 22.0464C172.315 22.4975 172.499 22.9428 172.666 23.382C172.82 22.9309 172.993 22.4797 173.181 22.0286C173.384 21.5655 173.621 21.0847 173.894 20.586L178.578 11.9841C178.709 11.7229 178.904 11.4795 179.166 11.2539C179.426 11.0283 179.76 10.9155 180.163 10.9155H184.402L175.035 26.6589Z" fill="white"/>
<path fill-rule="evenodd" clip-rule="evenodd" d="M153.973 32.7142H164.285V36.6679H149.183V10.9155H153.973V32.7142Z" fill="white"/>
<path fill-rule="evenodd" clip-rule="evenodd" d="M146.496 36.6679H142.791C142.376 36.6679 142.032 36.5669 141.758 36.3651C141.497 36.1514 141.307 35.8902 141.189 35.5815L139.265 30.3278H128.597L126.674 35.5815C126.579 35.8545 126.389 36.1038 126.104 36.3294C125.831 36.555 125.493 36.6679 125.089 36.6679H121.367L131.482 10.9155H136.38L146.496 36.6679ZM129.826 26.9439H138.036L134.902 18.3776C134.759 17.9977 134.599 17.5525 134.421 17.0419C134.255 16.5196 134.089 15.9556 133.922 15.3501C133.756 15.9556 133.59 16.5196 133.424 17.0419C133.269 17.5644 133.115 18.0215 132.961 18.4133L129.826 26.9439Z" fill="white"/>
<path fill-rule="evenodd" clip-rule="evenodd" d="M99.4481 10.9155C99.6618 10.9155 99.84 10.9274 99.9825 10.9511C100.125 10.963 100.25 10.9986 100.356 11.058C100.475 11.1055 100.588 11.1827 100.695 11.2895C100.802 11.3845 100.92 11.5151 101.051 11.6813L114.568 28.9029C114.521 28.4874 114.485 28.0838 114.461 27.6919C114.45 27.2882 114.444 26.9142 114.444 26.5699V10.9155H118.664V36.6679H116.189C115.809 36.6679 115.494 36.6085 115.245 36.4897C114.996 36.371 114.752 36.1573 114.515 35.8487L101.051 18.6982C101.087 19.0781 101.11 19.4581 101.122 19.8381C101.146 20.206 101.158 20.5445 101.158 20.8531V36.6679H96.9371V10.9155H99.4481Z" fill="white"/>
<path fill-rule="evenodd" clip-rule="evenodd" d="M94.25 36.6679H90.5458C90.1303 36.6679 89.7858 36.5669 89.5128 36.3651C89.2516 36.1514 89.0617 35.8902 88.943 35.5815L87.0195 30.3278H76.3516L74.4283 35.5815C74.3333 35.8545 74.1433 36.1038 73.8584 36.3294C73.5853 36.555 73.2469 36.6679 72.8432 36.6679H69.1211L79.2368 10.9155H84.1343L94.25 36.6679ZM77.5805 26.9439H85.7906L82.6562 18.3776C82.5137 17.9977 82.3535 17.5525 82.1753 17.0419C82.0092 16.5196 81.8429 15.9556 81.6768 15.3501C81.5105 15.9556 81.3442 16.5196 81.1781 17.0419C81.0237 17.5644 80.8693 18.0215 80.7149 18.4133L77.5805 26.9439Z" fill="white"/>
<path d="M7.74797 -0.000488281H52.3682C56.1818 -0.000488281 59.2736 3.07777 59.2736 6.87499V40.7236C59.2736 44.5208 56.1818 47.599 52.3682 47.599H7.74797C3.93417 47.599 0.842468 44.5208 0.842468 40.7236V6.87499C0.842468 3.07777 3.93417 -0.000488281 7.74797 -0.000488281Z" fill="white"/>
<path fill-rule="evenodd" clip-rule="evenodd" d="M33.2987 16.6874L38.0163 12.2395H42.4817V35.3593H37.8887V17.7256L32.1277 23.5305C31.9973 23.6895 31.8597 23.8432 31.7153 23.992C31.3204 24.3987 30.8906 24.7947 30.426 25.1801L22.935 31.1207H33.8756V35.3593H16.6633V30.2536L26.2451 22.3223C26.7328 21.9156 27.2205 21.4553 27.7084 20.9416C28.1962 20.4278 28.44 19.8284 28.44 19.1432C28.44 18.3726 28.1381 17.7679 27.5342 17.3291C26.9302 16.8902 26.2217 16.6708 25.4087 16.6708C24.4331 16.6708 23.6725 16.9491 23.1265 17.5057C22.5807 18.0623 22.2729 18.7472 22.2032 19.5607L16.9768 19.2075C17.0466 18.0302 17.3136 17.0079 17.7782 16.141C18.2428 15.274 18.8584 14.5515 19.6249 13.9735C20.3914 13.3955 21.2915 12.962 22.3252 12.673C23.3589 12.384 24.4796 12.2395 25.6875 12.2395C26.8024 12.2395 27.8477 12.384 28.8234 12.673C29.799 12.962 30.6467 13.3901 31.3669 13.9574C32.0869 14.5247 32.6502 15.2365 33.0567 16.0927C33.1475 16.2841 33.2282 16.4823 33.2987 16.6874Z" fill="#1C2339"/>
</g>
<defs>
<clipPath id="clip0_628_99418">
<rect width="258.624" height="47.5995" fill="white" transform="translate(0.842468 -0.000488281)"/>
</clipPath>
</defs>
</svg>
