<svg width="18" height="17" viewBox="0 0 18 17" fill="none" xmlns="http://www.w3.org/2000/svg">
<path fill-rule="evenodd" clip-rule="evenodd" d="M5.21685 2.5823C3.80592 2.5823 2.66213 3.72609 2.66213 5.13702V11.9496C2.66213 13.3605 3.80592 14.5043 5.21685 14.5043H12.0294C13.4404 14.5043 14.5842 13.3605 14.5842 11.9496V11.098C14.5842 10.6277 14.9654 10.2465 15.4357 10.2465C15.906 10.2465 16.2873 10.6277 16.2873 11.098V11.9496C16.2873 14.3012 14.381 16.2075 12.0294 16.2075H5.21685C2.8653 16.2075 0.958984 14.3012 0.958984 11.9496V5.13702C0.958984 2.78546 2.8653 0.87915 5.21685 0.87915H8.62315C9.09346 0.87915 9.47472 1.26041 9.47472 1.73072C9.47472 2.20104 9.09346 2.5823 8.62315 2.5823H5.21685ZM16.8795 4.52453L14.3356 1.98062C14.003 1.64806 13.4638 1.64806 13.1313 1.98062C12.7987 2.31318 12.7987 2.85237 13.1313 3.18493L14.0901 4.14376C13.3695 4.13883 12.6022 4.17404 11.8373 4.27306C10.1785 4.48782 8.39128 5.02039 7.1718 6.23988C6.3386 7.07309 5.82271 7.81667 5.53531 8.6334C5.25249 9.43707 5.21924 10.2381 5.21924 11.0999C5.21924 11.5702 5.6005 11.9515 6.07081 11.9515C6.54112 11.9515 6.92239 11.5702 6.92239 11.0999C6.92239 10.2585 6.96231 9.70904 7.14188 9.19875C7.31685 8.70153 7.65254 8.16776 8.37611 7.44418C9.20041 6.61988 10.5356 6.15895 12.056 5.96212C12.8388 5.86077 13.6339 5.83415 14.3701 5.85127L13.1313 7.09006C12.7987 7.42262 12.7987 7.96181 13.1313 8.29437C13.4638 8.62693 14.003 8.62693 14.3356 8.29437L16.8482 5.78176C17.0012 5.64894 17.1076 5.46137 17.1347 5.24451C17.1694 4.9672 17.0665 4.7044 16.8795 4.52453Z" fill="#888B92"/>
</svg>
