<svg width="165" height="35" viewBox="0 0 165 35" fill="none" xmlns="http://www.w3.org/2000/svg">
<g clip-path="url(#clip0_628_99524)">
<path d="M44.7874 11.9409H46.5716L51.5641 23.7777H49.207L48.1267 21.0693H43.1014L42.0539 23.7777H39.7458L44.7874 11.9409ZM47.4064 19.2637L45.6222 14.4487L43.8053 19.2637H47.4064Z" fill="white"/>
<path d="M53.7744 11.9409H56.1479L59.307 20.8854L62.5643 11.9409H64.7908L60.1092 23.7777H58.3251L53.7744 11.9409Z" fill="white"/>
<path d="M72.1604 11.9409H73.945L78.937 23.7777H76.58L75.4999 21.0693H70.4745L69.4267 23.7777H67.119L72.1604 11.9409ZM74.7795 19.2637L72.9954 14.4487L71.1784 19.2637H74.7795Z" fill="white"/>
<path d="M83.5044 11.9409H85.567V21.8718H90.4938V23.7777H83.5044V11.9409Z" fill="white"/>
<path d="M99.0116 11.9409H100.796L105.788 23.7777H103.431L102.351 21.0693H97.3256L96.2784 23.7777H93.9702L99.0116 11.9409ZM101.631 19.2637L99.8466 14.4487L98.0296 19.2637H101.631Z" fill="white"/>
<path d="M110.352 11.9409H113.085L118.7 20.7349H118.732V11.9409H120.795V23.7777H118.176L112.447 14.6995H112.414V23.7777H110.352V11.9409Z" fill="white"/>
<path d="M134.607 14.7164C134.182 14.2482 133.767 13.9362 133.363 13.7801C132.971 13.6241 132.572 13.5461 132.169 13.5461C131.568 13.5461 131.023 13.6575 130.531 13.8804C130.052 14.0922 129.637 14.3931 129.287 14.7832C128.939 15.1622 128.666 15.608 128.469 16.1207C128.283 16.6334 128.191 17.1851 128.191 17.7759C128.191 18.4112 128.283 18.9963 128.469 19.5313C128.666 20.0663 128.939 20.5289 129.287 20.919C129.637 21.3091 130.052 21.6156 130.531 21.8385C131.023 22.0614 131.568 22.1729 132.169 22.1729C132.638 22.1729 133.09 22.0614 133.527 21.8385C133.974 21.6044 134.389 21.2366 134.771 20.7351L136.474 21.9723C135.949 22.7079 135.311 23.2429 134.558 23.5773C133.805 23.9116 133.003 24.0788 132.152 24.0788C131.257 24.0788 130.433 23.9339 129.681 23.6441C128.939 23.3432 128.295 22.9252 127.749 22.3902C127.214 21.8441 126.794 21.1921 126.489 20.4341C126.183 19.6762 126.03 18.8347 126.03 17.9096C126.03 16.9622 126.183 16.104 126.489 15.3349C126.794 14.5548 127.214 13.8916 127.749 13.3455C128.295 12.7993 128.939 12.3814 129.681 12.0915C130.433 11.7906 131.257 11.6401 132.152 11.6401C132.938 11.6401 133.663 11.785 134.329 12.0749C135.006 12.3535 135.633 12.8328 136.212 13.5126L134.607 14.7164Z" fill="white"/>
<path d="M141.134 11.9409H143.196V16.6556H148.614V11.9409H150.677V23.7777H148.614V18.5615H143.196V23.7777H141.134V11.9409Z" fill="white"/>
<path d="M156.538 11.9409H164.214V13.8468H158.6V16.7559H163.92V18.6618H158.6V21.8718H164.509V23.7777H156.538V11.9409Z" fill="white"/>
<path fill-rule="evenodd" clip-rule="evenodd" d="M17.0181 34.8286C26.1987 34.8286 33.6411 27.2272 33.6411 17.8503C33.6411 8.47351 26.1987 0.87207 17.0181 0.87207C7.83746 0.87207 0.395096 8.47351 0.395096 17.8503C0.395096 27.2272 7.83746 34.8286 17.0181 34.8286ZM11.9954 25.5423H8.09577C7.1712 25.5423 6.70889 25.5423 6.43203 25.3594C6.13282 25.1618 5.94403 24.8301 5.92404 24.467C5.90549 24.1309 6.13446 23.7212 6.5924 22.9018L6.59261 22.9015L15.1306 7.62428C15.5952 6.79274 15.8276 6.37697 16.1233 6.2222C16.4426 6.055 16.8214 6.05471 17.141 6.22146C17.4369 6.37576 17.6698 6.79122 18.1357 7.62202L20.1048 11.1336L20.1049 11.1337C20.4437 11.7377 20.613 12.0398 20.6875 12.3585C20.7686 12.7055 20.7688 13.0669 20.688 13.4139C20.6138 13.7327 20.4446 14.035 20.1063 14.6394L15.0007 23.762C14.6575 24.3753 14.4859 24.682 14.2508 24.9112C13.9948 25.1607 13.6844 25.3446 13.3452 25.4476C13.0335 25.5423 12.6875 25.5423 11.9954 25.5423ZM25.908 25.5423H21.3868C20.4539 25.5423 19.9874 25.5423 19.7096 25.3578C19.4095 25.1585 19.2213 24.8243 19.2036 24.4595C19.1871 24.1218 19.4219 23.7103 19.8915 22.8876L22.1483 18.9329C22.6119 18.1206 22.8438 17.7144 23.1373 17.5623C23.4545 17.3978 23.8295 17.3976 24.147 17.5615C24.4407 17.7132 24.673 18.119 25.1377 18.9306L25.1378 18.9308L27.4022 22.8854C27.8735 23.7087 28.1092 24.1203 28.0931 24.4583C28.0757 24.8235 27.8875 25.1579 27.5873 25.3576C27.3096 25.5423 26.8424 25.5423 25.908 25.5423Z" fill="white"/>
</g>
<defs>
<clipPath id="clip0_628_99524">
<rect width="164.123" height="33.9566" fill="white" transform="translate(0.386658 0.87207)"/>
</clipPath>
</defs>
</svg>
