<svg width="217" height="52" viewBox="0 0 217 52" fill="none" xmlns="http://www.w3.org/2000/svg">
<g clip-path="url(#clip0_628_99430)">
<path fill-rule="evenodd" clip-rule="evenodd" d="M45.1048 7.94938L45.3759 9.58823C45.5896 11.1128 45.6885 12.6513 45.672 14.1907C45.6702 17.5926 45.2599 20.9819 44.4496 24.2859C43.354 28.7746 41.4456 33.0247 38.819 36.8259C35.7838 41.1914 31.3951 45.4851 24.9981 48.9352L24.2154 49.357L23.4329 48.9352C17.0358 45.4851 12.649 41.1914 9.61196 36.8259C6.98536 33.0247 5.077 28.7746 3.98128 24.2859C3.17128 20.9825 2.76088 17.5938 2.75894 14.1925C2.7424 12.6531 2.8414 11.1146 3.05511 9.59002L3.32614 7.95117C3.34927 7.81752 3.34572 7.6806 3.31572 7.54832C3.28571 7.41605 3.22981 7.29102 3.15125 7.18044C3.0727 7.06986 2.97304 6.97592 2.85802 6.90404C2.743 6.83215 2.61489 6.78374 2.48107 6.7616C2.34726 6.73945 2.21039 6.74401 2.07834 6.77501C1.94629 6.80599 1.82169 6.86283 1.71171 6.9422C1.60172 7.02158 1.50853 7.12193 1.4375 7.23748C1.36648 7.35305 1.31902 7.48152 1.29787 7.6155L1.02684 9.25435C0.793709 10.8898 0.685103 12.5406 0.701954 14.1925C0.703246 17.7613 1.13353 21.317 1.98353 24.7831C3.14059 29.5165 5.15483 33.9977 7.92653 38.0052C11.1305 42.6167 15.7775 47.1509 22.4654 50.7499L23.7362 51.4337C23.886 51.5147 24.0534 51.5571 24.2235 51.5571C24.3937 51.5571 24.5612 51.5147 24.7109 51.4337L25.9799 50.7499C32.6606 47.1491 37.3095 42.6167 40.5188 38.0052C43.2891 33.998 45.3021 29.5174 46.4581 24.7849C47.3082 21.3188 47.7385 17.7631 47.7397 14.1943C47.7566 12.5424 47.6479 10.8916 47.4149 9.25615L47.1438 7.6173C47.1227 7.48331 47.0752 7.35484 47.0042 7.23929C46.9333 7.12372 46.84 7.02337 46.73 6.94399C46.62 6.86462 46.4954 6.8078 46.3634 6.7768C46.2313 6.7458 46.0944 6.74125 45.9606 6.76339C45.8268 6.78554 45.6987 6.83394 45.5837 6.90583C45.4686 6.97771 45.369 7.07165 45.2905 7.18223C45.212 7.29281 45.1561 7.41784 45.1261 7.55012C45.0961 7.6824 45.0924 7.81931 45.1156 7.95297L45.1048 7.94938Z" fill="white"/>
<path fill-rule="evenodd" clip-rule="evenodd" d="M8.9416 6.83242L24.2169 2.16539L39.8332 6.93294C40.0946 7.01111 40.3764 6.98251 40.6169 6.85343C40.8572 6.72434 41.0367 6.50528 41.116 6.24417C41.1953 5.98306 41.1679 5.70118 41.0398 5.46022C40.9118 5.21925 40.6935 5.03883 40.4327 4.95843L24.5166 0.0993416C24.3213 0.0394773 24.1124 0.0394773 23.9171 0.0993416L8.34028 4.85432C8.2101 4.89324 8.08891 4.95748 7.98362 5.04336C7.87835 5.12925 7.79108 5.23508 7.7268 5.35478C7.66253 5.47447 7.62254 5.6057 7.60911 5.74089C7.59569 5.8761 7.6091 6.01261 7.64857 6.14262C7.68805 6.27263 7.7528 6.39355 7.83913 6.49847C7.92546 6.60338 8.03166 6.6902 8.15164 6.75396C8.27161 6.81771 8.40301 6.85715 8.53825 6.87C8.67351 6.88284 8.80997 6.86886 8.93981 6.82883L8.9416 6.83242Z" fill="white"/>
<path fill-rule="evenodd" clip-rule="evenodd" d="M1.40264 8.25143L23.3022 50.9945C23.3876 51.1616 23.5171 51.3021 23.6767 51.4006C23.8363 51.4993 24.0198 51.5523 24.2075 51.554C24.395 51.5557 24.5794 51.506 24.7408 51.4101C24.902 51.3143 25.034 51.1761 25.1224 51.0106L38.4775 26.0329L38.4972 25.9935L47.0453 8.22271C47.1611 7.97747 47.1755 7.69641 47.0853 7.44063C46.9951 7.18485 46.8076 6.97501 46.5634 6.85675C46.3193 6.7385 46.0384 6.72135 45.7818 6.80907C45.5251 6.89679 45.3135 7.08228 45.1928 7.32519L36.6591 25.0815L24.2482 48.3091L3.23179 7.31083C3.17121 7.18911 3.0871 7.0806 2.98429 6.99162C2.88149 6.90264 2.76205 6.83493 2.63288 6.79245C2.50373 6.74995 2.36743 6.73351 2.23186 6.74407C2.09631 6.75465 1.9642 6.79201 1.84319 6.854C1.72217 6.91598 1.61466 7.00137 1.52688 7.10522C1.43911 7.20905 1.37281 7.32927 1.33184 7.45891C1.29086 7.58857 1.27602 7.72505 1.28817 7.86047C1.30032 7.9959 1.33923 8.12756 1.40264 8.24784V8.25143Z" fill="white"/>
<path fill-rule="evenodd" clip-rule="evenodd" d="M11.8834 27.2861H36.2361C36.5087 27.2861 36.77 27.1779 36.9628 26.9851C37.1555 26.7924 37.2638 26.5311 37.2638 26.2584C37.2638 25.9859 37.1555 25.7246 36.9628 25.5318C36.77 25.3391 36.5087 25.2308 36.2361 25.2308H11.8834C11.6108 25.2308 11.3494 25.3391 11.1567 25.5318C10.964 25.7246 10.8557 25.9859 10.8557 26.2584C10.8557 26.5311 10.964 26.7924 11.1567 26.9851C11.3494 27.1779 11.6108 27.2861 11.8834 27.2861ZM79.8096 18.4188H63.9671C63.6932 18.4202 63.431 18.5297 63.2375 18.7233C63.0439 18.9168 62.9345 19.1789 62.9331 19.4527V32.1685C62.9349 32.4421 63.0445 32.704 63.238 32.8975C63.4314 33.0911 63.6934 33.2005 63.9671 33.2025H79.8096V35.3564H63.9671C63.549 35.3583 63.1348 35.2774 62.7482 35.1184C62.3617 34.9592 62.0105 34.7252 61.7149 34.4296C61.4193 34.134 61.1853 33.7828 61.0261 33.3963C60.8671 33.0097 60.7862 32.5955 60.7881 32.1775V19.4617C60.7862 19.0437 60.8671 18.6295 61.0261 18.243C61.1853 17.8564 61.4193 17.5051 61.7149 17.2096C62.0105 16.914 62.3617 16.68 62.7482 16.5209C63.1348 16.3617 63.549 16.2809 63.9671 16.2828H79.8096V18.4188ZM109.558 16.272V18.426H94.3007V24.7211H106.564V26.893H94.2989V33.1989H109.556V35.3529H92.1449V16.272H109.558Z" fill="white"/>
<path d="M140.976 19.478V25.0677C140.979 25.4856 140.898 25.8997 140.738 26.2862C140.578 26.6726 140.345 27.0238 140.049 27.3192C139.754 27.6148 139.402 27.8488 139.016 28.008C138.63 28.1672 138.215 28.2483 137.798 28.2467H134.885L140.871 35.3459H138.036L132.076 28.2467H125.075C124.729 28.229 124.383 28.1937 124.041 28.1408V35.3459H121.887V16.2991H137.781C138.2 16.2974 138.613 16.3786 138.999 16.5377C139.387 16.6969 139.737 16.9309 140.034 17.2265C140.329 17.5221 140.563 17.8732 140.721 18.2596C140.881 18.6461 140.962 19.0601 140.961 19.478H140.976ZM125.082 26.0747H137.798C137.93 26.0764 138.062 26.0515 138.185 26.0014C138.308 25.9515 138.42 25.8774 138.514 25.7835C138.608 25.6896 138.681 25.578 138.731 25.4551C138.782 25.3321 138.806 25.2004 138.805 25.0677V19.478C138.806 19.3435 138.782 19.2096 138.733 19.0846C138.683 18.9595 138.608 18.8456 138.514 18.7493C138.422 18.6508 138.312 18.5726 138.188 18.5201C138.064 18.4674 137.93 18.4417 137.796 18.4441H125.08C124.806 18.4455 124.544 18.555 124.351 18.7486C124.157 18.9421 124.048 19.2044 124.046 19.478V25.0677C124.043 25.2022 124.069 25.3356 124.122 25.4594C124.174 25.5831 124.253 25.6944 124.351 25.7857C124.448 25.88 124.562 25.9542 124.687 26.0038C124.813 26.0535 124.947 26.0776 125.082 26.0747Z" fill="white"/>
<path fill-rule="evenodd" clip-rule="evenodd" d="M152.373 16.272H171.44V18.426H163.004V35.3546H160.849V18.426H152.373V16.272ZM182.996 35.3457V16.272H185.151V35.3457H182.996ZM213.778 16.272H216.535L208.561 25.8088L216.56 35.3457H213.778L206.68 26.8948H200.534V35.3457H198.365V16.272H200.537V24.7211H206.683L213.778 16.272Z" fill="white"/>
</g>
<defs>
<clipPath id="clip0_628_99430">
<rect width="216.369" height="51.5164" fill="white" transform="translate(0.550842 0.0410156)"/>
</clipPath>
</defs>
</svg>
