<svg width="26" height="25" viewBox="0 0 26 25" fill="none" xmlns="http://www.w3.org/2000/svg">
<path fill-rule="evenodd" clip-rule="evenodd" d="M23.0821 0.0507812H3.329C1.96534 0.0507812 0.859863 1.15625 0.859863 2.51992V22.273C0.859863 23.6367 1.96534 24.7422 3.329 24.7422H23.0821C24.4458 24.7422 25.5513 23.6367 25.5513 22.273V2.51992C25.5513 1.15625 24.4458 0.0507812 23.0821 0.0507812Z" fill="#C7D1E6"/>
<path d="M19.4385 7.72039C19.4385 7.72039 17.6464 6.31794 15.5427 6.16211L15.3869 6.55168C17.3348 7.01917 18.1918 7.64248 19.0489 8.49953C17.4906 7.72039 15.9323 6.94125 13.2053 6.94125C10.4004 6.94125 8.92004 7.72039 7.36176 8.49953C8.29673 7.72039 9.30961 6.94125 11.0237 6.55168L10.8679 6.16211C8.6863 6.39585 6.97219 7.72039 6.97219 7.72039C6.97219 7.72039 5.02434 10.6032 4.63477 16.2909C6.66053 18.5505 9.69919 18.6284 9.69919 18.6284L10.3225 17.7713C9.30961 17.3817 8.06299 16.6805 6.97219 15.5118C8.21882 16.4468 10.1667 17.4597 13.2053 17.4597C16.244 17.4597 18.1918 16.4468 19.4385 15.5118C18.3477 16.7584 17.1789 17.3817 16.0881 17.7713L16.7115 18.6284C16.7115 18.6284 19.7501 18.6284 21.7759 16.2909C21.3863 10.6032 19.4385 7.72039 19.4385 7.72039ZM10.6342 14.7327C9.85501 14.7327 9.2317 14.0314 9.2317 13.1744C9.2317 12.3173 9.85501 11.6161 10.6342 11.6161C11.4133 11.6161 12.0366 12.3173 12.0366 13.1744C12.0366 14.0314 11.4133 14.7327 10.6342 14.7327ZM15.7765 14.7327C14.9973 14.7327 14.374 14.0314 14.374 13.1744C14.374 12.3173 14.9973 11.6161 15.7765 11.6161C16.5556 11.6161 17.1789 12.3173 17.1789 13.1744C17.101 14.0314 16.4777 14.7327 15.7765 14.7327Z" fill="#0D1222"/>
</svg>
