<svg width="21" height="21" viewBox="0 0 21 21" fill="none" xmlns="http://www.w3.org/2000/svg">
<path d="M18.6094 0.0224609H2.60938C1.50481 0.0224609 0.609375 0.917891 0.609375 2.02246V18.0225C0.609375 19.127 1.50481 20.0225 2.60938 20.0225H10.6094V12.493H7.60938V9.66952H10.6094V8.15328C10.6094 5.2827 12.099 4.02246 14.5343 4.02246C15.6777 4.02246 16.293 4.10388 16.5918 4.14344L16.6094 4.14575V6.84599H14.9484C13.9147 6.84599 13.6094 7.38058 13.6094 8.46293V9.66952H16.5834L16.1723 12.493H13.6094V20.0225H18.6094C19.7139 20.0225 20.6094 19.127 20.6094 18.0225V2.02246C20.6094 0.917891 19.7139 0.0224609 18.6094 0.0224609Z" fill="#D1E9FF"/>
</svg>
