<svg width="26" height="25" viewBox="0 0 26 25" fill="#000" xmlns="http://www.w3.org/2000/svg">
<path d="M3.00771 0.0507812C1.64405 0.0507812 0.538574 1.15625 0.538574 2.51992V22.273C0.538574 23.6367 1.64405 24.7422 3.00772 24.7422H10.0242C9.96923 24.5812 9.9339 24.3943 9.9339 24.1627V22.1239H8.45403C7.64834 22.1239 6.93196 21.7731 6.58457 21.121C6.46771 20.9014 6.38013 20.6466 6.28823 20.3793C6.07683 19.7642 5.84255 19.0826 5.17633 18.6101C4.89273 18.3844 5.10862 18.127 5.43541 18.1618C6.03894 18.3347 6.53942 18.7542 7.01047 19.3765C7.47955 19.9997 7.70036 20.1409 8.5767 20.1409C9.00162 20.1409 9.63753 20.116 10.2362 20.0206C10.558 19.1926 11.1145 18.4302 11.7945 18.0703C7.87307 17.6618 6.00165 15.6857 6.00165 13.0028C6.00165 11.8478 6.48741 10.7305 7.31272 9.78917C7.04187 8.8548 6.70135 6.94927 7.41675 6.22363C9.18121 6.22363 10.2479 7.38266 10.5041 7.69577C11.3833 7.39061 12.349 7.21765 13.3637 7.21765C14.3804 7.21765 15.3499 7.39061 16.2312 7.69776C16.4844 7.38663 17.5521 6.22363 19.3205 6.22363C20.0388 6.95026 19.6944 8.86374 19.4206 9.79613C20.241 10.7355 20.7238 11.8498 20.7238 13.0028C20.7238 15.6837 18.8553 17.6588 14.9397 18.0693C16.0173 18.6389 16.8033 20.2393 16.8033 21.445V24.1627C16.8033 24.2661 16.7808 24.6537 16.769 24.7422H22.7608C24.1245 24.7422 25.23 23.6367 25.23 22.273V2.51992C25.23 1.15625 24.1245 0.0507812 22.7608 0.0507812H3.00771Z" fill="#fff"/>
</svg>
