<svg width="584" height="218" viewBox="0 0 584 218" fill="none" xmlns="http://www.w3.org/2000/svg">
<mask id="mask0_2631_6504" style="mask-type:alpha" maskUnits="userSpaceOnUse" x="143" y="109" width="431" height="5">
<line x1="1.84063" y1="-1.84063" x2="428.456" y2="-1.84063" transform="matrix(0.999999 0.00173277 0.00173186 -0.999999 143.491 109.331)" stroke="#AFFFD8" stroke-width="3.68127" stroke-linecap="round" stroke-dasharray="0.67 8.37"/>
</mask>
<g mask="url(#mask0_2631_6504)">
<rect width="87.0729" height="21.0901" transform="matrix(0.999999 0.00173229 0.00173229 -0.999999 188.461 120.155)" fill="#AFFFD8"/>
</g>
<g filter="url(#filter0_f_2631_6504)">
<path d="M189.632 109.858L190.581 107.551C190.688 107.286 190.748 106.93 190.749 106.559C190.749 106.188 190.69 105.831 190.585 105.566C190.533 105.43 190.47 105.323 190.4 105.249C190.33 105.176 190.255 105.138 190.179 105.138C190.102 105.139 190.026 105.177 189.955 105.25C189.885 105.323 189.82 105.43 189.767 105.564L187.825 110.305C187.771 110.436 187.728 110.592 187.698 110.763C187.669 110.934 187.654 111.118 187.653 111.304C187.653 111.489 187.668 111.673 187.696 111.844C187.725 112.016 187.768 112.171 187.822 112.302L189.756 117.05C189.81 117.182 189.873 117.286 189.943 117.357C190.013 117.428 190.089 117.464 190.165 117.465C190.24 117.465 190.316 117.428 190.386 117.357C190.456 117.287 190.52 117.183 190.574 117.052C190.628 116.921 190.671 116.765 190.7 116.594C190.73 116.422 190.745 116.239 190.745 116.054C190.746 115.868 190.731 115.684 190.702 115.513C190.673 115.342 190.631 115.186 190.578 115.055L189.636 112.744L189.062 111.335L189.632 109.858Z" fill="#87F9C2"/>
</g>
<path d="M189.632 109.858L190.581 107.551C190.688 107.286 190.748 106.93 190.749 106.559C190.749 106.188 190.69 105.831 190.585 105.566C190.533 105.43 190.47 105.323 190.4 105.249C190.33 105.176 190.255 105.138 190.179 105.138C190.102 105.139 190.026 105.177 189.955 105.25C189.885 105.323 189.82 105.43 189.767 105.564L187.825 110.305C187.771 110.436 187.728 110.592 187.698 110.763C187.669 110.934 187.654 111.118 187.653 111.304C187.653 111.489 187.668 111.673 187.696 111.844C187.725 112.016 187.768 112.171 187.822 112.302L189.756 117.05C189.81 117.182 189.873 117.286 189.943 117.357C190.013 117.428 190.089 117.464 190.165 117.465C190.24 117.465 190.316 117.428 190.386 117.357C190.456 117.287 190.52 117.183 190.574 117.052C190.628 116.921 190.671 116.765 190.7 116.594C190.73 116.422 190.745 116.239 190.745 116.054C190.746 115.868 190.731 115.684 190.702 115.513C190.673 115.342 190.631 115.186 190.578 115.055L189.636 112.744L189.062 111.335L189.632 109.858Z" fill="#AFFFD8"/>
<mask id="mask1_2631_6504" style="mask-type:alpha" maskUnits="userSpaceOnUse" x="25" y="108" width="431" height="4">
<line x1="1.84063" y1="-1.84063" x2="428.456" y2="-1.84063" transform="matrix(-1 -4.87957e-07 4.23931e-07 1 455.86 111.856)" stroke="#AFFFD8" stroke-width="3.68127" stroke-linecap="round" stroke-dasharray="0.67 8.37"/>
</mask>
<g mask="url(#mask1_2631_6504)">
<rect width="87.0729" height="21.0901" transform="matrix(-1 0 0 1 410.872 101.11)" fill="#AFFFD8"/>
</g>
<g filter="url(#filter1_f_2631_6504)">
<path d="M409.719 111.409L408.773 113.717C408.667 113.983 408.608 114.339 408.608 114.71C408.608 115.081 408.667 115.437 408.773 115.703C408.826 115.838 408.889 115.946 408.959 116.019C409.028 116.092 409.104 116.13 409.18 116.13C409.257 116.129 409.333 116.091 409.403 116.018C409.474 115.944 409.538 115.837 409.591 115.703L411.525 110.958C411.579 110.827 411.621 110.672 411.651 110.501C411.68 110.329 411.695 110.145 411.695 109.96C411.695 109.774 411.68 109.59 411.651 109.419C411.621 109.248 411.579 109.092 411.525 108.961L409.582 104.217C409.528 104.086 409.464 103.982 409.394 103.911C409.324 103.84 409.249 103.803 409.173 103.803C409.097 103.803 409.022 103.84 408.951 103.911C408.881 103.982 408.818 104.086 408.764 104.217C408.71 104.348 408.668 104.504 408.638 104.675C408.609 104.846 408.594 105.03 408.594 105.215C408.594 105.401 408.609 105.584 408.638 105.756C408.668 105.927 408.71 106.083 408.764 106.214L409.709 108.523L410.286 109.931L409.719 111.409Z" fill="#87F9C2"/>
</g>
<path d="M409.719 111.409L408.773 113.717C408.667 113.983 408.608 114.339 408.608 114.71C408.608 115.081 408.667 115.437 408.773 115.703C408.826 115.838 408.889 115.946 408.959 116.019C409.028 116.092 409.104 116.13 409.18 116.13C409.257 116.129 409.333 116.091 409.403 116.018C409.474 115.944 409.538 115.837 409.591 115.703L411.525 110.958C411.579 110.827 411.621 110.672 411.651 110.501C411.68 110.329 411.695 110.145 411.695 109.96C411.695 109.774 411.68 109.59 411.651 109.419C411.621 109.248 411.579 109.092 411.525 108.961L409.582 104.217C409.528 104.086 409.464 103.982 409.394 103.911C409.324 103.84 409.249 103.803 409.173 103.803C409.097 103.803 409.022 103.84 408.951 103.911C408.881 103.982 408.818 104.086 408.764 104.217C408.71 104.348 408.668 104.504 408.638 104.675C408.609 104.846 408.594 105.03 408.594 105.215C408.594 105.401 408.609 105.584 408.638 105.756C408.668 105.927 408.71 106.083 408.764 106.214L409.709 108.523L410.286 109.931L409.719 111.409Z" fill="#AFFFD8"/>
<g filter="url(#filter2_b_2631_6504)">
<path d="M479.051 13.7521C482.523 11.7478 486.8 11.7478 490.271 13.7521L564.69 56.7178C568.161 58.722 570.3 62.426 570.3 66.4344V152.366C570.3 156.374 568.161 160.078 564.69 162.082L490.271 205.048C486.8 207.052 482.523 207.052 479.051 205.048L404.632 162.082C401.161 160.078 399.023 156.374 399.023 152.366V66.4344C399.023 62.4259 401.161 58.722 404.632 56.7178L479.051 13.7521Z" fill="#14192A"/>
<path d="M491.673 11.3229C487.334 8.81762 481.988 8.81762 477.649 11.3229L403.23 54.2886C398.891 56.7939 396.218 61.4238 396.218 66.4344V152.366C396.218 157.376 398.891 162.006 403.23 164.512L477.649 207.477C481.988 209.983 487.334 209.983 491.673 207.477L566.092 164.512C570.432 162.006 573.105 157.376 573.105 152.366V66.4344C573.105 61.4238 570.432 56.7939 566.092 54.2886L491.673 11.3229Z" stroke="url(#paint0_linear_2631_6504)" stroke-width="5.60991"/>
</g>
<g filter="url(#filter3_b_2631_6504)">
<path d="M296.243 142.636C278.361 142.636 263.861 128.135 263.861 110.253C263.861 92.3716 278.361 77.8711 296.243 77.8711C314.125 77.8711 328.625 92.3716 328.625 110.253C328.625 128.135 314.125 142.636 296.243 142.636Z" fill="#495971" fill-opacity="0.15"/>
<path d="M296.243 143.627C277.814 143.627 262.869 128.683 262.869 110.253C262.869 91.824 277.814 76.8796 296.243 76.8796C314.672 76.8796 329.617 91.824 329.617 110.253C329.617 128.683 314.672 143.627 296.243 143.627Z" stroke="#334B6E" stroke-width="1.983"/>
<path d="M296.243 143.627C277.814 143.627 262.869 128.683 262.869 110.253C262.869 91.824 277.814 76.8796 296.243 76.8796C314.672 76.8796 329.617 91.824 329.617 110.253C329.617 128.683 314.672 143.627 296.243 143.627Z" stroke="url(#paint1_linear_2631_6504)" stroke-opacity="0.3" stroke-width="1.983"/>
<path d="M296.243 143.627C277.814 143.627 262.869 128.683 262.869 110.253C262.869 91.824 277.814 76.8796 296.243 76.8796C314.672 76.8796 329.617 91.824 329.617 110.253C329.617 128.683 314.672 143.627 296.243 143.627Z" stroke="url(#paint2_linear_2631_6504)" stroke-opacity="0.3" stroke-width="1.983"/>
</g>
<rect x="285.185" y="106.636" width="22.1184" height="16.9074" rx="1.86035" fill="white"/>
<path d="M289.375 106.618V104.062C289.375 100.283 292.438 97.2205 296.216 97.2205V97.2205C299.994 97.2205 303.057 100.283 303.057 104.062V106.618" stroke="white" stroke-width="3.44881"/>
<path d="M495.433 125.653C499.094 127.589 506.795 129.609 506.921 129.693C507.089 129.777 509.467 130.219 514.18 132.428C518.872 134.638 519.124 139.435 519.124 139.435V147.22L484.661 147.241L450.197 147.22V139.435C450.197 139.435 450.45 134.638 455.141 132.428C459.833 130.219 462.232 129.777 462.4 129.693C462.548 129.609 470.227 127.589 473.888 125.653C473.972 125.611 474.056 125.569 474.141 125.506C474.141 125.506 474.162 125.506 474.162 125.485C474.94 124.98 475.403 124.118 475.403 123.213V119.678V118.605C463.158 118.71 459.539 113.471 459.539 113.471C459.539 113.471 466.524 113.366 466.103 94.9139C465.661 76.4618 474.162 73.4109 477.339 72.2117C486.575 68.698 491.204 74.2946 491.204 74.2946C501.893 73.3057 504.859 84.983 503.534 98.3014C502.229 111.62 509.53 113.682 509.53 113.682C504.502 118.815 493.918 118.605 493.918 118.605V119.678V123.213C493.918 124.139 494.381 125.001 495.16 125.485L495.433 125.653Z" fill="white"/>
<g filter="url(#filter4_b_2631_6504)">
<path d="M102.934 13.753C106.405 11.7488 110.682 11.7488 114.154 13.753L188.573 56.7187C192.044 58.723 194.182 62.4269 194.182 66.4354V152.367C194.182 156.375 192.044 160.079 188.573 162.083L114.154 205.049C110.682 207.053 106.405 207.053 102.934 205.049L28.5152 162.083C25.0438 160.079 22.9053 156.375 22.9053 152.367V66.4354C22.9053 62.4269 25.0438 58.723 28.5152 56.7187L102.934 13.753Z" fill="#14192A"/>
<path d="M115.556 11.3239C111.217 8.8186 105.871 8.81859 101.532 11.3239L27.1127 54.2896C22.7735 56.7949 20.1004 61.4248 20.1004 66.4354V152.367C20.1004 157.377 22.7735 162.007 27.1127 164.513L101.532 207.478C105.871 209.984 111.217 209.984 115.556 207.478L189.975 164.513C194.314 162.007 196.987 157.377 196.987 152.367V66.4354C196.987 61.4248 194.314 56.7949 189.975 54.2896L115.556 11.3239Z" stroke="url(#paint3_linear_2631_6504)" stroke-width="5.60991"/>
</g>
<path d="M145.397 136.844C145.397 134.661 144.446 132.564 142.76 131.181C133.358 123.443 123.199 118.299 121.124 117.305C120.886 117.197 120.757 116.959 120.757 116.699V109.697C121.859 107.795 122.572 105.784 122.853 103.947C123.653 103.882 124.712 102.758 125.858 98.7382C127.349 93.4211 125.879 92.4917 124.518 92.5566C127.911 76.9944 119.179 76.9512 119.179 76.9512C118.444 73.6875 113.819 70.2941 109.496 71.2019C105.173 72.088 96.268 71.0938 96.268 71.0938C96.1383 72.9742 97.7593 74.2927 97.7593 74.2927C89.935 79.0694 91.729 89.5738 92.4423 92.5782C91.1022 92.5782 89.7405 93.5941 91.1887 98.7814C92.3342 102.802 93.3933 103.926 94.193 103.99C94.474 105.806 95.1873 107.816 96.2896 109.74V116.699C96.2896 116.959 96.1383 117.197 95.9221 117.305C93.8688 118.321 83.7102 123.443 74.2865 131.181C72.6006 132.564 71.6495 134.661 71.6495 136.844V147.24H145.44V136.844H145.397Z" fill="white"/>
<defs>
<filter id="filter0_f_2631_6504" x="184.307" y="101.791" width="9.78842" height="19.0199" filterUnits="userSpaceOnUse" color-interpolation-filters="sRGB">
<feFlood flood-opacity="0" result="BackgroundImageFix"/>
<feBlend mode="normal" in="SourceGraphic" in2="BackgroundImageFix" result="shape"/>
<feGaussianBlur stdDeviation="1.6733" result="effect1_foregroundBlur_2631_6504"/>
</filter>
<filter id="filter1_f_2631_6504" x="405.248" y="100.457" width="9.79355" height="19.0199" filterUnits="userSpaceOnUse" color-interpolation-filters="sRGB">
<feFlood flood-opacity="0" result="BackgroundImageFix"/>
<feBlend mode="normal" in="SourceGraphic" in2="BackgroundImageFix" result="shape"/>
<feGaussianBlur stdDeviation="1.6733" result="effect1_foregroundBlur_2631_6504"/>
</filter>
<filter id="filter2_b_2631_6504" x="331.382" y="-55.3922" width="306.559" height="329.584" filterUnits="userSpaceOnUse" color-interpolation-filters="sRGB">
<feFlood flood-opacity="0" result="BackgroundImageFix"/>
<feGaussianBlur in="BackgroundImageFix" stdDeviation="31.0155"/>
<feComposite in2="SourceAlpha" operator="in" result="effect1_backgroundBlur_2631_6504"/>
<feBlend mode="normal" in="SourceGraphic" in2="effect1_backgroundBlur_2631_6504" result="shape"/>
</filter>
<filter id="filter3_b_2631_6504" x="222.218" y="36.2282" width="148.05" height="148.05" filterUnits="userSpaceOnUse" color-interpolation-filters="sRGB">
<feFlood flood-opacity="0" result="BackgroundImageFix"/>
<feGaussianBlur in="BackgroundImageFix" stdDeviation="19.83"/>
<feComposite in2="SourceAlpha" operator="in" result="effect1_backgroundBlur_2631_6504"/>
<feBlend mode="normal" in="SourceGraphic" in2="effect1_backgroundBlur_2631_6504" result="shape"/>
</filter>
<filter id="filter4_b_2631_6504" x="-44.7357" y="-55.3912" width="306.559" height="329.584" filterUnits="userSpaceOnUse" color-interpolation-filters="sRGB">
<feFlood flood-opacity="0" result="BackgroundImageFix"/>
<feGaussianBlur in="BackgroundImageFix" stdDeviation="31.0155"/>
<feComposite in2="SourceAlpha" operator="in" result="effect1_backgroundBlur_2631_6504"/>
<feBlend mode="normal" in="SourceGraphic" in2="effect1_backgroundBlur_2631_6504" result="shape"/>
</filter>
<linearGradient id="paint0_linear_2631_6504" x1="401.348" y1="65.1548" x2="570.044" y2="66.6447" gradientUnits="userSpaceOnUse">
<stop stop-color="#87F9C2"/>
<stop offset="1" stop-color="#6BB1D9"/>
</linearGradient>
<linearGradient id="paint1_linear_2631_6504" x1="263.861" y1="77.8711" x2="270.467" y2="86.8465" gradientUnits="userSpaceOnUse">
<stop stop-color="#8AD5FF"/>
<stop offset="1" stop-color="#485267" stop-opacity="0"/>
</linearGradient>
<linearGradient id="paint2_linear_2631_6504" x1="329.217" y1="142.636" x2="320.396" y2="123.298" gradientUnits="userSpaceOnUse">
<stop stop-color="#8AD5FF"/>
<stop offset="1" stop-opacity="0"/>
</linearGradient>
<linearGradient id="paint3_linear_2631_6504" x1="25.231" y1="65.1557" x2="193.927" y2="66.6456" gradientUnits="userSpaceOnUse">
<stop stop-color="#87F9C2"/>
<stop offset="1" stop-color="#6BB1D9"/>
</linearGradient>
</defs>
</svg>
