<svg width="510" height="219" viewBox="0 0 510 219" fill="none" xmlns="http://www.w3.org/2000/svg">
<mask id="mask0_2640_5" style="mask-type:alpha" maskUnits="userSpaceOnUse" x="306" y="123" width="201" height="4">
<line x1="1.72515" y1="-1.72515" x2="198.275" y2="-1.72515" transform="matrix(-1 -2.00418e-07 1.03214e-06 1 506.599 126.618)" stroke="#AFFFD8" stroke-width="3.45029" stroke-linecap="round" stroke-dasharray="0.63 7.84"/>
</mask>
<g mask="url(#mask0_2640_5)">
<rect width="61.9473" height="19.767" transform="matrix(-1 0 0 1 382.221 116.546)" fill="#AFFFD8"/>
</g>
<g filter="url(#filter0_f_2640_5)">
<path d="M316.078 126.198L318.235 128.362C318.478 128.61 318.614 128.944 318.614 129.292C318.614 129.64 318.478 129.974 318.235 130.223C318.116 130.349 317.972 130.45 317.813 130.519C317.653 130.588 317.481 130.623 317.308 130.623C317.133 130.622 316.959 130.587 316.798 130.518C316.637 130.449 316.491 130.349 316.369 130.223L311.957 125.776C311.834 125.653 311.736 125.507 311.67 125.347C311.603 125.186 311.569 125.014 311.569 124.84C311.569 124.666 311.603 124.494 311.67 124.333C311.736 124.173 311.834 124.027 311.957 123.904L316.391 119.457C316.513 119.334 316.659 119.237 316.819 119.17C316.979 119.104 317.151 119.07 317.324 119.07C317.497 119.07 317.669 119.104 317.829 119.17C317.989 119.237 318.135 119.334 318.257 119.457C318.38 119.58 318.477 119.726 318.543 119.887C318.609 120.047 318.644 120.219 318.644 120.393C318.644 120.567 318.609 120.739 318.543 120.9C318.477 121.06 318.38 121.206 318.257 121.329L316.099 123.493L314.783 124.813L316.078 126.198Z" fill="#87F9C2"/>
</g>
<path d="M316.078 126.198L318.235 128.362C318.478 128.61 318.614 128.944 318.614 129.292C318.614 129.64 318.478 129.974 318.235 130.223C318.116 130.349 317.972 130.45 317.813 130.519C317.653 130.588 317.481 130.623 317.308 130.623C317.133 130.622 316.959 130.587 316.798 130.518C316.637 130.449 316.491 130.349 316.369 130.223L311.957 125.776C311.834 125.653 311.736 125.507 311.67 125.347C311.603 125.186 311.569 125.014 311.569 124.84C311.569 124.666 311.603 124.494 311.67 124.333C311.736 124.173 311.834 124.027 311.957 123.904L316.391 119.457C316.513 119.334 316.659 119.237 316.819 119.17C316.979 119.104 317.151 119.07 317.324 119.07C317.497 119.07 317.669 119.104 317.829 119.17C317.989 119.237 318.135 119.334 318.257 119.457C318.38 119.58 318.477 119.726 318.543 119.887C318.609 120.047 318.644 120.219 318.644 120.393C318.644 120.567 318.609 120.739 318.543 120.9C318.477 121.06 318.38 121.206 318.257 121.329L316.099 123.493L314.783 124.813L316.078 126.198Z" fill="#AFFFD8"/>
<g filter="url(#filter1_f_2640_5)">
<path d="M385.991 126.198L383.833 128.362C383.591 128.61 383.455 128.944 383.455 129.292C383.455 129.64 383.591 129.974 383.833 130.223C383.953 130.349 384.096 130.45 384.256 130.519C384.416 130.588 384.587 130.623 384.761 130.623C384.936 130.622 385.109 130.587 385.271 130.518C385.432 130.449 385.578 130.349 385.7 130.223L390.112 125.776C390.235 125.653 390.332 125.507 390.399 125.347C390.466 125.186 390.5 125.014 390.5 124.84C390.5 124.666 390.466 124.494 390.399 124.333C390.332 124.173 390.235 124.027 390.112 123.904L385.678 119.457C385.556 119.334 385.41 119.237 385.25 119.17C385.09 119.104 384.918 119.07 384.745 119.07C384.572 119.07 384.4 119.104 384.24 119.17C384.08 119.237 383.934 119.334 383.812 119.457C383.689 119.58 383.592 119.726 383.526 119.887C383.459 120.047 383.425 120.219 383.425 120.393C383.425 120.567 383.459 120.739 383.526 120.9C383.592 121.06 383.689 121.206 383.812 121.329L385.969 123.493L387.286 124.813L385.991 126.198Z" fill="#87F9C2"/>
</g>
<path d="M385.991 126.198L383.833 128.362C383.591 128.61 383.455 128.944 383.455 129.292C383.455 129.64 383.591 129.974 383.833 130.223C383.953 130.349 384.096 130.45 384.256 130.519C384.416 130.588 384.587 130.623 384.761 130.623C384.936 130.622 385.109 130.587 385.271 130.518C385.432 130.449 385.578 130.349 385.7 130.223L390.112 125.776C390.235 125.653 390.332 125.507 390.399 125.347C390.466 125.186 390.5 125.014 390.5 124.84C390.5 124.666 390.466 124.494 390.399 124.333C390.332 124.173 390.235 124.027 390.112 123.904L385.678 119.457C385.556 119.334 385.41 119.237 385.25 119.17C385.09 119.104 384.918 119.07 384.745 119.07C384.572 119.07 384.4 119.104 384.24 119.17C384.08 119.237 383.934 119.334 383.812 119.457C383.689 119.58 383.592 119.726 383.526 119.887C383.459 120.047 383.425 120.219 383.425 120.393C383.425 120.567 383.459 120.739 383.526 120.9C383.592 121.06 383.689 121.206 383.812 121.329L385.969 123.493L387.286 124.813L385.991 126.198Z" fill="#AFFFD8"/>
<path d="M13.6469 22.7969H285.158C292.543 22.7969 298.617 28.8704 298.617 36.2553V205.543C298.617 212.928 292.543 219.002 285.158 219.002H13.6469C6.26196 219.002 0.188477 212.928 0.188477 205.543V36.2553C0.188477 28.8704 6.26196 22.7969 13.6469 22.7969ZM30.9173 187.655C29.5125 187.655 29.4951 186.227 29.7457 185.23C31.8557 168.508 38.3197 169.097 47.5931 166.707C52.052 165.559 62.2347 161.088 61.1564 155.323C58.9124 153.243 56.68 150.369 56.2895 146.073L56.0214 146.079C55.3977 146.068 54.7973 145.928 54.2378 145.607C52.9963 144.902 52.3201 143.555 51.9879 142.011C51.6673 140.489 51.5857 137.523 51.9879 136.001C52.4192 134.795 52.9555 134.142 53.6374 133.856L53.6549 133.851C53.346 128.045 54.3252 121.867 48.3683 120.06C60.1364 105.517 73.6997 97.6079 83.8883 110.548C95.2367 111.142 100.296 124.857 93.2491 133.856H92.9518C93.8961 134.253 94.4207 135.349 94.6771 136.287C94.8753 137.744 95.0152 140.064 94.5955 142.011C94.2749 143.555 93.593 144.902 92.3515 145.607C91.7919 145.928 91.1916 146.068 90.5679 146.079L90.294 146.073C89.9093 150.369 87.6711 153.243 85.427 155.323C84.3487 161.094 94.5431 165.559 99.002 166.707C108.281 169.091 114.751 168.508 116.861 185.23C117.106 186.227 117.088 187.655 115.684 187.655H30.9173ZM285.158 32.3734H13.6469C11.4961 32.3734 9.76499 34.1045 9.76499 36.2553V205.543C9.76499 207.694 11.4961 209.425 13.6469 209.425H285.158C287.309 209.425 289.04 207.694 289.04 205.543V36.2553C289.04 34.1045 287.309 32.3734 285.158 32.3734Z" fill="white"/>
<g opacity="0.2">
<path d="M142.378 113.177C134.364 113.177 134.364 127.807 142.378 127.807H262.985C270.988 127.807 271 113.177 262.985 113.177H142.378Z" fill="white"/>
<path d="M231.65 143.072C223.642 143.072 223.642 157.702 231.65 157.702H262.985C270.994 157.702 270.994 143.072 262.985 143.072H231.65Z" fill="white"/>
<path d="M142.378 143.072C134.364 143.072 134.364 157.702 142.378 157.702H208.4C216.409 157.702 216.409 143.072 208.4 143.072H142.378Z" fill="white"/>
<path d="M142.384 173.031C134.37 173.031 134.364 187.656 142.384 187.656H263.114C271.122 187.656 271.122 173.031 263.114 173.031H142.384Z" fill="white"/>
</g>
<path opacity="0.2" d="M213.331 51.957H33.3536C30.7657 51.957 28.6499 54.0728 28.6499 56.6608V81.6133C28.6499 84.2013 30.7715 86.3112 33.3536 86.3112H213.331C215.908 86.3112 218.029 84.1896 218.029 81.6133V56.6608C218.029 54.0787 215.914 51.957 213.331 51.957Z" fill="white"/>
<g filter="url(#filter2_b_2640_5)">
<path d="M13.6469 22.7969H285.158C292.543 22.7969 298.617 28.8704 298.617 36.2553V205.543C298.617 212.928 292.543 219.002 285.158 219.002H13.6469C6.26196 219.002 0.188477 212.928 0.188477 205.543V36.2553C0.188477 28.8704 6.26196 22.7969 13.6469 22.7969ZM285.158 32.3734H13.6469C11.4961 32.3734 9.76499 34.1045 9.76499 36.2553V205.543C9.76499 207.694 11.4961 209.425 13.6469 209.425H285.158C287.309 209.425 289.04 207.694 289.04 205.543V36.2553C289.04 34.1045 287.309 32.3734 285.158 32.3734Z" fill="url(#paint0_linear_2640_5)"/>
<path d="M13.6469 24.2969H285.158C291.715 24.2969 297.117 29.6988 297.117 36.2553V205.543C297.117 212.1 291.715 217.502 285.158 217.502H13.6469C7.09038 217.502 1.68848 212.1 1.68848 205.543V36.2553C1.68848 29.6988 7.09038 24.2969 13.6469 24.2969ZM285.158 30.8734H13.6469C10.6677 30.8734 8.26499 33.2761 8.26499 36.2553V205.543C8.26499 208.523 10.6677 210.925 13.6469 210.925H285.158C288.137 210.925 290.54 208.523 290.54 205.543V36.2553C290.54 33.2761 288.137 30.8734 285.158 30.8734Z" stroke="#070A1F" stroke-width="3"/>
</g>
<circle cx="457.348" cy="121.9" r="33.1029" fill="#070A1F"/>
<g filter="url(#filter3_b_2640_5)">
<path fill-rule="evenodd" clip-rule="evenodd" d="M457.351 69.6818C460.153 69.5618 462.365 70.5389 464.593 71.9531C467.422 73.7445 470.61 77.2928 474.544 79.5384C480.072 82.7011 490.323 78.3385 495.568 86.138C498.628 90.6806 498.774 94.2461 498.997 97.7688C499.245 101.566 499.905 105.063 503.797 110.205C510.233 118.716 511.57 124.382 508.253 130.287C505.991 134.315 501.234 136.552 500.128 139.098C497.788 144.523 500.377 148.612 497.171 154.937C494.943 159.325 491.506 162.214 486.929 163.688C483.072 164.931 479.189 163.131 476.104 164.434C470.67 166.713 466.667 172.019 462.339 173.364C460.668 173.879 459.005 174.136 457.351 174.127C455.688 174.136 454.025 173.887 452.362 173.364C448.043 172.019 444.031 166.722 438.597 164.434C435.503 163.131 431.629 164.931 427.772 163.688C423.195 162.214 419.759 159.325 417.53 154.937C414.316 148.612 416.913 144.523 414.565 139.098C413.459 136.552 408.702 134.315 406.439 130.287C403.122 124.382 404.468 118.716 410.896 110.205C414.787 105.063 415.447 101.566 415.696 97.7688C415.927 94.2461 416.064 90.6806 419.124 86.138C424.37 78.3385 434.621 82.7011 440.149 79.5384C444.083 77.2928 447.263 73.7445 450.1 71.9531C452.337 70.5389 454.548 69.5618 457.351 69.6818ZM448.257 115.871L454.994 122.282L466.59 110.497C467.739 109.331 468.459 108.397 469.873 109.854L474.467 114.559C475.975 116.051 475.898 116.925 474.475 118.313L457.616 134.864C454.617 137.804 455.139 137.984 452.097 134.967L440.526 123.456C439.892 122.77 439.96 122.076 440.654 121.39L445.986 115.862C446.783 115.022 447.426 115.074 448.257 115.871ZM457.196 93.3033C473.438 93.3033 486.595 106.468 486.595 122.702C486.595 138.944 473.43 152.1 457.196 152.1C440.954 152.1 427.798 138.935 427.798 122.702C427.798 106.46 440.963 93.3033 457.196 93.3033Z" fill="url(#paint1_linear_2640_5)"/>
</g>
<g filter="url(#filter4_b_2640_5)">
<path d="M278.462 74.1908C258.731 74.1908 242.73 58.1903 242.73 38.4587C242.73 18.7271 258.731 2.72656 278.462 2.72656C298.194 2.72656 314.195 18.7271 314.195 38.4587C314.195 58.1903 298.194 74.1908 278.462 74.1908Z" fill="#070A1F"/>
<path d="M278.462 75.3689C258.08 75.3689 241.552 58.8409 241.552 38.4587C241.552 18.0764 258.08 1.54843 278.462 1.54843C298.845 1.54843 315.373 18.0764 315.373 38.4587C315.373 58.8409 298.845 75.3689 278.462 75.3689Z" stroke="#334B6E" stroke-width="2.35626"/>
<path d="M278.462 75.3689C258.08 75.3689 241.552 58.8409 241.552 38.4587C241.552 18.0764 258.08 1.54843 278.462 1.54843C298.845 1.54843 315.373 18.0764 315.373 38.4587C315.373 58.8409 298.845 75.3689 278.462 75.3689Z" stroke="url(#paint2_linear_2640_5)" stroke-opacity="0.3" stroke-width="2.35626"/>
<path d="M278.462 75.3689C258.08 75.3689 241.552 58.8409 241.552 38.4587C241.552 18.0764 258.08 1.54843 278.462 1.54843C298.845 1.54843 315.373 18.0764 315.373 38.4587C315.373 58.8409 298.845 75.3689 278.462 75.3689Z" stroke="url(#paint3_linear_2640_5)" stroke-opacity="0.3" stroke-width="2.35626"/>
</g>
<rect x="266.946" y="35.0288" width="23.0304" height="17.6046" rx="1.93704" fill="white"/>
<path d="M271.308 35.012V32.3498C271.308 28.4157 274.497 25.2266 278.431 25.2266V25.2266C282.365 25.2266 285.555 28.4157 285.555 32.3498V35.012" stroke="white" stroke-width="3.59099"/>
<defs>
<filter id="filter0_f_2640_5" x="308.432" y="115.933" width="13.3477" height="17.8265" filterUnits="userSpaceOnUse" color-interpolation-filters="sRGB">
<feFlood flood-opacity="0" result="BackgroundImageFix"/>
<feBlend mode="normal" in="SourceGraphic" in2="BackgroundImageFix" result="shape"/>
<feGaussianBlur stdDeviation="1.56831" result="effect1_foregroundBlur_2640_5"/>
</filter>
<filter id="filter1_f_2640_5" x="380.289" y="115.933" width="13.3477" height="17.8265" filterUnits="userSpaceOnUse" color-interpolation-filters="sRGB">
<feFlood flood-opacity="0" result="BackgroundImageFix"/>
<feBlend mode="normal" in="SourceGraphic" in2="BackgroundImageFix" result="shape"/>
<feGaussianBlur stdDeviation="1.56831" result="effect1_foregroundBlur_2640_5"/>
</filter>
<filter id="filter2_b_2640_5" x="-62.751" y="-40.1426" width="424.307" height="322.084" filterUnits="userSpaceOnUse" color-interpolation-filters="sRGB">
<feFlood flood-opacity="0" result="BackgroundImageFix"/>
<feGaussianBlur in="BackgroundImageFix" stdDeviation="31.4697"/>
<feComposite in2="SourceAlpha" operator="in" result="effect1_backgroundBlur_2640_5"/>
<feBlend mode="normal" in="SourceGraphic" in2="effect1_backgroundBlur_2640_5" result="shape"/>
</filter>
<filter id="filter3_b_2640_5" x="341.748" y="6.73238" width="231.198" height="230.335" filterUnits="userSpaceOnUse" color-interpolation-filters="sRGB">
<feFlood flood-opacity="0" result="BackgroundImageFix"/>
<feGaussianBlur in="BackgroundImageFix" stdDeviation="31.4697"/>
<feComposite in2="SourceAlpha" operator="in" result="effect1_backgroundBlur_2640_5"/>
<feBlend mode="normal" in="SourceGraphic" in2="effect1_backgroundBlur_2640_5" result="shape"/>
</filter>
<filter id="filter4_b_2640_5" x="193.249" y="-46.7551" width="170.427" height="170.427" filterUnits="userSpaceOnUse" color-interpolation-filters="sRGB">
<feFlood flood-opacity="0" result="BackgroundImageFix"/>
<feGaussianBlur in="BackgroundImageFix" stdDeviation="23.5626"/>
<feComposite in2="SourceAlpha" operator="in" result="effect1_backgroundBlur_2640_5"/>
<feBlend mode="normal" in="SourceGraphic" in2="effect1_backgroundBlur_2640_5" result="shape"/>
</filter>
<linearGradient id="paint0_linear_2640_5" x1="23.6887" y1="77.005" x2="278.214" y2="80.4241" gradientUnits="userSpaceOnUse">
<stop stop-color="#87F9C2"/>
<stop offset="1" stop-color="#6BB1D9"/>
</linearGradient>
<linearGradient id="paint1_linear_2640_5" x1="412.981" y1="98.5312" x2="502.815" y2="99.3312" gradientUnits="userSpaceOnUse">
<stop stop-color="#87F9C2"/>
<stop offset="1" stop-color="#6BB1D9"/>
</linearGradient>
<linearGradient id="paint2_linear_2640_5" x1="242.73" y1="2.72656" x2="250.02" y2="12.6304" gradientUnits="userSpaceOnUse">
<stop stop-color="#8AD5FF"/>
<stop offset="1" stop-color="#485267" stop-opacity="0"/>
</linearGradient>
<linearGradient id="paint3_linear_2640_5" x1="314.847" y1="74.1908" x2="305.114" y2="52.8525" gradientUnits="userSpaceOnUse">
<stop stop-color="#8AD5FF"/>
<stop offset="1" stop-opacity="0"/>
</linearGradient>
</defs>
</svg>
