<svg width="1084" height="189" viewBox="0 0 1084 189" fill="none" xmlns="http://www.w3.org/2000/svg">
<mask id="mask0_2631_6473" style="mask-type:alpha" maskUnits="userSpaceOnUse" x="0" y="103" width="983" height="5">
<line x1="1.72515" y1="-1.72515" x2="980.186" y2="-1.72515" transform="matrix(-1 -2.00418e-07 1.03214e-06 1 982.563 107.359)" stroke="#AFFFD8" stroke-width="3.45029" stroke-linecap="round" stroke-dasharray="0.63 7.84"/>
</mask>
<g mask="url(#mask0_2631_6473)">
<rect width="155.091" height="19.767" transform="matrix(-1 0 0 1 879.903 97.2881)" fill="#AFFFD8"/>
</g>
<g filter="url(#filter0_f_2631_6473)">
<path d="M877.271 106.94L875.114 109.104C874.871 109.352 874.736 109.686 874.736 110.034C874.736 110.382 874.871 110.716 875.114 110.964C875.233 111.091 875.377 111.192 875.536 111.261C875.696 111.33 875.868 111.365 876.042 111.365C876.217 111.364 876.39 111.328 876.551 111.259C876.712 111.191 876.858 111.09 876.98 110.964L881.392 106.518C881.515 106.395 881.613 106.249 881.68 106.089C881.746 105.928 881.78 105.756 881.78 105.582C881.78 105.408 881.746 105.236 881.68 105.075C881.613 104.914 881.515 104.769 881.392 104.646L876.959 100.199C876.836 100.076 876.691 99.9787 876.53 99.9122C876.37 99.8456 876.199 99.8114 876.025 99.8114C875.852 99.8114 875.681 99.8456 875.52 99.9122C875.36 99.9787 875.215 100.076 875.092 100.199C874.97 100.322 874.873 100.468 874.806 100.629C874.74 100.789 874.706 100.961 874.706 101.135C874.706 101.309 874.74 101.481 874.806 101.641C874.873 101.802 874.97 101.948 875.092 102.071L877.25 104.235L878.566 105.555L877.271 106.94Z" fill="#87F9C2"/>
</g>
<path d="M877.271 106.94L875.114 109.104C874.871 109.352 874.736 109.686 874.736 110.034C874.736 110.382 874.871 110.716 875.114 110.964C875.233 111.091 875.377 111.192 875.536 111.261C875.696 111.33 875.868 111.365 876.042 111.365C876.217 111.364 876.39 111.328 876.551 111.259C876.712 111.191 876.858 111.09 876.98 110.964L881.392 106.518C881.515 106.395 881.613 106.249 881.68 106.089C881.746 105.928 881.78 105.756 881.78 105.582C881.78 105.408 881.746 105.236 881.68 105.075C881.613 104.914 881.515 104.769 881.392 104.646L876.959 100.199C876.836 100.076 876.691 99.9787 876.53 99.9122C876.37 99.8456 876.199 99.8114 876.025 99.8114C875.852 99.8114 875.681 99.8456 875.52 99.9122C875.36 99.9787 875.215 100.076 875.092 100.199C874.97 100.322 874.873 100.468 874.806 100.629C874.74 100.789 874.706 100.961 874.706 101.135C874.706 101.309 874.74 101.481 874.806 101.641C874.873 101.802 874.97 101.948 875.092 102.071L877.25 104.235L878.566 105.555L877.271 106.94Z" fill="#AFFFD8"/>
<g filter="url(#filter1_f_2631_6473)">
<path d="M730.01 106.94L732.167 109.104C732.41 109.352 732.546 109.686 732.546 110.034C732.546 110.382 732.41 110.716 732.167 110.964C732.048 111.091 731.904 111.192 731.745 111.261C731.585 111.33 731.413 111.365 731.24 111.365C731.064 111.364 730.891 111.328 730.73 111.259C730.569 111.191 730.423 111.09 730.301 110.964L725.889 106.518C725.766 106.395 725.668 106.249 725.602 106.089C725.535 105.928 725.501 105.756 725.501 105.582C725.501 105.408 725.535 105.236 725.602 105.075C725.668 104.914 725.766 104.769 725.889 104.646L730.323 100.199C730.445 100.076 730.591 99.9787 730.751 99.9122C730.911 99.8456 731.082 99.8114 731.256 99.8114C731.429 99.8114 731.601 99.8456 731.761 99.9122C731.921 99.9787 732.066 100.076 732.189 100.199C732.311 100.322 732.409 100.468 732.475 100.629C732.541 100.789 732.575 100.961 732.575 101.135C732.575 101.309 732.541 101.481 732.475 101.641C732.409 101.802 732.311 101.948 732.189 102.071L730.031 104.235L728.715 105.555L730.01 106.94Z" fill="#87F9C2"/>
</g>
<path d="M730.01 106.94L732.167 109.104C732.41 109.352 732.546 109.686 732.546 110.034C732.546 110.382 732.41 110.716 732.167 110.964C732.048 111.091 731.904 111.192 731.745 111.261C731.585 111.33 731.413 111.365 731.24 111.365C731.064 111.364 730.891 111.328 730.73 111.259C730.569 111.191 730.423 111.09 730.301 110.964L725.889 106.518C725.766 106.395 725.668 106.249 725.602 106.089C725.535 105.928 725.501 105.756 725.501 105.582C725.501 105.408 725.535 105.236 725.602 105.075C725.668 104.914 725.766 104.769 725.889 104.646L730.323 100.199C730.445 100.076 730.591 99.9787 730.751 99.9122C730.911 99.8456 731.082 99.8114 731.256 99.8114C731.429 99.8114 731.601 99.8456 731.761 99.9122C731.921 99.9787 732.066 100.076 732.189 100.199C732.311 100.322 732.409 100.468 732.475 100.629C732.541 100.789 732.575 100.961 732.575 101.135C732.575 101.309 732.541 101.481 732.475 101.641C732.409 101.802 732.311 101.948 732.189 102.071L730.031 104.235L728.715 105.555L730.01 106.94Z" fill="#AFFFD8"/>
<g filter="url(#filter2_b_2631_6473)">
<path d="M613.539 181.98C570.273 181.98 535.188 146.895 535.188 103.629C535.188 60.3634 570.273 25.2788 613.539 25.2788C656.805 25.2788 691.889 60.3634 691.889 103.629C691.889 146.895 656.805 181.98 613.539 181.98Z" fill="#14192A"/>
<path d="M613.539 185.116C568.541 185.116 532.052 148.627 532.052 103.629C532.052 58.6311 568.541 22.1422 613.539 22.1422C658.537 22.1422 695.026 58.6311 695.026 103.629C695.026 148.627 658.537 185.116 613.539 185.116Z" stroke="url(#paint0_linear_2631_6473)" stroke-width="6.27326"/>
</g>
<path d="M675.379 60.0962C658.867 60.0962 645.478 46.7065 645.478 30.1946C645.478 13.6827 658.867 0.292969 675.379 0.292969C691.891 0.292969 705.281 13.6827 705.281 30.1946C705.281 46.7065 691.891 60.0962 675.379 60.0962Z" fill="#87F9C2"/>
<path d="M667.368 39.8926V36.9718L676.547 24.7197H667.406V20.4712H683.261V23.392L674.082 35.6442H683.224V39.8926H667.368Z" fill="#050A18"/>
<path d="M613.529 55.7568L614.158 57.8988V120.047L613.529 120.676L584.766 103.624L613.529 55.7568Z" fill="url(#paint1_linear_2631_6473)"/>
<path d="M613.529 55.7568L614.158 57.8988V120.047L613.529 120.676L584.766 103.624L613.529 55.7568Z" fill="white"/>
<path d="M613.552 55.7568L642.317 103.624L613.552 120.676V90.5112V55.7568Z" fill="url(#paint2_linear_2631_6473)"/>
<path d="M613.552 55.7568L642.317 103.624L613.552 120.676V90.5112V55.7568Z" fill="white"/>
<path d="M613.546 126.121L613.901 126.554V148.692L613.546 149.73L584.765 109.077L613.546 126.121Z" fill="url(#paint3_linear_2631_6473)"/>
<path d="M613.546 126.121L613.901 126.554V148.692L613.546 149.73L584.765 109.077L613.546 126.121Z" fill="white"/>
<path d="M613.552 149.73V126.121L642.317 109.077L613.552 149.73Z" fill="url(#paint4_linear_2631_6473)"/>
<path d="M613.552 149.73V126.121L642.317 109.077L613.552 149.73Z" fill="white"/>
<path d="M613.566 120.672L584.803 103.62L613.566 90.5068V120.672Z" fill="url(#paint5_linear_2631_6473)"/>
<path d="M613.566 120.672L584.803 103.62L613.566 90.5068V120.672Z" fill="white"/>
<path d="M642.317 103.62L613.552 120.672V90.5068L642.317 103.62Z" fill="url(#paint6_linear_2631_6473)"/>
<path d="M642.317 103.62L613.552 120.672V90.5068L642.317 103.62Z" fill="white"/>
<g filter="url(#filter3_b_2631_6473)">
<path d="M992.052 181.98C948.786 181.98 913.702 146.895 913.702 103.629C913.702 60.3634 948.786 25.2788 992.052 25.2788C1035.32 25.2788 1070.4 60.3634 1070.4 103.629C1070.4 146.895 1035.32 181.98 992.052 181.98Z" fill="#14192A"/>
<path d="M992.052 185.116C947.054 185.116 910.565 148.627 910.565 103.629C910.565 58.6311 947.054 22.1422 992.052 22.1422C1037.05 22.1422 1073.54 58.6311 1073.54 103.629C1073.54 148.627 1037.05 185.116 992.052 185.116Z" stroke="url(#paint7_linear_2631_6473)" stroke-width="6.27326"/>
</g>
<path d="M1008.08 112.215C1008.08 103.753 1003.06 100.851 993.012 99.6423C985.837 98.6749 984.402 96.7407 984.402 93.3552C984.402 89.9697 986.794 87.7941 991.577 87.7941C995.882 87.7941 998.274 89.2449 999.47 92.8718C999.71 93.5972 1000.43 94.0806 1001.14 94.0806H1004.97C1005.93 94.0806 1006.65 93.3552 1006.65 92.3884V92.1464C1005.69 86.8267 1001.38 82.7164 995.882 82.233V76.4299C995.882 75.4625 995.165 74.7371 993.969 74.4951H990.381C989.425 74.4951 988.707 75.2205 988.468 76.4299V81.991C981.292 82.9584 976.748 87.7941 976.748 93.8392C976.748 101.818 981.532 104.961 991.577 106.171C998.274 107.38 1000.43 108.83 1000.43 112.699C1000.43 116.568 997.078 119.228 992.534 119.228C986.315 119.228 984.162 116.568 983.445 112.941C983.206 111.974 982.488 111.49 981.771 111.49H977.704C976.748 111.49 976.031 112.215 976.031 113.183V113.425C976.987 119.469 980.814 123.822 988.707 125.031V130.834C988.707 131.801 989.425 132.526 990.62 132.768H994.208C995.165 132.768 995.882 132.043 996.122 130.834V125.031C1003.3 123.822 1008.08 118.744 1008.08 112.215Z" fill="white"/>
<path d="M979.291 138.999C959.774 131.925 949.765 109.947 957.022 90.4936C960.775 79.8831 969.033 71.7992 979.291 68.0097C980.292 67.5047 980.793 66.7468 980.793 65.4832V61.9466C980.793 60.9359 980.292 60.178 979.291 59.9258C979.041 59.9258 978.541 59.9258 978.29 60.178C954.52 67.7569 941.508 93.2729 949.015 117.273C953.519 131.42 964.278 142.283 978.29 146.83C979.291 147.335 980.292 146.83 980.542 145.82C980.793 145.567 980.793 145.315 980.793 144.809V141.272C980.793 140.514 980.042 139.504 979.291 138.999ZM1005.81 60.178C1004.81 59.6729 1003.81 60.178 1003.56 61.1887C1003.31 61.4416 1003.31 61.6938 1003.31 62.1995V65.7361C1003.31 66.7468 1004.06 67.7569 1004.81 68.2626C1024.33 75.3358 1034.34 97.3146 1027.08 116.768C1023.33 127.378 1015.07 135.462 1004.81 139.251C1003.81 139.756 1003.31 140.514 1003.31 141.778V145.315C1003.31 146.325 1003.81 147.083 1004.81 147.335C1005.06 147.335 1005.56 147.335 1005.81 147.083C1029.59 139.504 1042.6 113.988 1035.09 89.9886C1030.59 75.5886 1019.58 64.7253 1005.81 60.178Z" fill="white"/>
<path d="M1053.89 60.0962C1037.38 60.0962 1023.99 46.7065 1023.99 30.1946C1023.99 13.6827 1037.38 0.292969 1053.89 0.292969C1070.4 0.292969 1083.79 13.6827 1083.79 30.1946C1083.79 46.7065 1070.4 60.0962 1053.89 60.0962Z" fill="#87F9C2"/>
<path d="M1045.88 39.8926V36.9718L1055.06 24.7197H1045.92V20.4712H1061.77V23.392L1052.6 35.6442H1061.74V39.8926H1045.88Z" fill="#050A18"/>
<g filter="url(#filter4_b_2631_6473)">
<path d="M802.355 130.766C786.791 130.766 774.17 118.145 774.17 102.581C774.17 87.0174 786.791 74.3965 802.355 74.3965C817.919 74.3965 830.54 87.0174 830.54 102.581C830.54 118.145 817.919 130.766 802.355 130.766Z" fill="#495971" fill-opacity="0.15"/>
<path d="M802.355 131.696C786.278 131.696 773.241 118.659 773.241 102.581C773.241 86.5042 786.278 73.4672 802.355 73.4672C818.432 73.4672 831.469 86.5042 831.469 102.581C831.469 118.659 818.432 131.696 802.355 131.696Z" stroke="#334B6E" stroke-width="1.85858"/>
<path d="M802.355 131.696C786.278 131.696 773.241 118.659 773.241 102.581C773.241 86.5042 786.278 73.4672 802.355 73.4672C818.432 73.4672 831.469 86.5042 831.469 102.581C831.469 118.659 818.432 131.696 802.355 131.696Z" stroke="url(#paint8_linear_2631_6473)" stroke-opacity="0.3" stroke-width="1.85858"/>
<path d="M802.355 131.696C786.278 131.696 773.241 118.659 773.241 102.581C773.241 86.5042 786.278 73.4672 802.355 73.4672C818.432 73.4672 831.469 86.5042 831.469 102.581C831.469 118.659 818.432 131.696 802.355 131.696Z" stroke="url(#paint9_linear_2631_6473)" stroke-opacity="0.3" stroke-width="1.85858"/>
</g>
<rect x="793.271" y="99.876" width="18.166" height="13.8862" rx="1.52791" fill="white"/>
<path d="M796.712 99.8627V97.7627C796.712 94.6596 799.227 92.144 802.33 92.144V92.144C805.433 92.144 807.949 94.6596 807.949 97.7627V99.8627" stroke="white" stroke-width="2.83252"/>
<defs>
<filter id="filter0_f_2631_6473" x="871.569" y="96.6749" width="13.3477" height="17.8265" filterUnits="userSpaceOnUse" color-interpolation-filters="sRGB">
<feFlood flood-opacity="0" result="BackgroundImageFix"/>
<feBlend mode="normal" in="SourceGraphic" in2="BackgroundImageFix" result="shape"/>
<feGaussianBlur stdDeviation="1.56831" result="effect1_foregroundBlur_2631_6473"/>
</filter>
<filter id="filter1_f_2631_6473" x="722.364" y="96.6749" width="13.3477" height="17.8265" filterUnits="userSpaceOnUse" color-interpolation-filters="sRGB">
<feFlood flood-opacity="0" result="BackgroundImageFix"/>
<feBlend mode="normal" in="SourceGraphic" in2="BackgroundImageFix" result="shape"/>
<feGaussianBlur stdDeviation="1.56831" result="effect1_foregroundBlur_2631_6473"/>
</filter>
<filter id="filter2_b_2631_6473" x="459.549" y="-50.3606" width="307.979" height="307.98" filterUnits="userSpaceOnUse" color-interpolation-filters="sRGB">
<feFlood flood-opacity="0" result="BackgroundImageFix"/>
<feGaussianBlur in="BackgroundImageFix" stdDeviation="34.683"/>
<feComposite in2="SourceAlpha" operator="in" result="effect1_backgroundBlur_2631_6473"/>
<feBlend mode="normal" in="SourceGraphic" in2="effect1_backgroundBlur_2631_6473" result="shape"/>
</filter>
<filter id="filter3_b_2631_6473" x="838.062" y="-50.3606" width="307.979" height="307.98" filterUnits="userSpaceOnUse" color-interpolation-filters="sRGB">
<feFlood flood-opacity="0" result="BackgroundImageFix"/>
<feGaussianBlur in="BackgroundImageFix" stdDeviation="34.683"/>
<feComposite in2="SourceAlpha" operator="in" result="effect1_backgroundBlur_2631_6473"/>
<feBlend mode="normal" in="SourceGraphic" in2="effect1_backgroundBlur_2631_6473" result="shape"/>
</filter>
<filter id="filter4_b_2631_6473" x="735.14" y="35.3665" width="134.43" height="134.43" filterUnits="userSpaceOnUse" color-interpolation-filters="sRGB">
<feFlood flood-opacity="0" result="BackgroundImageFix"/>
<feGaussianBlur in="BackgroundImageFix" stdDeviation="18.5858"/>
<feComposite in2="SourceAlpha" operator="in" result="effect1_backgroundBlur_2631_6473"/>
<feBlend mode="normal" in="SourceGraphic" in2="effect1_backgroundBlur_2631_6473" result="shape"/>
</filter>
<linearGradient id="paint0_linear_2631_6473" x1="679.549" y1="68.5726" x2="545.888" y2="69.7531" gradientUnits="userSpaceOnUse">
<stop stop-color="#87F9C2"/>
<stop offset="1" stop-color="#6BB1D9"/>
</linearGradient>
<linearGradient id="paint1_linear_2631_6473" x1="599.462" y1="55.7568" x2="597.082" y2="120.607" gradientUnits="userSpaceOnUse">
<stop stop-color="#E2ECFF"/>
<stop offset="0.854167" stop-color="#5F6779"/>
</linearGradient>
<linearGradient id="paint2_linear_2631_6473" x1="627.935" y1="55.7568" x2="625.503" y2="120.603" gradientUnits="userSpaceOnUse">
<stop stop-color="#E2ECFF"/>
<stop offset="0.854167" stop-color="#5F6779"/>
</linearGradient>
<linearGradient id="paint3_linear_2631_6473" x1="599.333" y1="109.077" x2="598.39" y2="149.719" gradientUnits="userSpaceOnUse">
<stop stop-color="#E2ECFF"/>
<stop offset="0.854167" stop-color="#5F6779"/>
</linearGradient>
<linearGradient id="paint4_linear_2631_6473" x1="627.935" y1="109.077" x2="626.98" y2="149.719" gradientUnits="userSpaceOnUse">
<stop stop-color="#E2ECFF"/>
<stop offset="0.854167" stop-color="#5F6779"/>
</linearGradient>
<linearGradient id="paint5_linear_2631_6473" x1="599.185" y1="90.5068" x2="598.659" y2="120.671" gradientUnits="userSpaceOnUse">
<stop stop-color="#E2ECFF"/>
<stop offset="0.854167" stop-color="#5F6779"/>
</linearGradient>
<linearGradient id="paint6_linear_2631_6473" x1="627.935" y1="90.5068" x2="627.409" y2="120.671" gradientUnits="userSpaceOnUse">
<stop stop-color="#E2ECFF"/>
<stop offset="0.854167" stop-color="#5F6779"/>
</linearGradient>
<linearGradient id="paint7_linear_2631_6473" x1="1058.06" y1="68.5726" x2="924.402" y2="69.7531" gradientUnits="userSpaceOnUse">
<stop stop-color="#87F9C2"/>
<stop offset="1" stop-color="#6BB1D9"/>
</linearGradient>
<linearGradient id="paint8_linear_2631_6473" x1="774.17" y1="74.3965" x2="779.92" y2="82.2085" gradientUnits="userSpaceOnUse">
<stop stop-color="#8AD5FF"/>
<stop offset="1" stop-color="#485267" stop-opacity="0"/>
</linearGradient>
<linearGradient id="paint9_linear_2631_6473" x1="831.055" y1="130.766" x2="823.378" y2="113.935" gradientUnits="userSpaceOnUse">
<stop stop-color="#8AD5FF"/>
<stop offset="1" stop-opacity="0"/>
</linearGradient>
</defs>
</svg>
