<svg width="458" height="267" viewBox="0 0 458 267" fill="none" xmlns="http://www.w3.org/2000/svg">
<g filter="url(#filter0_b_169_1579)">
<path d="M215.836 7.741C224.036 3.00705 234.138 3.00705 242.337 7.74099L331.392 59.1571C339.592 63.891 344.643 72.6397 344.643 82.1076V184.94C344.643 194.408 339.592 203.156 331.392 207.89L242.337 259.306C234.138 264.04 224.036 264.04 215.836 259.306L126.781 207.89C118.581 203.156 113.53 194.408 113.53 184.94V82.1076C113.53 72.6397 118.581 63.891 126.781 59.1571L215.836 7.741Z" fill="#495971" fill-opacity="0.15"/>
<path d="M331.642 58.7241L242.587 7.30798C234.233 2.48472 223.94 2.48473 215.586 7.30798L126.531 58.7241C118.177 63.5473 113.03 72.4611 113.03 82.1076V184.94C113.03 194.586 118.177 203.5 126.531 208.323L215.586 259.739C223.94 264.563 234.233 264.563 242.587 259.739L331.642 208.323C339.997 203.5 345.143 194.586 345.143 184.94V82.1076C345.143 72.4611 339.997 63.5473 331.642 58.7241Z" stroke="#334B6E"/>
<path d="M331.642 58.7241L242.587 7.30798C234.233 2.48472 223.94 2.48473 215.586 7.30798L126.531 58.7241C118.177 63.5473 113.03 72.4611 113.03 82.1076V184.94C113.03 194.586 118.177 203.5 126.531 208.323L215.586 259.739C223.94 264.563 234.233 264.563 242.587 259.739L331.642 208.323C339.997 203.5 345.143 194.586 345.143 184.94V82.1076C345.143 72.4611 339.997 63.5473 331.642 58.7241Z" stroke="url(#paint0_linear_169_1579)" stroke-opacity="0.3"/>
<path d="M331.642 58.7241L242.587 7.30798C234.233 2.48472 223.94 2.48473 215.586 7.30798L126.531 58.7241C118.177 63.5473 113.03 72.4611 113.03 82.1076V184.94C113.03 194.586 118.177 203.5 126.531 208.323L215.586 259.739C223.94 264.563 234.233 264.563 242.587 259.739L331.642 208.323C339.997 203.5 345.143 194.586 345.143 184.94V82.1076C345.143 72.4611 339.997 63.5473 331.642 58.7241Z" stroke="url(#paint1_linear_169_1579)" stroke-opacity="0.3"/>
</g>
<g filter="url(#filter1_b_169_1579)">
<path d="M215.836 29.3074C224.036 24.5735 234.138 24.5735 242.337 29.3074L312.716 69.9404C320.915 74.6743 325.966 83.423 325.966 92.8909V174.157C325.966 183.625 320.915 192.374 312.716 197.107L242.337 237.74C234.138 242.474 224.036 242.474 215.836 237.74L145.458 197.107C137.259 192.374 132.208 183.625 132.208 174.157V92.8909C132.208 83.423 137.259 74.6743 145.458 69.9404L215.836 29.3074Z" fill="#495971" fill-opacity="0.15"/>
<path d="M312.966 69.5074L242.587 28.8744C234.233 24.0511 223.941 24.0511 215.586 28.8744L145.208 69.5074C136.854 74.3307 131.708 83.2444 131.708 92.8909V174.157C131.708 183.803 136.854 192.717 145.208 197.54L215.586 238.173C223.941 242.997 234.233 242.997 242.587 238.173L312.966 197.54C321.32 192.717 326.466 183.803 326.466 174.157V92.8909C326.466 83.2444 321.32 74.3307 312.966 69.5074Z" stroke="#334B6E"/>
<path d="M312.966 69.5074L242.587 28.8744C234.233 24.0511 223.941 24.0511 215.586 28.8744L145.208 69.5074C136.854 74.3307 131.708 83.2444 131.708 92.8909V174.157C131.708 183.803 136.854 192.717 145.208 197.54L215.586 238.173C223.941 242.997 234.233 242.997 242.587 238.173L312.966 197.54C321.32 192.717 326.466 183.803 326.466 174.157V92.8909C326.466 83.2444 321.32 74.3307 312.966 69.5074Z" stroke="url(#paint2_linear_169_1579)" stroke-opacity="0.3"/>
<path d="M312.966 69.5074L242.587 28.8744C234.233 24.0511 223.941 24.0511 215.586 28.8744L145.208 69.5074C136.854 74.3307 131.708 83.2444 131.708 92.8909V174.157C131.708 183.803 136.854 192.717 145.208 197.54L215.586 238.173C223.941 242.997 234.233 242.997 242.587 238.173L312.966 197.54C321.32 192.717 326.466 183.803 326.466 174.157V92.8909C326.466 83.2444 321.32 74.3307 312.966 69.5074Z" stroke="url(#paint3_linear_169_1579)" stroke-opacity="0.3"/>
</g>
<mask id="mask0_169_1579" style="mask-type:alpha" maskUnits="userSpaceOnUse" x="107" y="135" width="344" height="4">
<line x1="1.46734" y1="-1.46734" x2="341.562" y2="-1.46734" transform="matrix(0.999999 0.00173277 0.00173186 -0.999999 107.011 135.407)" stroke="#AFFFD8" stroke-width="2.93468" stroke-linecap="round" stroke-dasharray="0.53 6.67"/>
</mask>
<g mask="url(#mask0_169_1579)">
<rect width="69.4142" height="16.813" transform="matrix(0.999999 0.00173229 0.00173229 -0.999999 142.861 144.035)" fill="#AFFFD8"/>
</g>
<g filter="url(#filter2_f_169_1579)">
<path d="M143.794 135.827L144.551 133.988C144.636 133.776 144.684 133.492 144.684 133.196C144.685 132.9 144.638 132.616 144.554 132.405C144.512 132.297 144.462 132.211 144.406 132.152C144.351 132.094 144.291 132.064 144.23 132.064C144.169 132.064 144.108 132.094 144.052 132.153C143.996 132.211 143.944 132.296 143.902 132.404L142.354 136.183C142.311 136.287 142.276 136.411 142.253 136.548C142.229 136.685 142.217 136.831 142.217 136.979C142.217 137.127 142.228 137.273 142.251 137.41C142.274 137.547 142.308 137.671 142.351 137.775L143.893 141.56C143.936 141.665 143.987 141.748 144.042 141.804C144.098 141.861 144.158 141.89 144.219 141.89C144.279 141.891 144.339 141.862 144.395 141.805C144.451 141.749 144.502 141.666 144.545 141.561C144.588 141.457 144.622 141.333 144.646 141.196C144.669 141.06 144.681 140.913 144.682 140.766C144.682 140.618 144.67 140.471 144.647 140.335C144.624 140.198 144.591 140.074 144.548 139.969L143.798 138.127L143.34 137.004L143.794 135.827Z" fill="#87F9C2"/>
</g>
<path d="M143.794 135.827L144.551 133.988C144.636 133.776 144.684 133.492 144.684 133.196C144.685 132.9 144.638 132.616 144.554 132.405C144.512 132.297 144.462 132.211 144.406 132.152C144.351 132.094 144.291 132.064 144.23 132.064C144.169 132.064 144.108 132.094 144.052 132.153C143.996 132.211 143.944 132.296 143.902 132.404L142.354 136.183C142.311 136.287 142.276 136.411 142.253 136.548C142.229 136.685 142.217 136.831 142.217 136.979C142.217 137.127 142.228 137.273 142.251 137.41C142.274 137.547 142.308 137.671 142.351 137.775L143.893 141.56C143.936 141.665 143.987 141.748 144.042 141.804C144.098 141.861 144.158 141.89 144.219 141.89C144.279 141.891 144.339 141.862 144.395 141.805C144.451 141.749 144.502 141.666 144.545 141.561C144.588 141.457 144.622 141.333 144.646 141.196C144.669 141.06 144.681 140.913 144.682 140.766C144.682 140.618 144.67 140.471 144.647 140.335C144.624 140.198 144.591 140.074 144.548 139.969L143.798 138.127L143.34 137.004L143.794 135.827Z" fill="#AFFFD8"/>
<mask id="mask1_169_1579" style="mask-type:alpha" maskUnits="userSpaceOnUse" x="13" y="134" width="344" height="4">
<line x1="1.46734" y1="-1.46734" x2="341.562" y2="-1.46734" transform="matrix(-1 -4.87957e-07 4.23931e-07 1 356.029 137.42)" stroke="#AFFFD8" stroke-width="2.93468" stroke-linecap="round" stroke-dasharray="0.53 6.67"/>
</mask>
<g mask="url(#mask1_169_1579)">
<rect width="69.4142" height="16.813" transform="matrix(-1 0 0 1 320.165 128.854)" fill="#AFFFD8"/>
</g>
<g filter="url(#filter3_f_169_1579)">
<path d="M319.246 137.063L318.492 138.904C318.407 139.115 318.36 139.399 318.36 139.695C318.36 139.991 318.407 140.275 318.492 140.487C318.534 140.594 318.584 140.68 318.64 140.739C318.696 140.797 318.756 140.827 318.816 140.827C318.877 140.827 318.938 140.796 318.994 140.738C319.051 140.679 319.102 140.594 319.144 140.487L320.686 136.704C320.729 136.6 320.763 136.476 320.786 136.339C320.809 136.203 320.821 136.056 320.821 135.908C320.821 135.76 320.809 135.614 320.786 135.477C320.763 135.341 320.729 135.217 320.686 135.112L319.137 131.33C319.094 131.225 319.043 131.143 318.987 131.086C318.931 131.029 318.871 131 318.811 131C318.75 131 318.69 131.029 318.634 131.086C318.578 131.143 318.527 131.225 318.485 131.33C318.442 131.435 318.408 131.559 318.385 131.695C318.362 131.832 318.35 131.978 318.35 132.126C318.35 132.274 318.362 132.42 318.385 132.557C318.408 132.693 318.442 132.818 318.485 132.922L319.238 134.763L319.698 135.885L319.246 137.063Z" fill="#87F9C2"/>
</g>
<path d="M319.246 137.063L318.492 138.904C318.407 139.115 318.36 139.399 318.36 139.695C318.36 139.991 318.407 140.275 318.492 140.487C318.534 140.594 318.584 140.68 318.64 140.739C318.696 140.797 318.756 140.827 318.816 140.827C318.877 140.827 318.938 140.796 318.994 140.738C319.051 140.679 319.102 140.594 319.144 140.487L320.686 136.704C320.729 136.6 320.763 136.476 320.786 136.339C320.809 136.203 320.821 136.056 320.821 135.908C320.821 135.76 320.809 135.614 320.786 135.477C320.763 135.341 320.729 135.217 320.686 135.112L319.137 131.33C319.094 131.225 319.043 131.143 318.987 131.086C318.931 131.029 318.871 131 318.811 131C318.75 131 318.69 131.029 318.634 131.086C318.578 131.143 318.527 131.225 318.485 131.33C318.442 131.435 318.408 131.559 318.385 131.695C318.362 131.832 318.35 131.978 318.35 132.126C318.35 132.274 318.362 132.42 318.385 132.557C318.408 132.693 318.442 132.818 318.485 132.922L319.238 134.763L319.698 135.885L319.246 137.063Z" fill="#AFFFD8"/>
<g filter="url(#filter4_b_169_1579)">
<path d="M74.6795 59.2119C77.4469 57.6141 80.8565 57.6141 83.6238 59.2119L142.95 93.464C145.718 95.0618 147.422 98.0146 147.422 101.21V169.714C147.422 172.91 145.718 175.863 142.95 177.46L83.6239 211.713C80.8565 213.31 77.4469 213.31 74.6795 211.713L15.353 177.46C12.5857 175.863 10.8809 172.91 10.8809 169.714V101.21C10.8809 98.0146 12.5857 95.0618 15.353 93.464L74.6795 59.2119Z" fill="#14192A"/>
<path d="M144.068 91.5275L84.7419 57.2754C81.2827 55.2782 77.0207 55.2782 73.5614 57.2754L14.235 91.5275C10.7758 93.5247 8.64478 97.2157 8.64478 101.21V169.714C8.64478 173.709 10.7758 177.4 14.235 179.397L73.5615 213.649C77.0207 215.646 81.2827 215.646 84.7419 213.649L144.068 179.397C147.528 177.4 149.659 173.709 149.659 169.714V101.21C149.659 97.2157 147.528 93.5247 144.068 91.5275Z" stroke="url(#paint4_linear_169_1579)" stroke-width="4.47218"/>
</g>
<g filter="url(#filter5_b_169_1579)">
<path d="M374.517 59.2119C377.285 57.6141 380.694 57.6141 383.462 59.2119L442.788 93.464C445.556 95.0618 447.26 98.0146 447.26 101.21V169.714C447.26 172.91 445.556 175.863 442.788 177.46L383.462 211.713C380.694 213.31 377.285 213.31 374.517 211.713L315.191 177.46C312.424 175.863 310.719 172.91 310.719 169.714V101.21C310.719 98.0146 312.424 95.0618 315.191 93.464L374.517 59.2119Z" fill="#14192A"/>
<path d="M443.906 91.5275L384.58 57.2754C381.121 55.2782 376.859 55.2782 373.399 57.2754L314.073 91.5275C310.614 93.5247 308.483 97.2157 308.483 101.21V169.714C308.483 173.709 310.614 177.4 314.073 179.397L373.399 213.649C376.859 215.646 381.121 215.646 384.58 213.649L443.906 179.397C447.365 177.4 449.496 173.709 449.496 169.714V101.21C449.496 97.2157 447.365 93.5247 443.906 91.5275Z" stroke="url(#paint5_linear_169_1579)" stroke-width="4.47218"/>
</g>
<g filter="url(#filter6_b_169_1579)">
<path d="M228.783 161.957C214.528 161.957 202.968 150.398 202.968 136.142C202.968 121.887 214.528 110.327 228.783 110.327C243.038 110.327 254.598 121.887 254.598 136.142C254.598 150.398 243.038 161.957 228.783 161.957Z" fill="#495971" fill-opacity="0.15"/>
<path d="M228.783 162.748C214.091 162.748 202.178 150.834 202.178 136.142C202.178 121.45 214.091 109.537 228.783 109.537C243.475 109.537 255.389 121.45 255.389 136.142C255.389 150.834 243.475 162.748 228.783 162.748Z" stroke="#334B6E" stroke-width="1.58083"/>
<path d="M228.783 162.748C214.091 162.748 202.178 150.834 202.178 136.142C202.178 121.45 214.091 109.537 228.783 109.537C243.475 109.537 255.389 121.45 255.389 136.142C255.389 150.834 243.475 162.748 228.783 162.748Z" stroke="url(#paint6_linear_169_1579)" stroke-opacity="0.3" stroke-width="1.58083"/>
<path d="M228.783 162.748C214.091 162.748 202.178 150.834 202.178 136.142C202.178 121.45 214.091 109.537 228.783 109.537C243.475 109.537 255.389 121.45 255.389 136.142C255.389 150.834 243.475 162.748 228.783 162.748Z" stroke="url(#paint7_linear_169_1579)" stroke-opacity="0.3" stroke-width="1.58083"/>
</g>
<rect x="219.968" y="133.258" width="17.6327" height="13.4786" rx="1.48305" fill="white"/>
<path d="M223.308 133.244V131.206C223.308 128.194 225.75 125.752 228.762 125.752V125.752C231.774 125.752 234.216 128.194 234.216 131.206V133.244" stroke="white" stroke-width="2.74936"/>
<path d="M387.577 148.418C390.495 149.961 396.634 151.572 396.735 151.639C396.869 151.706 398.764 152.058 402.522 153.819C406.262 155.58 406.463 159.405 406.463 159.405V165.611L378.989 165.627L351.515 165.611V159.405C351.515 159.405 351.716 155.58 355.456 153.819C359.197 152.058 361.109 151.706 361.243 151.639C361.36 151.572 367.483 149.961 370.401 148.418C370.468 148.385 370.535 148.351 370.602 148.301C370.602 148.301 370.619 148.301 370.619 148.284C371.24 147.881 371.609 147.194 371.609 146.473V143.655V142.799C361.847 142.883 358.962 138.707 358.962 138.707C358.962 138.707 364.531 138.623 364.195 123.913C363.843 109.203 370.619 106.771 373.152 105.815C380.515 103.013 384.205 107.475 384.205 107.475C392.726 106.687 395.091 115.996 394.034 126.613C392.995 137.231 398.815 138.874 398.815 138.874C394.806 142.967 386.369 142.799 386.369 142.799V143.655V146.473C386.369 147.211 386.738 147.898 387.359 148.284L387.577 148.418Z" fill="white"/>
<path d="M108.53 157.339C108.53 155.599 107.772 153.928 106.428 152.825C98.9328 146.656 90.8344 142.555 89.1803 141.763C88.9907 141.677 88.8873 141.487 88.8873 141.28V135.698C89.7661 134.181 90.3347 132.579 90.5587 131.114C91.1962 131.062 92.0406 130.166 92.9538 126.962C94.1427 122.723 92.971 121.982 91.8855 122.034C94.5907 109.628 87.6295 109.593 87.6295 109.593C87.0437 106.991 83.3563 104.286 79.9102 105.01C76.464 105.716 69.365 104.924 69.365 104.924C69.2616 106.423 70.5539 107.474 70.5539 107.474C64.3164 111.282 65.7465 119.656 66.3152 122.051C65.2469 122.051 64.1613 122.861 65.3158 126.996C66.229 130.201 67.0733 131.097 67.7108 131.149C67.9348 132.596 68.5035 134.198 69.3822 135.732V141.28C69.3822 141.487 69.2616 141.677 69.0893 141.763C67.4524 142.573 59.354 146.656 51.8414 152.825C50.4974 153.928 49.7393 155.599 49.7393 157.339V165.627H108.565V157.339H108.53V157.339Z" fill="white"/>
<defs>
<filter id="filter0_b_169_1579" x="54.9749" y="-54.365" width="348.224" height="375.777" filterUnits="userSpaceOnUse" color-interpolation-filters="sRGB">
<feFlood flood-opacity="0" result="BackgroundImageFix"/>
<feGaussianBlur in="BackgroundImageFix" stdDeviation="28.7777"/>
<feComposite in2="SourceAlpha" operator="in" result="effect1_backgroundBlur_169_1579"/>
<feBlend mode="normal" in="SourceGraphic" in2="effect1_backgroundBlur_169_1579" result="shape"/>
</filter>
<filter id="filter1_b_169_1579" x="73.6521" y="-32.7985" width="310.87" height="332.645" filterUnits="userSpaceOnUse" color-interpolation-filters="sRGB">
<feFlood flood-opacity="0" result="BackgroundImageFix"/>
<feGaussianBlur in="BackgroundImageFix" stdDeviation="28.7777"/>
<feComposite in2="SourceAlpha" operator="in" result="effect1_backgroundBlur_169_1579"/>
<feBlend mode="normal" in="SourceGraphic" in2="effect1_backgroundBlur_169_1579" result="shape"/>
</filter>
<filter id="filter2_f_169_1579" x="139.549" y="129.396" width="7.80355" height="15.1629" filterUnits="userSpaceOnUse" color-interpolation-filters="sRGB">
<feFlood flood-opacity="0" result="BackgroundImageFix"/>
<feBlend mode="normal" in="SourceGraphic" in2="BackgroundImageFix" result="shape"/>
<feGaussianBlur stdDeviation="1.33394" result="effect1_foregroundBlur_169_1579"/>
</filter>
<filter id="filter3_f_169_1579" x="315.682" y="128.332" width="7.80746" height="15.1629" filterUnits="userSpaceOnUse" color-interpolation-filters="sRGB">
<feFlood flood-opacity="0" result="BackgroundImageFix"/>
<feBlend mode="normal" in="SourceGraphic" in2="BackgroundImageFix" result="shape"/>
<feGaussianBlur stdDeviation="1.33394" result="effect1_foregroundBlur_169_1579"/>
</filter>
<filter id="filter4_b_169_1579" x="-43.042" y="4.0903" width="244.387" height="262.743" filterUnits="userSpaceOnUse" color-interpolation-filters="sRGB">
<feFlood flood-opacity="0" result="BackgroundImageFix"/>
<feGaussianBlur in="BackgroundImageFix" stdDeviation="24.7254"/>
<feComposite in2="SourceAlpha" operator="in" result="effect1_backgroundBlur_169_1579"/>
<feBlend mode="normal" in="SourceGraphic" in2="effect1_backgroundBlur_169_1579" result="shape"/>
</filter>
<filter id="filter5_b_169_1579" x="256.796" y="4.0903" width="244.387" height="262.743" filterUnits="userSpaceOnUse" color-interpolation-filters="sRGB">
<feFlood flood-opacity="0" result="BackgroundImageFix"/>
<feGaussianBlur in="BackgroundImageFix" stdDeviation="24.7254"/>
<feComposite in2="SourceAlpha" operator="in" result="effect1_backgroundBlur_169_1579"/>
<feBlend mode="normal" in="SourceGraphic" in2="effect1_backgroundBlur_169_1579" result="shape"/>
</filter>
<filter id="filter6_b_169_1579" x="169.771" y="77.1295" width="118.025" height="118.025" filterUnits="userSpaceOnUse" color-interpolation-filters="sRGB">
<feFlood flood-opacity="0" result="BackgroundImageFix"/>
<feGaussianBlur in="BackgroundImageFix" stdDeviation="15.8083"/>
<feComposite in2="SourceAlpha" operator="in" result="effect1_backgroundBlur_169_1579"/>
<feBlend mode="normal" in="SourceGraphic" in2="effect1_backgroundBlur_169_1579" result="shape"/>
</filter>
<linearGradient id="paint0_linear_169_1579" x1="362.52" y1="0.0908203" x2="335.3" y2="37.0743" gradientUnits="userSpaceOnUse">
<stop stop-color="#8AD5FF"/>
<stop offset="1" stop-color="#485267" stop-opacity="0"/>
</linearGradient>
<linearGradient id="paint1_linear_169_1579" x1="93.2167" y1="266.957" x2="129.561" y2="187.274" gradientUnits="userSpaceOnUse">
<stop stop-color="#8AD5FF"/>
<stop offset="1" stop-opacity="0"/>
</linearGradient>
<linearGradient id="paint2_linear_169_1579" x1="340.954" y1="21.6572" x2="318.133" y2="52.6632" gradientUnits="userSpaceOnUse">
<stop stop-color="#8AD5FF"/>
<stop offset="1" stop-color="#485267" stop-opacity="0"/>
</linearGradient>
<linearGradient id="paint3_linear_169_1579" x1="115.177" y1="245.391" x2="145.647" y2="178.587" gradientUnits="userSpaceOnUse">
<stop stop-color="#8AD5FF"/>
<stop offset="1" stop-opacity="0"/>
</linearGradient>
<linearGradient id="paint4_linear_169_1579" x1="12.7349" y1="100.19" x2="147.218" y2="101.378" gradientUnits="userSpaceOnUse">
<stop stop-color="#87F9C2"/>
<stop offset="1" stop-color="#6BB1D9"/>
</linearGradient>
<linearGradient id="paint5_linear_169_1579" x1="312.573" y1="100.19" x2="447.056" y2="101.378" gradientUnits="userSpaceOnUse">
<stop stop-color="#87F9C2"/>
<stop offset="1" stop-color="#6BB1D9"/>
</linearGradient>
<linearGradient id="paint6_linear_169_1579" x1="202.968" y1="110.327" x2="208.234" y2="117.482" gradientUnits="userSpaceOnUse">
<stop stop-color="#8AD5FF"/>
<stop offset="1" stop-color="#485267" stop-opacity="0"/>
</linearGradient>
<linearGradient id="paint7_linear_169_1579" x1="255.07" y1="161.957" x2="248.038" y2="146.541" gradientUnits="userSpaceOnUse">
<stop stop-color="#8AD5FF"/>
<stop offset="1" stop-opacity="0"/>
</linearGradient>
</defs>
</svg>
