<svg width="738" height="389" viewBox="0 0 738 389" fill="none" xmlns="http://www.w3.org/2000/svg">
<g filter="url(#filter0_f_117_4826)">
<ellipse cx="96" cy="67.5" rx="96" ry="67.5" transform="matrix(-1 0 0 1 611 127)" fill="#1D3843"/>
</g>
<g filter="url(#filter1_b_117_4826)">
<circle cx="524.328" cy="191.468" r="67.3078" fill="#14192A"/>
<circle cx="524.328" cy="191.468" r="69.5439" stroke="url(#paint0_linear_117_4826)" stroke-width="4.47218"/>
</g>
<path d="M524.309 154.018L524.81 155.725V205.26L524.309 205.762L501.383 192.17L524.309 154.018Z" fill="url(#paint1_linear_117_4826)"/>
<path d="M524.309 154.018L524.81 155.725V205.26L524.309 205.762L501.383 192.17L524.309 154.018Z" fill="url(#paint2_linear_117_4826)" fill-opacity="0.2"/>
<path d="M524.331 154.018L547.258 192.17L524.331 205.762V181.718V154.018Z" fill="url(#paint3_linear_117_4826)"/>
<path d="M524.331 154.018L547.258 192.17L524.331 205.762V181.718V154.018Z" fill="url(#paint4_linear_117_4826)" fill-opacity="0.2"/>
<path d="M524.326 210.1L524.609 210.446V228.091L524.326 228.918L501.386 196.516L524.326 210.1Z" fill="url(#paint5_linear_117_4826)"/>
<path d="M524.326 210.1L524.609 210.446V228.091L524.326 228.918L501.386 196.516L524.326 210.1Z" fill="url(#paint6_linear_117_4826)" fill-opacity="0.2"/>
<path d="M524.331 228.918V210.1L547.258 196.516L524.331 228.918Z" fill="url(#paint7_linear_117_4826)"/>
<path d="M524.331 228.918V210.1L547.258 196.516L524.331 228.918Z" fill="url(#paint8_linear_117_4826)" fill-opacity="0.2"/>
<path d="M524.347 205.758L501.421 192.166L524.347 181.715V205.758Z" fill="url(#paint9_linear_117_4826)"/>
<path d="M524.347 205.758L501.421 192.166L524.347 181.715V205.758Z" fill="url(#paint10_linear_117_4826)" fill-opacity="0.2"/>
<path d="M547.258 192.166L524.331 205.758V181.715L547.258 192.166Z" fill="url(#paint11_linear_117_4826)"/>
<path d="M547.258 192.166L524.331 205.758V181.715L547.258 192.166Z" fill="url(#paint12_linear_117_4826)" fill-opacity="0.2"/>
<path d="M574.295 157.59C561.134 157.59 550.462 146.918 550.462 133.757C550.462 120.596 561.134 109.924 574.295 109.924C587.456 109.924 598.128 120.596 598.128 133.757C598.128 146.918 587.456 157.59 574.295 157.59Z" fill="#87F9C2"/>
<path d="M564.886 144.891V141.45L575.701 127.015H564.93V122.009H583.611V125.451L572.796 139.885H583.566V144.891H564.886Z" fill="#050A18"/>
<mask id="mask0_117_4826" style="mask-type:alpha" maskUnits="userSpaceOnUse" x="0" y="194" width="436" height="3">
<line x1="1.22985" y1="-1.22985" x2="433.674" y2="-1.22985" transform="matrix(-1 -3.22583e-07 6.41262e-07 1 435.902 196.713)" stroke="#AFFFD8" stroke-width="2.4597" stroke-linecap="round" stroke-dasharray="0.45 5.59"/>
</mask>
<g mask="url(#mask0_117_4826)">
<rect width="47.6799" height="14.0918" transform="matrix(-1 0 0 1 439.496 189.529)" fill="#AFFFD8"/>
</g>
<g filter="url(#filter2_f_117_4826)">
<path d="M438.33 196.41L437.375 197.952C437.267 198.13 437.207 198.368 437.207 198.616C437.207 198.864 437.267 199.102 437.375 199.279C437.428 199.369 437.491 199.441 437.562 199.49C437.633 199.539 437.709 199.565 437.786 199.564C437.863 199.564 437.94 199.538 438.011 199.489C438.083 199.44 438.147 199.369 438.201 199.279L440.156 196.109C440.21 196.022 440.253 195.918 440.283 195.803C440.312 195.689 440.328 195.566 440.328 195.442C440.328 195.318 440.312 195.195 440.283 195.08C440.253 194.966 440.21 194.862 440.156 194.775L438.192 191.604C438.138 191.517 438.073 191.447 438.002 191.4C437.931 191.353 437.855 191.328 437.779 191.328C437.702 191.328 437.626 191.353 437.555 191.4C437.484 191.447 437.42 191.517 437.365 191.604C437.311 191.692 437.268 191.796 437.239 191.911C437.209 192.025 437.194 192.148 437.194 192.272C437.194 192.396 437.209 192.518 437.239 192.633C437.268 192.747 437.311 192.851 437.365 192.939L438.321 194.482L438.904 195.423L438.33 196.41Z" fill="#87F9C2"/>
</g>
<path d="M438.33 196.41L437.375 197.952C437.267 198.13 437.207 198.368 437.207 198.616C437.207 198.864 437.267 199.102 437.375 199.279C437.428 199.369 437.491 199.441 437.562 199.49C437.633 199.539 437.709 199.565 437.786 199.564C437.863 199.564 437.94 199.538 438.011 199.489C438.083 199.44 438.147 199.369 438.201 199.279L440.156 196.109C440.21 196.022 440.253 195.918 440.283 195.803C440.312 195.689 440.328 195.566 440.328 195.442C440.328 195.318 440.312 195.195 440.283 195.08C440.253 194.966 440.21 194.862 440.156 194.775L438.192 191.604C438.138 191.517 438.073 191.447 438.002 191.4C437.931 191.353 437.855 191.328 437.779 191.328C437.702 191.328 437.626 191.353 437.555 191.4C437.484 191.447 437.42 191.517 437.365 191.604C437.311 191.692 437.268 191.796 437.239 191.911C437.209 192.025 437.194 192.148 437.194 192.272C437.194 192.396 437.209 192.518 437.239 192.633C437.268 192.747 437.311 192.851 437.365 192.939L438.321 194.482L438.904 195.423L438.33 196.41Z" fill="#AFFFD8"/>
<mask id="mask1_117_4826" style="mask-type:alpha" maskUnits="userSpaceOnUse" x="7" y="193" width="185" height="4">
<line x1="190.763" y1="195.223" x2="9.22314" y2="194.237" stroke="#AFFFD8" stroke-width="2.4597" stroke-linecap="round" stroke-dasharray="0.45 5.59"/>
</mask>
<g mask="url(#mask1_117_4826)">
<rect width="48.0936" height="14.0918" transform="matrix(-1 0 0 1 195.301 189.529)" fill="#AFFFD8"/>
</g>
<g filter="url(#filter3_f_117_4826)">
<path d="M194.125 196.41L193.161 197.952C193.053 198.13 192.992 198.368 192.992 198.616C192.992 198.864 193.053 199.102 193.161 199.279C193.214 199.369 193.279 199.441 193.35 199.49C193.421 199.539 193.498 199.565 193.576 199.564C193.654 199.564 193.731 199.538 193.803 199.489C193.875 199.44 193.94 199.369 193.995 199.279L195.966 196.109C196.021 196.022 196.065 195.918 196.094 195.803C196.124 195.689 196.14 195.566 196.14 195.442C196.14 195.318 196.124 195.195 196.094 195.08C196.065 194.966 196.021 194.862 195.966 194.775L193.985 191.604C193.931 191.517 193.866 191.447 193.794 191.4C193.723 191.353 193.646 191.328 193.568 191.328C193.491 191.328 193.414 191.353 193.343 191.4C193.271 191.447 193.206 191.517 193.152 191.604C193.097 191.692 193.053 191.796 193.024 191.911C192.994 192.025 192.979 192.148 192.979 192.272C192.979 192.396 192.994 192.518 193.024 192.633C193.053 192.747 193.097 192.851 193.152 192.939L194.115 194.482L194.703 195.423L194.125 196.41Z" fill="#87F9C2"/>
</g>
<path d="M194.125 196.41L193.161 197.952C193.053 198.13 192.992 198.368 192.992 198.616C192.992 198.864 193.053 199.102 193.161 199.279C193.214 199.369 193.279 199.441 193.35 199.49C193.421 199.539 193.498 199.565 193.576 199.564C193.654 199.564 193.731 199.538 193.803 199.489C193.875 199.44 193.94 199.369 193.995 199.279L195.966 196.109C196.021 196.022 196.065 195.918 196.094 195.803C196.124 195.689 196.14 195.566 196.14 195.442C196.14 195.318 196.124 195.195 196.094 195.08C196.065 194.966 196.021 194.862 195.966 194.775L193.985 191.604C193.931 191.517 193.866 191.447 193.794 191.4C193.723 191.353 193.646 191.328 193.568 191.328C193.491 191.328 193.414 191.353 193.343 191.4C193.271 191.447 193.206 191.517 193.152 191.604C193.097 191.692 193.053 191.796 193.024 191.911C192.994 192.025 192.979 192.148 192.979 192.272C192.979 192.396 192.994 192.518 193.024 192.633C193.053 192.747 193.097 192.851 193.152 192.939L194.115 194.482L194.703 195.423L194.125 196.41Z" fill="#AFFFD8"/>
<g filter="url(#filter4_b_117_4826)">
<circle cx="74.4897" cy="195.061" r="66.7955" fill="#495971" fill-opacity="0.15"/>
<circle cx="74.4897" cy="195.061" r="67.706" stroke="#334B6E" stroke-width="1.82114"/>
<circle cx="74.4897" cy="195.061" r="67.706" stroke="url(#paint13_linear_117_4826)" stroke-opacity="0.3" stroke-width="1.82114"/>
<circle cx="74.4897" cy="195.061" r="67.706" stroke="url(#paint14_linear_117_4826)" stroke-opacity="0.3" stroke-width="1.82114"/>
</g>
<path d="M74.4821 158.961L74.9552 160.573V207.333L74.4821 207.806L52.8403 194.976L74.4821 158.961Z" fill="url(#paint15_linear_117_4826)"/>
<path d="M74.4821 158.961L74.9552 160.573V207.333L74.4821 207.806L52.8403 194.976L74.4821 158.961Z" fill="white"/>
<path d="M74.5032 158.961L96.1456 194.976L74.5032 207.806V185.11V158.961Z" fill="url(#paint16_linear_117_4826)"/>
<path d="M74.5032 158.961L96.1456 194.976L74.5032 207.806V185.11V158.961Z" fill="white"/>
<path d="M74.4964 211.96L74.7631 212.286V228.943L74.4964 229.724L52.8414 199.137L74.4964 211.96Z" fill="url(#paint17_linear_117_4826)"/>
<path d="M74.4964 211.96L74.7631 212.286V228.943L74.4964 229.724L52.8414 199.137L74.4964 211.96Z" fill="white"/>
<path d="M74.5032 229.724V211.96L96.1456 199.137L74.5032 229.724Z" fill="url(#paint18_linear_117_4826)"/>
<path d="M74.5032 229.724V211.96L96.1456 199.137L74.5032 229.724Z" fill="white"/>
<path d="M74.5184 207.862L52.8766 195.032L74.5184 185.166V207.862Z" fill="url(#paint19_linear_117_4826)"/>
<path d="M74.5184 207.862L52.8766 195.032L74.5184 185.166V207.862Z" fill="white"/>
<path d="M96.1456 195.032L74.5032 207.862V185.166L96.1456 195.032Z" fill="url(#paint20_linear_117_4826)"/>
<path d="M96.1456 195.032L74.5032 207.862V185.166L96.1456 195.032Z" fill="white"/>
<g filter="url(#filter5_b_117_4826)">
<path d="M288.516 95.1598C292.987 92.5785 298.496 92.5785 302.967 95.1598L378.649 138.855C383.12 141.437 385.874 146.207 385.874 151.37V238.76C385.874 243.923 383.12 248.694 378.649 251.275L302.967 294.97C298.495 297.552 292.987 297.552 288.516 294.97L212.833 251.275C208.362 248.694 205.608 243.923 205.608 238.76V151.37C205.608 146.207 208.362 141.436 212.833 138.855L288.516 95.1598Z" fill="#495971" fill-opacity="0.15"/>
<path d="M303.359 94.4803C298.645 91.7588 292.837 91.7588 288.124 94.4803L212.441 138.176C207.727 140.897 204.823 145.927 204.823 151.37V238.76C204.823 244.203 207.727 249.233 212.441 251.955L288.124 295.65C292.837 298.371 298.645 298.371 303.359 295.65L379.041 251.955C383.755 249.233 386.659 244.203 386.659 238.76V151.37C386.659 145.927 383.755 140.897 379.041 138.176L303.359 94.4803Z" stroke="#334B6E" stroke-width="1.56921"/>
<path d="M303.359 94.4803C298.645 91.7588 292.837 91.7588 288.124 94.4803L212.441 138.176C207.727 140.897 204.823 145.927 204.823 151.37V238.76C204.823 244.203 207.727 249.233 212.441 251.955L288.124 295.65C292.837 298.371 298.645 298.371 303.359 295.65L379.041 251.955C383.755 249.233 386.659 244.203 386.659 238.76V151.37C386.659 145.927 383.755 140.897 379.041 138.176L303.359 94.4803Z" stroke="url(#paint21_linear_117_4826)" stroke-opacity="0.3" stroke-width="1.56921"/>
<path d="M303.359 94.4803C298.645 91.7588 292.837 91.7588 288.124 94.4803L212.441 138.176C207.727 140.897 204.823 145.927 204.823 151.37V238.76C204.823 244.203 207.727 249.233 212.441 251.955L288.124 295.65C292.837 298.371 298.645 298.371 303.359 295.65L379.041 251.955C383.755 249.233 386.659 244.203 386.659 238.76V151.37C386.659 145.927 383.755 140.897 379.041 138.176L303.359 94.4803Z" stroke="url(#paint22_linear_117_4826)" stroke-opacity="0.3" stroke-width="1.56921"/>
</g>
<g filter="url(#filter6_b_117_4826)">
<mask id="path-30-outside-1_117_4826" maskUnits="userSpaceOnUse" x="220.003" y="109.982" width="152" height="170" fill="black">
<rect fill="white" x="220.003" y="109.982" width="152" height="170"/>
<path fill-rule="evenodd" clip-rule="evenodd" d="M298.837 119.901L359.28 154.798C361.199 155.906 362.381 157.953 362.381 160.169V229.962C362.381 232.178 361.199 234.225 359.28 235.333L298.837 270.23C296.918 271.338 294.554 271.338 292.635 270.23L283.05 264.696C281.787 263.967 280.62 263.066 279.709 261.927C273.337 253.954 273.343 245.559 273.35 236.935C273.35 236.66 273.35 236.385 273.35 236.109C273.35 231.12 276.128 225.549 278.874 221.736C278.893 221.71 278.915 221.686 278.929 221.657C278.938 221.64 278.949 221.624 278.96 221.608C278.967 221.598 278.974 221.587 278.981 221.576C279.357 220.956 279.861 220.361 280.442 219.817C284.791 214.943 291.194 211.871 298.325 211.871C302.11 211.871 305.693 212.743 308.881 214.297C309.872 214.781 310.746 215.464 311.536 216.232L318.933 223.423C319.017 223.504 319.1 223.587 319.184 223.67C319.73 224.213 320.285 224.765 321.02 224.973C323.856 225.773 330.66 225.254 332.039 224.346C333.362 223.498 333.281 219.26 333.2 217.512C333.173 217.036 333.362 216.559 333.741 216.241C335.01 215.155 337.82 212.719 338.684 211.871C339.495 211.05 339.711 208.11 339.765 206.68C339.792 206.203 340.035 205.753 340.413 205.462C341.98 204.19 342.682 202.23 342.952 201.171C343.088 200.747 343.006 200.297 342.763 199.926L334.065 186.365C333.849 186.048 333.768 185.677 333.822 185.306C333.957 184.194 333.903 181.545 330.958 178.234C327.068 173.891 308.266 163.588 305.511 163.058C303.431 162.661 300.432 162.846 299.055 162.979C298.568 163.032 298.109 162.873 297.758 162.529C295.894 160.701 289.762 154.768 288.357 153.841C286.792 152.81 286.08 153.427 285.665 153.787L285.665 153.787C285.643 153.806 285.622 153.824 285.602 153.841C285.007 154.371 284.008 158.105 283.63 160.463C283.55 160.946 283.247 161.346 282.834 161.578C282.392 161.826 281.873 161.832 281.356 161.838C281.177 161.84 280.998 161.842 280.823 161.854C264.104 163.017 249.023 167.075 233.06 177.03C231.704 177.875 229.091 176.963 229.091 175.364V160.169C229.091 157.953 230.273 155.906 232.192 154.798L292.635 119.901C294.554 118.793 296.918 118.793 298.837 119.901ZM289.091 113.763C293.203 111.389 298.269 111.389 302.381 113.763L362.824 148.66C366.935 151.034 369.468 155.421 369.468 160.169V229.962C369.468 234.71 366.935 239.097 362.824 241.471L302.381 276.368C298.269 278.742 293.203 278.742 289.091 276.368L228.648 241.471C224.536 239.097 222.003 234.71 222.003 229.962V160.169C222.003 155.421 224.536 151.034 228.648 148.66L289.091 113.763Z"/>
</mask>
<path fill-rule="evenodd" clip-rule="evenodd" d="M298.837 119.901L359.28 154.798C361.199 155.906 362.381 157.953 362.381 160.169V229.962C362.381 232.178 361.199 234.225 359.28 235.333L298.837 270.23C296.918 271.338 294.554 271.338 292.635 270.23L283.05 264.696C281.787 263.967 280.62 263.066 279.709 261.927C273.337 253.954 273.343 245.559 273.35 236.935C273.35 236.66 273.35 236.385 273.35 236.109C273.35 231.12 276.128 225.549 278.874 221.736C278.893 221.71 278.915 221.686 278.929 221.657C278.938 221.64 278.949 221.624 278.96 221.608C278.967 221.598 278.974 221.587 278.981 221.576C279.357 220.956 279.861 220.361 280.442 219.817C284.791 214.943 291.194 211.871 298.325 211.871C302.11 211.871 305.693 212.743 308.881 214.297C309.872 214.781 310.746 215.464 311.536 216.232L318.933 223.423C319.017 223.504 319.1 223.587 319.184 223.67C319.73 224.213 320.285 224.765 321.02 224.973C323.856 225.773 330.66 225.254 332.039 224.346C333.362 223.498 333.281 219.26 333.2 217.512C333.173 217.036 333.362 216.559 333.741 216.241C335.01 215.155 337.82 212.719 338.684 211.871C339.495 211.05 339.711 208.11 339.765 206.68C339.792 206.203 340.035 205.753 340.413 205.462C341.98 204.19 342.682 202.23 342.952 201.171C343.088 200.747 343.006 200.297 342.763 199.926L334.065 186.365C333.849 186.048 333.768 185.677 333.822 185.306C333.957 184.194 333.903 181.545 330.958 178.234C327.068 173.891 308.266 163.588 305.511 163.058C303.431 162.661 300.432 162.846 299.055 162.979C298.568 163.032 298.109 162.873 297.758 162.529C295.894 160.701 289.762 154.768 288.357 153.841C286.792 152.81 286.08 153.427 285.665 153.787L285.665 153.787C285.643 153.806 285.622 153.824 285.602 153.841C285.007 154.371 284.008 158.105 283.63 160.463C283.55 160.946 283.247 161.346 282.834 161.578C282.392 161.826 281.873 161.832 281.356 161.838C281.177 161.84 280.998 161.842 280.823 161.854C264.104 163.017 249.023 167.075 233.06 177.03C231.704 177.875 229.091 176.963 229.091 175.364V160.169C229.091 157.953 230.273 155.906 232.192 154.798L292.635 119.901C294.554 118.793 296.918 118.793 298.837 119.901ZM289.091 113.763C293.203 111.389 298.269 111.389 302.381 113.763L362.824 148.66C366.935 151.034 369.468 155.421 369.468 160.169V229.962C369.468 234.71 366.935 239.097 362.824 241.471L302.381 276.368C298.269 278.742 293.203 278.742 289.091 276.368L228.648 241.471C224.536 239.097 222.003 234.71 222.003 229.962V160.169C222.003 155.421 224.536 151.034 228.648 148.66L289.091 113.763Z" fill="white"/>
<path d="M359.28 154.798L360.064 153.439V153.439L359.28 154.798ZM298.837 119.901L299.621 118.542V118.542L298.837 119.901ZM359.28 235.333L360.064 236.692L359.28 235.333ZM298.837 270.23L299.621 271.589H299.621L298.837 270.23ZM292.635 270.23L291.85 271.589H291.85L292.635 270.23ZM273.35 236.935L274.919 236.936L273.35 236.935ZM278.874 221.736L277.601 220.819L277.601 220.819L278.874 221.736ZM278.929 221.657L280.327 222.37L280.327 222.37L278.929 221.657ZM278.96 221.608L277.667 220.719L277.667 220.719L278.96 221.608ZM278.981 221.576L280.323 222.389L280.324 222.389L278.981 221.576ZM280.442 219.817L281.514 220.962L281.566 220.914L281.613 220.862L280.442 219.817ZM308.881 214.297L308.193 215.708V215.708L308.881 214.297ZM311.536 216.232L312.63 215.107L312.63 215.107L311.536 216.232ZM318.933 223.423L317.839 224.548L317.839 224.548L318.933 223.423ZM319.184 223.67L318.077 224.783L319.184 223.67ZM321.02 224.973L320.594 226.483H320.594L321.02 224.973ZM332.039 224.346L331.193 223.024L331.184 223.03L331.175 223.035L332.039 224.346ZM333.2 217.512L334.768 217.44L334.768 217.432L334.767 217.424L333.2 217.512ZM333.741 216.241L334.75 217.443L334.761 217.434L333.741 216.241ZM338.684 211.871L339.783 212.992L339.792 212.983L339.801 212.973L338.684 211.871ZM339.765 206.68L338.198 206.591L338.197 206.606L338.197 206.621L339.765 206.68ZM340.413 205.462L341.371 206.705L341.386 206.693L341.402 206.68L340.413 205.462ZM342.952 201.171L341.457 200.694L341.443 200.738L341.432 200.783L342.952 201.171ZM342.763 199.926L341.443 200.773L341.447 200.78L341.451 200.787L342.763 199.926ZM334.065 186.365L335.386 185.518L335.374 185.501L335.362 185.483L334.065 186.365ZM333.822 185.306L335.375 185.532L335.377 185.514L335.379 185.495L333.822 185.306ZM330.958 178.234L332.131 177.192L332.127 177.188L330.958 178.234ZM305.511 163.058L305.807 161.517L305.805 161.517L305.511 163.058ZM299.055 162.979L298.905 161.417L298.895 161.418L298.885 161.419L299.055 162.979ZM297.758 162.529L298.857 161.408L297.758 162.529ZM288.357 153.841L289.221 152.532L289.221 152.531L288.357 153.841ZM285.665 153.787L284.637 152.601L284.617 152.619L284.597 152.637L285.665 153.787ZM285.665 153.787L286.692 154.973L286.713 154.955L286.733 154.937L285.665 153.787ZM285.602 153.841L284.586 152.645L284.571 152.658L284.558 152.67L285.602 153.841ZM283.63 160.463L285.178 160.717L285.179 160.711L283.63 160.463ZM282.834 161.578L283.603 162.946L283.603 162.946L282.834 161.578ZM281.356 161.838L281.375 163.407H281.375L281.356 161.838ZM280.823 161.854L280.932 163.42L280.932 163.42L280.823 161.854ZM232.192 154.798L231.408 153.439H231.408L232.192 154.798ZM292.635 119.901L291.85 118.542V118.542L292.635 119.901ZM302.381 113.763L303.165 112.404V112.404L302.381 113.763ZM289.091 113.763L288.306 112.404L289.091 113.763ZM362.824 148.66L362.039 150.019L362.824 148.66ZM362.824 241.471L363.608 242.83L362.824 241.471ZM302.381 276.368L301.596 275.009L302.381 276.368ZM289.091 276.368L289.876 275.009L289.091 276.368ZM228.648 241.471L227.864 242.83H227.864L228.648 241.471ZM228.648 148.66L227.864 147.301L228.648 148.66ZM233.06 177.03L232.23 175.698H232.23L233.06 177.03ZM283.05 264.696L283.835 263.337L283.05 264.696ZM279.709 261.927L280.935 260.947L279.709 261.927ZM360.064 153.439L299.621 118.542L298.052 121.26L358.495 156.157L360.064 153.439ZM363.95 160.169C363.95 157.392 362.469 154.827 360.064 153.439L358.495 156.157C359.928 156.984 360.811 158.514 360.811 160.169H363.95ZM363.95 229.962V160.169H360.811V229.962H363.95ZM360.064 236.692C362.469 235.304 363.95 232.738 363.95 229.962H360.811C360.811 231.617 359.928 233.147 358.495 233.974L360.064 236.692ZM299.621 271.589L360.064 236.692L358.495 233.974L298.052 268.871L299.621 271.589ZM291.85 271.589C294.255 272.977 297.217 272.977 299.621 271.589L298.052 268.871C296.619 269.698 294.853 269.698 293.42 268.871L291.85 271.589ZM282.266 266.055L291.85 271.589L293.42 268.871L283.835 263.337L282.266 266.055ZM271.781 236.934C271.774 245.516 271.727 254.453 278.484 262.906L280.935 260.947C274.947 253.455 274.913 245.602 274.919 236.936L271.781 236.934ZM271.781 236.109C271.781 236.384 271.781 236.659 271.781 236.934L274.919 236.936C274.919 236.661 274.92 236.385 274.92 236.109H271.781ZM277.601 220.819C274.781 224.734 271.781 230.633 271.781 236.109H274.92C274.92 231.607 277.474 226.364 280.147 222.653L277.601 220.819ZM277.531 220.944C277.559 220.891 277.585 220.848 277.605 220.817C277.625 220.787 277.641 220.766 277.647 220.757C277.651 220.752 277.657 220.744 277.646 220.758C277.64 220.767 277.622 220.79 277.601 220.819L280.147 222.653C280.136 222.669 280.128 222.679 280.131 222.675C280.132 222.674 280.132 222.674 280.134 222.671C280.135 222.67 280.137 222.667 280.14 222.664C280.144 222.658 280.151 222.649 280.159 222.638C280.189 222.599 280.26 222.502 280.327 222.37L277.531 220.944ZM277.667 220.719C277.666 220.721 277.594 220.821 277.531 220.945L280.327 222.37C280.301 222.421 280.277 222.459 280.265 222.479C280.254 222.496 280.245 222.509 280.253 222.498L277.667 220.719ZM277.639 220.764C277.651 220.744 277.661 220.729 277.665 220.722C277.669 220.716 277.672 220.712 277.667 220.719L280.253 222.498C280.255 222.494 280.289 222.446 280.323 222.389L277.639 220.764ZM279.37 218.671C278.706 219.292 278.103 219.996 277.639 220.764L280.324 222.389C280.61 221.915 281.015 221.43 281.514 220.962L279.37 218.671ZM298.325 210.302C290.735 210.302 283.911 213.573 279.271 218.772L281.613 220.862C285.672 216.313 291.652 213.44 298.325 213.44V210.302ZM309.569 212.887C306.171 211.23 302.353 210.302 298.325 210.302V213.44C301.867 213.44 305.215 214.255 308.193 215.708L309.569 212.887ZM312.63 215.107C311.763 214.264 310.754 213.465 309.569 212.887L308.193 215.708C308.989 216.096 309.729 216.664 310.443 217.358L312.63 215.107ZM320.027 222.298L312.63 215.107L310.443 217.358L317.839 224.548L320.027 222.298ZM320.29 222.557C320.208 222.475 320.118 222.386 320.027 222.298L317.839 224.548C317.916 224.622 317.992 224.699 318.077 224.783L320.29 222.557ZM321.446 223.463C321.171 223.385 320.898 223.161 320.29 222.557L318.077 224.783C318.562 225.265 319.399 226.146 320.594 226.483L321.446 223.463ZM331.175 223.035C331.188 223.027 331.097 223.083 330.824 223.167C330.575 223.243 330.246 223.322 329.846 223.397C329.046 223.547 328.043 223.665 326.975 223.734C324.78 223.875 322.594 223.787 321.446 223.463L320.594 226.483C322.282 226.96 324.916 227.011 327.177 226.866C328.337 226.791 329.47 226.66 330.423 226.482C330.899 226.393 331.35 226.288 331.747 226.166C332.122 226.051 332.545 225.891 332.902 225.656L331.175 223.035ZM331.633 217.585C331.672 218.44 331.708 219.845 331.585 221.114C331.522 221.753 331.425 222.29 331.298 222.68C331.152 223.128 331.054 223.113 331.193 223.024L332.885 225.667C333.686 225.154 334.073 224.292 334.282 223.653C334.509 222.955 334.635 222.164 334.708 221.419C334.854 219.92 334.809 218.333 334.768 217.44L331.633 217.585ZM332.731 215.04C331.952 215.694 331.58 216.66 331.634 217.601L334.767 217.424C334.767 217.422 334.767 217.421 334.767 217.42C334.767 217.42 334.767 217.42 334.767 217.421C334.766 217.423 334.765 217.426 334.762 217.43C334.759 217.435 334.755 217.439 334.75 217.442L332.731 215.04ZM337.586 210.751C336.768 211.552 334.007 213.948 332.721 215.049L334.761 217.434C336.013 216.362 338.871 213.885 339.783 212.992L337.586 210.751ZM338.197 206.621C338.171 207.309 338.106 208.33 337.959 209.257C337.884 209.722 337.795 210.122 337.696 210.427C337.582 210.775 337.509 210.828 337.567 210.769L339.801 212.973C340.265 212.503 340.522 211.881 340.679 211.402C340.849 210.88 340.97 210.303 341.058 209.751C341.234 208.645 341.305 207.481 341.333 206.739L338.197 206.621ZM339.455 204.218C338.726 204.781 338.252 205.648 338.198 206.591L341.331 206.769C341.332 206.767 341.333 206.757 341.341 206.741C341.35 206.724 341.362 206.712 341.371 206.705L339.455 204.218ZM341.432 200.783C341.189 201.736 340.595 203.293 339.424 204.243L341.402 206.68C343.365 205.087 344.176 202.724 344.473 201.559L341.432 200.783ZM341.451 200.787C341.457 200.796 341.453 200.794 341.45 200.776C341.447 200.756 341.447 200.726 341.457 200.694L344.448 201.647C344.741 200.725 344.549 199.788 344.076 199.066L341.451 200.787ZM332.744 187.213L341.443 200.773L344.084 199.079L335.386 185.518L332.744 187.213ZM332.269 185.08C332.159 185.832 332.326 186.599 332.767 187.248L335.362 185.483C335.364 185.485 335.369 185.494 335.372 185.509C335.374 185.515 335.374 185.521 335.375 185.526C335.375 185.53 335.374 185.533 335.375 185.532L332.269 185.08ZM329.786 179.277C332.414 182.232 332.348 184.425 332.264 185.117L335.379 185.495C335.566 183.962 335.392 180.858 332.131 177.192L329.786 179.277ZM305.215 164.599C305.367 164.628 305.814 164.778 306.611 165.124C307.361 165.449 308.308 165.898 309.399 166.445C311.579 167.538 314.282 168.996 317.026 170.576C319.771 172.157 322.539 173.848 324.852 175.407C327.207 176.994 328.961 178.357 329.789 179.281L332.127 177.188C331.01 175.94 328.955 174.387 326.605 172.804C324.213 171.192 321.378 169.461 318.592 167.856C315.805 166.251 313.048 164.763 310.806 163.639C309.686 163.078 308.682 162.601 307.861 162.245C307.087 161.909 306.344 161.62 305.807 161.517L305.215 164.599ZM299.205 164.541C300.58 164.409 303.379 164.249 305.217 164.6L305.805 161.517C303.483 161.073 300.285 161.284 298.905 161.417L299.205 164.541ZM296.659 163.649C297.346 164.322 298.27 164.643 299.225 164.539L298.885 161.419C298.874 161.42 298.868 161.419 298.867 161.419C298.867 161.419 298.868 161.419 298.87 161.42C298.872 161.421 298.873 161.421 298.872 161.421C298.87 161.42 298.865 161.416 298.857 161.408L296.659 163.649ZM287.493 155.151C287.731 155.308 288.291 155.772 289.112 156.504C289.898 157.205 290.843 158.08 291.81 158.99C293.742 160.808 295.733 162.74 296.659 163.649L298.857 161.408C297.919 160.489 295.912 158.541 293.961 156.705C292.986 155.787 292.018 154.89 291.201 154.162C290.419 153.464 289.685 152.838 289.221 152.532L287.493 155.151ZM286.693 154.972C286.906 154.788 286.891 154.831 286.836 154.841C286.745 154.856 286.916 154.771 287.494 155.152L289.221 152.531C288.233 151.88 287.265 151.589 286.324 151.744C285.417 151.894 284.839 152.426 284.637 152.601L286.693 154.972ZM286.733 154.937L286.733 154.937L284.597 152.637L284.597 152.637L286.733 154.937ZM286.618 155.037C286.645 155.014 286.672 154.991 286.692 154.973L284.637 152.601C284.614 152.621 284.599 152.634 284.586 152.645L286.618 155.037ZM285.179 160.711C285.357 159.602 285.687 158.14 286.043 156.899C286.221 156.278 286.398 155.742 286.554 155.347C286.633 155.148 286.697 155.011 286.743 154.926C286.807 154.807 286.783 154.891 286.646 155.013L284.558 152.67C284.272 152.924 284.086 153.24 283.981 153.436C283.856 153.667 283.742 153.926 283.638 154.189C283.428 154.716 283.219 155.361 283.026 156.034C282.639 157.382 282.28 158.967 282.08 160.214L285.179 160.711ZM283.603 162.946C284.396 162.5 285.015 161.708 285.178 160.717L282.081 160.208C282.082 160.204 282.083 160.201 282.084 160.197C282.086 160.194 282.087 160.193 282.087 160.193C282.086 160.193 282.085 160.196 282.081 160.199C282.077 160.202 282.072 160.206 282.065 160.21L283.603 162.946ZM281.375 163.407C281.806 163.402 282.751 163.424 283.603 162.946L282.065 160.21C282.072 160.206 282.04 160.227 281.916 160.243C281.777 160.262 281.614 160.266 281.338 160.269L281.375 163.407ZM280.932 163.42C281.054 163.411 281.187 163.409 281.375 163.407L281.338 160.269C281.167 160.271 280.942 160.273 280.714 160.289L280.932 163.42ZM233.89 178.361C249.607 168.561 264.432 164.567 280.932 163.42L280.714 160.289C263.776 161.467 248.44 165.59 232.23 175.698L233.89 178.361ZM227.522 160.169V175.364H230.66V160.169H227.522ZM231.408 153.439C229.003 154.827 227.522 157.392 227.522 160.169H230.66C230.66 158.514 231.543 156.984 232.977 156.157L231.408 153.439ZM291.85 118.542L231.408 153.439L232.977 156.157L293.42 121.26L291.85 118.542ZM299.621 118.542C297.217 117.154 294.255 117.154 291.85 118.542L293.42 121.26C294.853 120.433 296.619 120.433 298.052 121.26L299.621 118.542ZM303.165 112.404C298.568 109.75 292.904 109.75 288.306 112.404L289.876 115.122C293.502 113.028 297.97 113.028 301.596 115.122L303.165 112.404ZM363.608 147.301L303.165 112.404L301.596 115.122L362.039 150.019L363.608 147.301ZM371.038 160.169C371.038 154.86 368.206 149.955 363.608 147.301L362.039 150.019C365.665 152.112 367.899 155.981 367.899 160.169H371.038ZM371.038 229.962V160.169H367.899V229.962H371.038ZM363.608 242.83C368.206 240.176 371.038 235.271 371.038 229.962H367.899C367.899 234.149 365.665 238.019 362.039 240.112L363.608 242.83ZM303.165 277.727L363.608 242.83L362.039 240.112L301.596 275.009L303.165 277.727ZM288.306 277.727C292.904 280.381 298.568 280.381 303.165 277.727L301.596 275.009C297.97 277.103 293.502 277.103 289.876 275.009L288.306 277.727ZM227.864 242.83L288.306 277.727L289.876 275.009L229.433 240.112L227.864 242.83ZM220.434 229.962C220.434 235.271 223.266 240.176 227.864 242.83L229.433 240.112C225.807 238.019 223.573 234.149 223.573 229.962H220.434ZM220.434 160.169V229.962H223.573V160.169H220.434ZM227.864 147.301C223.266 149.955 220.434 154.86 220.434 160.169H223.573C223.573 155.981 225.807 152.112 229.433 150.019L227.864 147.301ZM288.306 112.404L227.864 147.301L229.433 150.019L289.876 115.122L288.306 112.404ZM232.23 175.698C232.186 175.725 232.062 175.778 231.838 175.782C231.618 175.786 231.368 175.742 231.139 175.652C230.906 175.561 230.759 175.449 230.69 175.371C230.63 175.305 230.66 175.307 230.66 175.364H227.522C227.522 177.11 228.911 178.15 229.995 178.575C231.109 179.011 232.657 179.13 233.89 178.361L232.23 175.698ZM283.835 263.337C282.688 262.675 281.691 261.892 280.935 260.947L278.484 262.906C279.55 264.24 280.886 265.258 282.266 266.055L283.835 263.337Z" fill="url(#paint23_linear_117_4826)" fill-opacity="0.3" mask="url(#path-30-outside-1_117_4826)"/>
<path d="M359.28 154.798L360.064 153.439V153.439L359.28 154.798ZM298.837 119.901L299.621 118.542V118.542L298.837 119.901ZM359.28 235.333L360.064 236.692L359.28 235.333ZM298.837 270.23L299.621 271.589H299.621L298.837 270.23ZM292.635 270.23L291.85 271.589H291.85L292.635 270.23ZM273.35 236.935L274.919 236.936L273.35 236.935ZM278.874 221.736L277.601 220.819L277.601 220.819L278.874 221.736ZM278.929 221.657L280.327 222.37L280.327 222.37L278.929 221.657ZM278.96 221.608L277.667 220.719L277.667 220.719L278.96 221.608ZM278.981 221.576L280.323 222.389L280.324 222.389L278.981 221.576ZM280.442 219.817L281.514 220.962L281.566 220.914L281.613 220.862L280.442 219.817ZM308.881 214.297L308.193 215.708V215.708L308.881 214.297ZM311.536 216.232L312.63 215.107L312.63 215.107L311.536 216.232ZM318.933 223.423L317.839 224.548L317.839 224.548L318.933 223.423ZM319.184 223.67L318.077 224.783L319.184 223.67ZM321.02 224.973L320.594 226.483H320.594L321.02 224.973ZM332.039 224.346L331.193 223.024L331.184 223.03L331.175 223.035L332.039 224.346ZM333.2 217.512L334.768 217.44L334.768 217.432L334.767 217.424L333.2 217.512ZM333.741 216.241L334.75 217.443L334.761 217.434L333.741 216.241ZM338.684 211.871L339.783 212.992L339.792 212.983L339.801 212.973L338.684 211.871ZM339.765 206.68L338.198 206.591L338.197 206.606L338.197 206.621L339.765 206.68ZM340.413 205.462L341.371 206.705L341.386 206.693L341.402 206.68L340.413 205.462ZM342.952 201.171L341.457 200.694L341.443 200.738L341.432 200.783L342.952 201.171ZM342.763 199.926L341.443 200.773L341.447 200.78L341.451 200.787L342.763 199.926ZM334.065 186.365L335.386 185.518L335.374 185.501L335.362 185.483L334.065 186.365ZM333.822 185.306L335.375 185.532L335.377 185.514L335.379 185.495L333.822 185.306ZM330.958 178.234L332.131 177.192L332.127 177.188L330.958 178.234ZM305.511 163.058L305.807 161.517L305.805 161.517L305.511 163.058ZM299.055 162.979L298.905 161.417L298.895 161.418L298.885 161.419L299.055 162.979ZM297.758 162.529L298.857 161.408L297.758 162.529ZM288.357 153.841L289.221 152.532L289.221 152.531L288.357 153.841ZM285.665 153.787L284.637 152.601L284.617 152.619L284.597 152.637L285.665 153.787ZM285.665 153.787L286.692 154.973L286.713 154.955L286.733 154.937L285.665 153.787ZM285.602 153.841L284.586 152.645L284.571 152.658L284.558 152.67L285.602 153.841ZM283.63 160.463L285.178 160.717L285.179 160.711L283.63 160.463ZM282.834 161.578L283.603 162.946L283.603 162.946L282.834 161.578ZM281.356 161.838L281.375 163.407H281.375L281.356 161.838ZM280.823 161.854L280.932 163.42L280.932 163.42L280.823 161.854ZM232.192 154.798L231.408 153.439H231.408L232.192 154.798ZM292.635 119.901L291.85 118.542V118.542L292.635 119.901ZM302.381 113.763L303.165 112.404V112.404L302.381 113.763ZM289.091 113.763L288.306 112.404L289.091 113.763ZM362.824 148.66L362.039 150.019L362.824 148.66ZM362.824 241.471L363.608 242.83L362.824 241.471ZM302.381 276.368L301.596 275.009L302.381 276.368ZM289.091 276.368L289.876 275.009L289.091 276.368ZM228.648 241.471L227.864 242.83H227.864L228.648 241.471ZM228.648 148.66L227.864 147.301L228.648 148.66ZM233.06 177.03L232.23 175.698H232.23L233.06 177.03ZM283.05 264.696L283.835 263.337L283.05 264.696ZM279.709 261.927L280.935 260.947L279.709 261.927ZM360.064 153.439L299.621 118.542L298.052 121.26L358.495 156.157L360.064 153.439ZM363.95 160.169C363.95 157.392 362.469 154.827 360.064 153.439L358.495 156.157C359.928 156.984 360.811 158.514 360.811 160.169H363.95ZM363.95 229.962V160.169H360.811V229.962H363.95ZM360.064 236.692C362.469 235.304 363.95 232.738 363.95 229.962H360.811C360.811 231.617 359.928 233.147 358.495 233.974L360.064 236.692ZM299.621 271.589L360.064 236.692L358.495 233.974L298.052 268.871L299.621 271.589ZM291.85 271.589C294.255 272.977 297.217 272.977 299.621 271.589L298.052 268.871C296.619 269.698 294.853 269.698 293.42 268.871L291.85 271.589ZM282.266 266.055L291.85 271.589L293.42 268.871L283.835 263.337L282.266 266.055ZM271.781 236.934C271.774 245.516 271.727 254.453 278.484 262.906L280.935 260.947C274.947 253.455 274.913 245.602 274.919 236.936L271.781 236.934ZM271.781 236.109C271.781 236.384 271.781 236.659 271.781 236.934L274.919 236.936C274.919 236.661 274.92 236.385 274.92 236.109H271.781ZM277.601 220.819C274.781 224.734 271.781 230.633 271.781 236.109H274.92C274.92 231.607 277.474 226.364 280.147 222.653L277.601 220.819ZM277.531 220.944C277.559 220.891 277.585 220.848 277.605 220.817C277.625 220.787 277.641 220.766 277.647 220.757C277.651 220.752 277.657 220.744 277.646 220.758C277.64 220.767 277.622 220.79 277.601 220.819L280.147 222.653C280.136 222.669 280.128 222.679 280.131 222.675C280.132 222.674 280.132 222.674 280.134 222.671C280.135 222.67 280.137 222.667 280.14 222.664C280.144 222.658 280.151 222.649 280.159 222.638C280.189 222.599 280.26 222.502 280.327 222.37L277.531 220.944ZM277.667 220.719C277.666 220.721 277.594 220.821 277.531 220.945L280.327 222.37C280.301 222.421 280.277 222.459 280.265 222.479C280.254 222.496 280.245 222.509 280.253 222.498L277.667 220.719ZM277.639 220.764C277.651 220.744 277.661 220.729 277.665 220.722C277.669 220.716 277.672 220.712 277.667 220.719L280.253 222.498C280.255 222.494 280.289 222.446 280.323 222.389L277.639 220.764ZM279.37 218.671C278.706 219.292 278.103 219.996 277.639 220.764L280.324 222.389C280.61 221.915 281.015 221.43 281.514 220.962L279.37 218.671ZM298.325 210.302C290.735 210.302 283.911 213.573 279.271 218.772L281.613 220.862C285.672 216.313 291.652 213.44 298.325 213.44V210.302ZM309.569 212.887C306.171 211.23 302.353 210.302 298.325 210.302V213.44C301.867 213.44 305.215 214.255 308.193 215.708L309.569 212.887ZM312.63 215.107C311.763 214.264 310.754 213.465 309.569 212.887L308.193 215.708C308.989 216.096 309.729 216.664 310.443 217.358L312.63 215.107ZM320.027 222.298L312.63 215.107L310.443 217.358L317.839 224.548L320.027 222.298ZM320.29 222.557C320.208 222.475 320.118 222.386 320.027 222.298L317.839 224.548C317.916 224.622 317.992 224.699 318.077 224.783L320.29 222.557ZM321.446 223.463C321.171 223.385 320.898 223.161 320.29 222.557L318.077 224.783C318.562 225.265 319.399 226.146 320.594 226.483L321.446 223.463ZM331.175 223.035C331.188 223.027 331.097 223.083 330.824 223.167C330.575 223.243 330.246 223.322 329.846 223.397C329.046 223.547 328.043 223.665 326.975 223.734C324.78 223.875 322.594 223.787 321.446 223.463L320.594 226.483C322.282 226.96 324.916 227.011 327.177 226.866C328.337 226.791 329.47 226.66 330.423 226.482C330.899 226.393 331.35 226.288 331.747 226.166C332.122 226.051 332.545 225.891 332.902 225.656L331.175 223.035ZM331.633 217.585C331.672 218.44 331.708 219.845 331.585 221.114C331.522 221.753 331.425 222.29 331.298 222.68C331.152 223.128 331.054 223.113 331.193 223.024L332.885 225.667C333.686 225.154 334.073 224.292 334.282 223.653C334.509 222.955 334.635 222.164 334.708 221.419C334.854 219.92 334.809 218.333 334.768 217.44L331.633 217.585ZM332.731 215.04C331.952 215.694 331.58 216.66 331.634 217.601L334.767 217.424C334.767 217.422 334.767 217.421 334.767 217.42C334.767 217.42 334.767 217.42 334.767 217.421C334.766 217.423 334.765 217.426 334.762 217.43C334.759 217.435 334.755 217.439 334.75 217.442L332.731 215.04ZM337.586 210.751C336.768 211.552 334.007 213.948 332.721 215.049L334.761 217.434C336.013 216.362 338.871 213.885 339.783 212.992L337.586 210.751ZM338.197 206.621C338.171 207.309 338.106 208.33 337.959 209.257C337.884 209.722 337.795 210.122 337.696 210.427C337.582 210.775 337.509 210.828 337.567 210.769L339.801 212.973C340.265 212.503 340.522 211.881 340.679 211.402C340.849 210.88 340.97 210.303 341.058 209.751C341.234 208.645 341.305 207.481 341.333 206.739L338.197 206.621ZM339.455 204.218C338.726 204.781 338.252 205.648 338.198 206.591L341.331 206.769C341.332 206.767 341.333 206.757 341.341 206.741C341.35 206.724 341.362 206.712 341.371 206.705L339.455 204.218ZM341.432 200.783C341.189 201.736 340.595 203.293 339.424 204.243L341.402 206.68C343.365 205.087 344.176 202.724 344.473 201.559L341.432 200.783ZM341.451 200.787C341.457 200.796 341.453 200.794 341.45 200.776C341.447 200.756 341.447 200.726 341.457 200.694L344.448 201.647C344.741 200.725 344.549 199.788 344.076 199.066L341.451 200.787ZM332.744 187.213L341.443 200.773L344.084 199.079L335.386 185.518L332.744 187.213ZM332.269 185.08C332.159 185.832 332.326 186.599 332.767 187.248L335.362 185.483C335.364 185.485 335.369 185.494 335.372 185.509C335.374 185.515 335.374 185.521 335.375 185.526C335.375 185.53 335.374 185.533 335.375 185.532L332.269 185.08ZM329.786 179.277C332.414 182.232 332.348 184.425 332.264 185.117L335.379 185.495C335.566 183.962 335.392 180.858 332.131 177.192L329.786 179.277ZM305.215 164.599C305.367 164.628 305.814 164.778 306.611 165.124C307.361 165.449 308.308 165.898 309.399 166.445C311.579 167.538 314.282 168.996 317.026 170.576C319.771 172.157 322.539 173.848 324.852 175.407C327.207 176.994 328.961 178.357 329.789 179.281L332.127 177.188C331.01 175.94 328.955 174.387 326.605 172.804C324.213 171.192 321.378 169.461 318.592 167.856C315.805 166.251 313.048 164.763 310.806 163.639C309.686 163.078 308.682 162.601 307.861 162.245C307.087 161.909 306.344 161.62 305.807 161.517L305.215 164.599ZM299.205 164.541C300.58 164.409 303.379 164.249 305.217 164.6L305.805 161.517C303.483 161.073 300.285 161.284 298.905 161.417L299.205 164.541ZM296.659 163.649C297.346 164.322 298.27 164.643 299.225 164.539L298.885 161.419C298.874 161.42 298.868 161.419 298.867 161.419C298.867 161.419 298.868 161.419 298.87 161.42C298.872 161.421 298.873 161.421 298.872 161.421C298.87 161.42 298.865 161.416 298.857 161.408L296.659 163.649ZM287.493 155.151C287.731 155.308 288.291 155.772 289.112 156.504C289.898 157.205 290.843 158.08 291.81 158.99C293.742 160.808 295.733 162.74 296.659 163.649L298.857 161.408C297.919 160.489 295.912 158.541 293.961 156.705C292.986 155.787 292.018 154.89 291.201 154.162C290.419 153.464 289.685 152.838 289.221 152.532L287.493 155.151ZM286.693 154.972C286.906 154.788 286.891 154.831 286.836 154.841C286.745 154.856 286.916 154.771 287.494 155.152L289.221 152.531C288.233 151.88 287.265 151.589 286.324 151.744C285.417 151.894 284.839 152.426 284.637 152.601L286.693 154.972ZM286.733 154.937L286.733 154.937L284.597 152.637L284.597 152.637L286.733 154.937ZM286.618 155.037C286.645 155.014 286.672 154.991 286.692 154.973L284.637 152.601C284.614 152.621 284.599 152.634 284.586 152.645L286.618 155.037ZM285.179 160.711C285.357 159.602 285.687 158.14 286.043 156.899C286.221 156.278 286.398 155.742 286.554 155.347C286.633 155.148 286.697 155.011 286.743 154.926C286.807 154.807 286.783 154.891 286.646 155.013L284.558 152.67C284.272 152.924 284.086 153.24 283.981 153.436C283.856 153.667 283.742 153.926 283.638 154.189C283.428 154.716 283.219 155.361 283.026 156.034C282.639 157.382 282.28 158.967 282.08 160.214L285.179 160.711ZM283.603 162.946C284.396 162.5 285.015 161.708 285.178 160.717L282.081 160.208C282.082 160.204 282.083 160.201 282.084 160.197C282.086 160.194 282.087 160.193 282.087 160.193C282.086 160.193 282.085 160.196 282.081 160.199C282.077 160.202 282.072 160.206 282.065 160.21L283.603 162.946ZM281.375 163.407C281.806 163.402 282.751 163.424 283.603 162.946L282.065 160.21C282.072 160.206 282.04 160.227 281.916 160.243C281.777 160.262 281.614 160.266 281.338 160.269L281.375 163.407ZM280.932 163.42C281.054 163.411 281.187 163.409 281.375 163.407L281.338 160.269C281.167 160.271 280.942 160.273 280.714 160.289L280.932 163.42ZM233.89 178.361C249.607 168.561 264.432 164.567 280.932 163.42L280.714 160.289C263.776 161.467 248.44 165.59 232.23 175.698L233.89 178.361ZM227.522 160.169V175.364H230.66V160.169H227.522ZM231.408 153.439C229.003 154.827 227.522 157.392 227.522 160.169H230.66C230.66 158.514 231.543 156.984 232.977 156.157L231.408 153.439ZM291.85 118.542L231.408 153.439L232.977 156.157L293.42 121.26L291.85 118.542ZM299.621 118.542C297.217 117.154 294.255 117.154 291.85 118.542L293.42 121.26C294.853 120.433 296.619 120.433 298.052 121.26L299.621 118.542ZM303.165 112.404C298.568 109.75 292.904 109.75 288.306 112.404L289.876 115.122C293.502 113.028 297.97 113.028 301.596 115.122L303.165 112.404ZM363.608 147.301L303.165 112.404L301.596 115.122L362.039 150.019L363.608 147.301ZM371.038 160.169C371.038 154.86 368.206 149.955 363.608 147.301L362.039 150.019C365.665 152.112 367.899 155.981 367.899 160.169H371.038ZM371.038 229.962V160.169H367.899V229.962H371.038ZM363.608 242.83C368.206 240.176 371.038 235.271 371.038 229.962H367.899C367.899 234.149 365.665 238.019 362.039 240.112L363.608 242.83ZM303.165 277.727L363.608 242.83L362.039 240.112L301.596 275.009L303.165 277.727ZM288.306 277.727C292.904 280.381 298.568 280.381 303.165 277.727L301.596 275.009C297.97 277.103 293.502 277.103 289.876 275.009L288.306 277.727ZM227.864 242.83L288.306 277.727L289.876 275.009L229.433 240.112L227.864 242.83ZM220.434 229.962C220.434 235.271 223.266 240.176 227.864 242.83L229.433 240.112C225.807 238.019 223.573 234.149 223.573 229.962H220.434ZM220.434 160.169V229.962H223.573V160.169H220.434ZM227.864 147.301C223.266 149.955 220.434 154.86 220.434 160.169H223.573C223.573 155.981 225.807 152.112 229.433 150.019L227.864 147.301ZM288.306 112.404L227.864 147.301L229.433 150.019L289.876 115.122L288.306 112.404ZM232.23 175.698C232.186 175.725 232.062 175.778 231.838 175.782C231.618 175.786 231.368 175.742 231.139 175.652C230.906 175.561 230.759 175.449 230.69 175.371C230.63 175.305 230.66 175.307 230.66 175.364H227.522C227.522 177.11 228.911 178.15 229.995 178.575C231.109 179.011 232.657 179.13 233.89 178.361L232.23 175.698ZM283.835 263.337C282.688 262.675 281.691 261.892 280.935 260.947L278.484 262.906C279.55 264.24 280.886 265.258 282.266 266.055L283.835 263.337Z" fill="url(#paint24_linear_117_4826)" fill-opacity="0.3" mask="url(#path-30-outside-1_117_4826)"/>
</g>
<defs>
<filter id="filter0_f_117_4826" x="292.779" y="0.778503" width="444.443" height="387.443" filterUnits="userSpaceOnUse" color-interpolation-filters="sRGB">
<feFlood flood-opacity="0" result="BackgroundImageFix"/>
<feBlend mode="normal" in="SourceGraphic" in2="BackgroundImageFix" result="shape"/>
<feGaussianBlur stdDeviation="63.1107" result="effect1_foregroundBlur_117_4826"/>
</filter>
<filter id="filter1_b_117_4826" x="403.097" y="70.2368" width="242.461" height="242.462" filterUnits="userSpaceOnUse" color-interpolation-filters="sRGB">
<feFlood flood-opacity="0" result="BackgroundImageFix"/>
<feGaussianBlur in="BackgroundImageFix" stdDeviation="24.7254"/>
<feComposite in2="SourceAlpha" operator="in" result="effect1_backgroundBlur_117_4826"/>
<feBlend mode="normal" in="SourceGraphic" in2="effect1_backgroundBlur_117_4826" result="shape"/>
</filter>
<filter id="filter2_f_117_4826" x="434.958" y="189.092" width="7.60572" height="12.7085" filterUnits="userSpaceOnUse" color-interpolation-filters="sRGB">
<feFlood flood-opacity="0" result="BackgroundImageFix"/>
<feBlend mode="normal" in="SourceGraphic" in2="BackgroundImageFix" result="shape"/>
<feGaussianBlur stdDeviation="1.11804" result="effect1_foregroundBlur_117_4826"/>
</filter>
<filter id="filter3_f_117_4826" x="190.743" y="189.092" width="7.63282" height="12.7085" filterUnits="userSpaceOnUse" color-interpolation-filters="sRGB">
<feFlood flood-opacity="0" result="BackgroundImageFix"/>
<feBlend mode="normal" in="SourceGraphic" in2="BackgroundImageFix" result="shape"/>
<feGaussianBlur stdDeviation="1.11804" result="effect1_foregroundBlur_117_4826"/>
</filter>
<filter id="filter4_b_117_4826" x="-30.5498" y="90.0224" width="210.079" height="210.078" filterUnits="userSpaceOnUse" color-interpolation-filters="sRGB">
<feFlood flood-opacity="0" result="BackgroundImageFix"/>
<feGaussianBlur in="BackgroundImageFix" stdDeviation="18.2114"/>
<feComposite in2="SourceAlpha" operator="in" result="effect1_backgroundBlur_117_4826"/>
<feBlend mode="normal" in="SourceGraphic" in2="effect1_backgroundBlur_117_4826" result="shape"/>
</filter>
<filter id="filter5_b_117_4826" x="172.655" y="60.2701" width="246.173" height="269.589" filterUnits="userSpaceOnUse" color-interpolation-filters="sRGB">
<feFlood flood-opacity="0" result="BackgroundImageFix"/>
<feGaussianBlur in="BackgroundImageFix" stdDeviation="15.6921"/>
<feComposite in2="SourceAlpha" operator="in" result="effect1_backgroundBlur_117_4826"/>
<feBlend mode="normal" in="SourceGraphic" in2="effect1_backgroundBlur_117_4826" result="shape"/>
</filter>
<filter id="filter6_b_117_4826" x="189.05" y="79.0298" width="213.372" height="232.071" filterUnits="userSpaceOnUse" color-interpolation-filters="sRGB">
<feFlood flood-opacity="0" result="BackgroundImageFix"/>
<feGaussianBlur in="BackgroundImageFix" stdDeviation="15.6921"/>
<feComposite in2="SourceAlpha" operator="in" result="effect1_backgroundBlur_117_4826"/>
<feBlend mode="normal" in="SourceGraphic" in2="effect1_backgroundBlur_117_4826" result="shape"/>
</filter>
<linearGradient id="paint0_linear_117_4826" x1="467.62" y1="161.352" x2="582.444" y2="162.366" gradientUnits="userSpaceOnUse">
<stop stop-color="#87F9C2"/>
<stop offset="1" stop-color="#6BB1D9"/>
</linearGradient>
<linearGradient id="paint1_linear_117_4826" x1="513.096" y1="154.018" x2="511.199" y2="205.706" gradientUnits="userSpaceOnUse">
<stop stop-color="#E2ECFF"/>
<stop offset="0.854167" stop-color="#5F6779"/>
</linearGradient>
<linearGradient id="paint2_linear_117_4826" x1="513.096" y1="154.018" x2="513.096" y2="205.762" gradientUnits="userSpaceOnUse">
<stop stop-color="white"/>
<stop offset="1" stop-color="white" stop-opacity="0"/>
</linearGradient>
<linearGradient id="paint3_linear_117_4826" x1="535.795" y1="154.018" x2="533.856" y2="205.703" gradientUnits="userSpaceOnUse">
<stop stop-color="#E2ECFF"/>
<stop offset="0.854167" stop-color="#5F6779"/>
</linearGradient>
<linearGradient id="paint4_linear_117_4826" x1="535.795" y1="154.018" x2="535.795" y2="205.762" gradientUnits="userSpaceOnUse">
<stop stop-color="white"/>
<stop offset="1" stop-color="white" stop-opacity="0"/>
</linearGradient>
<linearGradient id="paint5_linear_117_4826" x1="512.997" y1="196.516" x2="512.246" y2="228.909" gradientUnits="userSpaceOnUse">
<stop stop-color="#E2ECFF"/>
<stop offset="0.854167" stop-color="#5F6779"/>
</linearGradient>
<linearGradient id="paint6_linear_117_4826" x1="512.997" y1="196.516" x2="512.997" y2="228.918" gradientUnits="userSpaceOnUse">
<stop stop-color="white"/>
<stop offset="1" stop-color="white" stop-opacity="0"/>
</linearGradient>
<linearGradient id="paint7_linear_117_4826" x1="535.795" y1="196.516" x2="535.034" y2="228.909" gradientUnits="userSpaceOnUse">
<stop stop-color="#E2ECFF"/>
<stop offset="0.854167" stop-color="#5F6779"/>
</linearGradient>
<linearGradient id="paint8_linear_117_4826" x1="535.795" y1="196.516" x2="535.795" y2="228.918" gradientUnits="userSpaceOnUse">
<stop stop-color="white"/>
<stop offset="1" stop-color="white" stop-opacity="0"/>
</linearGradient>
<linearGradient id="paint9_linear_117_4826" x1="512.884" y1="181.715" x2="512.465" y2="205.757" gradientUnits="userSpaceOnUse">
<stop stop-color="#E2ECFF"/>
<stop offset="0.854167" stop-color="#5F6779"/>
</linearGradient>
<linearGradient id="paint10_linear_117_4826" x1="512.884" y1="181.715" x2="512.884" y2="205.758" gradientUnits="userSpaceOnUse">
<stop stop-color="white"/>
<stop offset="1" stop-color="white" stop-opacity="0"/>
</linearGradient>
<linearGradient id="paint11_linear_117_4826" x1="535.795" y1="181.715" x2="535.376" y2="205.757" gradientUnits="userSpaceOnUse">
<stop stop-color="#E2ECFF"/>
<stop offset="0.854167" stop-color="#5F6779"/>
</linearGradient>
<linearGradient id="paint12_linear_117_4826" x1="535.795" y1="181.715" x2="535.795" y2="205.758" gradientUnits="userSpaceOnUse">
<stop stop-color="white"/>
<stop offset="1" stop-color="white" stop-opacity="0"/>
</linearGradient>
<linearGradient id="paint13_linear_117_4826" x1="141.285" y1="128.266" x2="127.659" y2="146.779" gradientUnits="userSpaceOnUse">
<stop stop-color="#8AD5FF"/>
<stop offset="1" stop-color="#485267" stop-opacity="0"/>
</linearGradient>
<linearGradient id="paint14_linear_117_4826" x1="6.47421" y1="261.857" x2="24.668" y2="221.968" gradientUnits="userSpaceOnUse">
<stop stop-color="#8AD5FF"/>
<stop offset="1" stop-opacity="0"/>
</linearGradient>
<linearGradient id="paint15_linear_117_4826" x1="63.8977" y1="158.961" x2="62.1068" y2="207.754" gradientUnits="userSpaceOnUse">
<stop stop-color="#E2ECFF"/>
<stop offset="0.854167" stop-color="#5F6779"/>
</linearGradient>
<linearGradient id="paint16_linear_117_4826" x1="85.3244" y1="158.961" x2="83.4945" y2="207.751" gradientUnits="userSpaceOnUse">
<stop stop-color="#E2ECFF"/>
<stop offset="0.854167" stop-color="#5F6779"/>
</linearGradient>
<linearGradient id="paint17_linear_117_4826" x1="63.8022" y1="199.137" x2="63.0932" y2="229.716" gradientUnits="userSpaceOnUse">
<stop stop-color="#E2ECFF"/>
<stop offset="0.854167" stop-color="#5F6779"/>
</linearGradient>
<linearGradient id="paint18_linear_117_4826" x1="85.3244" y1="199.137" x2="84.6062" y2="229.715" gradientUnits="userSpaceOnUse">
<stop stop-color="#E2ECFF"/>
<stop offset="0.854167" stop-color="#5F6779"/>
</linearGradient>
<linearGradient id="paint19_linear_117_4826" x1="63.6975" y1="185.166" x2="63.302" y2="207.862" gradientUnits="userSpaceOnUse">
<stop stop-color="#E2ECFF"/>
<stop offset="0.854167" stop-color="#5F6779"/>
</linearGradient>
<linearGradient id="paint20_linear_117_4826" x1="85.3244" y1="185.166" x2="84.9289" y2="207.862" gradientUnits="userSpaceOnUse">
<stop stop-color="#E2ECFF"/>
<stop offset="0.854167" stop-color="#5F6779"/>
</linearGradient>
<linearGradient id="paint21_linear_117_4826" x1="399.818" y1="90.9883" x2="378.587" y2="119.835" gradientUnits="userSpaceOnUse">
<stop stop-color="#8AD5FF"/>
<stop offset="1" stop-color="#485267" stop-opacity="0"/>
</linearGradient>
<linearGradient id="paint22_linear_117_4826" x1="189.763" y1="299.142" x2="218.112" y2="236.99" gradientUnits="userSpaceOnUse">
<stop stop-color="#8AD5FF"/>
<stop offset="1" stop-opacity="0"/>
</linearGradient>
<linearGradient id="paint23_linear_117_4826" x1="375.913" y1="104.725" x2="356.944" y2="127.597" gradientUnits="userSpaceOnUse">
<stop stop-color="#8AD5FF"/>
<stop offset="1" stop-color="#485267" stop-opacity="0"/>
</linearGradient>
<linearGradient id="paint24_linear_117_4826" x1="214.102" y1="285.407" x2="240.599" y2="233.852" gradientUnits="userSpaceOnUse">
<stop stop-color="#8AD5FF"/>
<stop offset="1" stop-opacity="0"/>
</linearGradient>
</defs>
</svg>
