<svg width="473" height="378" viewBox="0 0 473 378" fill="none" xmlns="http://www.w3.org/2000/svg">
<g filter="url(#filter0_b_169_1390)">
<path d="M219.309 8.02907C227.509 3.29513 237.611 3.29514 245.81 8.02908L382.646 87.0312C390.845 91.7652 395.896 100.514 395.896 109.982V267.986C395.896 277.454 390.845 286.203 382.646 290.937L245.81 369.939C237.611 374.673 227.509 374.673 219.309 369.939L82.4733 290.937C74.2739 286.203 69.2229 277.454 69.2229 267.986V109.982C69.2229 100.514 74.2739 91.7652 82.4734 87.0312L219.309 8.02907Z" fill="#495971" fill-opacity="0.15"/>
<path d="M382.896 86.5982L246.06 7.59607C237.706 2.77281 227.413 2.7728 219.059 7.59606L82.2234 86.5982C73.8692 91.4215 68.7229 100.335 68.7229 109.982V267.986C68.7229 277.633 73.8692 286.546 82.2234 291.37L219.059 370.372C227.413 375.195 237.706 375.195 246.06 370.372L382.896 291.37C391.25 286.546 396.396 277.633 396.396 267.986V109.982C396.396 100.335 391.25 91.4215 382.896 86.5982Z" stroke="#334B6E"/>
<path d="M382.896 86.5982L246.06 7.59607C237.706 2.77281 227.413 2.7728 219.059 7.59606L82.2234 86.5982C73.8692 91.4215 68.7229 100.335 68.7229 109.982V267.986C68.7229 277.633 73.8692 286.546 82.2234 291.37L219.059 370.372C227.413 375.195 237.706 375.195 246.06 370.372L382.896 291.37C391.25 286.546 396.396 277.633 396.396 267.986V109.982C396.396 100.335 391.25 91.4215 382.896 86.5982Z" stroke="url(#paint0_linear_169_1390)" stroke-opacity="0.3"/>
<path d="M382.896 86.5982L246.06 7.59607C237.706 2.77281 227.413 2.7728 219.059 7.59606L82.2234 86.5982C73.8692 91.4215 68.7229 100.335 68.7229 109.982V267.986C68.7229 277.633 73.8692 286.546 82.2234 291.37L219.059 370.372C227.413 375.195 237.706 375.195 246.06 370.372L382.896 291.37C391.25 286.546 396.396 277.633 396.396 267.986V109.982C396.396 100.335 391.25 91.4215 382.896 86.5982Z" stroke="url(#paint1_linear_169_1390)" stroke-opacity="0.3"/>
</g>
<g filter="url(#filter1_b_169_1390)">
<path d="M219.309 77.7107C227.509 72.9768 237.611 72.9768 245.81 77.7107L322.3 121.872C330.499 126.606 335.55 135.355 335.55 144.823V233.145C335.55 242.613 330.499 251.362 322.3 256.096L245.81 300.257C237.611 304.991 227.509 304.991 219.309 300.257L142.819 256.096C134.62 251.362 129.569 242.613 129.569 233.145V144.823C129.569 135.355 134.62 126.606 142.819 121.872L219.309 77.7107Z" fill="#495971" fill-opacity="0.15"/>
<path d="M322.55 121.439L246.06 77.2777C237.706 72.4544 227.413 72.4544 219.059 77.2777L142.569 121.439C134.215 126.262 129.069 135.176 129.069 144.823V233.145C129.069 242.792 134.215 251.705 142.569 256.529L219.059 300.69C227.413 305.513 237.706 305.513 246.06 300.69L322.55 256.529C330.904 251.705 336.05 242.792 336.05 233.145V144.823C336.05 135.176 330.904 126.262 322.55 121.439Z" stroke="#334B6E"/>
<path d="M322.55 121.439L246.06 77.2777C237.706 72.4544 227.413 72.4544 219.059 77.2777L142.569 121.439C134.215 126.262 129.069 135.176 129.069 144.823V233.145C129.069 242.792 134.215 251.705 142.569 256.529L219.059 300.69C227.413 305.513 237.706 305.513 246.06 300.69L322.55 256.529C330.904 251.705 336.05 242.792 336.05 233.145V144.823C336.05 135.176 330.904 126.262 322.55 121.439Z" stroke="url(#paint2_linear_169_1390)" stroke-opacity="0.3"/>
<path d="M322.55 121.439L246.06 77.2777C237.706 72.4544 227.413 72.4544 219.059 77.2777L142.569 121.439C134.215 126.262 129.069 135.176 129.069 144.823V233.145C129.069 242.792 134.215 251.705 142.569 256.529L219.059 300.69C227.413 305.513 237.706 305.513 246.06 300.69L322.55 256.529C330.904 251.705 336.05 242.792 336.05 233.145V144.823C336.05 135.176 330.904 126.262 322.55 121.439Z" stroke="url(#paint3_linear_169_1390)" stroke-opacity="0.3"/>
</g>
<mask id="mask0_169_1390" style="mask-type:alpha" maskUnits="userSpaceOnUse" x="62" y="190" width="328" height="3">
<line x1="388.533" y1="191.467" x2="63.4673" y2="191.467" stroke="#AFFFD8" stroke-width="2.93468" stroke-linecap="round" stroke-dasharray="0.53 6.67"/>
</mask>
<g mask="url(#mask0_169_1390)">
<rect width="131.914" height="16.813" transform="matrix(-1 0 0 1 298.613 183.977)" fill="#AFFFD8"/>
</g>
<g filter="url(#filter2_f_169_1390)">
<path d="M296.375 192.187L294.539 194.028C294.333 194.239 294.218 194.523 294.218 194.819C294.218 195.115 294.333 195.399 294.539 195.611C294.641 195.718 294.763 195.804 294.899 195.863C295.035 195.921 295.181 195.951 295.329 195.951C295.478 195.951 295.625 195.92 295.762 195.862C295.899 195.803 296.023 195.718 296.127 195.611L299.88 191.828C299.984 191.724 300.067 191.6 300.124 191.463C300.181 191.327 300.21 191.18 300.21 191.032C300.21 190.884 300.181 190.738 300.124 190.601C300.067 190.465 299.984 190.341 299.88 190.236L296.109 186.454C296.004 186.35 295.881 186.267 295.744 186.21C295.608 186.153 295.462 186.124 295.315 186.124C295.167 186.124 295.021 186.153 294.885 186.21C294.749 186.267 294.625 186.35 294.521 186.454C294.417 186.559 294.334 186.683 294.278 186.819C294.221 186.956 294.192 187.102 294.192 187.25C294.192 187.398 294.221 187.544 294.278 187.681C294.334 187.817 294.417 187.942 294.521 188.046L296.356 189.887L297.476 191.009L296.375 192.187Z" fill="#87F9C2"/>
</g>
<path d="M296.375 192.187L294.539 194.028C294.333 194.239 294.218 194.523 294.218 194.819C294.218 195.115 294.333 195.399 294.539 195.611C294.641 195.718 294.763 195.804 294.899 195.863C295.035 195.921 295.181 195.951 295.329 195.951C295.478 195.951 295.625 195.92 295.762 195.862C295.899 195.803 296.023 195.718 296.127 195.611L299.88 191.828C299.984 191.724 300.067 191.6 300.124 191.463C300.181 191.327 300.21 191.18 300.21 191.032C300.21 190.884 300.181 190.738 300.124 190.601C300.067 190.465 299.984 190.341 299.88 190.236L296.109 186.454C296.004 186.35 295.881 186.267 295.744 186.21C295.608 186.153 295.462 186.124 295.315 186.124C295.167 186.124 295.021 186.153 294.885 186.21C294.749 186.267 294.625 186.35 294.521 186.454C294.417 186.559 294.334 186.683 294.278 186.819C294.221 186.956 294.192 187.102 294.192 187.25C294.192 187.398 294.221 187.544 294.278 187.681C294.334 187.817 294.417 187.942 294.521 188.046L296.356 189.887L297.476 191.009L296.375 192.187Z" fill="#AFFFD8"/>
<g filter="url(#filter3_f_169_1390)">
<path d="M171.12 192.187L172.955 194.028C173.161 194.239 173.277 194.523 173.277 194.819C173.277 195.115 173.161 195.399 172.955 195.611C172.854 195.718 172.731 195.804 172.596 195.863C172.46 195.921 172.314 195.951 172.166 195.951C172.017 195.951 171.87 195.92 171.733 195.862C171.596 195.803 171.472 195.718 171.368 195.611L167.615 191.828C167.51 191.724 167.427 191.6 167.371 191.463C167.314 191.327 167.285 191.18 167.285 191.032C167.285 190.884 167.314 190.738 167.371 190.601C167.427 190.465 167.51 190.341 167.615 190.236L171.386 186.454C171.49 186.35 171.614 186.267 171.75 186.21C171.886 186.153 172.032 186.124 172.18 186.124C172.327 186.124 172.473 186.153 172.609 186.21C172.746 186.267 172.869 186.35 172.974 186.454C173.078 186.559 173.16 186.683 173.217 186.819C173.273 186.956 173.302 187.102 173.302 187.25C173.302 187.398 173.273 187.544 173.217 187.681C173.16 187.817 173.078 187.942 172.974 188.046L171.138 189.887L170.019 191.009L171.12 192.187Z" fill="#87F9C2"/>
</g>
<path d="M171.12 192.187L172.955 194.028C173.161 194.239 173.277 194.523 173.277 194.819C173.277 195.115 173.161 195.399 172.955 195.611C172.854 195.718 172.731 195.804 172.596 195.863C172.46 195.921 172.314 195.951 172.166 195.951C172.017 195.951 171.87 195.92 171.733 195.862C171.596 195.803 171.472 195.718 171.368 195.611L167.615 191.828C167.51 191.724 167.427 191.6 167.371 191.463C167.314 191.327 167.285 191.18 167.285 191.032C167.285 190.884 167.314 190.738 167.371 190.601C167.427 190.465 167.51 190.341 167.615 190.236L171.386 186.454C171.49 186.35 171.614 186.267 171.75 186.21C171.886 186.153 172.032 186.124 172.18 186.124C172.327 186.124 172.473 186.153 172.609 186.21C172.746 186.267 172.869 186.35 172.974 186.454C173.078 186.559 173.16 186.683 173.217 186.819C173.273 186.956 173.302 187.102 173.302 187.25C173.302 187.398 173.273 187.544 173.217 187.681C173.16 187.817 173.078 187.942 172.974 188.046L171.138 189.887L170.019 191.009L171.12 192.187Z" fill="#AFFFD8"/>
<g filter="url(#filter4_b_169_1390)">
<path d="M72.0541 256.014C35.254 256.014 5.41246 226.172 5.41246 189.372C5.41246 152.572 35.254 122.73 72.0541 122.73C108.854 122.73 138.696 152.572 138.696 189.372C138.696 226.172 108.854 256.014 72.0541 256.014Z" fill="#14192A"/>
<path d="M72.0541 258.682C33.7806 258.682 2.74457 227.646 2.74457 189.372C2.74457 151.099 33.7806 120.063 72.0541 120.063C110.328 120.063 141.364 151.099 141.364 189.372C141.364 227.646 110.328 258.682 72.0541 258.682Z" stroke="url(#paint4_linear_169_1390)" stroke-width="5.33578"/>
</g>
<path d="M124.653 152.345C110.609 152.345 99.2202 140.956 99.2202 126.912C99.2202 112.867 110.609 101.479 124.653 101.479C138.698 101.479 150.086 112.867 150.086 126.912C150.086 140.956 138.698 152.345 124.653 152.345Z" fill="#87F9C2"/>
<path d="M117.839 135.104V132.619L125.647 122.198H117.872V118.585H131.358V121.069L123.55 131.49H131.325V135.104H117.839Z" fill="#050A18"/>
<path d="M72.0463 148.654L72.5811 150.476V203.337L72.0463 203.872L47.581 189.368L72.0463 148.654Z" fill="url(#paint5_linear_169_1390)"/>
<path d="M72.0463 148.654L72.5811 150.476V203.337L72.0463 203.872L47.581 189.368L72.0463 148.654Z" fill="white"/>
<path d="M72.0658 148.654L96.5317 189.368L72.0658 203.872V178.215V148.654Z" fill="url(#paint6_linear_169_1390)"/>
<path d="M72.0658 148.654L96.5317 189.368L72.0658 203.872V178.215V148.654Z" fill="white"/>
<path d="M72.0604 208.502L72.3618 208.871V227.701L72.0604 228.583L47.5802 194.006L72.0604 208.502Z" fill="url(#paint7_linear_169_1390)"/>
<path d="M72.0604 208.502L72.3618 208.871V227.701L72.0604 228.583L47.5802 194.006L72.0604 208.502Z" fill="white"/>
<path d="M72.0658 228.583V208.502L96.5317 194.006L72.0658 228.583Z" fill="url(#paint8_linear_169_1390)"/>
<path d="M72.0658 228.583V208.502L96.5317 194.006L72.0658 228.583Z" fill="white"/>
<path d="M72.0776 203.868L47.6124 189.364L72.0776 178.211V203.868Z" fill="url(#paint9_linear_169_1390)"/>
<path d="M72.0776 203.868L47.6124 189.364L72.0776 178.211V203.868Z" fill="white"/>
<path d="M96.5317 189.364L72.0658 203.868V178.211L96.5317 189.364Z" fill="url(#paint10_linear_169_1390)"/>
<path d="M96.5317 189.364L72.0658 203.868V178.211L96.5317 189.364Z" fill="white"/>
<g filter="url(#filter5_b_169_1390)">
<path d="M394.002 256.014C357.202 256.014 327.361 226.172 327.361 189.372C327.361 152.572 357.202 122.73 394.002 122.73C430.802 122.73 460.644 152.572 460.644 189.372C460.644 226.172 430.802 256.014 394.002 256.014Z" fill="#14192A"/>
<path d="M394.002 258.682C355.729 258.682 324.693 227.646 324.693 189.372C324.693 151.099 355.729 120.063 394.002 120.063C432.276 120.063 463.312 151.099 463.312 189.372C463.312 227.646 432.276 258.682 394.002 258.682Z" stroke="url(#paint11_linear_169_1390)" stroke-width="5.33578"/>
</g>
<path d="M407.636 196.675C407.636 189.477 403.363 187.009 394.819 185.981C388.716 185.158 387.495 183.513 387.495 180.633C387.495 177.754 389.53 175.903 393.598 175.903C397.26 175.903 399.295 177.137 400.312 180.222C400.515 180.839 401.126 181.25 401.736 181.25H404.991C405.805 181.25 406.415 180.633 406.415 179.811V179.605C405.601 175.081 401.939 171.584 397.26 171.173V166.237C397.26 165.415 396.65 164.798 395.633 164.592H392.581C391.767 164.592 391.157 165.209 390.953 166.237V170.967C384.85 171.79 380.985 175.903 380.985 181.045C380.985 187.832 385.054 190.505 393.598 191.534C399.295 192.562 401.126 193.796 401.126 197.087C401.126 200.377 398.277 202.64 394.412 202.64C389.123 202.64 387.292 200.377 386.681 197.292C386.478 196.47 385.868 196.058 385.258 196.058H381.799C380.985 196.058 380.375 196.675 380.375 197.498V197.704C381.188 202.845 384.444 206.547 391.157 207.575V212.511C391.157 213.334 391.767 213.951 392.784 214.157H395.836C396.65 214.157 397.26 213.54 397.464 212.511V207.575C403.567 206.547 407.636 202.228 407.636 196.675Z" fill="white"/>
<path d="M383.149 219.455C366.548 213.439 358.035 194.745 364.207 178.199C367.4 169.174 374.423 162.298 383.149 159.075C384 158.646 384.426 158.001 384.426 156.926V153.918C384.426 153.058 384 152.414 383.149 152.199C382.936 152.199 382.51 152.199 382.297 152.414C362.079 158.86 351.012 180.563 357.397 200.976C361.228 213.009 370.379 222.249 382.297 226.117C383.149 226.546 384 226.117 384.213 225.257C384.426 225.042 384.426 224.827 384.426 224.398V221.389C384.426 220.745 383.787 219.885 383.149 219.455ZM405.709 152.414C404.857 151.984 404.006 152.414 403.793 153.273C403.58 153.488 403.58 153.703 403.58 154.133V157.141C403.58 158.001 404.219 158.86 404.857 159.29C421.458 165.306 429.971 184.001 423.799 200.547C420.606 209.571 413.583 216.447 404.857 219.67C404.006 220.1 403.58 220.745 403.58 221.819V224.827C403.58 225.687 404.006 226.332 404.857 226.546C405.07 226.546 405.496 226.546 405.709 226.332C425.927 219.885 436.994 198.183 430.609 177.769C426.778 165.521 417.414 156.282 405.709 152.414Z" fill="white"/>
<path d="M446.602 152.345C432.557 152.345 421.168 140.956 421.168 126.912C421.168 112.867 432.557 101.479 446.602 101.479C460.646 101.479 472.035 112.867 472.035 126.912C472.035 140.956 460.646 152.345 446.602 152.345Z" fill="#87F9C2"/>
<path d="M439.788 135.104V132.619L447.595 122.198H439.82V118.585H453.306V121.069L445.498 131.49H453.274V135.104H439.788Z" fill="#050A18"/>
<g filter="url(#filter6_b_169_1390)">
<path d="M232.654 212.454C219.416 212.454 208.681 201.719 208.681 188.481C208.681 175.243 219.416 164.508 232.654 164.508C245.892 164.508 256.627 175.243 256.627 188.481C256.627 201.719 245.892 212.454 232.654 212.454Z" fill="#495971" fill-opacity="0.15"/>
<path d="M232.654 213.244C218.979 213.244 207.891 202.155 207.891 188.481C207.891 174.806 218.979 163.717 232.654 163.717C246.329 163.717 257.417 174.806 257.417 188.481C257.417 202.155 246.329 213.244 232.654 213.244Z" stroke="#334B6E" stroke-width="1.58083"/>
<path d="M232.654 213.244C218.979 213.244 207.891 202.155 207.891 188.481C207.891 174.806 218.979 163.717 232.654 163.717C246.329 163.717 257.417 174.806 257.417 188.481C257.417 202.155 246.329 213.244 232.654 213.244Z" stroke="url(#paint12_linear_169_1390)" stroke-opacity="0.3" stroke-width="1.58083"/>
<path d="M232.654 213.244C218.979 213.244 207.891 202.155 207.891 188.481C207.891 174.806 218.979 163.717 232.654 163.717C246.329 163.717 257.417 174.806 257.417 188.481C257.417 202.155 246.329 213.244 232.654 213.244Z" stroke="url(#paint13_linear_169_1390)" stroke-opacity="0.3" stroke-width="1.58083"/>
</g>
<rect x="224.927" y="186.18" width="15.4513" height="11.811" rx="1.29958" fill="white"/>
<path d="M227.854 186.169V184.383C227.854 181.743 229.994 179.604 232.633 179.604V179.604C235.272 179.604 237.412 181.743 237.412 184.383V186.169" stroke="white" stroke-width="2.40922"/>
<defs>
<filter id="filter0_b_169_1390" x="10.6673" y="-54.0769" width="443.785" height="486.121" filterUnits="userSpaceOnUse" color-interpolation-filters="sRGB">
<feFlood flood-opacity="0" result="BackgroundImageFix"/>
<feGaussianBlur in="BackgroundImageFix" stdDeviation="28.7777"/>
<feComposite in2="SourceAlpha" operator="in" result="effect1_backgroundBlur_169_1390"/>
<feBlend mode="normal" in="SourceGraphic" in2="effect1_backgroundBlur_169_1390" result="shape"/>
</filter>
<filter id="filter1_b_169_1390" x="71.0135" y="15.6048" width="323.092" height="346.757" filterUnits="userSpaceOnUse" color-interpolation-filters="sRGB">
<feFlood flood-opacity="0" result="BackgroundImageFix"/>
<feGaussianBlur in="BackgroundImageFix" stdDeviation="28.7777"/>
<feComposite in2="SourceAlpha" operator="in" result="effect1_backgroundBlur_169_1390"/>
<feBlend mode="normal" in="SourceGraphic" in2="effect1_backgroundBlur_169_1390" result="shape"/>
</filter>
<filter id="filter2_f_169_1390" x="291.524" y="183.457" width="11.3534" height="15.1619" filterUnits="userSpaceOnUse" color-interpolation-filters="sRGB">
<feFlood flood-opacity="0" result="BackgroundImageFix"/>
<feBlend mode="normal" in="SourceGraphic" in2="BackgroundImageFix" result="shape"/>
<feGaussianBlur stdDeviation="1.33394" result="effect1_foregroundBlur_169_1390"/>
</filter>
<filter id="filter3_f_169_1390" x="164.617" y="183.457" width="11.3534" height="15.1619" filterUnits="userSpaceOnUse" color-interpolation-filters="sRGB">
<feFlood flood-opacity="0" result="BackgroundImageFix"/>
<feBlend mode="normal" in="SourceGraphic" in2="BackgroundImageFix" result="shape"/>
<feGaussianBlur stdDeviation="1.33394" result="effect1_foregroundBlur_169_1390"/>
</filter>
<filter id="filter4_b_169_1390" x="-58.9232" y="58.3946" width="261.955" height="261.955" filterUnits="userSpaceOnUse" color-interpolation-filters="sRGB">
<feFlood flood-opacity="0" result="BackgroundImageFix"/>
<feGaussianBlur in="BackgroundImageFix" stdDeviation="29.5"/>
<feComposite in2="SourceAlpha" operator="in" result="effect1_backgroundBlur_169_1390"/>
<feBlend mode="normal" in="SourceGraphic" in2="effect1_backgroundBlur_169_1390" result="shape"/>
</filter>
<filter id="filter5_b_169_1390" x="263.025" y="58.3946" width="261.955" height="261.955" filterUnits="userSpaceOnUse" color-interpolation-filters="sRGB">
<feFlood flood-opacity="0" result="BackgroundImageFix"/>
<feGaussianBlur in="BackgroundImageFix" stdDeviation="29.5"/>
<feComposite in2="SourceAlpha" operator="in" result="effect1_backgroundBlur_169_1390"/>
<feBlend mode="normal" in="SourceGraphic" in2="effect1_backgroundBlur_169_1390" result="shape"/>
</filter>
<filter id="filter6_b_169_1390" x="175.483" y="131.311" width="114.341" height="114.341" filterUnits="userSpaceOnUse" color-interpolation-filters="sRGB">
<feFlood flood-opacity="0" result="BackgroundImageFix"/>
<feGaussianBlur in="BackgroundImageFix" stdDeviation="15.8083"/>
<feComposite in2="SourceAlpha" operator="in" result="effect1_backgroundBlur_169_1390"/>
<feBlend mode="normal" in="SourceGraphic" in2="effect1_backgroundBlur_169_1390" result="shape"/>
</filter>
<linearGradient id="paint0_linear_169_1390" x1="421.165" y1="0.378906" x2="382.69" y2="52.6543" gradientUnits="userSpaceOnUse">
<stop stop-color="#8AD5FF"/>
<stop offset="1" stop-color="#485267" stop-opacity="0"/>
</linearGradient>
<linearGradient id="paint1_linear_169_1390" x1="40.5098" y1="377.589" x2="91.8822" y2="264.959" gradientUnits="userSpaceOnUse">
<stop stop-color="#8AD5FF"/>
<stop offset="1" stop-opacity="0"/>
</linearGradient>
<linearGradient id="paint2_linear_169_1390" x1="351.483" y1="70.0605" x2="327.223" y2="103.022" gradientUnits="userSpaceOnUse">
<stop stop-color="#8AD5FF"/>
<stop offset="1" stop-color="#485267" stop-opacity="0"/>
</linearGradient>
<linearGradient id="paint3_linear_169_1390" x1="111.464" y1="307.907" x2="143.857" y2="236.889" gradientUnits="userSpaceOnUse">
<stop stop-color="#8AD5FF"/>
<stop offset="1" stop-opacity="0"/>
</linearGradient>
<linearGradient id="paint4_linear_169_1390" x1="128.2" y1="159.554" x2="14.5132" y2="160.558" gradientUnits="userSpaceOnUse">
<stop stop-color="#87F9C2"/>
<stop offset="1" stop-color="#6BB1D9"/>
</linearGradient>
<linearGradient id="paint5_linear_169_1390" x1="60.081" y1="148.654" x2="58.0564" y2="203.813" gradientUnits="userSpaceOnUse">
<stop stop-color="#E2ECFF"/>
<stop offset="0.854167" stop-color="#5F6779"/>
</linearGradient>
<linearGradient id="paint6_linear_169_1390" x1="84.2988" y1="148.654" x2="82.2301" y2="203.81" gradientUnits="userSpaceOnUse">
<stop stop-color="#E2ECFF"/>
<stop offset="0.854167" stop-color="#5F6779"/>
</linearGradient>
<linearGradient id="paint7_linear_169_1390" x1="59.971" y1="194.006" x2="59.1694" y2="228.574" gradientUnits="userSpaceOnUse">
<stop stop-color="#E2ECFF"/>
<stop offset="0.854167" stop-color="#5F6779"/>
</linearGradient>
<linearGradient id="paint8_linear_169_1390" x1="84.2988" y1="194.006" x2="83.4869" y2="228.574" gradientUnits="userSpaceOnUse">
<stop stop-color="#E2ECFF"/>
<stop offset="0.854167" stop-color="#5F6779"/>
</linearGradient>
<linearGradient id="paint9_linear_169_1390" x1="59.845" y1="178.211" x2="59.3978" y2="203.867" gradientUnits="userSpaceOnUse">
<stop stop-color="#E2ECFF"/>
<stop offset="0.854167" stop-color="#5F6779"/>
</linearGradient>
<linearGradient id="paint10_linear_169_1390" x1="84.2988" y1="178.211" x2="83.8516" y2="203.867" gradientUnits="userSpaceOnUse">
<stop stop-color="#E2ECFF"/>
<stop offset="0.854167" stop-color="#5F6779"/>
</linearGradient>
<linearGradient id="paint11_linear_169_1390" x1="450.148" y1="159.554" x2="336.461" y2="160.558" gradientUnits="userSpaceOnUse">
<stop stop-color="#87F9C2"/>
<stop offset="1" stop-color="#6BB1D9"/>
</linearGradient>
<linearGradient id="paint12_linear_169_1390" x1="208.681" y1="164.508" x2="213.571" y2="171.152" gradientUnits="userSpaceOnUse">
<stop stop-color="#8AD5FF"/>
<stop offset="1" stop-color="#485267" stop-opacity="0"/>
</linearGradient>
<linearGradient id="paint13_linear_169_1390" x1="257.065" y1="212.454" x2="250.535" y2="198.138" gradientUnits="userSpaceOnUse">
<stop stop-color="#8AD5FF"/>
<stop offset="1" stop-opacity="0"/>
</linearGradient>
</defs>
</svg>
