<svg width="21" height="21" viewBox="0 0 21 21" fill="none" xmlns="http://www.w3.org/2000/svg">
<path fill-rule="evenodd" clip-rule="evenodd" d="M6.60938 0.0224609H14.6094C17.9231 0.0224609 20.6094 2.70875 20.6094 6.02246V14.0225C20.6094 17.3362 17.9231 20.0225 14.6094 20.0225H6.60938C3.29567 20.0225 0.609375 17.3362 0.609375 14.0225V6.02246C0.609375 2.70875 3.29567 0.0224609 6.60938 0.0224609ZM16.6094 3.02246C17.1094 3.02246 17.6094 3.52246 17.6094 4.02246C17.6094 4.52246 17.1094 5.02246 16.6094 5.02246C16.1094 5.02246 15.6094 4.52246 15.6094 4.02246C15.6094 3.52246 16.1094 3.02246 16.6094 3.02246ZM15.6094 10.0225C15.6094 7.26496 13.3669 5.02246 10.6094 5.02246C7.85188 5.02246 5.60938 7.26496 5.60938 10.0225C5.60938 12.78 7.85188 15.0225 10.6094 15.0225C13.3669 15.0225 15.6094 12.78 15.6094 10.0225ZM10.6094 7.02246C8.95252 7.02246 7.60938 8.36561 7.60938 10.0225C7.60938 11.6793 8.95252 13.0225 10.6094 13.0225C12.2662 13.0225 13.6094 11.6793 13.6094 10.0225C13.6094 8.36561 12.2662 7.02246 10.6094 7.02246Z" fill="#D1E9FF"/>
</svg>
