<svg width="26" height="25" viewBox="0 0 26 25" fill="none" xmlns="http://www.w3.org/2000/svg">
<path fill-rule="evenodd" clip-rule="evenodd" d="M23.2013 0.0507812H3.44814C2.08448 0.0507812 0.979004 1.15625 0.979004 2.51992V22.273C0.979004 23.6367 2.08448 24.7422 3.44814 24.7422H23.2013C24.5649 24.7422 25.6704 23.6367 25.6704 22.273V2.51992C25.6704 1.15625 24.5649 0.0507812 23.2013 0.0507812ZM5.91728 5.68541C5.91728 6.7514 6.78187 7.61745 7.85108 7.61745C8.91692 7.61745 9.78376 6.7514 9.78376 5.68541C9.78376 4.62054 8.91692 3.75449 7.85108 3.75449C6.783 3.75449 5.91728 4.61942 5.91728 5.68541ZM6.22647 19.8039H9.54316V9.14174H6.22647V19.8039ZM21.9667 19.8039H18.6523V14.6188C18.6523 13.3821 18.6298 11.7916 16.9287 11.7916C15.2029 11.7916 14.9376 13.1384 14.9376 14.529V19.8039H11.6231V9.14174H14.8049V10.5986H14.8499C15.2928 9.76067 16.3744 8.87665 17.9878 8.87665C21.3461 8.87665 21.9667 11.085 21.9667 13.9561V19.8039Z" fill="#C7D1E6"/>
</svg>
