<svg width="117" height="50" viewBox="0 0 117 50" fill="none" xmlns="http://www.w3.org/2000/svg">
<path d="M56.2737 23.5417H52.6887V19.6379H56.2737V17.9431C56.2737 11.3979 58.1771 11.1407 65.7324 11.1407V14.6822C61.6453 14.6822 61.1315 14.9043 61.1315 17.1367V19.6262H65.7324V23.53H61.1315V38.2802H56.2737V23.5417ZM69.1772 11.094H74.1868V15.4069H69.1772V11.094ZM69.2122 19.6262H74.1051V38.2802H69.2122V19.6262Z" fill="white"/>
<path d="M79.2279 19.6245H83.7937L83.9339 22.8504H84.2258C85.2184 20.0803 87.1919 19.3323 90.193 19.3323V23.9841C85.4052 23.9841 84.0857 25.7373 84.0857 30.8215V38.2785H79.2279V19.6245Z" fill="white"/>
<path d="M92.7925 28.9164C92.7925 21.3777 93.2713 19.3323 101.34 19.3323C109.409 19.3323 109.888 21.3777 109.888 28.9164C109.888 36.4552 109.409 38.5707 101.34 38.5707C93.2713 38.5824 92.7925 36.4435 92.7925 28.9164ZM104.995 28.9164C104.995 23.7854 104.995 23.2477 101.34 23.2477C97.6853 23.2477 97.6853 23.7971 97.6853 28.9164C97.6853 34.0357 97.6853 34.6552 101.34 34.6552C104.995 34.6552 104.995 34.0357 104.995 28.9164Z" fill="white"/>
<path d="M17.5848 32.8031C18.0052 32.8031 18.4022 32.5694 18.5891 32.1954L21.2632 27.1111H17.1294C16.4988 27.1111 15.9967 26.5968 15.9967 25.9774V23.6982C15.9967 23.0671 16.5105 22.5645 17.1294 22.5645H23.6688L28.7484 12.9336C28.9469 12.5596 29.3323 12.3258 29.7527 12.3258H38.3122C34.9959 8.81944 30.3132 6.63379 25.1051 6.63379C15.0625 6.63379 6.91165 14.7803 6.91165 24.8436C6.91165 27.6955 7.56559 30.4071 8.74501 32.8148H17.5848V32.8031Z" fill="white"/>
<path d="M32.6012 16.862C32.1808 16.862 31.7838 17.0958 31.5969 17.4698L28.9228 22.5541H33.0566C33.6872 22.5541 34.1893 23.0683 34.1893 23.6878V25.9669C34.1893 26.5981 33.6755 27.1007 33.0566 27.1007H26.5173L21.4376 36.7316C21.2391 37.1056 20.8537 37.3393 20.4333 37.3393H11.8738C15.1902 40.8457 19.8728 43.0314 25.0809 43.0314C35.1235 43.0314 43.2744 34.8849 43.2744 24.8215C43.2744 21.9697 42.6204 19.2581 41.441 16.8503H32.6012V16.862Z" fill="white"/>
</svg>
