<svg width="4730" height="982" viewBox="0 0 4730 982" fill="none" xmlns="http://www.w3.org/2000/svg">
<path d="M331 1.80005C315 4.20005 299.933 9.80006 286.733 18.6001C268.2 30.8667 271.133 26.3334 138.067 239.4C69.7999 348.867 11.9332 442.467 9.66652 447.667C2.99985 461.933 0.599854 473.533 0.599854 490.333C0.599854 507.4 2.99985 518.733 9.39985 532.733C11.9332 538.067 39.2665 581.267 70.3332 629C155.667 759.933 181.533 799.8 211 845C279.667 950.6 280.733 952.067 298.333 963.667C332.467 986.2 377.267 986.867 411.933 965.267C424.867 957.267 435.267 946.6 446.2 930.333C476.467 885.533 698.333 543.4 701.933 536.067C709.267 521.267 712.067 506.6 711.267 487C710.6 470.2 708.733 462.067 702.6 448.2C700.2 442.733 686.6 421.933 649.667 367.667C635.933 347.533 617.667 320.6 575 257.667C567.8 247 556.733 230.867 550.6 221.667C536.6 201.133 522.733 180.6 500.467 147.933C491.133 134.2 477.533 114.067 470.2 103.267C462.867 92.4667 450.467 74.0667 442.6 62.3334C424.733 35.6667 411.667 22.0667 396.333 14.2001C373.667 2.46672 353.133 -1.39995 331 1.80005ZM534.333 382.333C574.333 441.267 607.133 490.2 607.4 490.867C607.8 491.933 360.467 873.133 357.133 876.733C356.2 877.667 353.4 873.533 327.533 833.667C320.6 823.133 309.667 806.2 303 796.067C296.467 785.933 284.067 767.133 275.667 754.067C267.267 741.133 254.333 721.267 247 710.067C239.667 698.867 228.467 681.8 222.2 672.067C215.8 662.333 203.8 643.8 195.4 631C170.333 592.6 163.667 582.067 163.667 581.4C163.667 580.867 167.4 580.2 172.067 579.667C176.6 579.133 187.933 577.267 197.133 575.533C283 559 358.6 508.2 408.067 433.667C419.8 415.933 436.6 381.8 443.533 361C451.933 336.2 459.667 297.667 459.667 281.133C459.667 277.8 460.067 275 460.733 275C461.267 275.133 494.333 323.4 534.333 382.333Z" fill="#84858F"/>
<path d="M1186.47 211.267C1179.13 233.533 1128.07 388.2 1073.13 555.133C1018.07 721.933 972.733 859.533 972.2 860.733C971.4 862.867 978.467 863 1072.73 863H1174.07L1176.2 856.6C1177.27 853.133 1185.8 825.133 1195 794.333C1204.2 763.533 1212.33 736.467 1213.13 734.2L1214.33 730.2H1328.2H1442.07L1460.2 790.467C1470.2 823.533 1479.13 853.267 1480.07 856.467L1481.8 862.333L1583.53 862.733C1679.93 863 1685.27 862.867 1684.33 860.733C1683.93 859.4 1638.2 721 1582.87 553C1527.53 385.133 1476.47 230.467 1469.53 209.267L1456.73 171H1328.33H1199.93L1186.47 211.267ZM1364.87 474.067C1383.4 535.8 1399 587.133 1399.27 587.933C1399.8 589.267 1385.13 589.667 1328.33 589.667C1271.67 589.667 1256.87 589.267 1257.27 587.933C1257.67 587.133 1273.13 535.8 1291.67 473.933C1322.2 372.467 1325.8 361.667 1328.2 361.667C1330.73 361.667 1334.33 372.6 1364.87 474.067Z" fill="#84858F"/>
<path d="M1751.67 517V863L1843.4 862.733L1935 862.333L1935.4 661.267C1935.67 470.867 1935.8 460.333 1938.07 460.333C1939.93 460.333 1955.67 499.933 2017.13 658.6L2093.93 857L2149.4 857.4L2204.73 857.667L2215.4 830.733C2221.27 815.8 2255.8 727 2292.33 633.267C2346.87 493.533 2359.27 463 2361.27 463C2363.53 463 2363.67 470.333 2363.93 662.6L2364.33 862.333L2456.07 862.733L2547.67 863V517V171L2430.73 171.267L2313.93 171.667L2235.53 363C2192.33 468.2 2156.2 556.333 2155.13 558.6C2152.47 564.333 2147 564.733 2144.6 559.4C2143.8 557.4 2107.53 469.4 2064.2 363.8L1985.53 171.667L1868.6 171.267L1751.67 171V517Z" fill="#84858F"/>
<path d="M2637 517V863H2870.33H3103.67V787V711H2964.33H2825V441V171H2731H2637V517Z" fill="#84858F"/>
<path d="M3179.67 517V863.133L3360.07 862.6C3522.33 862.2 3541.8 861.933 3555.53 859.8C3589.13 854.733 3616.33 846.733 3640.47 834.6C3698.6 805.4 3734.73 759 3745.8 699.667C3748.47 685.133 3748.87 652.333 3746.47 637C3740.87 602.333 3725.67 573 3700.6 548.733C3675.13 524.2 3644.33 509.133 3607.67 503.667C3600.73 502.6 3593.4 501.667 3591.4 501.667C3588.33 501.667 3587.67 501 3587.67 498.467C3587.67 495.667 3588.73 495 3597.4 493C3653.53 479.4 3695.4 443.133 3713.53 392.6C3723.53 364.467 3723.53 322.2 3713.67 291.667C3692.87 227.933 3634.73 188.067 3542.33 174.067C3528.47 172.067 3509.8 171.8 3353.4 171.4L3179.67 170.867V517ZM3476.2 321.4C3497.67 327.267 3513.8 339.4 3521.93 355.933C3526.47 365 3526.87 366.867 3527.4 380.333C3527.93 392.333 3527.53 396.333 3525.13 404.067C3517.4 429.667 3492.47 446.333 3457.8 449.4C3451.27 450.067 3428.47 450.467 3407.13 450.467L3368.33 450.333L3367.93 383.933L3367.67 317.4L3416.6 317.933C3461.67 318.467 3466.47 318.867 3476.2 321.4ZM3491.67 570.2C3511.4 575.667 3528.73 587.133 3538.33 601C3540.47 604.2 3543.8 611.4 3545.8 617.133C3548.87 626.067 3549.4 629.933 3549.27 642.333C3549.27 671.4 3539 689.267 3515.67 701C3496.2 710.733 3491.4 711.4 3426.07 711.933L3367.67 712.467V639.667V566.867L3425.4 567.4C3475.53 567.8 3484.07 568.2 3491.67 570.2Z" fill="#84858F"/>
<path d="M4445 281V343H4412.33H4379.67V411V479H4412.33H4444.87L4445.4 610.6C4445.93 754.2 4445.67 749.533 4453.8 775.267C4459.4 793 4469.53 811.133 4480.87 823.533C4487.67 830.867 4503.93 843 4515.67 849.4C4550.73 868.6 4608.2 875.4 4668.47 867.667C4684.6 865.533 4728.47 855.533 4729.67 853.8C4730.2 852.733 4704.2 724.333 4703.13 723.267C4702.87 723 4697.53 723.8 4691.4 725.133C4685.4 726.467 4674.6 727.533 4667.67 727.533C4646.87 727.667 4638.07 722.6 4633.67 708.067C4631.93 702.067 4631.67 685.8 4631.67 590.067V479H4676.33H4721V411V343H4676.33H4631.67V281V219H4538.33H4445V281Z" fill="#84858F"/>
<path d="M4039.67 337.667C3968.6 343.133 3910.47 368.467 3868.2 412.6C3820.47 462.333 3795.27 536.867 3798.87 617.667C3801.53 677 3815.67 724.2 3843 765C3882.6 824.333 3941.53 858.733 4022.33 869.8C4038.87 872.067 4093.53 872.2 4111.13 869.933C4174.73 861.8 4224.2 838.867 4263.67 799.133C4292.73 769.667 4312.07 736.333 4324.2 694.2C4333.13 663 4335 648.333 4335 605.667C4335 575.4 4334.47 564.6 4332.6 552.467C4322.73 490.067 4294.6 435.8 4253.67 400.067C4223.53 373.667 4182.2 353.133 4142.33 344.467C4112.73 338.2 4070.47 335.4 4039.67 337.667ZM4084.07 474.333C4094.47 477 4100.6 480.333 4108.87 487.8C4126.07 503.267 4138.07 530.333 4143 564.467C4145.67 583 4145.53 622.6 4143 641.667C4136.87 685 4119.8 715.533 4094.73 727.933C4085.93 732.2 4083.27 732.867 4072.73 733.4C4050.6 734.467 4036.2 728.867 4021.8 713.533C4007.27 698.2 3998.07 677.667 3992.73 648.333C3988.73 626.333 3988.73 579.933 3992.73 557.667C4001.13 511.533 4021.67 482.6 4051.8 474.467C4061.27 471.933 4074.6 471.8 4084.07 474.333Z" fill="#84858F"/>
</svg>
