<svg width="153" height="47" viewBox="0 0 153 47" fill="none" xmlns="http://www.w3.org/2000/svg">
<path fill-rule="evenodd" clip-rule="evenodd" d="M36.7209 9.93368C36.5341 9.74792 36.4407 9.56216 36.4407 9.32996C36.4407 9.09776 36.5341 8.91199 36.7209 8.72623C37.0944 8.40115 37.6546 8.40115 38.0281 8.72623C38.2149 8.91199 38.3083 9.09776 38.3083 9.32996C38.3083 9.56216 38.2149 9.74792 38.0281 9.93368C37.8414 10.073 37.6079 10.1659 37.3745 10.1659C37.1411 10.2123 36.9076 10.1194 36.7209 9.93368Z" fill="white"/>
<path fill-rule="evenodd" clip-rule="evenodd" d="M34.4297 12.3416C34.2896 12.1559 34.1962 11.9701 34.1962 11.7379C34.1962 11.5057 34.2896 11.32 34.4297 11.1342C34.7565 10.8091 35.3167 10.8091 35.6436 11.1342C35.7836 11.32 35.877 11.5057 35.877 11.7379C35.877 11.9701 35.7836 12.1559 35.6436 12.3416C35.4568 12.481 35.27 12.5738 35.0366 12.5738C34.8032 12.5738 34.6164 12.481 34.4297 12.3416Z" fill="white"/>
<path fill-rule="evenodd" clip-rule="evenodd" d="M31.9556 14.7149C31.8155 14.5756 31.7222 14.3434 31.7222 14.1112C31.7222 13.879 31.8155 13.6932 31.9556 13.5075C32.2824 13.1824 32.8427 13.1824 33.1695 13.5075C33.3096 13.6468 33.4029 13.879 33.4029 14.1112C33.4029 14.3434 33.3096 14.5292 33.1695 14.7149C32.9827 14.9007 32.796 14.9471 32.5626 14.9471C32.3291 14.9471 32.0957 14.8543 31.9556 14.7149Z" fill="white"/>
<path fill-rule="evenodd" clip-rule="evenodd" d="M29.5772 17.0833C29.3904 16.944 29.2971 16.7118 29.2971 16.4796C29.2971 16.2474 29.3904 16.0617 29.5772 15.8759C29.9507 15.5508 30.5109 15.5508 30.8844 15.8759C31.0712 16.0152 31.1646 16.2474 31.1646 16.4796C31.1646 16.7118 31.0712 16.944 30.8844 17.0833C30.6977 17.2691 30.4643 17.3155 30.2308 17.3155C29.9974 17.3155 29.7639 17.2691 29.5772 17.0833Z" fill="white"/>
<path fill-rule="evenodd" clip-rule="evenodd" d="M27.2888 19.4566C27.102 19.3173 27.0554 19.0851 27.0554 18.8529C27.0554 18.6207 27.1487 18.4349 27.2888 18.2492C27.6156 17.9241 28.1759 17.9241 28.5027 18.2492C28.6894 18.3885 28.7361 18.6207 28.7361 18.8529C28.7361 19.0851 28.6428 19.3173 28.5027 19.4566C28.3626 19.6424 28.1292 19.6888 27.8957 19.6888C27.6623 19.7353 27.4289 19.6424 27.2888 19.4566Z" fill="white"/>
<path fill-rule="evenodd" clip-rule="evenodd" d="M24.5328 21.2147C24.5328 20.9825 24.6262 20.7968 24.7663 20.611C25.0931 20.2859 25.6533 20.2859 25.9802 20.611C26.1669 20.7968 26.2136 20.9825 26.2136 21.2147C26.2136 21.4469 26.1202 21.6327 25.9802 21.8184C25.8401 21.9578 25.6067 22.0506 25.3732 22.0506C25.1398 22.0506 24.953 21.9578 24.7663 21.8184C24.6262 21.6791 24.5328 21.4469 24.5328 21.2147Z" fill="white"/>
<path fill-rule="evenodd" clip-rule="evenodd" d="M20.0966 26.4625C19.9565 26.3232 19.8632 26.091 19.8632 25.8588C19.8632 25.6266 19.9565 25.4408 20.0966 25.255C20.4234 24.93 20.9837 24.93 21.3105 25.255C21.4972 25.4408 21.5439 25.6266 21.5439 25.8588C21.5439 26.091 21.4505 26.2767 21.3105 26.4625C21.1704 26.6482 20.937 26.6947 20.7035 26.6947C20.4701 26.7411 20.2834 26.6482 20.0966 26.4625Z" fill="white"/>
<path fill-rule="evenodd" clip-rule="evenodd" d="M17.6236 28.8304C17.4368 28.6911 17.3434 28.4589 17.3434 28.2267C17.3434 27.9945 17.4368 27.8087 17.6236 27.623C17.9971 27.2979 18.5573 27.2979 18.9308 27.623C19.1176 27.8087 19.211 27.9945 19.211 28.2267C19.211 28.4589 19.1176 28.6446 18.9308 28.8304C18.7441 29.0162 18.5106 29.0626 18.2772 29.0626C18.0438 29.1091 17.8103 29.0162 17.6236 28.8304Z" fill="white"/>
<path fill-rule="evenodd" clip-rule="evenodd" d="M15.3379 31.244C15.1979 31.1047 15.1045 30.8725 15.1045 30.6403C15.1045 30.4081 15.1979 30.1759 15.3379 30.0365C15.6647 29.7115 16.225 29.7115 16.5518 30.0365C16.6919 30.1759 16.7853 30.4081 16.7853 30.6403C16.7853 30.8725 16.6919 31.0582 16.5518 31.244C16.3651 31.4298 16.1783 31.4762 15.9449 31.4762C15.7114 31.4762 15.5247 31.3833 15.3379 31.244Z" fill="white"/>
<path fill-rule="evenodd" clip-rule="evenodd" d="M12.9557 33.6119C12.769 33.4726 12.7223 33.2404 12.7223 33.0082C12.7223 32.776 12.8157 32.5902 12.9557 32.4045C13.2825 32.0794 13.8428 32.0794 14.1696 32.4045C14.3097 32.5902 14.4031 32.776 14.4031 33.0082C14.4031 33.2404 14.3097 33.4726 14.1696 33.6119C13.9829 33.7977 13.7961 33.8441 13.5627 33.8441C13.3292 33.8441 13.0958 33.7977 12.9557 33.6119Z" fill="white"/>
<path fill-rule="evenodd" clip-rule="evenodd" d="M10.4799 35.9854C10.2931 35.8461 10.1998 35.6139 10.1998 35.3817C10.1998 35.1495 10.2931 34.9638 10.4799 34.778C10.8534 34.4529 11.4137 34.4529 11.7405 34.778C11.9272 34.9638 12.0206 35.1495 12.0206 35.3817C12.0206 35.6139 11.9272 35.8461 11.7405 35.9854C11.5537 36.1248 11.3203 36.2176 11.0868 36.2176C10.8534 36.2176 10.62 36.1712 10.4799 35.9854Z" fill="white"/>
<path fill-rule="evenodd" clip-rule="evenodd" d="M8.14561 38.3531C7.95886 38.1674 7.91217 37.9816 7.91217 37.7494C7.91217 37.5172 8.00555 37.3314 8.14561 37.1457C8.47243 36.8206 9.03268 36.8206 9.3595 37.1457C9.54625 37.3314 9.59294 37.5172 9.59294 37.7494C9.59294 37.9816 9.49956 38.1674 9.3595 38.3531C9.21943 38.4924 8.98599 38.5853 8.75255 38.5853C8.5658 38.6318 8.33236 38.5389 8.14561 38.3531Z" fill="white"/>
<path fill-rule="evenodd" clip-rule="evenodd" d="M9.3595 9.93368C9.49956 9.74792 9.59294 9.56216 9.59294 9.32996C9.59294 9.09776 9.49956 8.91199 9.3595 8.72623C9.03268 8.40115 8.47243 8.40115 8.14561 8.72623C7.95886 8.91199 7.91217 9.09776 7.91217 9.32996C7.91217 9.56216 8.00555 9.74792 8.14561 9.93368C8.28567 10.073 8.51911 10.1659 8.75255 10.1659C8.98599 10.2123 9.21943 10.1194 9.3595 9.93368Z" fill="white"/>
<path fill-rule="evenodd" clip-rule="evenodd" d="M11.7412 12.3416C11.928 12.1559 12.0213 11.9701 12.0213 11.7379C12.0213 11.5057 11.928 11.32 11.7412 11.1342C11.3677 10.8091 10.8074 10.8091 10.4339 11.1342C10.2472 11.32 10.1538 11.5057 10.1538 11.7379C10.1538 11.9701 10.2472 12.1559 10.4339 12.3416C10.6207 12.481 10.8541 12.5738 11.0876 12.5738C11.321 12.5738 11.5544 12.481 11.7412 12.3416Z" fill="white"/>
<path fill-rule="evenodd" clip-rule="evenodd" d="M14.1696 14.7149C14.3097 14.5756 14.4031 14.3434 14.4031 14.1112C14.4031 13.879 14.3097 13.6932 14.1696 13.5075C13.8428 13.1824 13.2825 13.1824 12.9557 13.5075C12.8157 13.6468 12.7223 13.879 12.7223 14.1112C12.7223 14.3434 12.8157 14.5292 12.9557 14.7149C13.1425 14.9007 13.3292 14.9471 13.5627 14.9471C13.7494 14.9471 13.9829 14.8543 14.1696 14.7149Z" fill="white"/>
<path fill-rule="evenodd" clip-rule="evenodd" d="M16.5518 17.0833C16.6919 16.944 16.7853 16.7118 16.7853 16.4796C16.7853 16.2474 16.6919 16.0617 16.5518 15.8759C16.225 15.5508 15.6647 15.5508 15.3379 15.8759C15.1979 16.0152 15.1045 16.2474 15.1045 16.4796C15.1045 16.7118 15.1979 16.944 15.3379 17.0833C15.5247 17.2691 15.7114 17.3155 15.9449 17.3155C16.1316 17.3155 16.3651 17.2691 16.5518 17.0833Z" fill="white"/>
<path fill-rule="evenodd" clip-rule="evenodd" d="M18.8841 19.4566C19.0709 19.3173 19.1643 19.0851 19.1643 18.8529C19.1643 18.6207 19.0709 18.4349 18.8841 18.2492C18.5573 17.9241 17.9504 17.9241 17.6236 18.2492C17.4368 18.3885 17.3434 18.6207 17.3434 18.8529C17.3434 19.0851 17.4368 19.3173 17.6236 19.4566C17.8103 19.6424 18.0438 19.6888 18.2772 19.6888C18.5106 19.7353 18.7441 19.6424 18.8841 19.4566Z" fill="white"/>
<path fill-rule="evenodd" clip-rule="evenodd" d="M21.5439 21.2147C21.5439 20.9825 21.4505 20.7968 21.3105 20.611C20.9837 20.2859 20.4234 20.2859 20.0966 20.611C19.9098 20.7968 19.8632 20.9825 19.8632 21.2147C19.8632 21.4469 19.9565 21.6327 20.0966 21.8184C20.2367 21.9578 20.4701 22.0506 20.7035 22.0506C20.937 22.0506 21.1237 21.9578 21.3105 21.8184C21.4972 21.6791 21.5439 21.4469 21.5439 21.2147Z" fill="white"/>
<path fill-rule="evenodd" clip-rule="evenodd" d="M23.6926 24.2323C23.8793 24.0465 23.926 23.8607 23.926 23.6285C23.926 23.3963 23.8326 23.2106 23.6926 23.0248C23.3657 22.6997 22.8055 22.6997 22.4787 23.0248C22.2919 23.2106 22.2452 23.3963 22.2452 23.6285C22.2452 23.8607 22.3386 24.0465 22.4787 24.2323C22.6187 24.3716 22.8522 24.4645 23.0856 24.4645C23.3191 24.4645 23.5525 24.3716 23.6926 24.2323Z" fill="white"/>
<path fill-rule="evenodd" clip-rule="evenodd" d="M26.0735 26.4625C26.2603 26.3232 26.3537 26.091 26.3537 25.8588C26.3537 25.6266 26.2603 25.4408 26.0735 25.255C25.7 24.93 25.1398 24.93 24.813 25.255C24.6262 25.4408 24.5328 25.6266 24.5328 25.8588C24.5328 26.091 24.6262 26.2767 24.813 26.4625C24.9997 26.6482 25.2332 26.6947 25.4666 26.6947C25.6533 26.7411 25.8868 26.6482 26.0735 26.4625Z" fill="white"/>
<path fill-rule="evenodd" clip-rule="evenodd" d="M28.5027 28.8304C28.6428 28.6911 28.7361 28.4589 28.7361 28.2267C28.7361 27.9945 28.6428 27.8087 28.5027 27.623C28.1759 27.2979 27.6156 27.2979 27.2888 27.623C27.1487 27.8087 27.0554 27.9945 27.0554 28.2267C27.0554 28.4589 27.1487 28.6446 27.2888 28.8304C27.4756 29.0162 27.6623 29.0626 27.8957 29.0626C28.0825 29.1091 28.3159 29.0162 28.5027 28.8304Z" fill="white"/>
<path fill-rule="evenodd" clip-rule="evenodd" d="M30.8848 31.244C31.0249 31.1047 31.1183 30.8725 31.1183 30.6403C31.1183 30.4081 31.0249 30.1759 30.8848 30.0365C30.558 29.7115 29.9978 29.7115 29.6709 30.0365C29.5309 30.1759 29.4375 30.4081 29.4375 30.6403C29.4375 30.8725 29.5309 31.0582 29.6709 31.244C29.8577 31.4298 30.0444 31.4762 30.2779 31.4762C30.5113 31.4762 30.6981 31.3833 30.8848 31.244Z" fill="white"/>
<path fill-rule="evenodd" clip-rule="evenodd" d="M33.1237 33.6119C33.3104 33.4726 33.3571 33.2404 33.3571 33.0082C33.3571 32.776 33.2637 32.5902 33.1237 32.4045C32.7968 32.0794 32.2366 32.0794 31.9098 32.4045C31.7697 32.5902 31.6763 32.776 31.6763 33.0082C31.6763 33.2404 31.7697 33.4726 31.9098 33.6119C32.0965 33.7977 32.2833 33.8441 32.5167 33.8441C32.7501 33.8441 32.9836 33.7977 33.1237 33.6119Z" fill="white"/>
<path fill-rule="evenodd" clip-rule="evenodd" d="M35.6436 35.9854C35.8303 35.8461 35.877 35.6139 35.877 35.3817C35.877 35.1495 35.7836 34.9638 35.6436 34.778C35.3167 34.4529 34.7565 34.4529 34.4297 34.778C34.2429 34.9638 34.1962 35.1495 34.1962 35.3817C34.1962 35.6139 34.2896 35.8461 34.4297 35.9854C34.5697 36.1248 34.8032 36.2176 35.0366 36.2176C35.27 36.2176 35.5035 36.1712 35.6436 35.9854Z" fill="white"/>
<path fill-rule="evenodd" clip-rule="evenodd" d="M38.0243 38.3531C38.2111 38.1674 38.3045 37.9816 38.3045 37.7494C38.3045 37.5172 38.2111 37.3314 38.0243 37.1457C37.6508 36.8206 37.0906 36.8206 36.7638 37.1457C36.577 37.3314 36.4836 37.5172 36.4836 37.7494C36.4836 37.9816 36.577 38.1674 36.7638 38.3531C36.9505 38.4924 37.184 38.5853 37.4174 38.5853C37.6042 38.6318 37.8376 38.5389 38.0243 38.3531Z" fill="white"/>
<path fill-rule="evenodd" clip-rule="evenodd" d="M15.0078 10.58C17.4356 9.00102 20.0968 8.25798 23.0381 8.21154C25.9328 8.21154 28.594 9.00102 31.0685 10.58L36.2041 5.47156C32.189 2.45294 27.847 0.92041 23.0381 0.92041C18.2293 0.92041 13.8406 2.45294 9.91882 5.47156L15.0078 10.58Z" fill="white"/>
<path fill-rule="evenodd" clip-rule="evenodd" d="M9.87523 31.52C8.24115 29.0587 7.44746 26.4116 7.44746 23.5787C7.44746 20.6994 8.24115 18.0523 9.87523 15.6374L4.78624 10.5754C1.79821 14.4764 0.304199 18.7954 0.304199 23.6252C0.304199 28.3621 1.79821 32.7275 4.83293 36.6749L9.87523 31.52Z" fill="white"/>
<path fill-rule="evenodd" clip-rule="evenodd" d="M31.0692 36.5867C28.6414 38.2121 25.9802 39.048 23.0856 39.0944C20.1442 39.0944 17.4363 38.305 15.0085 36.6331L9.87286 41.6951C13.8413 44.7602 18.23 46.2927 23.0856 46.2463C27.8944 46.1998 32.2364 44.6673 36.1582 41.6951L31.0692 36.5867Z" fill="white"/>
<path fill-rule="evenodd" clip-rule="evenodd" d="M36.0652 15.598C37.6993 18.0593 38.5396 20.7529 38.493 23.6786C38.4463 26.5115 37.6526 29.1121 36.0652 31.4806L41.2009 36.5426C44.2356 32.6416 45.7763 28.3226 45.7763 23.5857C45.823 18.7559 44.2823 14.3905 41.2009 10.4431L36.0652 15.598Z" fill="white"/>
<path fill-rule="evenodd" clip-rule="evenodd" d="M41.4345 38.1692C43.3954 38.1692 45.0295 39.7482 45.0295 41.7451C45.0295 43.6956 43.4421 45.321 41.4345 45.321C39.4736 45.321 37.8395 43.742 37.8395 41.7451C37.8395 39.7482 39.4269 38.1692 41.4345 38.1692Z" fill="white"/>
<path fill-rule="evenodd" clip-rule="evenodd" d="M4.73823 38.1692C6.69912 38.1692 8.28651 39.7482 8.28651 41.7451C8.28651 43.6956 6.69912 45.321 4.73823 45.321C2.77733 45.321 1.18994 43.742 1.18994 41.7451C1.18994 39.7482 2.77733 38.1692 4.73823 38.1692Z" fill="white"/>
<path fill-rule="evenodd" clip-rule="evenodd" d="M41.4825 1.71118C43.4434 1.71118 45.0308 3.29015 45.0308 5.28708C45.0308 7.28402 43.4434 8.86299 41.4825 8.86299C39.5217 8.86299 37.9343 7.28402 37.9343 5.28708C37.9343 3.29015 39.5217 1.71118 41.4825 1.71118Z" fill="white"/>
<path fill-rule="evenodd" clip-rule="evenodd" d="M4.69318 1.71118C6.65407 1.71118 8.28815 3.29015 8.28815 5.24064C8.28815 7.19114 6.70076 8.77011 4.69318 8.77011C2.73228 8.77011 1.09821 7.19114 1.09821 5.24064C1.09821 3.29015 2.6856 1.71118 4.69318 1.71118Z" fill="white"/>
<path d="M72.3416 30.319L70.5675 28.74C69.4936 29.9939 67.346 30.737 65.5252 30.737C62.4904 30.737 60.0627 28.9258 59.7825 26.0001H73.2287C73.8356 19.7306 70.1473 16.7585 65.2917 16.7585C60.5296 16.7585 57.0746 20.1486 57.0746 24.9319C57.0746 29.9475 60.4829 33.1519 65.4318 33.1519C67.9529 33.1054 70.7075 32.1766 72.3416 30.319ZM70.8009 23.7709H59.8292C60.2961 20.7523 62.6772 19.0805 65.4318 19.0805C68.5132 19.0805 70.6142 20.7059 70.8009 23.6781V23.7709ZM79.765 10.489H77.1505V32.8268H79.765V10.489ZM87.1884 17.0835H84.7606V32.8268H87.3751V24.0496C87.3751 21.1703 89.4761 19.3591 92.0439 19.3127C93.1178 19.3127 93.9581 19.5913 94.7985 20.195L95.9657 17.9659C94.9853 17.2229 93.678 16.7585 92.2774 16.8049C90.4565 16.8049 88.4957 17.3622 87.4218 19.4056L87.1884 17.0835ZM97.4597 24.9784C97.4597 29.7617 100.915 33.1054 105.677 33.1054C110.439 33.1054 113.894 29.7617 113.894 24.9784C113.894 20.1022 110.486 16.712 105.677 16.712C100.961 16.712 97.4597 20.1022 97.4597 24.9784ZM111.279 24.9784C111.233 28.2756 108.898 30.6441 105.63 30.6441C102.409 30.6441 100.074 28.2756 100.074 24.9784C100.074 21.4489 102.455 19.1269 105.677 19.1269C108.852 19.1269 111.279 21.4954 111.279 24.9784ZM117.676 17.0371V32.8268H120.29V24.3747C120.29 21.5418 122.298 19.2662 125.146 19.2198C128.18 19.2198 129.955 21.1238 129.955 24.1425V32.8268H132.569V24.1425C132.569 19.4984 129.628 16.8513 125.613 16.8513C123.512 16.8513 121.551 17.7337 120.197 19.5913L120.057 17.0835L117.676 17.0371ZM152.692 10.489H150.077V19.9164C148.957 17.7801 146.389 16.7585 144.148 16.7585C139.666 16.7585 136.164 19.6378 136.164 24.9319C136.164 30.1333 139.666 33.1054 144.194 33.1054C146.529 33.1054 148.863 32.0838 150.124 29.9011L150.264 32.7804H152.738L152.692 10.489ZM144.381 19.2198C147.509 19.2198 149.984 21.5418 149.984 24.8855C149.984 28.3221 147.509 30.6441 144.381 30.6441C141.3 30.6441 138.825 28.5543 138.825 24.9319C138.825 21.2632 141.253 19.2662 144.288 19.2198H144.381Z" fill="white"/>
</svg>
