<svg width="278" height="46" viewBox="0 0 278 46" fill="none" xmlns="http://www.w3.org/2000/svg">
<g clip-path="url(#clip0_2631_6580)">
<path d="M64.7554 22.2894C64.7554 27.7659 68.8511 31.4199 73.8163 31.4199C76.5107 31.4257 79.1535 30.6824 81.4489 29.2734V34.5924C80.4171 35.2314 77.3172 36.3924 73.8569 36.3924C65.7827 36.3789 59.3892 30.2634 59.3892 22.2894C59.3892 14.3154 65.7827 8.2134 73.8569 8.2134C77.3172 8.2134 80.4171 9.3654 81.4489 10.0134V15.3009C79.1516 13.8972 76.5095 13.1573 73.8163 13.1634C68.8511 13.1634 64.7554 16.8129 64.7554 22.2894ZM105.207 22.6134V35.9829H100.251V24.1929C100.251 21.8529 99.2148 20.1069 96.5519 20.1069C93.9702 20.1069 92.4608 21.7314 92.4608 24.6699V35.9829H87.5046V7.0074H92.4608V19.4319C92.8167 18.5319 94.209 15.7374 98.3813 15.7374C102.666 15.7374 105.207 18.2799 105.207 22.6134ZM132.156 31.8159V35.9829H125.758C125.654 35.9892 125.549 35.9738 125.452 35.9377C125.354 35.9016 125.265 35.8456 125.19 35.7732C125.115 35.7009 125.056 35.6138 125.016 35.5174C124.977 35.421 124.958 35.3175 124.96 35.2134V31.6584C124.284 33.9984 122.46 36.3789 118.652 36.3789C113.484 36.3789 109.749 32.5314 109.749 26.0604C109.749 19.5084 113.84 15.7374 118.927 15.7374C123.618 15.7374 124.573 19.5894 124.573 19.5894V16.1379H129.529V31.8159H132.156ZM124.721 26.1009C124.721 22.3704 122.919 20.0259 119.954 20.0259C117.093 20.0259 114.908 22.1319 114.908 26.0604C114.908 29.9889 116.71 32.0949 119.716 32.0949C122.775 32.0949 124.721 30.1104 124.721 26.1009ZM143.533 16.9299V35.9829H138.576V20.3049H134.972V16.1379H142.758C142.862 16.1346 142.966 16.153 143.062 16.1919C143.159 16.2308 143.247 16.2893 143.319 16.3638C143.392 16.4382 143.449 16.527 143.486 16.6245C143.522 16.7219 143.538 16.8259 143.533 16.9299ZM143.375 12.0069H138.009V7.0074H143.375V12.0069ZM149.322 16.1379H154.211V19.6704C154.373 19.1529 155.563 15.7374 160.213 15.7374C164.507 15.7374 167.052 18.2799 167.052 22.6044V35.9829H162.096V24.1929C162.096 21.8529 161.064 20.1069 158.401 20.1069C155.815 20.1069 154.306 21.7314 154.306 24.6699V35.9829H149.349L149.322 16.1379ZM193.996 31.8159V35.9829H187.598C187.494 35.9892 187.39 35.9738 187.292 35.9377C187.194 35.9016 187.105 35.8456 187.03 35.7732C186.955 35.7009 186.896 35.6138 186.856 35.5174C186.817 35.421 186.798 35.3175 186.801 35.2134V31.6584C186.125 33.9984 184.3 36.3789 180.493 36.3789C175.325 36.3789 171.589 32.5314 171.589 26.0604C171.589 19.5084 175.681 15.7374 180.772 15.7374C185.462 15.7374 186.413 19.5894 186.413 19.5894V16.1379H191.369V31.8159H193.996ZM186.562 26.1009C186.562 22.3704 184.76 20.0259 181.795 20.0259C178.934 20.0259 176.748 22.1319 176.748 26.0604C176.748 29.9889 178.573 32.0949 181.578 32.0949C184.615 32.0949 186.562 30.1104 186.562 26.1009ZM204.134 8.2134V35.9829H199.151V11.1744H196.051V7.0074H202.926C203.085 7.00559 203.243 7.03555 203.391 7.09552C203.538 7.15548 203.672 7.24425 203.784 7.3566C203.897 7.46895 203.986 7.60262 204.046 7.74975C204.106 7.89689 204.136 8.05453 204.134 8.2134ZM213.06 45.1134H208.103V40.9464H211.767C213.078 40.9464 213.677 40.5504 214.15 39.3579L215.623 35.6274L207.973 16.1379H213.497L218.147 30.1464L222.959 16.1379H228.483L218.705 41.2614C217.673 43.9209 215.961 45.1134 213.06 45.1134ZM231.236 34.7139V29.9124C231.911 30.3624 234.651 32.1624 237.715 32.1624C240.058 32.1624 241.089 31.4874 241.089 30.1779C241.089 26.2494 230.956 29.1474 230.956 21.6864C230.956 18.3114 233.817 15.7284 239.066 15.7284C241.964 15.7284 244.023 16.4844 244.829 16.9614V21.7134C243.833 21.0744 241.846 19.8054 239.143 19.8054C236.8 19.8054 235.926 20.5209 235.926 21.6324C235.926 24.8454 246.019 22.6224 246.019 29.9304C246.019 33.8994 242.72 36.3969 237.908 36.3969C234.745 36.3789 232.15 35.3079 231.236 34.7139ZM257.905 16.9299V35.9829H252.948V20.3049H249.344V16.1379H257.134C257.238 16.1346 257.342 16.153 257.438 16.1919C257.535 16.2308 257.622 16.2894 257.694 16.364C257.767 16.4385 257.823 16.5274 257.859 16.6248C257.895 16.7222 257.911 16.8262 257.905 16.9299ZM257.747 12.0069H252.381V7.0074H257.747V12.0069ZM263.217 34.7139V29.9124C263.888 30.3624 266.632 32.1624 269.691 32.1624C272.039 32.1624 273.071 31.4874 273.071 30.1779C273.071 26.2494 262.937 29.1474 262.937 21.6864C262.937 18.3114 265.799 15.7284 271.048 15.7284C273.949 15.7284 276.004 16.4844 276.81 16.9614V21.7134C275.148 20.5287 273.17 19.8645 271.129 19.8054C268.781 19.8054 267.907 20.5209 267.907 21.6324C267.907 24.8454 278.004 22.6224 278.004 29.9304C278.004 33.8994 274.706 36.3969 269.894 36.3969C266.736 36.3789 264.127 35.3079 263.217 34.7139Z" fill="#84858F"/>
<path d="M22.5285 0.113281C23.0331 0.113281 23.6054 0.176281 23.6054 0.176281C21.9123 2.20437 20.892 4.70779 20.6857 7.34028C17.4956 7.87327 14.5587 9.40796 12.3014 11.7215C10.044 14.035 8.58387 17.007 8.13288 20.2058C5.21771 20.5208 1.91956 21.8528 0.0226735 23.7563C-0.427894 10.6973 9.59272 0.113281 22.5285 0.113281ZM25.7726 39.3443C25.1759 39.4323 24.5735 39.476 23.9703 39.4748C22.9293 39.4623 21.8904 39.3766 20.8614 39.2183C20.0575 41.1515 18.9966 42.9678 17.7074 44.6183C13.6636 43.7276 9.94388 41.741 6.95678 38.8768C3.96967 36.0125 1.8308 32.3814 0.775121 28.3823C2.80718 25.9748 7.50209 24.5798 10.4173 24.5798C16.6351 24.5798 19.9332 27.8738 21.0777 33.0083C17.3335 31.9958 15.1122 29.9033 13.6523 26.7983C12.7992 26.4889 11.897 26.3365 10.9895 26.3483C10.1706 26.3449 9.35651 26.4741 8.57895 26.7308C10.228 33.0083 16.3197 37.6973 23.7405 37.6973C30.5937 37.6973 33.5088 34.2143 33.5088 34.2143V28.8863C33.5088 28.8863 30.1476 32.3738 25.9618 33.0713C25.491 29.8164 23.9747 26.8023 21.6411 24.4821C19.3074 22.162 16.2826 20.6613 13.0215 20.2058C14.0984 14.8823 18.158 11.9033 23.6775 11.9033C29.1969 11.9033 33.6395 15.8948 33.6395 15.8948V10.6343C33.6395 10.6343 30.7829 7.97028 25.7095 7.40328C25.8357 5.06328 27.3586 2.14278 29.0077 1.06278C35.9194 3.21828 42.5833 9.05028 44.4847 17.5418C44.4847 17.5418 41.4388 20.5838 35.7301 20.5838C31.0352 20.5838 28.0705 18.2393 26.4034 14.1218C25.5289 13.8107 24.6057 13.6583 23.6775 13.6718C22.8112 13.6623 21.9508 13.8149 21.1408 14.1218C22.9791 20.7143 28.8004 25.1468 35.2886 25.1468C41.6326 25.1468 45.0569 22.2353 45.0569 22.2353C45.0569 35.4158 34.9687 44.8613 22.9791 45.1133C24.3758 43.7633 25.4527 40.8023 25.7726 39.3443Z" fill="#84858F"/>
</g>
<defs>
<clipPath id="clip0_2631_6580">
<rect width="278" height="45" fill="white" transform="translate(0 0.113281)"/>
</clipPath>
</defs>
</svg>
