<svg width="122" height="49" viewBox="0 0 122 49" fill="none" xmlns="http://www.w3.org/2000/svg">
<g clip-path="url(#clip0_628_99365)">
<path fill-rule="evenodd" clip-rule="evenodd" d="M114.592 31.8515C114.592 32.6527 114.883 32.8712 115.903 32.944H116.704V36.8045H113.026C110.768 36.7316 109.93 35.8212 109.966 33.5996V23.7368H108.036V19.8095H109.966V15.4288H114.592V19.8095H116.704V23.7368H114.592V31.8515ZM103.586 36.8045H98.9605V23.7372H97.1032V19.8095H98.9605V18.9168C98.9605 14.4008 101.182 12.2884 105.807 12.4341V16.6952C104.205 16.8773 103.586 17.4964 103.586 18.9168V19.8095H105.807V23.7372H103.586V36.8045ZM90.2596 19.8095H94.885V28.695V30.1417V38.3896V39.4528C94.885 43.7631 92.8594 45.8821 88.6534 45.9397L84.7238 45.9426V41.6743H88.0379V41.6744C89.6405 41.4924 90.2596 40.8732 90.2596 39.4528V38.3896V37.1385C88.9203 37.1385 88.5088 37.1484 87.5282 37.1484C85.1973 37.1484 83.1942 36.4928 81.8831 35.291C80.6812 34.1984 80.0985 32.5959 80.0985 30.3743V19.8095H84.7238V29.8504C84.7238 31.7442 85.8527 32.9517 87.5282 32.9517C89.2398 32.9517 89.5939 32.9505 90.2596 32.9505V28.695V19.8095ZM67.7009 12.5331V13.5963V19.8057C69.0402 19.8057 69.4517 19.7959 70.4324 19.7959C72.7632 19.7959 74.7664 20.4514 76.0774 21.6532C77.2793 22.7459 77.862 24.3483 77.862 26.5699V36.8284H73.2368V27.0938C73.2368 25.2001 72.1078 23.9925 70.4324 23.9925C68.7208 23.9925 68.3666 23.9938 67.7009 23.9938V36.8284H63.0756V13.9025V12.5331H67.7009ZM49.1211 29.6242V29.9519C49.1211 31.5908 50.5415 32.7927 52.4352 32.7927C54.2562 32.7927 55.6402 31.6637 55.6402 30.2069C55.6402 29.4421 55.276 28.7501 54.6569 28.2767C54.0376 27.8031 53.6007 27.6211 51.7068 26.9291C46.3896 25.0352 44.4958 23.0322 44.4958 19.3174C44.4958 14.9107 47.7372 11.9607 52.5082 11.9607C57.2427 11.9607 60.3019 14.7286 60.7026 19.3902H55.6766C55.4946 17.3507 54.4747 16.3674 52.5082 16.3674C50.7235 16.3674 49.5216 17.3872 49.5216 18.9168C49.5216 19.9002 50.0316 20.665 51.0148 21.2112C51.6704 21.5754 52.0711 21.7575 53.8556 22.4131C56.5142 23.3964 57.8618 24.0883 58.9179 25.1081C60.1926 26.3099 60.8482 27.9488 60.8482 29.8062C60.8482 34.2495 57.4975 37.1994 52.4718 37.1994C47.373 37.1994 44.2408 34.2859 44.2773 29.6242H49.1211Z" fill="white"/>
<path d="M34.9883 22.5662C35.2942 22.9161 35.5128 23.3534 35.5128 23.8345V33.806C35.5128 42.1156 28.782 48.8508 20.4779 48.8508C12.6108 48.8508 6.01123 42.6842 5.48676 34.8119C5.39935 33.8497 6.14235 32.975 7.10388 32.9313C8.06541 32.8438 8.93953 33.5873 8.98324 34.5495C9.37659 40.5849 14.4028 45.3083 20.5216 45.3957C26.9027 45.3957 32.06 40.1913 32.06 33.8497V24.6217L26.0723 18.63C25.8537 18.4551 25.6352 18.1927 25.5478 17.9303C25.5041 17.8428 25.4604 17.7554 25.4604 17.6679C25.4604 17.6241 25.4604 17.6241 25.4604 17.6241C25.4167 17.4492 25.4167 17.2743 25.4167 17.0993V15.7873C25.4167 13.0757 23.1877 10.8453 20.4779 10.8453C17.7681 10.8453 15.5391 13.0757 15.5391 15.7873V22.4787L21.6143 28.5578C21.9639 28.864 22.1387 29.3013 22.1387 29.7824V33.806C22.1387 34.7682 21.352 35.5554 20.3905 35.5554C19.429 35.5554 18.6423 34.7682 18.6423 33.806V30.4822L12.5671 24.4468C12.2175 24.1406 12.0427 23.7033 12.0427 23.2222V15.7873C12.0427 11.1077 15.8014 7.34647 20.4779 7.34647C25.1544 7.34647 28.9132 11.1514 28.9132 15.7873V16.487L34.9883 22.5662ZM12.0427 32.4065L5.96753 26.3274C5.61788 26.0212 5.44305 25.5839 5.44305 25.1028V15.3499C5.44305 7.04033 12.1738 0.305176 20.4779 0.305176C28.2139 0.305176 34.6386 6.1219 35.3816 13.8192L35.4253 14.0816C35.469 15.0438 34.7698 15.8748 33.8082 15.9622C32.8467 16.006 32.0163 15.3062 31.9289 14.344V14.1691C31.3607 8.35237 26.3345 3.80396 20.4779 3.80396C14.0968 3.80396 8.93953 8.96466 8.93953 15.3499V24.3593L15.0147 30.4384L15.0584 30.4822H15.1021C15.5391 30.9633 15.6702 31.5755 15.5391 32.1441V33.7623C15.5391 36.4738 17.7681 38.7043 20.4779 38.7043C23.1877 38.7043 25.4167 36.4738 25.4167 33.7623V27.2021L19.2104 21.0355C18.8608 20.7293 18.686 20.292 18.686 19.8109V15.7436C18.686 14.7814 19.4727 13.9942 20.4342 13.9942C21.3957 13.9942 22.1824 14.7814 22.1824 15.7436V19.0674L28.3887 25.2777C28.7383 25.5839 28.9132 26.0212 28.9132 26.5023V33.806C28.9132 38.4856 25.1544 42.2468 20.4779 42.2468C15.8014 42.2468 12.0427 38.4419 12.0427 33.806V32.4065Z" fill="white"/>
</g>
<defs>
<clipPath id="clip0_628_99365">
<rect width="121.364" height="48.5456" fill="white" transform="translate(0.587097 0.299316)"/>
</clipPath>
</defs>
</svg>
