<svg width="241" height="71" viewBox="0 0 241 71" fill="none" xmlns="http://www.w3.org/2000/svg">
<path fill-rule="evenodd" clip-rule="evenodd" d="M23.5061 2.5708L60.7356 43.1993L16.4164 6.01156C16.0011 6.27524 15.5913 6.54763 15.1874 6.82856L59.8252 44.2839L9.23334 12.0534C8.91219 12.4066 8.59826 12.7664 8.29173 13.1324L59.0648 45.479L3.91645 19.7618C3.70406 20.1817 3.49875 20.6072 3.30193 21.0369L58.4659 46.7611L0.846674 28.5931C0.752416 29.0595 0.667678 29.5278 0.592512 29.9977L58.0404 48.1112L0.231445 37.9178C0.264012 38.4077 0.306491 38.8948 0.358881 39.3784L57.7947 49.5052L2.09342 47.0741C2.26333 47.559 2.44245 48.039 2.63219 48.5148L57.7324 50.9205L6.33631 55.4168C6.64994 55.8699 6.97348 56.3159 7.30765 56.7535L57.8563 52.3308L12.6536 62.3521C13.1187 62.7424 13.5939 63.1206 14.0787 63.4863L58.1628 53.7134L20.6126 67.3802C21.2427 67.6676 21.8834 67.9373 22.5333 68.188L58.6471 55.0437L29.7136 70.1059C30.537 70.2333 31.3703 70.3324 32.2113 70.4018L59.3006 56.2997L39.3548 70.2666C40.448 70.1345 41.5343 69.9507 42.6101 69.7158L60.1126 57.4607L48.9755 67.6662C50.7144 66.914 52.3891 66.0214 53.983 64.9971L61.0691 58.5043L58.5586 61.4962C64.8723 55.7857 69.0918 47.8018 69.9251 38.8361L69.7333 39.9242L70.015 33.4675C69.878 31.1246 69.5046 28.8015 68.9007 26.5336L68.3187 39.8626L66.6132 20.3686C66.1015 19.3102 65.5368 18.2783 64.9212 17.2768L66.9084 39.9858L60.6273 11.6534C60.0307 11.0173 59.4108 10.4036 58.7689 9.81338L65.5258 40.2924L52.8304 5.4112C52.2134 5.04787 51.5853 4.70363 50.9472 4.37897L64.1955 40.7766L43.8519 1.69787C43.2515 1.54343 42.6472 1.40509 42.0394 1.283L62.9395 41.4308L34.353 0.605469C33.7908 0.617504 33.2322 0.642283 32.6772 0.680514L61.7792 42.2428L24.9836 2.08726C24.4876 2.23739 23.9949 2.39861 23.5061 2.5708Z" fill="white"/>
<path fill-rule="evenodd" clip-rule="evenodd" d="M23.5061 2.5708L60.7356 43.1993L16.4164 6.01156C16.0011 6.27524 15.5913 6.54763 15.1874 6.82856L59.8252 44.2839L9.23334 12.0534C8.91219 12.4066 8.59826 12.7664 8.29173 13.1324L59.0648 45.479L3.91645 19.7618C3.70406 20.1817 3.49875 20.6072 3.30193 21.0369L58.4659 46.7611L0.846674 28.5931C0.752416 29.0595 0.667678 29.5278 0.592512 29.9977L58.0404 48.1112L0.231445 37.9178C0.264012 38.4077 0.306491 38.8948 0.358881 39.3784L57.7947 49.5052L2.09342 47.0741C2.26333 47.559 2.44245 48.039 2.63219 48.5148L57.7324 50.9205L6.33631 55.4168C6.64994 55.8699 6.97348 56.3159 7.30765 56.7535L57.8563 52.3308L12.6536 62.3521C13.1187 62.7424 13.5939 63.1206 14.0787 63.4863L58.1628 53.7134L20.6126 67.3802C21.2427 67.6676 21.8834 67.9373 22.5333 68.188L58.6471 55.0437L29.7136 70.1059C30.537 70.2333 31.3703 70.3324 32.2113 70.4018L59.3006 56.2997L39.3548 70.2666C40.448 70.1345 41.5343 69.9507 42.6101 69.7158L60.1126 57.4607L48.9755 67.6662C50.7144 66.914 52.3891 66.0214 53.983 64.9971L61.0691 58.5043L58.5586 61.4962C64.8723 55.7857 69.0918 47.8018 69.9251 38.8361L69.7333 39.9242L70.015 33.4675C69.878 31.1246 69.5046 28.8015 68.9007 26.5336L68.3187 39.8626L66.6132 20.3686C66.1015 19.3102 65.5368 18.2783 64.9212 17.2768L66.9084 39.9858L60.6273 11.6534C60.0307 11.0173 59.4108 10.4036 58.7689 9.81338L65.5258 40.2924L52.8304 5.4112C52.2134 5.04787 51.5853 4.70363 50.9472 4.37897L64.1955 40.7766L43.8519 1.69787C43.2515 1.54343 42.6472 1.40509 42.0394 1.283L62.9395 41.4308L34.353 0.605469C33.7908 0.617504 33.2322 0.642283 32.6772 0.680514L61.7792 42.2428L24.9836 2.08726C24.4876 2.23739 23.9949 2.39861 23.5061 2.5708Z" fill="#84858F"/>
<path d="M97.6478 24.1519C98.669 22.8143 100.059 21.6877 101.82 20.773C103.579 19.8573 105.568 19.4 107.785 19.4C110.32 19.4 112.626 20.0338 114.702 21.3014C116.815 22.5324 118.469 24.2756 119.665 26.5278C120.862 28.7811 121.461 31.368 121.461 34.2895C121.461 37.211 120.862 39.8334 119.665 42.1566C118.469 44.4443 116.814 46.2402 114.702 47.5423C112.626 48.8088 110.32 49.4426 107.785 49.4426C105.569 49.4426 103.597 49.0025 101.872 48.1233C100.148 47.2076 98.7389 46.081 97.6478 44.7434V62.8008H91.6294V19.8756H97.6478V24.1519ZM115.336 34.2895C115.336 32.2837 114.913 30.5588 114.069 29.1147C113.259 27.6373 112.168 26.5278 110.795 25.7886C109.482 25.0211 107.986 24.6201 106.465 24.6275C104.952 24.6275 103.509 25.0149 102.136 25.7886C100.799 26.5633 99.7074 27.69 98.8627 29.1685C98.0524 30.6459 97.6478 32.3891 97.6478 34.3949C97.6478 36.4018 98.0524 38.1611 98.8627 39.6752C99.7074 41.1537 100.799 42.2803 102.136 43.054C103.509 43.8288 104.952 44.2162 106.465 44.2162C108.015 44.2162 109.457 43.8288 110.795 43.054C112.168 42.2448 113.259 41.0827 114.069 39.5697C114.913 38.0557 115.336 36.2963 115.336 34.2895ZM153.76 19.8756V48.968H147.741V45.5354C146.791 46.7331 145.54 47.6832 143.992 48.387C142.461 49.0589 140.806 49.4007 139.134 49.3899C136.847 49.3899 134.787 48.9153 132.958 47.9641C131.161 47.0139 129.736 45.6064 128.68 43.7405C127.659 41.8746 127.149 39.6224 127.149 36.9818V19.8756H133.115V36.0843C133.115 38.6895 133.766 40.6963 135.069 42.1038C136.371 43.4769 138.149 44.1634 140.402 44.1634C142.654 44.1634 144.432 43.4769 145.734 42.1038C147.071 40.6963 147.741 38.6895 147.741 36.0843V19.8756H153.76ZM167.72 24.0992C168.6 22.6206 169.762 21.4768 171.205 20.6676C172.684 19.8229 174.426 19.4 176.433 19.4V25.6304H174.902C172.543 25.6304 170.748 26.2287 169.516 27.4253C168.319 28.6229 167.721 30.6986 167.721 33.6557V48.968H161.702V19.8756H167.72V24.0992ZM208.629 33.7084C208.629 34.7995 208.559 35.7852 208.418 36.6654H186.189C186.365 38.9886 187.228 40.8545 188.776 42.262C190.326 43.6706 192.226 44.3743 194.479 44.3743C197.716 44.3743 200.005 43.0185 201.343 40.309H207.837C206.956 42.9841 205.355 45.1835 203.032 46.9085C200.744 48.5979 197.893 49.4426 194.478 49.4426C191.698 49.4426 189.198 48.8271 186.981 47.595C184.798 46.3274 183.074 44.568 181.807 42.3147C180.575 40.027 179.959 37.3874 179.959 34.3949C179.959 31.4035 180.557 28.7811 181.754 26.5278C182.986 24.2401 184.693 22.4797 186.876 21.2476C189.093 20.0166 191.627 19.4 194.478 19.4C197.225 19.4 199.67 19.9983 201.817 21.1949C203.965 22.3925 205.637 24.0819 206.834 26.2642C208.03 28.4109 208.629 30.8923 208.629 33.7084ZM202.346 31.8081C202.31 29.5903 201.518 27.8126 199.97 26.4751C198.42 25.1376 196.502 24.4693 194.215 24.4693C192.138 24.4693 190.36 25.1376 188.882 26.4751C187.403 27.7771 186.523 29.5548 186.242 31.8081H202.346ZM228.069 24.7857H222.683V48.968H216.611V24.7857H213.179V19.8756H216.611V17.816C216.611 14.4727 217.491 12.0429 219.252 10.53C221.046 8.98155 223.845 8.20679 227.646 8.20679V13.2223C225.816 13.2223 224.531 13.5742 223.791 14.279C223.053 14.9472 222.683 16.1266 222.683 17.816V19.8756H228.069V24.7857ZM236.465 16.0211C235.374 16.0211 234.46 15.651 233.72 14.9117C232.981 14.1736 232.611 13.2578 232.611 12.1667C232.611 11.0756 232.981 10.1598 233.72 9.42058C234.46 8.68241 235.374 8.31224 236.465 8.31224C237.521 8.31224 238.419 8.68241 239.159 9.42058C239.897 10.1598 240.267 11.0756 240.267 12.1667C240.267 13.2578 239.897 14.1736 239.159 14.9117C238.419 15.651 237.521 16.0211 236.465 16.0211ZM239.422 19.8756V48.968H233.403V19.8756H239.422Z" fill="#84858F"/>
</svg>
