<svg width="187" height="25" viewBox="0 0 187 25" fill="none" xmlns="http://www.w3.org/2000/svg">
<g clip-path="url(#clip0_628_99322)">
<path d="M165.789 13.5249L163.584 24.0914H173.228C175.068 24.0914 176.781 23.428 178.364 22.0989C179.946 20.7705 180.936 19.1705 181.331 17.2997C181.608 15.9199 181.495 14.6218 181.021 13.5256H165.789V13.5249Z" fill="white"/>
<path d="M184.143 11.3925C185.112 10.2857 185.745 9.02839 186.042 7.6184C186.429 5.74755 186.11 4.14688 185.085 2.8192C184.062 1.49012 182.629 0.825928 180.789 0.825928H171.144L168.918 11.3925H184.143Z" fill="white"/>
<path d="M137.808 13.0172H133.792L135.219 5.82233H138.944C140.167 5.82233 141.107 6.06999 141.767 6.56321C142.426 7.05572 142.757 7.7966 142.757 8.78304C142.757 10.1452 142.325 11.1907 141.462 11.9211C140.598 12.6514 139.38 13.0172 137.808 13.0172ZM147.53 8.33907C147.53 6.3071 146.831 4.72754 145.434 3.6032C144.037 2.47745 142.077 1.91599 139.555 1.91599H131.261L127.185 22.6396H131.929L133.065 16.837H137.082L140.284 22.6396H145.26L141.708 16.2446C143.532 15.6726 144.957 14.6953 145.989 13.3142C147.014 11.9316 147.53 10.2739 147.53 8.33907ZM123.524 5.76393L124.311 1.91528H108.914L104.839 22.6389H120.614L121.4 18.7902H110.282L111.214 13.9938H120.702L121.43 10.2641H111.97L112.844 5.76393H123.524ZM91.6904 13.0172H87.7037L89.1299 5.82233H92.8255C94.049 5.82233 94.9848 6.06999 95.635 6.56321C96.2845 7.05572 96.6096 7.7966 96.6096 8.78304C96.6096 10.1452 96.1828 11.1907 95.3286 11.9211C94.4744 12.6521 93.2626 13.0172 91.6904 13.0172ZM93.4078 1.91528H85.1714L81.0968 22.6389H85.841L86.947 16.925H91.4871C93.5047 16.925 95.256 16.5802 96.7403 15.8886C98.2246 15.1984 99.3693 14.2049 100.174 12.9131C100.98 11.6213 101.382 10.1051 101.382 8.36862C101.382 6.33595 100.688 4.75146 99.3016 3.61657C97.9148 2.48238 95.9497 1.91528 93.4078 1.91528ZM73.4864 1.91528L63.5333 14.8234L58.4398 1.91528H54.5983L50.5237 22.6389H54.9469L57.3919 10.2043L61.5828 20.4479H63.6785L71.4494 10.3232L69.0625 22.6389H73.4864L77.532 1.91528H73.4864ZM34.5281 22.9942C40.2323 22.9942 43.7052 19.9054 44.9474 13.7279L47.2465 1.91528H42.6186L40.3485 13.4317C39.9605 15.3461 39.3394 16.7378 38.4859 17.6061C37.6323 18.475 36.4876 18.9098 35.0517 18.9098C33.7715 18.9098 32.7962 18.5995 32.1267 17.9776C31.4578 17.3556 31.123 16.4233 31.123 15.1787C31.123 14.6658 31.1812 14.0832 31.2973 13.4331L33.5674 1.91669H28.8233L26.5532 13.5217C26.3983 14.3506 26.3208 15.09 26.3208 15.7423C26.3208 17.9909 27.0484 19.764 28.5037 21.0565C29.959 22.349 31.9669 22.9942 34.5281 22.9942ZM11.0792 19.0273H5.52023L6.50932 13.9052H12.2142C14.2512 13.9052 15.27 14.6158 15.27 16.0371C15.27 17.0045 14.9013 17.744 14.164 18.2569C13.426 18.7705 12.3982 19.0273 11.0792 19.0273ZM12.9121 5.52682C14.9103 5.52682 15.9098 6.17834 15.9098 7.48069C15.9098 8.42843 15.5653 9.15383 14.8771 9.6569C14.1882 10.16 13.2227 10.4119 11.9811 10.4119H7.17885L8.13958 5.52682H12.9121ZM17.2198 11.9513C18.3452 11.4778 19.2326 10.7925 19.8827 9.89401C20.5329 8.99623 20.858 7.91551 20.858 6.65256C20.858 5.13281 20.2659 3.96344 19.0825 3.14446C17.899 2.32548 16.2107 1.91599 14.0181 1.91599H4.18116L0.106537 22.6389H10.788C13.5623 22.6389 15.7839 22.0865 17.4529 20.9812C19.1212 19.8773 19.9554 18.2477 19.9554 16.0976C19.9554 15.0893 19.7174 14.2359 19.2423 13.5351C18.7671 12.835 18.0927 12.3066 17.2198 11.9513Z" fill="white"/>
</g>
<defs>
<clipPath id="clip0_628_99322">
<rect width="186.091" height="23.2614" fill="white" transform="translate(0.106506 0.825928)"/>
</clipPath>
</defs>
</svg>
