<svg width="174" height="38" viewBox="0 0 174 38" fill="none" xmlns="http://www.w3.org/2000/svg">
<path d="M68.2615 12.2287C69.3188 12.8679 70.2135 13.7466 70.7826 14.945C71.4333 16.1433 71.7586 17.5813 71.7586 19.179C71.7586 20.7768 71.4333 22.135 70.7014 23.3333C70.0507 24.5316 69.0748 25.4104 67.8548 25.9695C66.6349 26.6087 65.1709 26.9283 63.6257 26.9283C62.7311 26.9283 61.9177 26.7685 61.1044 26.449C60.2911 26.2094 59.5591 25.7299 58.9898 25.1708V33.4792H54.2727V11.5896H58.3391L58.7459 13.3472C60.5351 11.9092 62.487 11.1902 64.5202 11.1902C65.9028 11.1902 67.2041 11.5097 68.2615 12.2287ZM65.6589 22.135C66.4722 21.416 66.8788 20.4572 66.8788 19.2589C66.8788 18.0607 66.4722 17.102 65.7402 16.3031C65.0083 15.5042 64.0323 15.1846 62.9751 15.1846C62.0804 15.1846 61.267 15.3444 60.6164 15.7439C59.9657 16.0634 59.4778 16.6226 59.0712 17.3417V20.9366C59.3151 21.6557 59.8032 22.2148 60.3725 22.6143C61.0232 23.0137 61.7551 23.2534 62.6498 23.2534C63.8696 23.2534 64.8456 22.854 65.6589 22.135Z" fill="white"/>
<path d="M74.5305 15.0194C75.2626 13.901 76.2384 12.9423 77.5396 12.3032C78.8409 11.6641 80.305 11.2646 81.9316 11.2646C83.5582 11.2646 85.0221 11.5842 86.3233 12.3032C87.5433 12.9423 88.5193 13.901 89.2512 15.0993C89.9832 16.2977 90.3085 17.5759 90.3085 19.0938C90.3085 20.6117 89.9832 21.8899 89.2512 23.0882C88.5193 24.2865 87.6246 25.2451 86.3233 25.8843C85.1033 26.5234 83.5582 26.9229 81.9316 26.9229C80.305 26.9229 78.8409 26.6033 77.5396 25.9643C76.2384 25.3251 75.2626 24.4464 74.5305 23.2479C73.8798 22.0496 73.4732 20.6915 73.4732 19.0938C73.4732 17.5759 73.8798 16.2178 74.5305 15.0194ZM79.329 21.9697C79.9796 22.7686 80.8743 23.0882 81.9316 23.0882C82.9888 23.0882 83.8835 22.6888 84.5342 21.9697C85.1848 21.2507 85.5101 20.2121 85.5101 19.0938C85.5101 17.8955 85.1848 16.9368 84.5342 16.2178C83.8021 15.4189 82.9888 15.0194 81.8503 15.0194C80.7929 15.0194 79.9796 15.4189 79.2477 16.1379C78.5971 16.9368 78.2717 17.8955 78.2717 19.0938C78.2717 20.2121 78.5971 21.1709 79.329 21.9697Z" fill="white"/>
<path d="M97.9528 0.245605V26.5291H93.2357V0.245605H97.9528Z" fill="white"/>
<path d="M117.308 11.9871L107.711 33.557H103.157L106.735 25.8079L99.9034 11.9871H105.271L109.175 20.615L113.079 11.9871H117.308Z" fill="white"/>
<path d="M135.36 11.9837V26.5234C135.36 27.8815 134.953 29.1598 134.14 30.2783C133.327 31.3966 132.269 32.2755 130.887 32.9145C129.504 33.5537 128.04 33.8731 126.413 33.8731C125.193 33.8731 124.136 33.7134 123.242 33.4738C122.347 33.1542 121.615 32.8346 121.046 32.5151C120.395 32.1156 119.744 31.6363 119.012 30.9972L121.778 27.8016C122.428 28.4408 123.16 28.9201 123.811 29.2397C124.462 29.5591 125.356 29.7988 126.332 29.7988C127.552 29.7988 128.528 29.4794 129.341 28.9201C130.155 28.3608 130.561 27.4822 130.561 26.4436V24.3664C130.073 25.0854 129.423 25.7246 128.447 26.2039C127.471 26.6832 126.332 26.9229 125.031 26.9229C123.73 26.9229 122.428 26.6033 121.29 25.8843C120.151 25.2451 119.256 24.2865 118.524 23.0882C117.874 21.8899 117.467 20.6117 117.467 19.1737C117.467 17.7356 117.793 16.3775 118.524 15.1792C119.256 13.9809 120.151 13.0222 121.371 12.3032C122.51 11.5842 123.73 11.2646 125.031 11.2646C126.251 11.2646 127.308 11.4244 128.284 11.744C129.26 12.0635 129.992 12.5429 130.48 13.1021L130.968 11.9837H135.36ZM130.561 20.9313V17.3362C130.236 16.6172 129.748 16.058 129.016 15.6585C128.284 15.2591 127.471 15.0194 126.495 15.0194C125.356 15.0194 124.38 15.4189 123.567 16.1379C122.754 16.8569 122.347 17.8156 122.347 19.0138C122.347 20.1324 122.754 21.1709 123.567 21.9697C124.38 22.7686 125.356 23.1681 126.495 23.1681C128.365 23.0882 129.748 22.3692 130.561 20.9313Z" fill="white"/>
<path d="M139.267 15.0248C139.999 13.8265 140.975 12.9477 142.276 12.2287C143.578 11.5896 145.042 11.1902 146.668 11.1902C148.295 11.1902 149.759 11.5097 151.06 12.2287C152.28 12.8679 153.256 13.8265 153.988 15.0248C154.639 16.2232 155.045 17.5014 155.045 19.0193C155.045 20.5372 154.72 21.8154 153.988 23.0137C153.337 24.212 152.361 25.1708 151.06 25.8098C149.84 26.449 148.295 26.8484 146.668 26.8484C145.042 26.8484 143.578 26.5288 142.276 25.8898C140.975 25.2506 139.999 24.3719 139.267 23.1736C138.535 21.9751 138.21 20.6171 138.21 18.9393C138.21 17.5813 138.535 16.2232 139.267 15.0248ZM143.984 21.9751C144.635 22.774 145.53 23.0936 146.587 23.0936C147.644 23.0936 148.539 22.6941 149.189 21.9751C149.84 21.2562 150.165 20.2176 150.165 19.0992C150.165 17.9008 149.84 16.9422 149.189 16.2232C148.539 15.5042 147.644 15.1047 146.587 15.1047C145.53 15.1047 144.716 15.5042 143.984 16.2232C143.252 16.9422 142.927 17.9807 142.927 19.0992C143.009 20.2176 143.334 21.1762 143.984 21.9751Z" fill="white"/>
<path d="M171.719 12.463C172.695 13.2619 173.101 14.3004 173.181 15.5787V26.5234H168.384V17.3362C168.302 15.8982 167.571 15.1792 166.188 15.1792C165.131 15.1792 164.236 15.6585 163.585 16.6971C162.935 17.7356 162.609 19.0138 162.609 20.5317V26.5234H157.892V11.9837H162.203L162.528 14.3004C163.097 13.3418 163.829 12.6228 164.805 12.0635C165.781 11.5043 166.92 11.2646 168.221 11.2646C169.603 11.2646 170.824 11.6641 171.719 12.463Z" fill="white"/>
<path d="M34.1086 11.749C33.2952 11.2697 32.238 11.2697 31.3435 11.749L24.9996 15.4239L20.6891 17.8206L14.3454 21.4954C13.5321 21.9747 12.4748 21.9747 11.5802 21.4954L6.53774 18.6194C5.72443 18.1401 5.15513 17.2614 5.15513 16.3027V10.6306C5.15513 9.6719 5.64311 8.79312 6.53774 8.31379L11.4989 5.51769C12.3122 5.03835 13.3695 5.03835 14.2641 5.51769L19.2253 8.31379C20.0385 8.79312 20.6078 9.6719 20.6078 10.6306V14.3055L24.9183 11.8289V8.15402C24.9183 7.19534 24.4304 6.31657 23.5357 5.83724L14.3454 0.564578C13.5321 0.0852448 12.4748 0.0852448 11.5802 0.564578L2.22725 5.83724C1.33261 6.31657 0.844635 7.19534 0.844635 8.15402V18.7793C0.844635 19.7379 1.33261 20.6167 2.22725 21.0961L11.5802 26.3687C12.3935 26.848 13.4508 26.848 14.3454 26.3687L20.6891 22.7737L24.9996 20.2971L31.3435 16.7021C32.1567 16.2228 33.2139 16.2228 34.1086 16.7021L39.0697 19.4982C39.883 19.9775 40.4523 20.8564 40.4523 21.815V27.487C40.4523 28.4458 39.9644 29.3245 39.0697 29.8039L34.1086 32.6799C33.2952 33.1592 32.238 33.1592 31.3435 32.6799L26.3823 29.8838C25.5689 29.4045 24.9996 28.5256 24.9996 27.567V23.8922L20.6891 26.3687V30.0435C20.6891 31.0021 21.1772 31.881 22.0717 32.3603L31.4247 37.633C32.238 38.1123 33.2952 38.1123 34.1899 37.633L43.543 32.3603C44.3562 31.881 44.9255 31.0021 44.9255 30.0435V19.4183C44.9255 18.4597 44.4375 17.581 43.543 17.1016L34.1086 11.749Z" fill="white"/>
</svg>
