<svg width="201" height="48" viewBox="0 0 201 48" fill="none" xmlns="http://www.w3.org/2000/svg">
<path d="M70.39 18.3075C70.298 17.4904 69.9181 16.8573 69.2506 16.4085C68.583 15.9538 67.7429 15.7265 66.73 15.7265C66.0049 15.7265 65.3777 15.8416 64.8482 16.0718C64.3188 16.2962 63.9073 16.607 63.6138 17.0041C63.3261 17.3954 63.1822 17.8414 63.1822 18.3421C63.1822 18.7622 63.28 19.1247 63.4757 19.4297C63.6771 19.7347 63.939 19.9908 64.2612 20.198C64.5893 20.3994 64.9403 20.5691 65.3143 20.7073C65.6884 20.8396 66.0481 20.949 66.3934 21.0353L68.1198 21.4842C68.6838 21.6223 69.2621 21.8093 69.8548 22.0452C70.4476 22.2812 70.9972 22.5919 71.5036 22.9775C72.01 23.3631 72.4186 23.8407 72.7293 24.4104C73.0459 24.9802 73.2041 25.6621 73.2041 26.4563C73.2041 27.4576 72.9451 28.3467 72.4272 29.1236C71.915 29.9005 71.1698 30.5134 70.1915 30.9622C69.2189 31.4111 68.0421 31.6355 66.661 31.6355C65.3374 31.6355 64.1922 31.4255 63.2254 31.0054C62.2586 30.5853 61.5018 29.9897 60.9551 29.2185C60.4084 28.4416 60.1063 27.5209 60.0488 26.4563H62.7247C62.7765 27.095 62.9837 27.6273 63.3462 28.0532C63.7145 28.4733 64.1835 28.7869 64.7533 28.9941C65.3287 29.1955 65.9589 29.2962 66.6437 29.2962C67.3976 29.2962 68.068 29.1783 68.655 28.9423C69.2477 28.7006 69.7139 28.3668 70.0534 27.941C70.3929 27.5094 70.5627 27.0058 70.5627 26.4304C70.5627 25.9067 70.4131 25.4779 70.1138 25.1442C69.8203 24.8104 69.4204 24.5342 68.9139 24.3155C68.4133 24.0968 67.8464 23.904 67.2134 23.7371L65.1244 23.1674C63.7088 22.7818 62.5866 22.215 61.7579 21.4669C60.935 20.7188 60.5235 19.729 60.5235 18.4974C60.5235 17.4788 60.7997 16.5897 61.3522 15.8301C61.9047 15.0705 62.6528 14.4806 63.5966 14.0605C64.5403 13.6347 65.605 13.4217 66.7904 13.4217C67.9874 13.4217 69.0434 13.6318 69.9584 14.0519C70.8792 14.472 71.6043 15.0503 72.1337 15.7869C72.6632 16.5178 72.9394 17.358 72.9624 18.3075H70.39ZM78.8223 31.342V13.6634H89.906V15.9596H81.4897V21.346H89.3276V23.6336H81.4897V29.0459H90.0096V31.342H78.8223ZM110.169 13.6634V31.342H107.717L98.731 18.3766H98.567V31.342H95.8997V13.6634H98.3685L107.363 26.6462H107.527V13.6634H110.169ZM115.619 15.9596V13.6634H129.3V15.9596H123.784V31.342H121.126V15.9596H115.619ZM137.422 13.6634V31.342H134.755V13.6634H137.422ZM158.006 13.6634V31.342H155.555L146.569 18.3766H146.405V31.342H143.737V13.6634H146.206L155.201 26.6462H155.365V13.6634H158.006ZM164.328 31.342V13.6634H175.412V15.9596H166.995V21.346H174.833V23.6336H166.995V29.0459H175.515V31.342H164.328ZM181.405 31.342V13.6634H184.073V29.0459H192.083V31.342H181.405Z" fill="white"/>
<path d="M42.5289 1.80347L42.5255 19.0146C42.5255 22.5982 42.8478 29.2906 39.7875 34.4165C35.8677 40.9842 28.7351 45.9714 21.8209 46.5675C14.9032 45.9714 7.77057 40.9876 3.85423 34.4165C0.793946 29.2906 1.11626 22.5982 1.11626 19.0146V1.80347H42.5289Z" stroke="white" stroke-width="1.92145" stroke-miterlimit="10"/>
<path d="M36.7777 22.8113C36.7951 21.8721 36.7777 21.0299 36.7777 20.3437L36.7812 7.73169H34.3378H16.6623H12.9297H10.5244H6.86108V16.6734L29.9813 33.9642C29.4233 34.5153 28.8134 35.0455 28.1514 35.5342L6.86108 19.5812V20.3402C6.86108 22.9673 6.62887 27.8714 8.83658 31.6283C11.3042 35.8253 15.5394 39.1386 19.8959 40.2096C20.5371 40.3655 21.1782 40.4764 21.8194 40.5319C24.6821 40.2823 27.5969 38.9757 30.0992 37.0002C30.723 36.5046 31.3226 35.9709 31.891 35.399C33.0104 34.2692 34.0016 32.9973 34.8022 31.6317C35.5335 30.391 35.9945 29.0255 36.2891 27.66C36.4485 26.9217 36.5559 26.1835 36.6322 25.4626L16.1598 10.1473H19.8855L36.7777 22.8113Z" fill="white"/>
</svg>
