<svg width="156" height="62" viewBox="0 0 156 62" fill="none" xmlns="http://www.w3.org/2000/svg">
<path d="M78.3971 21.1996V40.8651C78.3961 40.9393 78.3663 41.0102 78.3139 41.0627C78.2615 41.1152 78.1908 41.1451 78.1168 41.146H76.076C75.6076 41.1464 75.1466 41.029 74.7352 40.8045C74.3238 40.58 73.9752 40.2557 73.7213 39.8612L64.4594 25.5148L64.7771 32.6805V40.8651C64.7761 40.9393 64.7462 41.0102 64.6939 41.0627C64.6415 41.1152 64.5708 41.1451 64.4967 41.146H61.7981C61.7241 41.1451 61.6534 41.1152 61.601 41.0627C61.5486 41.0102 61.5188 40.9393 61.5178 40.8651V21.1996C61.5188 21.1254 61.5486 21.0545 61.601 21.0021C61.6534 20.9496 61.7241 20.9197 61.7981 20.9187H63.8277C64.2956 20.919 64.756 21.0362 65.1672 21.26C65.5784 21.4837 65.9273 21.8067 66.1824 22.1998L75.4443 36.5237L75.1565 29.3842V21.1996C75.1565 21.1251 75.1861 21.0537 75.2386 21.001C75.2912 20.9483 75.3625 20.9187 75.4369 20.9187H78.1354C78.2062 20.9243 78.2723 20.9563 78.3207 21.0083C78.3691 21.0602 78.3964 21.1285 78.3971 21.1996Z" fill="white"/>
<path d="M105.976 41.1463H103.121C103.076 41.1459 103.032 41.1348 102.993 41.1139C102.953 41.0931 102.919 41.0631 102.894 41.0265C102.868 40.9898 102.851 40.9476 102.845 40.9033C102.839 40.859 102.844 40.8139 102.859 40.7717L110.424 21.1887C110.456 21.1067 110.513 21.0367 110.587 20.9884C110.66 20.9401 110.747 20.9159 110.835 20.919H114.412C114.497 20.9197 114.579 20.9457 114.649 20.9938C114.719 21.0418 114.773 21.1097 114.804 21.1887L122.347 40.7717C122.362 40.8139 122.367 40.859 122.361 40.9033C122.355 40.9476 122.338 40.9898 122.312 41.0265C122.287 41.0631 122.253 41.0931 122.213 41.1139C122.174 41.1348 122.13 41.1459 122.085 41.1463H119.23C119.173 41.1466 119.117 41.1295 119.069 41.0975C119.022 41.0654 118.986 41.0197 118.965 40.9665L112.868 24.8595C112.849 24.8053 112.813 24.7585 112.766 24.7253C112.719 24.6922 112.662 24.6745 112.605 24.6745C112.547 24.6745 112.491 24.6922 112.444 24.7253C112.397 24.7585 112.361 24.8053 112.341 24.8595L106.245 40.9665C106.224 41.0203 106.187 41.0664 106.139 41.0985C106.091 41.1307 106.034 41.1473 105.976 41.1463Z" fill="white"/>
<path d="M142.175 40.6928L136.502 33.4297C139.705 32.8229 141.577 30.6578 141.577 27.3353C141.577 23.5183 139.099 20.9187 134.715 20.9187H126.802C126.691 20.9187 126.585 20.9629 126.506 21.0416C126.428 21.1203 126.384 21.227 126.384 21.3382C126.384 21.6924 126.453 22.0431 126.588 22.3703C126.724 22.6975 126.922 22.9948 127.172 23.2453C127.422 23.4957 127.718 23.6944 128.045 23.8299C128.371 23.9654 128.721 24.0352 129.075 24.0352H134.386C137.036 24.0352 138.307 25.3949 138.307 27.3577C138.307 29.3205 137.066 30.729 134.386 30.729H126.802C126.691 30.7299 126.584 30.775 126.506 30.8542C126.428 30.9335 126.384 31.0406 126.384 31.1522V40.8913C126.384 40.9658 126.413 41.0373 126.466 41.09C126.518 41.1427 126.59 41.1723 126.664 41.1723H129.363C129.437 41.1713 129.507 41.1414 129.56 41.0889C129.612 41.0364 129.642 40.9655 129.643 40.8913V33.6057H132.756L137.679 40.0448C137.943 40.3893 138.282 40.6681 138.671 40.8591C139.06 41.0502 139.488 41.1484 139.921 41.146H141.97C142.021 41.1432 142.07 41.1264 142.112 41.0974C142.155 41.0685 142.188 41.0285 142.209 40.9818C142.231 40.9351 142.239 40.8835 142.233 40.8325C142.227 40.7816 142.207 40.7332 142.175 40.6928Z" fill="white"/>
<path d="M97.4433 20.9187H84.9222C84.823 20.9187 84.728 20.9582 84.6579 21.0284C84.5878 21.0987 84.5484 21.1939 84.5484 21.2933C84.5484 22.0215 84.837 22.7199 85.3508 23.2348C85.8646 23.7497 86.5615 24.039 87.2881 24.039H97.4433C97.4803 24.0395 97.5169 24.0325 97.5512 24.0186C97.5854 24.0047 97.6165 23.984 97.6427 23.9578C97.6688 23.9316 97.6894 23.9004 97.7033 23.8661C97.7172 23.8318 97.7242 23.7951 97.7236 23.758V21.1996C97.7236 21.1251 97.6941 21.0537 97.6415 21.001C97.589 20.9483 97.5177 20.9187 97.4433 20.9187ZM97.4433 38.0258H88.0992C88.0251 38.0248 87.9544 37.9949 87.902 37.9424C87.8497 37.8899 87.8198 37.819 87.8188 37.7448V32.673C87.8188 32.5985 87.8484 32.5271 87.9009 32.4744C87.9535 32.4217 88.0248 32.3921 88.0992 32.3921H96.7369C96.8112 32.3921 96.8826 32.3625 96.9351 32.3098C96.9877 32.2571 97.0172 32.1857 97.0172 32.1112V29.534C97.0172 29.4595 96.9877 29.3881 96.9351 29.3354C96.8826 29.2827 96.8112 29.2531 96.7369 29.2531H84.967C84.8556 29.2541 84.7492 29.2991 84.6708 29.3784C84.5924 29.4577 84.5484 29.5648 84.5484 29.6764V40.7078C84.5479 40.7632 84.5584 40.8181 84.5792 40.8695C84.6 40.9208 84.6307 40.9675 84.6697 41.0068C84.7086 41.0462 84.7549 41.0774 84.8059 41.0988C84.857 41.1201 84.9117 41.1311 84.967 41.131H97.4433C97.5177 41.131 97.589 41.1014 97.6415 41.0488C97.6941 40.9961 97.7236 40.9246 97.7236 40.8501V38.2917C97.7207 38.2195 97.6898 38.1513 97.6374 38.1016C97.5851 38.052 97.5154 38.0247 97.4433 38.0258Z" fill="white"/>
<path d="M41.4058 15.8882L34.3715 26.3502C34.2575 26.5012 34.2048 26.6899 34.224 26.8782C34.2432 27.0666 34.3328 27.2407 34.4749 27.3655C34.617 27.4903 34.8009 27.5566 34.9898 27.551C35.1786 27.5454 35.3584 27.4684 35.4928 27.3353L42.415 21.3421C42.4549 21.3054 42.5047 21.2813 42.5581 21.2727C42.6116 21.2641 42.6664 21.2714 42.7158 21.2937C42.7651 21.3161 42.8068 21.3524 42.8357 21.3983C42.8647 21.4442 42.8795 21.4976 42.8784 21.5518V40.3895C42.8779 40.4467 42.8599 40.5023 42.8269 40.549C42.794 40.5957 42.7476 40.6312 42.6939 40.6507C42.6403 40.6703 42.582 40.6729 42.5268 40.6584C42.4716 40.6438 42.4222 40.6127 42.3851 40.5693L21.4542 15.4724C21.12 15.0695 20.702 14.7447 20.2294 14.5208C19.7567 14.2969 19.241 14.1794 18.7182 14.1763H17.9894C17.0387 14.1763 16.127 14.5548 15.4548 15.2285C14.7826 15.9022 14.405 16.8158 14.405 17.7686V44.2963C14.405 45.2491 14.7826 46.1628 15.4548 46.8364C16.127 47.5101 17.0387 47.8886 17.9894 47.8886C18.6019 47.8885 19.2042 47.7311 19.7388 47.4314C20.2734 47.1318 20.7224 46.6998 21.043 46.1767L28.0773 35.7147C28.1913 35.5637 28.244 35.375 28.2248 35.1867C28.2056 34.9983 28.116 34.8242 27.9739 34.6994C27.8319 34.5746 27.6479 34.5083 27.4591 34.5139C27.2702 34.5195 27.0905 34.5965 26.956 34.7296L20.0339 40.7228C19.994 40.7595 19.9442 40.7837 19.8907 40.7922C19.8372 40.8008 19.7824 40.7935 19.7331 40.7712C19.6837 40.7488 19.642 40.7125 19.6131 40.6666C19.5842 40.6207 19.5693 40.5673 19.5704 40.5131V21.6942C19.571 21.637 19.5889 21.5813 19.6219 21.5346C19.6549 21.4879 19.7013 21.4525 19.7549 21.4329C19.8085 21.4134 19.8669 21.4107 19.922 21.4253C19.9772 21.4398 20.0267 21.4709 20.0638 21.5144L40.9947 46.6112C41.3314 47.0105 41.7509 47.3314 42.2241 47.5513C42.6973 47.7713 43.2127 47.8851 43.7344 47.8848H44.4819C44.9526 47.8848 45.4187 47.7919 45.8536 47.6114C46.2885 47.4309 46.6836 47.1663 47.0165 46.8327C47.3493 46.4991 47.6133 46.1031 47.7935 45.6673C47.9736 45.2315 48.0663 44.7643 48.0663 44.2926V17.7686C48.0663 17.2949 47.9729 16.826 47.7913 16.3887C47.6098 15.9514 47.3438 15.5544 47.0085 15.2205C46.6733 14.8866 46.2755 14.6225 45.8381 14.4433C45.4006 14.2641 44.9321 14.1734 44.4595 14.1763C43.8469 14.1764 43.2446 14.3338 42.7101 14.6335C42.1755 14.9332 41.7264 15.3651 41.4058 15.8882Z" fill="white"/>
</svg>
