<svg width="193" height="78" viewBox="0 0 193 78" fill="none" xmlns="http://www.w3.org/2000/svg">
<path d="M36.3279 32.6787C34.1387 32.6787 31.9496 33.0382 29.882 33.8768C27.8145 34.6556 25.9902 35.9135 24.4091 37.4111C22.8281 38.9087 21.5511 40.7658 20.6997 42.7426C19.8484 44.7793 19.3619 46.9359 19.3619 49.1523C19.3619 51.3688 19.7268 53.5253 20.5781 55.622C21.4294 57.6587 22.6456 59.5756 24.2267 61.1331C25.8078 62.6906 27.6929 64.0085 29.7604 64.8472C31.828 65.7457 34.0779 66.1651 36.3887 66.225C34.1387 66.225 31.828 65.8656 29.6996 65.0269C27.5713 64.1882 25.6253 62.9303 23.9835 61.3728C22.3416 59.8152 21.0038 57.8983 20.0916 55.8017C19.1795 53.705 18.693 51.4287 18.693 49.1523C18.693 46.876 19.1187 44.5996 19.97 42.4431C20.8213 40.3464 22.1592 38.3696 23.7402 36.6923C25.3821 35.0749 27.328 33.6971 29.5172 32.7985C31.6455 31.9 34.0171 31.4207 36.3887 31.3608V32.6787H36.3279Z" fill="white"/>
<path d="M36.3278 34.7197C34.3819 34.7197 32.4968 35.0193 30.6725 35.7381C28.909 36.457 27.2063 37.4753 25.8685 38.8531C24.4699 40.171 23.3753 41.7884 22.5848 43.5256C21.7942 45.2629 21.4294 47.1798 21.3686 49.1566C21.3686 51.0735 21.6726 53.0504 22.4023 54.8475C23.132 56.6446 24.2266 58.3219 25.6253 59.6997C27.0239 61.0775 28.6658 62.2157 30.4901 62.9944C32.3144 63.7732 34.3211 64.1925 36.3278 64.1925C34.3211 64.1925 32.3144 63.8331 30.4292 63.1143C28.5441 62.3954 26.8415 61.2572 25.382 59.8794C23.9226 58.5016 22.7672 56.8243 21.9767 54.9673C21.1861 53.1103 20.7605 51.1334 20.6996 49.0967C20.6996 47.06 21.0645 45.0831 21.7942 43.1662C22.5239 41.3092 23.6793 39.572 25.1388 38.0744C26.5982 36.6367 28.3009 35.4386 30.2468 34.6598C32.1319 33.8811 34.1995 33.4019 36.3278 33.4019V34.7197Z" fill="white"/>
<path d="M36.327 36.7524C34.6851 36.7524 33.0432 36.992 31.4622 37.591C29.9419 38.1901 28.4825 39.0886 27.3271 40.2268C26.1109 41.365 25.1379 42.7428 24.469 44.2404C23.8001 45.738 23.4352 47.4153 23.4352 49.0926C23.4352 50.7699 23.7393 52.4472 24.3474 54.0047C24.9555 55.5622 25.9284 56.9999 27.0838 58.198C28.3 59.3961 29.6987 60.4145 31.2797 61.0734C32.8608 61.7324 34.5635 62.0918 36.327 62.1517C34.6243 62.1517 32.8608 61.8522 31.2189 61.2531C29.577 60.5942 28.1176 59.6956 26.8406 58.4975C25.5636 57.2995 24.5906 55.8618 23.8609 54.2443C23.1312 52.6269 22.7663 50.8897 22.7663 49.1525C22.7663 47.4153 23.0704 45.6781 23.7393 44.0008C24.4082 42.3833 25.3812 40.8857 26.6582 39.6278C27.9352 38.3698 29.3946 37.3514 31.0365 36.6326C32.6784 35.9137 34.5027 35.5543 36.327 35.4944C36.327 35.4944 36.327 36.7524 36.327 36.7524Z" fill="white"/>
<path d="M36.3251 38.7844C34.9264 38.7844 33.5886 39.0241 32.3116 39.5033C31.0346 39.9825 29.8184 40.7613 28.8454 41.7197C27.8725 42.6782 27.0211 43.8164 26.4738 45.0744C25.9265 46.3323 25.6225 47.7101 25.5617 49.0879C25.5617 50.4657 25.8049 51.9034 26.2914 53.1614C26.8387 54.4793 27.5684 55.6774 28.6022 56.6957C29.5751 57.7141 30.7913 58.5528 32.1292 59.0919C33.467 59.6909 34.8656 59.9905 36.3251 59.9905C34.8656 59.9905 33.4062 59.7508 32.0684 59.2117C30.7305 58.6726 29.4535 57.8938 28.3589 56.8755C27.3252 55.8571 26.413 54.659 25.8657 53.2812C25.2576 51.9633 24.9536 50.4657 24.9536 49.028C24.9536 47.5304 25.1968 46.0927 25.7441 44.7149C26.2914 43.3371 27.1427 42.0792 28.1765 41.0009C29.2103 39.9226 30.4873 39.0241 31.8859 38.425C33.2846 37.826 34.8048 37.5265 36.3251 37.4666V38.7844Z" fill="white"/>
<path d="M36.3266 40.9484C35.232 40.9484 34.1375 41.1281 33.1037 41.4875C32.0699 41.8469 31.1578 42.4459 30.3672 43.2247C29.5767 44.0035 28.9078 44.902 28.4821 45.8605C28.0565 46.8788 27.8132 47.9571 27.7524 49.0953C27.7524 50.1736 27.9348 51.3117 28.3605 52.39C28.7862 53.4084 29.3943 54.4268 30.1848 55.2055C30.9753 56.0442 31.9483 56.7031 32.9821 57.1224C34.0158 57.6017 35.1712 57.8413 36.3874 57.8413C35.232 57.8413 34.0158 57.6616 32.9213 57.2422C31.8267 56.8229 30.7929 56.164 29.9416 55.3852C29.0902 54.6065 28.3605 53.5881 27.874 52.5098C27.3875 51.4316 27.1443 50.2335 27.0835 49.0354C27.0835 47.8373 27.2659 46.6392 27.6916 45.5011C28.1173 44.3629 28.7862 43.3445 29.6375 42.446C30.4889 41.5474 31.5226 40.8884 32.678 40.3493C33.8334 39.8701 35.0496 39.5706 36.3266 39.5706C36.3266 39.5706 36.3266 40.9484 36.3266 40.9484Z" fill="white"/>
<path d="M36.3298 43.0996C35.5392 43.0996 34.7487 43.2194 33.9582 43.459C33.2284 43.7585 32.4987 44.1779 31.8906 44.717C31.2825 45.2561 30.796 45.9151 30.492 46.6938C30.1271 47.4127 29.9447 48.2513 29.9447 49.09C29.9447 49.9287 30.0663 50.7673 30.3704 51.5461C30.6744 52.3248 31.1609 53.0437 31.7082 53.7026C32.3163 54.3017 32.9852 54.8408 33.8366 55.2002C34.6271 55.5596 35.4784 55.7394 36.3906 55.7993C35.5392 55.7993 34.6271 55.6794 33.7757 55.3799C32.9244 55.0804 32.1947 54.6012 31.5258 54.0021C30.8569 53.4031 30.3096 52.6243 29.9447 51.8456C29.5798 51.0069 29.3366 50.1084 29.3366 49.2098C29.3366 48.3113 29.4582 47.4127 29.8231 46.5141C30.1271 45.6755 30.6744 44.8368 31.2825 44.1779C31.9514 43.5189 32.742 42.9798 33.5933 42.5605C34.4446 42.201 35.4176 41.9614 36.3906 41.9614L36.3298 43.0996Z" fill="white"/>
<path d="M36.3279 45.3125C35.2941 45.2526 34.2603 45.612 33.4698 46.3309C32.6793 47.0497 32.1928 48.0681 32.132 49.1463C32.132 49.6855 32.1928 50.2246 32.3752 50.7638C32.5576 51.3029 32.8617 51.7821 33.2265 52.2015C33.5914 52.6208 34.0779 52.9802 34.6252 53.2198C35.1725 53.4594 35.7198 53.5792 36.3279 53.6391C35.7198 53.6391 35.1117 53.5792 34.5644 53.3995C34.0171 53.2198 33.4698 52.8604 33.0441 52.501C32.6184 52.0816 32.1928 51.6024 31.9495 51.0633C31.7063 50.5241 31.5239 49.9251 31.5239 49.2662C31.5239 48.6671 31.5847 48.0082 31.8279 47.4091C32.0712 46.8101 32.3752 46.271 32.8617 45.7917C33.2874 45.3125 33.8346 44.9531 34.4427 44.6536C35.0508 44.354 35.7198 44.2342 36.3887 44.1743L36.3279 45.3125Z" fill="white"/>
<path d="M36.3289 47.5332C35.9032 47.4733 35.4775 47.5931 35.1127 47.8926C34.7478 48.1922 34.5046 48.6115 34.4438 49.0907C34.3829 49.57 34.5654 50.1091 34.8694 50.5284C35.2343 50.9478 35.7816 51.2473 36.3289 51.3072C35.7208 51.3671 35.1127 51.1874 34.6262 50.768C34.1397 50.3487 33.8357 49.7497 33.7748 49.0907C33.714 48.4318 33.9573 47.7129 34.3829 47.1738C34.8694 46.6347 35.5383 46.2752 36.3289 46.2153V47.5332Z" fill="white"/>
<path d="M44.4758 44.8981C46.665 44.8981 48.8542 44.5386 50.9217 43.7C52.9892 42.9212 54.8135 41.6632 56.3946 40.1656C57.9757 38.668 59.2527 36.811 60.104 34.8342C60.9554 32.7974 61.4418 30.6409 61.4418 28.4245C61.4418 26.208 61.077 24.0515 60.2256 21.9548C59.3743 19.9181 58.1581 18.0012 56.577 16.4436C54.996 14.8861 53.1109 13.5683 51.0433 12.7296C48.9758 11.831 46.7258 11.4117 44.415 11.3518C46.665 11.3518 48.9758 11.7112 51.1041 12.5499C53.2325 13.3885 55.1784 14.6465 56.8203 16.204C58.4621 17.7615 59.8 19.6785 60.7121 21.7751C61.6243 23.8717 62.1107 26.1481 62.1107 28.4245C62.1107 30.7008 61.6851 32.9772 60.8337 35.1337C59.9824 37.2303 58.6446 39.2072 57.0635 40.8845C55.4216 42.5019 53.4757 43.8797 51.2866 44.7782C49.1582 45.6768 46.7866 46.156 44.415 46.2159L44.4758 44.8981Z" fill="white"/>
<path d="M44.4752 42.8658C46.4211 42.8658 48.3062 42.5663 50.1305 41.8475C51.894 41.1286 53.5967 40.1103 54.9345 38.7325C56.3331 37.4146 57.4277 35.7972 58.2182 34.06C59.0088 32.3227 59.3736 30.4058 59.4345 28.429C59.4345 26.512 59.1304 24.5352 58.4007 22.7381C57.671 20.941 56.5764 19.2637 55.1777 17.8859C53.7791 16.5081 52.1372 15.3699 50.3129 14.5911C48.4886 13.8124 46.4819 13.3931 44.4752 13.3931C46.4819 13.3931 48.4886 13.7525 50.3738 14.4713C52.2589 15.1902 53.9615 16.3284 55.421 17.7062C56.8804 19.0839 58.0358 20.7613 58.8263 22.6183C59.6169 24.4753 60.0425 26.4521 60.1034 28.4889C60.1034 30.5256 59.7385 32.5025 59.0088 34.4194C58.2791 36.2764 57.1237 38.0136 55.6642 39.5112C54.2048 40.9489 52.5021 42.147 50.5562 42.9258C48.6711 43.7045 46.6035 44.1837 44.4752 44.1837V42.8658Z" fill="white"/>
<path d="M44.4752 40.8278C46.1171 40.8278 47.7589 40.5881 49.34 39.9891C50.8602 39.3901 52.3197 38.4915 53.4751 37.3533C54.6913 36.2152 55.6642 34.8374 56.3331 33.3398C57.0021 31.8422 57.3669 30.1649 57.3669 28.4875C57.3669 26.8102 57.0629 25.1329 56.4548 23.5754C55.8467 22.0179 54.8737 20.5802 53.7183 19.3821C52.5021 18.1841 51.1035 17.1657 49.5224 16.5067C47.9414 15.8478 46.2387 15.4884 44.4752 15.4285C46.1779 15.4285 47.9414 15.728 49.5832 16.327C51.2251 16.986 52.6845 17.8845 53.9616 19.0826C55.2386 20.2807 56.2115 21.7184 56.9412 23.3358C57.671 24.9532 58.0358 26.6904 58.0358 28.4276C58.0358 30.1649 57.7318 31.9021 57.0629 33.5794C56.394 35.1968 55.421 36.6944 54.144 37.9524C52.867 39.2104 51.4075 40.2287 49.7657 40.9476C48.1238 41.6664 46.2995 42.0258 44.4752 42.0857V40.8278Z" fill="white"/>
<path d="M44.4752 38.79C45.8738 38.79 47.2116 38.5504 48.4886 38.0712C49.7657 37.5919 50.9819 36.8132 51.9548 35.8547C52.9278 34.8962 53.7791 33.7581 54.3264 32.5001C54.8737 31.2421 55.1778 29.8643 55.2386 28.4865C55.2386 27.1087 54.9953 25.671 54.5088 24.413C53.9616 23.0952 53.2318 21.8971 52.1981 20.8787C51.2251 19.8603 50.0089 19.0217 48.6711 18.4825C47.3333 17.8835 45.9346 17.584 44.4752 17.584C45.9346 17.584 47.3941 17.8236 48.7319 18.3627C50.0697 18.9019 51.3467 19.6806 52.4413 20.699C53.4751 21.7174 54.3872 22.9154 54.9345 24.2932C55.5426 25.6111 55.8467 27.1087 55.8467 28.5464C55.8467 30.044 55.6034 31.4817 55.0561 32.8595C54.5088 34.2373 53.6575 35.4953 52.6237 36.5736C51.59 37.6518 50.3129 38.5504 48.9143 39.1494C47.5157 39.7485 45.9954 40.048 44.4752 40.1079V38.79Z" fill="white"/>
<path d="M44.4758 36.6268C45.5704 36.6268 46.665 36.4471 47.6988 36.0877C48.7325 35.7283 49.6447 35.1292 50.4352 34.3505C51.2258 33.5717 51.8947 32.6732 52.3203 31.7147C52.746 30.6963 52.9893 29.618 53.0501 28.4799C53.0501 27.4016 52.8676 26.2634 52.442 25.1852C52.0163 24.1668 51.4082 23.1484 50.6177 22.3697C49.8271 21.531 48.8542 20.8721 47.8204 20.4527C46.7866 19.9735 45.6312 19.7339 44.415 19.7339C45.5704 19.7339 46.7866 19.9136 47.8812 20.3329C48.9758 20.7523 50.0096 21.4112 50.8609 22.19C51.7122 22.9687 52.442 23.9871 52.9284 25.0653C53.4149 26.1436 53.6582 27.3417 53.719 28.5398C53.719 29.7379 53.5365 30.9359 53.1109 32.0741C52.6852 33.2123 52.0163 34.2307 51.165 35.1292C50.3136 36.0278 49.2798 36.6867 48.1245 37.2259C46.9691 37.7051 45.7529 38.0046 44.4758 38.0046V36.6268Z" fill="white"/>
<path d="M44.4758 34.4746C45.2664 34.4746 46.0569 34.3547 46.8474 34.1151C47.5772 33.8156 48.3069 33.3963 48.915 32.8571C49.5231 32.318 50.0096 31.6591 50.3136 30.8803C50.6785 30.1615 50.8609 29.3228 50.8609 28.4842C50.8609 27.6455 50.7393 26.8068 50.4352 26.0281C50.1312 25.2493 49.6447 24.5305 49.0974 23.8715C48.4893 23.2725 47.8204 22.7334 46.9691 22.3739C46.1785 22.0145 45.3272 21.8348 44.415 21.7749C45.2664 21.7749 46.1785 21.8947 47.0299 22.1942C47.8812 22.4938 48.6109 22.973 49.2798 23.572C49.9487 24.1711 50.496 24.9498 50.8609 25.7286C51.2258 26.5672 51.469 27.4658 51.469 28.3643C51.469 29.2629 51.3474 30.1615 50.9825 31.06C50.6785 31.8987 50.1312 32.7373 49.5231 33.3963C48.8542 34.0552 48.0636 34.5944 47.2123 35.0137C46.361 35.3731 45.388 35.6127 44.415 35.6127L44.4758 34.4746Z" fill="white"/>
<path d="M44.4758 32.2573C45.5096 32.3172 46.5434 31.9578 47.3339 31.239C48.1244 30.5201 48.6109 29.5017 48.6717 28.4235C48.6717 27.8843 48.6109 27.3452 48.4285 26.8061C48.2461 26.2669 47.942 25.7877 47.5772 25.3684C47.2123 24.949 46.7258 24.5896 46.1785 24.35C45.6312 24.1104 45.0839 23.9906 44.4758 23.9307C45.0839 23.9307 45.692 23.9906 46.2393 24.1703C46.7866 24.35 47.3339 24.7094 47.7596 25.0688C48.1853 25.4882 48.6109 25.9674 48.8542 26.5065C49.0974 27.0457 49.2798 27.6447 49.2798 28.3037C49.2798 28.9027 49.219 29.5616 48.9758 30.1607C48.7325 30.7597 48.4285 31.2989 47.942 31.7781C47.5163 32.2573 46.9691 32.6167 46.361 32.9163C45.7529 33.2158 45.0839 33.3356 44.415 33.3955V32.2573H44.4758Z" fill="white"/>
<path d="M44.4752 30.0376C44.9009 30.0975 45.3265 29.9777 45.6914 29.6782C46.0562 29.3787 46.2995 28.9594 46.3603 28.4801C46.4211 28.0009 46.2387 27.4618 45.9346 27.0424C45.5698 26.6231 45.0225 26.3236 44.4752 26.2637C45.0833 26.2038 45.6914 26.3835 46.1779 26.8028C46.6643 27.2221 46.9684 27.8212 47.0292 28.4801C47.09 29.1391 46.8468 29.8579 46.4211 30.3971C45.9346 30.9362 45.2657 31.2956 44.4752 31.3555C44.4752 31.3555 44.4752 30.0376 44.4752 30.0376Z" fill="white"/>
<path d="M26.1719 63.1107C33.0435 68.0828 42.7731 67.4837 48.9757 61.3735C53.7189 56.701 55.3607 49.9319 53.2324 43.7018L45.3271 22.9751C44.7798 20.5789 45.5095 18.0629 47.273 16.3257C49.2189 14.4088 52.0162 13.8097 54.5094 14.5286C47.6379 9.61646 37.9083 10.1556 31.7056 16.2658C27.0233 20.8784 25.3814 27.6476 27.4489 33.9375V33.9974L35.5367 54.7242C36.0232 57.1203 35.2934 59.5764 33.5299 61.3136C32.1313 62.6914 30.307 63.4103 28.3611 63.4702C27.5706 63.4702 26.8408 63.3504 26.1719 63.1107Z" fill="white"/>
<path d="M88.9281 24.8856V28.6595C86.3133 27.5213 84.2457 26.9223 82.6647 26.9223C81.7525 26.9223 81.0836 27.0421 80.5363 27.3416C79.989 27.6411 79.7458 28.0006 79.7458 28.4798C79.7458 28.8392 79.9282 29.1987 80.2931 29.5581C80.6579 29.9175 81.5701 30.3368 83.0295 30.876C84.489 31.4151 85.6444 31.8943 86.4957 32.3736C87.347 32.8528 88.1376 33.4518 88.7457 34.2905C89.3538 35.1292 89.7186 36.1475 89.7186 37.4055C89.7186 39.2026 89.0497 40.6403 87.6511 41.7186C86.2525 42.7969 84.4282 43.336 82.1782 43.336C79.7458 43.336 77.3742 42.737 75.0634 41.479V37.2857C76.4012 38.1843 77.5566 38.7833 78.5296 39.2026C79.5026 39.622 80.5971 39.8017 81.7525 39.8017C83.6984 39.8017 84.6714 39.2026 84.6714 38.0045C84.6714 37.5852 84.489 37.2258 84.0633 36.8664C83.6984 36.5069 82.7255 36.0876 81.266 35.5485C79.8066 35.0093 78.6512 34.5301 77.7999 34.1108C76.9485 33.6915 76.2188 33.0325 75.5499 32.1939C74.9418 31.3552 74.6378 30.3368 74.6378 29.0189C74.6378 27.3416 75.3067 26.0237 76.7053 25.0054C78.0431 23.987 79.8674 23.4479 82.1782 23.4479C84.3674 23.388 86.6173 23.8672 88.9281 24.8856Z" fill="white"/>
<path d="M107.595 23.6265H112.52V34.6488C112.52 37.4643 111.669 39.6208 109.966 41.0585C108.264 42.4962 105.831 43.275 102.669 43.275C99.5678 43.275 97.1354 42.5561 95.4327 41.0585C93.73 39.5609 92.8179 37.4643 92.8179 34.6488V23.6265H97.7435V34.7686C97.7435 36.1464 98.1692 37.2247 99.0813 38.0034C99.9935 38.8421 101.149 39.2015 102.608 39.2015C104.129 39.2015 105.345 38.7822 106.257 37.9435C107.169 37.1049 107.595 35.9068 107.595 34.4092V23.6265Z" fill="white"/>
<path d="M116.964 23.6265H125.721C127.727 23.6265 129.308 24.2255 130.464 25.3038C131.619 26.442 132.227 27.7598 132.227 29.3173C132.227 30.9348 131.619 32.3125 130.464 33.4507C129.308 34.5889 127.727 35.1879 125.721 35.1879H121.829V42.9755H116.903V23.6265H116.964ZM121.89 27.1608V31.6536H124.2C126.268 31.6536 127.241 30.8749 127.241 29.3773C127.241 28.5386 126.998 27.9396 126.45 27.64C125.903 27.3405 124.991 27.1608 123.653 27.1608H121.89Z" fill="white"/>
<path d="M135.691 23.6265H144.508C146.394 23.6265 147.975 24.1656 149.13 25.2439C150.346 26.3221 150.893 27.64 150.893 29.1975C150.893 31.3541 149.738 32.9116 147.488 33.93C148.461 34.3493 149.434 35.5474 150.285 37.5242C151.137 39.501 152.049 41.2982 152.839 43.0354H147.488C147.184 42.3764 146.637 41.1783 145.785 39.3812C144.995 37.5841 144.326 36.4459 143.718 35.9068C143.171 35.4276 142.563 35.128 141.894 35.128H140.617V42.9755H135.691V23.6265ZM140.617 27.1608V31.5937H143.231C144.083 31.5937 144.691 31.414 145.177 30.9947C145.664 30.6352 145.907 30.0362 145.907 29.3773C145.907 27.9396 144.995 27.1608 143.11 27.1608H140.617Z" fill="white"/>
<path d="M166.704 23.6265L175.461 43.0354H170.17L168.528 39.2015H159.711L158.252 43.0354H153.083L161.049 23.6265H166.704ZM167.13 35.787L163.968 28.2391L161.049 35.787H167.13Z" fill="white"/>
<path d="M80.7178 47.7119C82.5421 47.7119 84.0015 48.2511 85.2177 49.3892C86.4339 50.5274 86.9812 51.9052 86.9812 53.5825C86.9812 55.2598 86.3731 56.6376 85.1569 57.7758C83.9407 58.914 82.4205 59.4531 80.5962 59.4531C78.8327 59.4531 77.3732 58.914 76.2178 57.7758C75.0624 56.6376 74.4543 55.2598 74.4543 53.6424C74.4543 51.9052 75.0624 50.5274 76.2178 49.3892C77.3732 48.2511 78.9543 47.7119 80.7178 47.7119ZM80.7786 49.2694C79.4408 49.2694 78.3462 49.6887 77.4948 50.5274C76.6435 51.3661 76.2178 52.3844 76.2178 53.6424C76.2178 54.9004 76.6435 55.9188 77.4948 56.6975C78.3462 57.4763 79.4408 57.9555 80.7178 57.9555C81.9948 57.9555 83.0894 57.5362 83.9407 56.6975C84.792 55.8589 85.2177 54.8405 85.2177 53.5825C85.2177 52.3844 84.792 51.3661 83.9407 50.5274C83.1502 49.6887 82.0556 49.2694 80.7786 49.2694Z" fill="white"/>
<path d="M93.9158 59.3374V47.8958H96.8347C97.9901 47.8958 98.963 48.1953 99.6319 48.7344C100.301 49.2735 100.666 50.1122 100.666 51.0707C100.666 51.7296 100.483 52.3286 100.179 52.8079C99.8144 53.2871 99.3279 53.6465 98.7198 53.8862C99.0847 54.1258 99.4495 54.4253 99.8144 54.8446C100.179 55.2639 100.666 55.9828 101.335 57.0012C101.76 57.6601 102.064 58.1393 102.308 58.4389L102.916 59.2775H100.909L100.422 58.4988C100.422 58.4988 100.362 58.4389 100.301 58.379L99.9968 57.8997L99.5103 57.0611L98.963 56.1625C98.5982 55.6833 98.2941 55.3239 97.9901 55.0243C97.686 54.7248 97.4428 54.5451 97.1995 54.4253C96.9563 54.3055 96.5914 54.2456 96.0442 54.2456H95.6185V59.3374H93.9158ZM96.0442 49.2735H95.5577V52.8678H96.1658C97.0171 52.8678 97.5644 52.8079 97.9293 52.6282C98.2333 52.5084 98.4766 52.2687 98.659 51.9692C98.8414 51.6697 98.9022 51.3702 98.9022 51.0108C98.9022 50.6513 98.7806 50.3518 98.5982 50.0523C98.4157 49.7528 98.1117 49.5731 97.8076 49.4533C97.4428 49.3334 96.8347 49.2735 96.0442 49.2735Z" fill="white"/>
<path d="M112.644 47.8323H113.8L119.029 59.3338H117.327L115.806 55.9193H110.881L109.421 59.3338H107.719L112.644 47.8323ZM115.077 54.4816L113.191 50.3482L111.428 54.4816H115.077Z" fill="white"/>
<path d="M134.35 56.7013V58.4985C133.134 59.1574 131.736 59.4569 130.155 59.4569C128.878 59.4569 127.783 59.2173 126.871 58.6782C125.959 58.139 125.229 57.4801 124.742 56.5815C124.195 55.683 123.952 54.7245 123.952 53.6462C123.952 51.9689 124.56 50.5911 125.776 49.4529C126.992 48.3148 128.452 47.7756 130.215 47.7756C131.432 47.7756 132.769 48.0752 134.29 48.7341V50.4713C132.952 49.6926 131.614 49.3331 130.337 49.3331C128.999 49.3331 127.905 49.7525 127.053 50.5911C126.202 51.4298 125.715 52.4481 125.715 53.7061C125.715 54.9641 126.141 55.9825 126.992 56.8211C127.844 57.6598 128.938 58.0192 130.337 58.0192C131.675 57.9593 133.013 57.54 134.35 56.7013Z" fill="white"/>
<path d="M141.223 47.8958H142.865V57.8398H148.095V59.3374H141.223V47.8958Z" fill="white"/>
<path d="M154.361 47.8958H160.929V49.3334H156.003V52.8079H160.746V54.2456H156.003V57.7799H161.111V59.3374H154.361V47.8958Z" fill="white"/>
<path d="M170.535 54.5412L169.258 53.7625C168.468 53.2832 167.92 52.804 167.555 52.3847C167.191 51.9054 167.069 51.3663 167.069 50.7673C167.069 49.8687 167.373 49.1499 168.042 48.5508C168.65 48.0117 169.501 47.7122 170.535 47.7122C171.508 47.7122 172.42 47.9518 173.211 48.4909V50.3479C172.359 49.5692 171.447 49.1499 170.535 49.1499C169.988 49.1499 169.562 49.2697 169.197 49.5093C168.833 49.7489 168.65 50.0484 168.65 50.4677C168.65 50.8272 168.772 51.1267 169.015 51.4262C169.258 51.7257 169.684 52.0252 170.231 52.3847L171.508 53.1035C172.907 53.9422 173.636 55.0205 173.636 56.2784C173.636 57.177 173.332 57.9557 172.724 58.4949C172.116 59.034 171.265 59.3335 170.292 59.3335C169.137 59.3335 168.103 58.9741 167.13 58.3152V56.3383C168.042 57.4765 169.076 58.0157 170.231 58.0157C170.778 58.0157 171.204 57.8958 171.508 57.5963C171.873 57.2968 172.055 56.9374 172.055 56.5181C172.055 55.7992 171.508 55.1403 170.535 54.5412Z" fill="white"/>
</svg>
