<svg width="168" height="67" viewBox="0 0 168 67" fill="none" xmlns="http://www.w3.org/2000/svg">
<path d="M62.5419 18.7845C60.9891 17.3865 58.6098 17.539 57.2324 19.115C55.8549 20.6909 56.0051 23.1057 57.5579 24.5038C59.1107 25.9018 61.49 25.7493 62.8675 24.1733C63.118 23.8683 63.3183 23.5379 63.4686 23.2074H133.77V20.0809H63.4686C63.2432 19.5979 62.9426 19.1658 62.5419 18.7845Z" fill="white"/>
<path d="M118.838 28.6416H109.446H48.3362C48.1359 28.2349 47.8604 27.8282 47.4847 27.5231C46.0321 26.2014 43.778 26.3539 42.4757 27.8282C41.1733 29.3025 41.3236 31.5902 42.7762 32.912C44.2288 34.2337 46.4829 34.0812 47.7852 32.6069C48.0107 32.3527 48.1609 32.0731 48.3112 31.7935H106.817L101.006 38.6821H83.1239C82.9235 38.2754 82.648 37.8687 82.2723 37.5636C80.8197 36.2418 78.5657 36.3944 77.2633 37.8687C75.961 39.343 76.1113 41.6307 77.5639 42.9524C79.0165 44.2742 81.2705 44.1217 82.5729 42.6474C82.7983 42.3932 82.9486 42.1136 83.0988 41.834H102.409L110.849 31.8189H118.813H140.652V28.6924H118.838V28.6416Z" fill="white"/>
<path d="M61.1124 15.0703H105.342C105.492 15.4262 105.693 15.7566 105.943 16.0617C107.321 17.6376 109.7 17.7901 111.278 16.3921C112.831 14.9941 112.981 12.5793 111.603 10.9779C110.226 9.40189 107.847 9.24938 106.269 10.6474C105.843 11.0287 105.542 11.4608 105.342 11.9438H63.7672L69.5777 5.05525H87.4348C87.6352 5.46195 87.9107 5.86866 88.2613 6.17368C89.7139 7.49547 91.968 7.34296 93.2703 5.86866C94.5727 4.39436 94.4224 2.10665 92.9698 0.784863C91.5172 -0.536923 89.2631 -0.384409 87.9608 1.08989C87.7354 1.34408 87.5851 1.62369 87.4348 1.9033H68.1501L59.7099 11.9184H53.2232H29.9062V15.0449H53.2232H61.1124V15.0703Z" fill="white"/>
<path d="M0.53125 62.5744C0.53125 62.4473 0.556295 62.2948 0.606385 62.1677C0.656475 62.0406 0.731611 61.9389 0.806746 61.8372C0.881881 61.7355 1.00711 61.6847 1.13233 61.6339C1.25756 61.583 1.38278 61.5576 1.50801 61.5576C1.63323 61.5576 1.7835 61.583 1.90873 61.6339C2.03396 61.6847 2.13414 61.761 2.23432 61.8372C2.3345 61.9389 2.38459 62.0406 2.43468 62.1677C2.48477 62.2948 2.50981 62.4219 2.50981 62.5744C2.50981 62.7015 2.48477 62.8286 2.43468 62.9557C2.38459 63.0828 2.30945 63.1844 2.23432 63.2861C2.13414 63.3878 2.03396 63.4386 1.90873 63.4895C1.7835 63.5403 1.65828 63.5657 1.50801 63.5657C1.38278 63.5657 1.25756 63.5403 1.13233 63.4895C1.00711 63.4386 0.906926 63.3624 0.806746 63.2861C0.706566 63.1844 0.656475 63.0828 0.606385 62.9557C0.556295 62.8286 0.53125 62.7015 0.53125 62.5744Z" fill="white"/>
<path d="M17.1632 58.4285C17.1131 58.5047 17.088 58.5556 17.038 58.581C16.9879 58.6064 16.9378 58.6318 16.8626 58.6318C16.7875 58.6318 16.7124 58.6064 16.6122 58.5302C16.512 58.4539 16.3868 58.3777 16.2365 58.276C16.0862 58.1743 15.9109 58.098 15.6855 58.0218C15.4601 57.9455 15.2097 57.9201 14.9091 57.9201C14.6336 57.9201 14.3581 57.9709 14.1578 58.0472C13.9324 58.1235 13.757 58.2251 13.6068 58.3777C13.4565 58.5047 13.3563 58.6573 13.2812 58.8606C13.2061 59.0385 13.181 59.2419 13.181 59.4453C13.181 59.7249 13.2561 59.9282 13.3814 60.1061C13.5066 60.2841 13.6819 60.4366 13.9073 60.5637C14.1327 60.6908 14.3581 60.7925 14.6336 60.8941C14.9091 60.9958 15.1846 61.0721 15.4601 61.1737C15.7356 61.2754 16.0111 61.3771 16.2866 61.5042C16.5621 61.6313 16.7875 61.7838 17.0129 61.9617C17.2383 62.1397 17.3886 62.3684 17.5389 62.648C17.6641 62.9277 17.7392 63.2581 17.7392 63.6648C17.7392 64.0969 17.6641 64.4782 17.5389 64.8595C17.3886 65.2408 17.1882 65.5458 16.9127 65.8254C16.6372 66.105 16.3117 66.3084 15.9109 66.4609C15.5102 66.6134 15.0594 66.6897 14.5585 66.6897C13.9574 66.6897 13.3814 66.588 12.8805 66.3592C12.3796 66.1304 11.9538 65.8254 11.5781 65.4441L11.9538 64.8341C11.9788 64.7832 12.0289 64.7324 12.079 64.707C12.1291 64.6816 12.1792 64.6561 12.2543 64.6561C12.3545 64.6561 12.4547 64.707 12.5799 64.8087C12.7052 64.9103 12.8554 65.012 13.0307 65.1391C13.2061 65.2662 13.4315 65.3679 13.6819 65.4696C13.9324 65.5712 14.2329 65.6221 14.6086 65.6221C14.9091 65.6221 15.1846 65.5712 15.41 65.495C15.6354 65.4187 15.8608 65.2916 16.0111 65.1391C16.1864 64.9866 16.3116 64.8087 16.3868 64.5799C16.487 64.3765 16.512 64.1223 16.512 63.8682C16.512 63.5885 16.4369 63.3344 16.3116 63.1564C16.1864 62.9785 16.0111 62.826 15.8107 62.6989C15.6104 62.5718 15.3599 62.4701 15.0844 62.3684C14.8089 62.2922 14.5334 62.1905 14.258 62.0888C13.9825 61.9872 13.707 61.8855 13.4315 61.7584C13.156 61.6313 12.9306 61.4788 12.7052 61.3008C12.5048 61.0975 12.3295 60.8687 12.2043 60.5891C12.079 60.3095 12.0039 59.9536 12.0039 59.5215C12.0039 59.1911 12.079 58.8606 12.2043 58.5302C12.3295 58.2251 12.5298 57.9201 12.7803 57.6913C13.0307 57.4371 13.3313 57.2592 13.707 57.1067C14.0826 56.9542 14.4834 56.8779 14.9592 56.8779C15.4852 56.8779 15.961 56.9542 16.4118 57.1321C16.8376 57.3101 17.2383 57.5388 17.5639 57.8693L17.1632 58.4285Z" fill="white"/>
<path d="M23.3476 61.1522H23.8235C23.9988 61.1522 24.124 61.1267 24.2242 61.0759C24.3244 61.0251 24.4246 60.9488 24.4997 60.8471L27.6554 57.2376C27.7556 57.136 27.8557 57.0343 27.9309 57.0089C28.031 56.958 28.1312 56.9326 28.2815 56.9326H29.3835L25.777 61.0759C25.6768 61.1776 25.6017 61.2538 25.5265 61.3301C25.4514 61.4064 25.3512 61.4572 25.2761 61.508C25.4013 61.5589 25.5015 61.6097 25.6017 61.686C25.7019 61.7622 25.802 61.8639 25.9022 61.991L29.659 66.541H28.557C28.4819 66.541 28.4067 66.541 28.3566 66.5156C28.3065 66.4902 28.2565 66.4902 28.2064 66.4647C28.1563 66.4393 28.1312 66.4139 28.0811 66.3885C28.0561 66.3631 28.006 66.3122 27.981 66.2868L24.7 62.474C24.65 62.4231 24.5999 62.3723 24.5748 62.3469C24.5247 62.3214 24.4746 62.2706 24.4246 62.2452C24.3745 62.2198 24.2993 62.1943 24.2242 62.1943C24.1491 62.1943 24.0739 62.1689 23.9487 62.1689H23.3727V66.5664H22.0703V56.958H23.3476V61.1522Z" fill="white"/>
<path d="M37.2179 62.7223V66.5352H35.9406V62.7223L32.4844 56.9268H33.6114C33.7366 56.9268 33.8118 56.9522 33.8869 57.003C33.962 57.0539 34.0121 57.1301 34.0622 57.2064L36.2411 60.943C36.3413 61.0955 36.3914 61.248 36.4665 61.3751C36.5166 61.5022 36.5918 61.6547 36.6168 61.7818C36.6669 61.6547 36.717 61.5022 36.7671 61.3751C36.8172 61.248 36.8923 61.0955 36.9925 60.943L39.1464 57.2064C39.1965 57.1301 39.2465 57.0793 39.2966 57.003C39.3718 56.9268 39.4469 56.9014 39.5721 56.9014H40.6992L37.2179 62.7223Z" fill="white"/>
<path d="M45.4641 56.9835C45.5142 57.0089 45.5893 57.0597 45.6645 57.1614L51.1493 64.4058C51.1243 64.2787 51.1243 64.177 51.1243 64.0754C51.1243 63.9737 51.1243 63.872 51.1243 63.7449V56.9326H52.2513V66.541H51.6002C51.5 66.541 51.4248 66.5156 51.3497 66.4902C51.2746 66.4647 51.2245 66.3885 51.1493 66.3122L45.6645 59.0678C45.6645 59.1695 45.6895 59.2966 45.6895 59.3983C45.6895 59.4999 45.6895 59.6016 45.6895 59.7033V66.541H44.5625V56.9326H45.2137C45.3138 56.9326 45.389 56.958 45.4641 56.9835Z" fill="white"/>
<path d="M62.9996 56.9326V58.0002H58.4664V61.203H62.148V62.2198H58.4664V65.4988H62.9996V66.5664H57.1641V56.958H62.9996V56.9326Z" fill="white"/>
<path d="M73.9368 56.9326V58.0256H70.8813V66.541H69.604V58.0256H66.5234V56.9326H73.9368Z" fill="white"/>
<path d="M89.5696 56.9326V58.0256H86.5141V66.541H85.2368V58.0256H82.1562V56.9326H89.5696Z" fill="white"/>
<path d="M94.9492 62.5482V66.5644H93.6719V56.9561H96.3517C96.9528 56.9561 97.4787 57.0069 97.9045 57.134C98.3303 57.2611 98.7059 57.439 98.9814 57.6678C99.2569 57.8966 99.4823 58.1762 99.6076 58.5066C99.7328 58.8371 99.8079 59.1929 99.8079 59.5996C99.8079 59.9301 99.7578 60.2605 99.6577 60.5401C99.5575 60.8452 99.4072 61.0993 99.2068 61.3281C99.0065 61.5569 98.756 61.7602 98.4805 61.9382C98.205 62.1161 97.8544 62.2178 97.5038 62.3195C97.6541 62.4211 97.8043 62.5482 97.9295 62.7262L100.685 66.539H99.5575C99.3321 66.539 99.1568 66.4373 99.0315 66.2594L96.5771 62.8278C96.502 62.7262 96.4268 62.6499 96.3267 62.5991C96.2265 62.5482 96.1012 62.5228 95.9259 62.5228H94.9492V62.5482ZM94.9492 61.5823H96.3016C96.6773 61.5823 97.0029 61.5315 97.2784 61.4552C97.5539 61.379 97.8043 61.2264 97.9796 61.0739C98.18 60.896 98.3052 60.7181 98.4054 60.4639C98.5056 60.2351 98.5557 59.9809 98.5557 59.7013C98.5557 59.1167 98.3804 58.71 98.0047 58.4049C97.629 58.1253 97.078 57.9728 96.3517 57.9728H94.9492V61.5823Z" fill="white"/>
<path d="M112.483 66.541H111.481C111.356 66.541 111.281 66.5156 111.206 66.4647C111.131 66.4139 111.081 66.3376 111.056 66.236L110.179 63.9228H105.921L105.045 66.236C105.02 66.3122 104.97 66.3885 104.894 66.4393C104.819 66.4902 104.719 66.541 104.619 66.541H103.617L107.399 56.9326H108.701L112.483 66.541ZM106.272 62.9823H109.803L108.326 59.0678C108.225 58.839 108.125 58.534 108.05 58.1527C108 58.3307 107.95 58.5086 107.9 58.6611C107.85 58.8136 107.8 58.9407 107.775 59.0678L106.272 62.9823Z" fill="white"/>
<path d="M124.534 61.7368C124.534 62.4485 124.433 63.1094 124.208 63.6941C123.983 64.2787 123.657 64.7871 123.256 65.2192C122.855 65.6513 122.355 65.9564 121.779 66.1851C121.203 66.4139 120.576 66.541 119.875 66.541H116.344V56.9326H119.875C120.576 56.9326 121.203 57.0597 121.779 57.2885C122.355 57.5173 122.83 57.8477 123.256 58.2798C123.657 58.7119 123.983 59.2203 124.208 59.805C124.408 60.3642 124.534 61.0251 124.534 61.7368ZM123.206 61.7368C123.206 61.1522 123.131 60.6184 122.956 60.1608C122.805 59.7033 122.58 59.2966 122.279 58.9916C121.979 58.6611 121.628 58.4323 121.228 58.2544C120.802 58.0765 120.351 58.0002 119.85 58.0002H117.596V65.4988H119.85C120.351 65.4988 120.827 65.4226 121.228 65.2446C121.653 65.0667 122.004 64.8379 122.279 64.5075C122.58 64.177 122.805 63.7957 122.956 63.3382C123.131 62.8552 123.206 62.3469 123.206 61.7368Z" fill="white"/>
<path d="M130.441 66.541H129.164V56.9326H130.441V66.541Z" fill="white"/>
<path d="M136.527 56.9835C136.577 57.0089 136.652 57.0597 136.727 57.1614L142.212 64.4058C142.187 64.2787 142.187 64.177 142.187 64.0754C142.187 63.9737 142.187 63.872 142.187 63.7449V56.9326H143.314V66.541H142.663C142.562 66.541 142.487 66.5156 142.412 66.4902C142.337 66.4647 142.287 66.3885 142.212 66.3122L136.727 59.0678C136.727 59.1695 136.752 59.2966 136.752 59.3983C136.752 59.4999 136.752 59.6016 136.752 59.7033V66.541H135.625V56.9326H136.276C136.376 56.9326 136.477 56.958 136.527 56.9835Z" fill="white"/>
<path d="M152.459 65.5986C152.709 65.5986 152.96 65.5986 153.16 65.5732C153.36 65.5478 153.586 65.5224 153.761 65.4715C153.936 65.4207 154.137 65.3698 154.287 65.2936C154.462 65.2173 154.613 65.1411 154.788 65.0648V62.9296H153.31C153.235 62.9296 153.16 62.9042 153.11 62.8534C153.06 62.8025 153.035 62.7517 153.035 62.6754V61.9383H155.94V65.624C155.715 65.802 155.464 65.9545 155.189 66.0816C154.913 66.2087 154.663 66.3104 154.362 66.412C154.062 66.4883 153.761 66.5645 153.41 66.6154C153.085 66.6662 152.709 66.6662 152.308 66.6662C151.632 66.6662 150.981 66.5391 150.43 66.3104C149.854 66.0816 149.353 65.7257 148.952 65.2936C148.527 64.8615 148.226 64.3531 147.976 63.743C147.75 63.133 147.625 62.4721 147.625 61.7604C147.625 61.0232 147.75 60.3623 147.976 59.7523C148.201 59.1422 148.527 58.6338 148.952 58.2017C149.378 57.7696 149.879 57.4391 150.48 57.2104C151.081 56.9816 151.732 56.8545 152.484 56.8545C152.859 56.8545 153.21 56.8799 153.536 56.9307C153.861 56.9816 154.162 57.0578 154.437 57.1849C154.713 57.312 154.963 57.4137 155.189 57.5662C155.414 57.7187 155.639 57.8967 155.84 58.0746L155.464 58.6592C155.389 58.7863 155.289 58.8372 155.164 58.8372C155.088 58.8372 155.013 58.8118 154.938 58.7609C154.838 58.7101 154.713 58.6338 154.562 58.5321C154.437 58.4305 154.262 58.3542 154.062 58.278C153.861 58.2017 153.636 58.1254 153.36 58.0746C153.085 58.0238 152.784 57.9983 152.409 57.9983C151.883 57.9983 151.382 58.0746 150.956 58.2525C150.53 58.4305 150.155 58.6847 149.854 59.0151C149.553 59.3456 149.328 59.7523 149.153 60.2098C148.977 60.6673 148.902 61.2011 148.902 61.7858C148.902 62.3958 148.977 62.9296 149.153 63.4126C149.328 63.8955 149.553 64.3023 149.879 64.6327C150.18 64.9631 150.555 65.2173 150.981 65.3953C151.482 65.5224 151.958 65.5986 152.459 65.5986Z" fill="white"/>
<path d="M165.43 62.5744C165.43 62.4473 165.455 62.2948 165.505 62.1677C165.555 62.0406 165.63 61.9389 165.705 61.8372C165.805 61.7355 165.906 61.6847 166.031 61.6339C166.156 61.583 166.281 61.5576 166.406 61.5576C166.532 61.5576 166.682 61.583 166.807 61.6339C166.932 61.6847 167.033 61.761 167.133 61.8372C167.233 61.9135 167.283 62.0406 167.333 62.1677C167.383 62.2948 167.408 62.4219 167.408 62.5744C167.408 62.7015 167.383 62.8286 167.333 62.9557C167.283 63.0828 167.208 63.1844 167.133 63.2861C167.033 63.3878 166.932 63.4386 166.807 63.4895C166.682 63.5403 166.557 63.5657 166.406 63.5657C166.281 63.5657 166.156 63.5403 166.031 63.4895C165.906 63.4386 165.805 63.3624 165.705 63.2861C165.605 63.1844 165.555 63.0828 165.505 62.9557C165.455 62.8286 165.43 62.7015 165.43 62.5744Z" fill="white"/>
<path d="M0.53125 62.5744C0.53125 62.4473 0.556295 62.2948 0.606385 62.1677C0.656475 62.0406 0.731611 61.9389 0.806746 61.8372C0.881881 61.7355 1.00711 61.6847 1.13233 61.6339C1.25756 61.583 1.38278 61.5576 1.50801 61.5576C1.63323 61.5576 1.7835 61.583 1.90873 61.6339C2.03396 61.6847 2.13414 61.761 2.23432 61.8372C2.3345 61.9389 2.38459 62.0406 2.43468 62.1677C2.48477 62.2948 2.50981 62.4219 2.50981 62.5744C2.50981 62.7015 2.48477 62.8286 2.43468 62.9557C2.38459 63.0828 2.30945 63.1844 2.23432 63.2861C2.13414 63.3878 2.03396 63.4386 1.90873 63.4895C1.7835 63.5403 1.65828 63.5657 1.50801 63.5657C1.38278 63.5657 1.25756 63.5403 1.13233 63.4895C1.00711 63.4386 0.906926 63.3624 0.806746 63.2861C0.706566 63.1844 0.656475 63.0828 0.606385 62.9557C0.556295 62.8286 0.53125 62.7015 0.53125 62.5744Z" fill="white"/>
<path d="M17.1632 58.4285C17.1131 58.5047 17.088 58.5556 17.038 58.581C16.9879 58.6064 16.9378 58.6318 16.8626 58.6318C16.7875 58.6318 16.7124 58.6064 16.6122 58.5302C16.512 58.4539 16.3868 58.3777 16.2365 58.276C16.0862 58.1743 15.9109 58.098 15.6855 58.0218C15.4601 57.9455 15.2097 57.9201 14.9091 57.9201C14.6336 57.9201 14.3581 57.9709 14.1578 58.0472C13.9324 58.1235 13.757 58.2251 13.6068 58.3777C13.4565 58.5047 13.3563 58.6573 13.2812 58.8606C13.2061 59.0385 13.181 59.2419 13.181 59.4453C13.181 59.7249 13.2561 59.9282 13.3814 60.1061C13.5066 60.2841 13.6819 60.4366 13.9073 60.5637C14.1327 60.6908 14.3581 60.7925 14.6336 60.8941C14.9091 60.9958 15.1846 61.0721 15.4601 61.1737C15.7356 61.2754 16.0111 61.3771 16.2866 61.5042C16.5621 61.6313 16.7875 61.7838 17.0129 61.9617C17.2383 62.1397 17.3886 62.3684 17.5389 62.648C17.6641 62.9277 17.7392 63.2581 17.7392 63.6648C17.7392 64.0969 17.6641 64.4782 17.5389 64.8595C17.3886 65.2408 17.1882 65.5458 16.9127 65.8254C16.6372 66.105 16.3117 66.3084 15.9109 66.4609C15.5102 66.6134 15.0594 66.6897 14.5585 66.6897C13.9574 66.6897 13.3814 66.588 12.8805 66.3592C12.3796 66.1304 11.9538 65.8254 11.5781 65.4441L11.9538 64.8341C11.9788 64.7832 12.0289 64.7324 12.079 64.707C12.1291 64.6816 12.1792 64.6561 12.2543 64.6561C12.3545 64.6561 12.4547 64.707 12.5799 64.8087C12.7052 64.9103 12.8554 65.012 13.0307 65.1391C13.2061 65.2662 13.4315 65.3679 13.6819 65.4696C13.9324 65.5712 14.2329 65.6221 14.6086 65.6221C14.9091 65.6221 15.1846 65.5712 15.41 65.495C15.6354 65.4187 15.8608 65.2916 16.0111 65.1391C16.1864 64.9866 16.3116 64.8087 16.3868 64.5799C16.487 64.3765 16.512 64.1223 16.512 63.8682C16.512 63.5885 16.4369 63.3344 16.3116 63.1564C16.1864 62.9785 16.0111 62.826 15.8107 62.6989C15.6104 62.5718 15.3599 62.4701 15.0844 62.3684C14.8089 62.2922 14.5334 62.1905 14.258 62.0888C13.9825 61.9872 13.707 61.8855 13.4315 61.7584C13.156 61.6313 12.9306 61.4788 12.7052 61.3008C12.5048 61.0975 12.3295 60.8687 12.2043 60.5891C12.079 60.3095 12.0039 59.9536 12.0039 59.5215C12.0039 59.1911 12.079 58.8606 12.2043 58.5302C12.3295 58.2251 12.5298 57.9201 12.7803 57.6913C13.0307 57.4371 13.3313 57.2592 13.707 57.1067C14.0826 56.9542 14.4834 56.8779 14.9592 56.8779C15.4852 56.8779 15.961 56.9542 16.4118 57.1321C16.8376 57.3101 17.2383 57.5388 17.5639 57.8693L17.1632 58.4285Z" fill="white"/>
<path d="M23.3476 61.1522H23.8235C23.9988 61.1522 24.124 61.1267 24.2242 61.0759C24.3244 61.0251 24.4246 60.9488 24.4997 60.8471L27.6554 57.2376C27.7556 57.136 27.8557 57.0343 27.9309 57.0089C28.031 56.958 28.1312 56.9326 28.2815 56.9326H29.3835L25.777 61.0759C25.6768 61.1776 25.6017 61.2538 25.5265 61.3301C25.4514 61.4064 25.3512 61.4572 25.2761 61.508C25.4013 61.5589 25.5015 61.6097 25.6017 61.686C25.7019 61.7622 25.802 61.8639 25.9022 61.991L29.659 66.541H28.557C28.4819 66.541 28.4067 66.541 28.3566 66.5156C28.3065 66.4902 28.2565 66.4902 28.2064 66.4647C28.1563 66.4393 28.1312 66.4139 28.0811 66.3885C28.0561 66.3631 28.006 66.3122 27.981 66.2868L24.7 62.474C24.65 62.4231 24.5999 62.3723 24.5748 62.3469C24.5247 62.3214 24.4746 62.2706 24.4246 62.2452C24.3745 62.2198 24.2993 62.1943 24.2242 62.1943C24.1491 62.1943 24.0739 62.1689 23.9487 62.1689H23.3727V66.5664H22.0703V56.958H23.3476V61.1522Z" fill="white"/>
<path d="M37.2179 62.7223V66.5352H35.9406V62.7223L32.4844 56.9268H33.6114C33.7366 56.9268 33.8118 56.9522 33.8869 57.003C33.962 57.0539 34.0121 57.1301 34.0622 57.2064L36.2411 60.943C36.3413 61.0955 36.3914 61.248 36.4665 61.3751C36.5166 61.5022 36.5918 61.6547 36.6168 61.7818C36.6669 61.6547 36.717 61.5022 36.7671 61.3751C36.8172 61.248 36.8923 61.0955 36.9925 60.943L39.1464 57.2064C39.1965 57.1301 39.2465 57.0793 39.2966 57.003C39.3718 56.9268 39.4469 56.9014 39.5721 56.9014H40.6992L37.2179 62.7223Z" fill="white"/>
<path d="M45.4641 56.9835C45.5142 57.0089 45.5893 57.0597 45.6645 57.1614L51.1493 64.4058C51.1243 64.2787 51.1243 64.177 51.1243 64.0754C51.1243 63.9737 51.1243 63.872 51.1243 63.7449V56.9326H52.2513V66.541H51.6002C51.5 66.541 51.4248 66.5156 51.3497 66.4902C51.2746 66.4647 51.2245 66.3885 51.1493 66.3122L45.6645 59.0678C45.6645 59.1695 45.6895 59.2966 45.6895 59.3983C45.6895 59.4999 45.6895 59.6016 45.6895 59.7033V66.541H44.5625V56.9326H45.2137C45.3138 56.9326 45.389 56.958 45.4641 56.9835Z" fill="white"/>
<path d="M62.9996 56.9326V58.0002H58.4664V61.203H62.148V62.2198H58.4664V65.4988H62.9996V66.5664H57.1641V56.958H62.9996V56.9326Z" fill="white"/>
<path d="M73.9368 56.9326V58.0256H70.8813V66.541H69.604V58.0256H66.5234V56.9326H73.9368Z" fill="white"/>
<path d="M89.5696 56.9326V58.0256H86.5141V66.541H85.2368V58.0256H82.1562V56.9326H89.5696Z" fill="white"/>
<path d="M94.9492 62.5482V66.5644H93.6719V56.9561H96.3517C96.9528 56.9561 97.4787 57.0069 97.9045 57.134C98.3303 57.2611 98.7059 57.439 98.9814 57.6678C99.2569 57.8966 99.4823 58.1762 99.6076 58.5066C99.7328 58.8371 99.8079 59.1929 99.8079 59.5996C99.8079 59.9301 99.7578 60.2605 99.6577 60.5401C99.5575 60.8452 99.4072 61.0993 99.2068 61.3281C99.0065 61.5569 98.756 61.7602 98.4805 61.9382C98.205 62.1161 97.8544 62.2178 97.5038 62.3195C97.6541 62.4211 97.8043 62.5482 97.9295 62.7262L100.685 66.539H99.5575C99.3321 66.539 99.1568 66.4373 99.0315 66.2594L96.5771 62.8278C96.502 62.7262 96.4268 62.6499 96.3267 62.5991C96.2265 62.5482 96.1012 62.5228 95.9259 62.5228H94.9492V62.5482ZM94.9492 61.5823H96.3016C96.6773 61.5823 97.0029 61.5315 97.2784 61.4552C97.5539 61.379 97.8043 61.2264 97.9796 61.0739C98.18 60.896 98.3052 60.7181 98.4054 60.4639C98.5056 60.2351 98.5557 59.9809 98.5557 59.7013C98.5557 59.1167 98.3804 58.71 98.0047 58.4049C97.629 58.1253 97.078 57.9728 96.3517 57.9728H94.9492V61.5823Z" fill="white"/>
<path d="M112.483 66.541H111.481C111.356 66.541 111.281 66.5156 111.206 66.4647C111.131 66.4139 111.081 66.3376 111.056 66.236L110.179 63.9228H105.921L105.045 66.236C105.02 66.3122 104.97 66.3885 104.894 66.4393C104.819 66.4902 104.719 66.541 104.619 66.541H103.617L107.399 56.9326H108.701L112.483 66.541ZM106.272 62.9823H109.803L108.326 59.0678C108.225 58.839 108.125 58.534 108.05 58.1527C108 58.3307 107.95 58.5086 107.9 58.6611C107.85 58.8136 107.8 58.9407 107.775 59.0678L106.272 62.9823Z" fill="white"/>
<path d="M124.534 61.7368C124.534 62.4485 124.433 63.1094 124.208 63.6941C123.983 64.2787 123.657 64.7871 123.256 65.2192C122.855 65.6513 122.355 65.9564 121.779 66.1851C121.203 66.4139 120.576 66.541 119.875 66.541H116.344V56.9326H119.875C120.576 56.9326 121.203 57.0597 121.779 57.2885C122.355 57.5173 122.83 57.8477 123.256 58.2798C123.657 58.7119 123.983 59.2203 124.208 59.805C124.408 60.3642 124.534 61.0251 124.534 61.7368ZM123.206 61.7368C123.206 61.1522 123.131 60.6184 122.956 60.1608C122.805 59.7033 122.58 59.2966 122.279 58.9916C121.979 58.6611 121.628 58.4323 121.228 58.2544C120.802 58.0765 120.351 58.0002 119.85 58.0002H117.596V65.4988H119.85C120.351 65.4988 120.827 65.4226 121.228 65.2446C121.653 65.0667 122.004 64.8379 122.279 64.5075C122.58 64.177 122.805 63.7957 122.956 63.3382C123.131 62.8552 123.206 62.3469 123.206 61.7368Z" fill="white"/>
<path d="M130.441 66.541H129.164V56.9326H130.441V66.541Z" fill="white"/>
<path d="M136.527 56.9835C136.577 57.0089 136.652 57.0597 136.727 57.1614L142.212 64.4058C142.187 64.2787 142.187 64.177 142.187 64.0754C142.187 63.9737 142.187 63.872 142.187 63.7449V56.9326H143.314V66.541H142.663C142.562 66.541 142.487 66.5156 142.412 66.4902C142.337 66.4647 142.287 66.3885 142.212 66.3122L136.727 59.0678C136.727 59.1695 136.752 59.2966 136.752 59.3983C136.752 59.4999 136.752 59.6016 136.752 59.7033V66.541H135.625V56.9326H136.276C136.376 56.9326 136.477 56.958 136.527 56.9835Z" fill="white"/>
<path d="M152.459 65.5986C152.709 65.5986 152.96 65.5986 153.16 65.5732C153.36 65.5478 153.586 65.5224 153.761 65.4715C153.936 65.4207 154.137 65.3698 154.287 65.2936C154.462 65.2173 154.613 65.1411 154.788 65.0648V62.9296H153.31C153.235 62.9296 153.16 62.9042 153.11 62.8534C153.06 62.8025 153.035 62.7517 153.035 62.6754V61.9383H155.94V65.624C155.715 65.802 155.464 65.9545 155.189 66.0816C154.913 66.2087 154.663 66.3104 154.362 66.412C154.062 66.4883 153.761 66.5645 153.41 66.6154C153.085 66.6662 152.709 66.6662 152.308 66.6662C151.632 66.6662 150.981 66.5391 150.43 66.3104C149.854 66.0816 149.353 65.7257 148.952 65.2936C148.527 64.8615 148.226 64.3531 147.976 63.743C147.75 63.133 147.625 62.4721 147.625 61.7604C147.625 61.0232 147.75 60.3623 147.976 59.7523C148.201 59.1422 148.527 58.6338 148.952 58.2017C149.378 57.7696 149.879 57.4391 150.48 57.2104C151.081 56.9816 151.732 56.8545 152.484 56.8545C152.859 56.8545 153.21 56.8799 153.536 56.9307C153.861 56.9816 154.162 57.0578 154.437 57.1849C154.713 57.312 154.963 57.4137 155.189 57.5662C155.414 57.7187 155.639 57.8967 155.84 58.0746L155.464 58.6592C155.389 58.7863 155.289 58.8372 155.164 58.8372C155.088 58.8372 155.013 58.8118 154.938 58.7609C154.838 58.7101 154.713 58.6338 154.562 58.5321C154.437 58.4305 154.262 58.3542 154.062 58.278C153.861 58.2017 153.636 58.1254 153.36 58.0746C153.085 58.0238 152.784 57.9983 152.409 57.9983C151.883 57.9983 151.382 58.0746 150.956 58.2525C150.53 58.4305 150.155 58.6847 149.854 59.0151C149.553 59.3456 149.328 59.7523 149.153 60.2098C148.977 60.6673 148.902 61.2011 148.902 61.7858C148.902 62.3958 148.977 62.9296 149.153 63.4126C149.328 63.8955 149.553 64.3023 149.879 64.6327C150.18 64.9631 150.555 65.2173 150.981 65.3953C151.482 65.5224 151.958 65.5986 152.459 65.5986Z" fill="white"/>
<path d="M165.43 62.5744C165.43 62.4473 165.455 62.2948 165.505 62.1677C165.555 62.0406 165.63 61.9389 165.705 61.8372C165.805 61.7355 165.906 61.6847 166.031 61.6339C166.156 61.583 166.281 61.5576 166.406 61.5576C166.532 61.5576 166.682 61.583 166.807 61.6339C166.932 61.6847 167.033 61.761 167.133 61.8372C167.233 61.9135 167.283 62.0406 167.333 62.1677C167.383 62.2948 167.408 62.4219 167.408 62.5744C167.408 62.7015 167.383 62.8286 167.333 62.9557C167.283 63.0828 167.208 63.1844 167.133 63.2861C167.033 63.3878 166.932 63.4386 166.807 63.4895C166.682 63.5403 166.557 63.5657 166.406 63.5657C166.281 63.5657 166.156 63.5403 166.031 63.4895C165.906 63.4386 165.805 63.3624 165.705 63.2861C165.605 63.1844 165.555 63.0828 165.505 62.9557C165.455 62.8286 165.43 62.7015 165.43 62.5744Z" fill="white"/>
</svg>
