<svg width="134" height="53" viewBox="0 0 134 53" fill="none" xmlns="http://www.w3.org/2000/svg">
<path d="M66.8876 17.8338V34.7073C66.8867 34.771 66.8612 34.8318 66.8164 34.8768C66.7716 34.9219 66.711 34.9475 66.6477 34.9483H64.9011C64.5002 34.9487 64.1057 34.8479 63.7536 34.6553C63.4015 34.4627 63.1032 34.1844 62.8859 33.8459L54.9592 21.5363L55.2311 27.6847V34.7073C55.2303 34.771 55.2048 34.8318 55.1599 34.8768C55.1151 34.9219 55.0546 34.9475 54.9912 34.9483H52.6817C52.6183 34.9475 52.5578 34.9219 52.513 34.8768C52.4681 34.8318 52.4426 34.771 52.4418 34.7073V17.8338C52.4426 17.7702 52.4681 17.7093 52.513 17.6643C52.5578 17.6193 52.6183 17.5936 52.6817 17.5928H54.4186C54.8191 17.593 55.2131 17.6936 55.565 17.8856C55.9169 18.0775 56.2156 18.3547 56.4339 18.692L64.3605 30.9823L64.1142 24.8564V17.8338C64.1142 17.7699 64.1395 17.7086 64.1845 17.6634C64.2295 17.6182 64.2905 17.5928 64.3541 17.5928H66.6636C66.7242 17.5976 66.7808 17.625 66.8222 17.6696C66.8636 17.7142 66.887 17.7728 66.8876 17.8338Z" fill="white"/>
<path d="M90.4901 34.9486H88.0462C88.008 34.9482 87.9704 34.9387 87.9366 34.9208C87.9029 34.9029 87.8738 34.8772 87.8519 34.8458C87.83 34.8143 87.8159 34.7781 87.8107 34.7401C87.8056 34.7021 87.8095 34.6633 87.8223 34.6272L94.2966 17.8244C94.3243 17.7541 94.373 17.694 94.436 17.6526C94.499 17.6112 94.5733 17.5903 94.6485 17.593H97.7098C97.7823 17.5936 97.853 17.616 97.9128 17.6572C97.9727 17.6984 98.0189 17.7566 98.0456 17.8244L104.501 34.6272C104.514 34.6633 104.518 34.7021 104.512 34.7401C104.507 34.7781 104.493 34.8143 104.471 34.8458C104.449 34.8772 104.42 34.9029 104.386 34.9208C104.353 34.9387 104.315 34.9482 104.277 34.9486H101.833C101.784 34.9488 101.736 34.9342 101.696 34.9067C101.655 34.8791 101.624 34.84 101.606 34.7943L96.3887 20.9741C96.3719 20.9276 96.3412 20.8874 96.3008 20.859C96.2605 20.8306 96.2124 20.8153 96.1631 20.8153C96.1139 20.8153 96.0658 20.8306 96.0254 20.859C95.9851 20.8874 95.9544 20.9276 95.9376 20.9741L90.7204 34.7943C90.7022 34.8405 90.6704 34.88 90.6292 34.9076C90.5881 34.9351 90.5395 34.9494 90.4901 34.9486Z" fill="white"/>
<path d="M121.464 34.5594L116.608 28.3275C119.349 27.8068 120.952 25.9492 120.952 23.0983C120.952 19.8233 118.831 17.5928 115.079 17.5928H108.307C108.212 17.5928 108.121 17.6307 108.054 17.6982C107.987 17.7657 107.949 17.8573 107.949 17.9527C107.949 18.2566 108.008 18.5575 108.124 18.8383C108.24 19.1191 108.41 19.3742 108.623 19.589C108.837 19.8039 109.091 19.9744 109.371 20.0907C109.65 20.207 109.95 20.2668 110.252 20.2668H114.798C117.066 20.2668 118.153 21.4335 118.153 23.1176C118.153 24.8018 117.091 26.0102 114.798 26.0102H108.307C108.212 26.0111 108.121 26.0497 108.054 26.1177C107.987 26.1857 107.949 26.2776 107.949 26.3734V34.7298C107.949 34.7937 107.974 34.855 108.019 34.9002C108.064 34.9454 108.125 34.9708 108.189 34.9708H110.498C110.562 34.97 110.622 34.9443 110.667 34.8993C110.712 34.8543 110.737 34.7935 110.738 34.7298V28.4786H113.403L117.616 34.0034C117.841 34.2991 118.132 34.5382 118.465 34.7022C118.798 34.8661 119.164 34.9503 119.535 34.9483H121.288C121.332 34.9459 121.374 34.9315 121.41 34.9066C121.446 34.8818 121.475 34.8475 121.493 34.8074C121.511 34.7673 121.518 34.723 121.513 34.6793C121.508 34.6356 121.491 34.5942 121.464 34.5594Z" fill="white"/>
<path d="M83.1891 17.5928H72.4731C72.3883 17.5928 72.3069 17.6266 72.2469 17.6869C72.1869 17.7472 72.1532 17.8289 72.1532 17.9142C72.1532 18.539 72.4002 19.1382 72.84 19.58C73.2797 20.0218 73.8761 20.27 74.4979 20.27H83.1891C83.2207 20.2705 83.2521 20.2645 83.2814 20.2526C83.3107 20.2406 83.3373 20.2229 83.3597 20.2004C83.3821 20.1779 83.3997 20.1512 83.4116 20.1217C83.4235 20.0923 83.4294 20.0608 83.429 20.029V17.8338C83.429 17.7699 83.4037 17.7086 83.3587 17.6634C83.3137 17.6182 83.2527 17.5928 83.1891 17.5928ZM83.1891 32.2711H75.1921C75.1287 32.2703 75.0682 32.2446 75.0234 32.1996C74.9785 32.1545 74.953 32.0937 74.9522 32.03V27.6783C74.9522 27.6144 74.9774 27.553 75.0224 27.5078C75.0674 27.4626 75.1285 27.4372 75.1921 27.4372H82.5845C82.6482 27.4372 82.7092 27.4118 82.7542 27.3666C82.7992 27.3214 82.8244 27.2601 82.8244 27.1962V24.985C82.8244 24.921 82.7992 24.8597 82.7542 24.8145C82.7092 24.7693 82.6482 24.7439 82.5845 24.7439H72.5115C72.4162 24.7448 72.325 24.7834 72.2579 24.8514C72.1909 24.9194 72.1532 25.0113 72.1532 25.1071V34.5723C72.1528 34.6198 72.1617 34.667 72.1796 34.711C72.1974 34.7551 72.2237 34.7952 72.257 34.8289C72.2903 34.8627 72.33 34.8895 72.3736 34.9078C72.4173 34.9261 72.4642 34.9355 72.5115 34.9355H83.1891C83.2527 34.9355 83.3137 34.9101 83.3587 34.8649C83.4037 34.8197 83.429 34.7584 83.429 34.6944V32.4993C83.4265 32.4373 83.4 32.3788 83.3552 32.3362C83.3104 32.2936 83.2508 32.2702 83.1891 32.2711Z" fill="white"/>
<path d="M35.2267 13.2765L29.2066 22.2532C29.109 22.3827 29.0639 22.5446 29.0803 22.7062C29.0968 22.8678 29.1735 23.0172 29.2951 23.1243C29.4166 23.2314 29.5741 23.2883 29.7357 23.2835C29.8973 23.2787 30.0512 23.2126 30.1662 23.0984L36.0904 17.9561C36.1246 17.9246 36.1672 17.9039 36.2129 17.8965C36.2587 17.8891 36.3056 17.8954 36.3478 17.9146C36.3901 17.9337 36.4258 17.9649 36.4505 18.0043C36.4753 18.0437 36.488 18.0895 36.4871 18.136V34.2992C36.4866 34.3483 36.4712 34.396 36.443 34.4361C36.4148 34.4762 36.3751 34.5066 36.3292 34.5234C36.2833 34.5401 36.2334 34.5424 36.1861 34.53C36.1389 34.5175 36.0966 34.4908 36.0648 34.4535L18.1515 12.9197C17.8655 12.574 17.5078 12.2953 17.1033 12.1032C16.6988 11.9111 16.2574 11.8103 15.81 11.8077H15.1862C14.3726 11.8077 13.5924 12.1324 13.0171 12.7104C12.4418 13.2885 12.1186 14.0724 12.1186 14.8899V37.6514C12.1186 38.4689 12.4418 39.2528 13.0171 39.8309C13.5924 40.4089 14.3726 40.7336 15.1862 40.7336C15.7104 40.7336 16.2259 40.5985 16.6834 40.3414C17.1409 40.0843 17.5252 39.7136 17.7996 39.2648L23.8198 30.2882C23.9173 30.1586 23.9625 29.9967 23.946 29.8351C23.9296 29.6735 23.8529 29.5241 23.7313 29.417C23.6097 29.3099 23.4523 29.253 23.2907 29.2578C23.129 29.2626 22.9752 29.3287 22.8602 29.4429L16.936 34.5853C16.9018 34.6167 16.8592 34.6374 16.8134 34.6448C16.7677 34.6522 16.7208 34.6459 16.6786 34.6267C16.6363 34.6076 16.6006 34.5764 16.5759 34.537C16.5511 34.4976 16.5384 34.4518 16.5393 34.4053V18.2582C16.5398 18.2091 16.5552 18.1613 16.5834 18.1213C16.6116 18.0812 16.6513 18.0508 16.6972 18.034C16.7431 18.0172 16.793 18.0149 16.8403 18.0274C16.8875 18.0399 16.9298 18.0666 16.9616 18.1039L34.8749 39.6377C35.163 39.9803 35.5221 40.2555 35.9271 40.4443C36.3321 40.633 36.7732 40.7307 37.2196 40.7304H37.8594C38.2622 40.7304 38.6611 40.6507 39.0333 40.4958C39.4055 40.3409 39.7437 40.1139 40.0285 39.8277C40.3134 39.5415 40.5393 39.2017 40.6935 38.8277C40.8477 38.4538 40.927 38.053 40.927 37.6482V14.8899C40.927 14.4835 40.847 14.0811 40.6917 13.7059C40.5363 13.3307 40.3086 12.9901 40.0217 12.7036C39.7348 12.4171 39.3944 12.1905 39.02 12.0367C38.6456 11.883 38.2446 11.8051 37.8402 11.8077C37.3159 11.8077 36.8005 11.9428 36.343 12.1999C35.8855 12.457 35.5012 12.8277 35.2267 13.2765Z" fill="white"/>
</svg>
