<svg width="188" height="50" viewBox="0 0 188 50" fill="none" xmlns="http://www.w3.org/2000/svg">
<path d="M64.9076 19.9375V4.71654H70.0506C71.2447 4.71654 72.2208 4.93207 72.9789 5.36313C73.7419 5.78924 74.3068 6.36647 74.6734 7.09482C75.0401 7.82316 75.2234 8.63574 75.2234 9.53255C75.2234 10.4294 75.0401 11.2444 74.6734 11.9777C74.3117 12.711 73.7518 13.2957 72.9938 13.7317C72.2357 14.1628 71.2645 14.3783 70.0804 14.3783H66.394V12.7432H70.0209C70.8384 12.7432 71.4949 12.602 71.9904 12.3196C72.4859 12.0372 72.8451 11.6557 73.0681 11.175C73.296 10.6895 73.4099 10.142 73.4099 9.53255C73.4099 8.92312 73.296 8.37809 73.0681 7.89748C72.8451 7.41687 72.4834 7.04031 71.983 6.7678C71.4826 6.49034 70.8186 6.35161 69.9912 6.35161H66.7508V19.9375H64.9076ZM80.8954 20.2051C80.172 20.2051 79.5155 20.0688 78.9259 19.7963C78.3363 19.5188 77.8681 19.12 77.5212 18.5997C77.1744 18.0745 77.001 17.4403 77.001 16.6971C77.001 16.0431 77.1298 15.5129 77.3875 15.1066C77.6451 14.6954 77.9895 14.3733 78.4205 14.1405C78.8516 13.9076 79.3272 13.7342 79.8475 13.6202C80.3727 13.5013 80.9004 13.4072 81.4305 13.3378C82.1242 13.2486 82.6866 13.1817 83.1176 13.1371C83.5536 13.0876 83.8707 13.0058 84.0689 12.8919C84.2721 12.7779 84.3736 12.5797 84.3736 12.2973V12.2378C84.3736 11.5045 84.173 10.9347 83.7716 10.5285C83.3753 10.1222 82.7733 9.91902 81.9656 9.91902C81.1283 9.91902 80.4718 10.1023 79.9961 10.469C79.5205 10.8356 79.186 11.2271 78.9928 11.6433L77.328 11.0487C77.6253 10.355 78.0217 9.81497 78.5171 9.4285C79.0176 9.03707 79.5626 8.76456 80.1522 8.61097C80.7468 8.45241 81.3314 8.37314 81.9062 8.37314C82.2728 8.37314 82.694 8.41773 83.1696 8.50692C83.6503 8.59115 84.1135 8.76704 84.5594 9.0346C85.0103 9.30215 85.3844 9.70596 85.6817 10.246C85.979 10.7861 86.1276 11.5095 86.1276 12.4162V19.9375H84.3736V18.3916H84.2845C84.1655 18.6394 83.9674 18.9044 83.6899 19.1869C83.4124 19.4693 83.0433 19.7096 82.5825 19.9078C82.1217 20.106 81.5594 20.2051 80.8954 20.2051ZM81.163 18.6294C81.8566 18.6294 82.4413 18.4932 82.917 18.2207C83.3976 17.9482 83.7593 17.5964 84.002 17.1653C84.2498 16.7343 84.3736 16.2809 84.3736 15.8052V14.1999C84.2993 14.2891 84.1358 14.3709 83.8831 14.4452C83.6354 14.5145 83.348 14.5765 83.021 14.631C82.6989 14.6805 82.3843 14.7251 82.0771 14.7648C81.7749 14.7994 81.5296 14.8292 81.3413 14.8539C80.8855 14.9134 80.4594 15.01 80.063 15.1438C79.6716 15.2726 79.3545 15.4683 79.1117 15.7309C78.8739 15.9886 78.755 16.3404 78.755 16.7863C78.755 17.3957 78.9804 17.8565 79.4313 18.1687C79.8871 18.4759 80.4644 18.6294 81.163 18.6294ZM90.6644 13.0702V19.9375H88.9104V8.52178H90.6049V10.3055H90.7536C91.0211 9.72578 91.4274 9.26004 91.9725 8.90825C92.5175 8.55151 93.2211 8.37314 94.0832 8.37314C94.8561 8.37314 95.5324 8.53169 96.1121 8.84879C96.6918 9.16094 97.1427 9.6366 97.4648 10.2758C97.7868 10.91 97.9479 11.7126 97.9479 12.6838V19.9375H96.1939V12.8027C96.1939 11.9059 95.961 11.2072 95.4953 10.7068C95.0295 10.2014 94.3904 9.94875 93.5778 9.94875C93.0179 9.94875 92.5175 10.0701 92.0765 10.3129C91.6405 10.5557 91.2961 10.91 91.0434 11.3757C90.7908 11.8415 90.6644 12.4063 90.6644 13.0702ZM105.699 8.52178V10.0082H99.7831V8.52178H105.699ZM101.507 5.78677H103.261V16.6674C103.261 17.1628 103.333 17.5345 103.477 17.7822C103.625 18.025 103.814 18.1885 104.042 18.2727C104.275 18.352 104.52 18.3916 104.777 18.3916C104.971 18.3916 105.129 18.3817 105.253 18.3619C105.377 18.3371 105.476 18.3173 105.55 18.3024L105.907 19.878C105.788 19.9226 105.622 19.9672 105.409 20.0118C105.196 20.0614 104.926 20.0861 104.599 20.0861C104.104 20.0861 103.618 19.9796 103.142 19.7666C102.672 19.5535 102.28 19.229 101.968 18.793C101.661 18.3569 101.507 17.807 101.507 17.143V5.78677ZM109.918 13.0702V19.9375H108.164V4.71654H109.918V10.3055H110.067C110.334 9.71587 110.736 9.24765 111.271 8.90082C111.811 8.54903 112.529 8.37314 113.426 8.37314C114.204 8.37314 114.885 8.52921 115.47 8.84136C116.055 9.14856 116.508 9.62173 116.83 10.2609C117.157 10.8951 117.32 11.7027 117.32 12.6838V19.9375H115.567V12.8027C115.567 11.896 115.331 11.1949 114.86 10.6994C114.395 10.199 113.748 9.94875 112.921 9.94875C112.346 9.94875 111.831 10.0701 111.375 10.3129C110.924 10.5557 110.567 10.91 110.305 11.3757C110.047 11.8415 109.918 12.4063 109.918 13.0702ZM124.897 20.1753C123.797 20.1753 122.848 19.9325 122.05 19.447C121.258 18.9565 120.646 18.2727 120.215 17.3957C119.789 16.5138 119.576 15.4881 119.576 14.3188C119.576 13.1495 119.789 12.1189 120.215 11.2271C120.646 10.3303 121.245 9.63164 122.013 9.13121C122.786 8.62583 123.688 8.37314 124.719 8.37314C125.313 8.37314 125.9 8.47223 126.48 8.67042C127.06 8.86861 127.587 9.19067 128.063 9.6366C128.539 10.0776 128.918 10.6622 129.2 11.3906C129.483 12.1189 129.624 13.0157 129.624 14.081V14.8242H120.824V13.3081H127.84C127.84 12.6639 127.711 12.0892 127.454 11.5838C127.201 11.0784 126.839 10.6796 126.369 10.3872C125.903 10.0949 125.353 9.94875 124.719 9.94875C124.02 9.94875 123.416 10.1222 122.905 10.469C122.4 10.8109 122.011 11.2568 121.738 11.8068C121.466 12.3567 121.33 12.9464 121.33 13.5756V14.5864C121.33 15.4485 121.478 16.1793 121.776 16.7789C122.078 17.3734 122.496 17.8268 123.032 18.1389C123.567 18.4461 124.188 18.5997 124.897 18.5997C125.358 18.5997 125.774 18.5353 126.146 18.4065C126.522 18.2727 126.847 18.0745 127.119 17.8119C127.392 17.5444 127.602 17.2124 127.751 16.816L129.445 17.2917C129.267 17.8664 128.967 18.3718 128.546 18.8078C128.125 19.2389 127.605 19.5758 126.985 19.8186C126.366 20.0564 125.67 20.1753 124.897 20.1753ZM131.873 19.9375V8.52178H133.568V10.246H133.687C133.895 9.68119 134.271 9.22288 134.816 8.87109C135.362 8.5193 135.976 8.34341 136.66 8.34341C136.788 8.34341 136.949 8.34589 137.143 8.35084C137.336 8.3558 137.482 8.36323 137.581 8.37314V10.1568C137.522 10.142 137.386 10.1197 137.172 10.09C136.964 10.0553 136.744 10.0379 136.511 10.0379C135.956 10.0379 135.461 10.1544 135.025 10.3872C134.594 10.6152 134.252 10.9323 133.999 11.3385C133.751 11.7399 133.627 12.1982 133.627 12.7135V19.9375H131.873ZM64.9076 44.9375V29.7165H74.0342V31.3516H66.7508V36.4946H73.3505V38.1297H66.7508V44.9375H64.9076ZM80.3343 45.1753C79.3037 45.1753 78.3995 44.9301 77.6216 44.4395C76.8486 43.949 76.2442 43.2628 75.8081 42.3809C75.3771 41.4989 75.1615 40.4683 75.1615 39.2891C75.1615 38.1 75.3771 37.0619 75.8081 36.175C76.2442 35.2881 76.8486 34.5994 77.6216 34.1089C78.3995 33.6184 79.3037 33.3731 80.3343 33.3731C81.3649 33.3731 82.2666 33.6184 83.0396 34.1089C83.8175 34.5994 84.422 35.2881 84.853 36.175C85.289 37.0619 85.507 38.1 85.507 39.2891C85.507 40.4683 85.289 41.4989 84.853 42.3809C84.422 43.2628 83.8175 43.949 83.0396 44.4395C82.2666 44.9301 81.3649 45.1753 80.3343 45.1753ZM80.3343 43.5997C81.1171 43.5997 81.7613 43.3991 82.2666 42.9977C82.772 42.5964 83.1461 42.0687 83.3889 41.4147C83.6317 40.7607 83.7531 40.0521 83.7531 39.2891C83.7531 38.5261 83.6317 37.8151 83.3889 37.1561C83.1461 36.4971 82.772 35.9645 82.2666 35.5582C81.7613 35.1519 81.1171 34.9487 80.3343 34.9487C79.5514 34.9487 78.9073 35.1519 78.4019 35.5582C77.8966 35.9645 77.5225 36.4971 77.2797 37.1561C77.0369 37.8151 76.9155 38.5261 76.9155 39.2891C76.9155 40.0521 77.0369 40.7607 77.2797 41.4147C77.5225 42.0687 77.8966 42.5964 78.4019 42.9977C78.9073 43.3991 79.5514 43.5997 80.3343 43.5997ZM94.9602 40.2701V33.5218H96.7141V44.9375H94.9602V43.0052H94.8413C94.5737 43.5849 94.1575 44.0779 93.5927 44.4841C93.0278 44.8855 92.3143 45.0861 91.4522 45.0861C90.7387 45.0861 90.1045 44.9301 89.5496 44.6179C88.9947 44.3008 88.5586 43.8252 88.2415 43.191C87.9244 42.5518 87.7659 41.7466 87.7659 40.7755V33.5218H89.5199V40.6566C89.5199 41.489 89.7527 42.1529 90.2185 42.6484C90.6892 43.1439 91.2887 43.3916 92.017 43.3916C92.4531 43.3916 92.8965 43.2801 93.3474 43.0572C93.8032 42.8342 94.1847 42.4923 94.4919 42.0315C94.8041 41.5708 94.9602 40.9836 94.9602 40.2701ZM101.262 38.0702V44.9375H99.5081V33.5218H101.203V35.3055H101.351C101.619 34.7258 102.025 34.26 102.57 33.9083C103.115 33.5515 103.819 33.3731 104.681 33.3731C105.454 33.3731 106.13 33.5317 106.71 33.8488C107.29 34.1609 107.74 34.6366 108.062 35.2758C108.385 35.91 108.546 36.7126 108.546 37.6838V44.9375H106.792V37.8027C106.792 36.9059 106.559 36.2072 106.093 35.7068C105.627 35.2014 104.988 34.9487 104.175 34.9487C103.616 34.9487 103.115 35.0701 102.674 35.3129C102.238 35.5557 101.894 35.91 101.641 36.3757C101.388 36.8415 101.262 37.4063 101.262 38.0702ZM115.643 45.1753C114.691 45.1753 113.852 44.935 113.123 44.4544C112.395 43.9688 111.825 43.2851 111.414 42.4032C111.003 41.5163 110.797 40.4683 110.797 39.2594C110.797 38.0603 111.003 37.0198 111.414 36.1379C111.825 35.2559 112.397 34.5747 113.131 34.0941C113.864 33.6134 114.711 33.3731 115.672 33.3731C116.416 33.3731 117.003 33.497 117.434 33.7447C117.87 33.9875 118.202 34.265 118.43 34.5771C118.663 34.8843 118.843 35.137 118.972 35.3352H119.121V29.7165H120.875V44.9375H119.18V43.1835H118.972C118.843 43.3916 118.66 43.6542 118.422 43.9713C118.184 44.2835 117.845 44.5634 117.404 44.8112C116.963 45.0539 116.376 45.1753 115.643 45.1753ZM115.881 43.5997C116.584 43.5997 117.179 43.4164 117.664 43.0497C118.15 42.6781 118.519 42.1653 118.772 41.5113C119.024 40.8523 119.151 40.0918 119.151 39.2296C119.151 38.3774 119.027 37.6317 118.779 36.9926C118.531 36.3485 118.165 35.848 117.679 35.4913C117.194 35.1296 116.594 34.9487 115.881 34.9487C115.137 34.9487 114.518 35.1395 114.022 35.521C113.532 35.8976 113.163 36.4104 112.915 37.0595C112.672 37.7036 112.551 38.427 112.551 39.2296C112.551 40.0422 112.675 40.7805 112.923 41.4444C113.175 42.1034 113.547 42.6286 114.037 43.02C114.533 43.4065 115.147 43.5997 115.881 43.5997ZM127.272 45.2051C126.548 45.2051 125.892 45.0688 125.302 44.7963C124.712 44.5188 124.244 44.12 123.897 43.5997C123.551 43.0745 123.377 42.4403 123.377 41.6971C123.377 41.0431 123.506 40.5129 123.764 40.1066C124.021 39.6954 124.366 39.3733 124.797 39.1405C125.228 38.9076 125.703 38.7342 126.224 38.6202C126.749 38.5013 127.277 38.4072 127.807 38.3378C128.5 38.2486 129.063 38.1817 129.494 38.1371C129.93 38.0876 130.247 38.0058 130.445 37.8919C130.648 37.7779 130.75 37.5797 130.75 37.2973V37.2378C130.75 36.5045 130.549 35.9347 130.148 35.5285C129.751 35.1222 129.149 34.919 128.342 34.919C127.504 34.919 126.848 35.1023 126.372 35.469C125.897 35.8356 125.562 36.2271 125.369 36.6433L123.704 36.0487C124.001 35.355 124.398 34.815 124.893 34.4285C125.394 34.0371 125.939 33.7646 126.528 33.611C127.123 33.4524 127.708 33.3731 128.282 33.3731C128.649 33.3731 129.07 33.4177 129.546 33.5069C130.026 33.5911 130.49 33.767 130.936 34.0346C131.386 34.3022 131.761 34.706 132.058 35.246C132.355 35.7861 132.504 36.5095 132.504 37.4162V44.9375H130.75V43.3916H130.661C130.542 43.6394 130.343 43.9044 130.066 44.1869C129.789 44.4693 129.419 44.7096 128.959 44.9078C128.498 45.106 127.935 45.2051 127.272 45.2051ZM127.539 43.6294C128.233 43.6294 128.817 43.4932 129.293 43.2207C129.774 42.9482 130.135 42.5964 130.378 42.1653C130.626 41.7343 130.75 41.2809 130.75 40.8052V39.1999C130.675 39.2891 130.512 39.3709 130.259 39.4452C130.012 39.5145 129.724 39.5765 129.397 39.631C129.075 39.6805 128.76 39.7251 128.453 39.7648C128.151 39.7994 127.906 39.8292 127.717 39.8539C127.262 39.9134 126.836 40.01 126.439 40.1438C126.048 40.2726 125.731 40.4683 125.488 40.7309C125.25 40.9886 125.131 41.3404 125.131 41.7863C125.131 42.3957 125.357 42.8565 125.807 43.1687C126.263 43.4759 126.84 43.6294 127.539 43.6294ZM140.251 33.5218V35.0082H134.335V33.5218H140.251ZM136.06 30.7868H137.813V41.6674C137.813 42.1628 137.885 42.5345 138.029 42.7822C138.178 43.025 138.366 43.1885 138.594 43.2727C138.827 43.352 139.072 43.3916 139.33 43.3916C139.523 43.3916 139.681 43.3817 139.805 43.3619C139.929 43.3371 140.028 43.3173 140.103 43.3024L140.459 44.878C140.34 44.9226 140.174 44.9672 139.961 45.0118C139.748 45.0614 139.478 45.0861 139.151 45.0861C138.656 45.0861 138.17 44.9796 137.695 44.7666C137.224 44.5535 136.832 44.229 136.52 43.793C136.213 43.3569 136.06 42.807 136.06 42.143V30.7868ZM142.471 44.9375V33.5218H144.225V44.9375H142.471ZM143.363 31.6192C143.021 31.6192 142.726 31.5027 142.478 31.2699C142.236 31.037 142.114 30.757 142.114 30.43C142.114 30.103 142.236 29.8231 142.478 29.5902C142.726 29.3573 143.021 29.2409 143.363 29.2409C143.705 29.2409 143.997 29.3573 144.24 29.5902C144.488 29.8231 144.611 30.103 144.611 30.43C144.611 30.757 144.488 31.037 144.24 31.2699C143.997 31.5027 143.705 31.6192 143.363 31.6192ZM151.657 45.1753C150.626 45.1753 149.722 44.9301 148.944 44.4395C148.171 43.949 147.566 43.2628 147.13 42.3809C146.699 41.4989 146.484 40.4683 146.484 39.2891C146.484 38.1 146.699 37.0619 147.13 36.175C147.566 35.2881 148.171 34.5994 148.944 34.1089C149.722 33.6184 150.626 33.3731 151.657 33.3731C152.687 33.3731 153.589 33.6184 154.362 34.1089C155.14 34.5994 155.744 35.2881 156.175 36.175C156.611 37.0619 156.829 38.1 156.829 39.2891C156.829 40.4683 156.611 41.4989 156.175 42.3809C155.744 43.2628 155.14 43.949 154.362 44.4395C153.589 44.9301 152.687 45.1753 151.657 45.1753ZM151.657 43.5997C152.439 43.5997 153.084 43.3991 153.589 42.9977C154.094 42.5964 154.468 42.0687 154.711 41.4147C154.954 40.7607 155.075 40.0521 155.075 39.2891C155.075 38.5261 154.954 37.8151 154.711 37.1561C154.468 36.4971 154.094 35.9645 153.589 35.5582C153.084 35.1519 152.439 34.9487 151.657 34.9487C150.874 34.9487 150.23 35.1519 149.724 35.5582C149.219 35.9645 148.845 36.4971 148.602 37.1561C148.359 37.8151 148.238 38.5261 148.238 39.2891C148.238 40.0521 148.359 40.7607 148.602 41.4147C148.845 42.0687 149.219 42.5964 149.724 42.9977C150.23 43.3991 150.874 43.5997 151.657 43.5997ZM160.842 38.0702V44.9375H159.088V33.5218H160.783V35.3055H160.931C161.199 34.7258 161.605 34.26 162.15 33.9083C162.695 33.5515 163.399 33.3731 164.261 33.3731C165.034 33.3731 165.71 33.5317 166.29 33.8488C166.87 34.1609 167.32 34.6366 167.643 35.2758C167.965 35.91 168.126 36.7126 168.126 37.6838V44.9375H166.372V37.8027C166.372 36.9059 166.139 36.2072 165.673 35.7068C165.207 35.2014 164.568 34.9487 163.756 34.9487C163.196 34.9487 162.695 35.0701 162.254 35.3129C161.818 35.5557 161.474 35.91 161.221 36.3757C160.969 36.8415 160.842 37.4063 160.842 38.0702Z" fill="white"/>
<path opacity="0.4" d="M171.621 29.3118H172.612V31.9844H173.288V29.3118H174.279V28.7476H171.621V29.3118ZM174.806 28.7476V31.9844H175.47V29.8697H175.497L176.334 31.9686H176.786L177.624 29.8776H177.651V31.9844H178.315V28.7476H177.471L176.579 30.9223H176.541L175.65 28.7476H174.806Z" fill="white"/>
<path d="M7.41179 14.8877C7.50736 14.8527 7.60292 14.8265 7.64636 14.8177C10.6437 14.1618 16.3255 13.0772 19.7485 13.4271C20.0265 13.4533 20.2784 13.2609 20.3219 12.9898C20.4435 12.2114 20.765 10.9782 20.9561 10.8032C21.0864 10.6895 21.3123 10.4446 21.8423 10.8032C22.294 11.1093 24.2662 13.0685 24.8656 13.672C24.9786 13.7857 25.1262 13.8382 25.2826 13.8207C25.7257 13.7769 26.6901 13.7157 27.359 13.8469C28.2452 14.0218 34.2919 17.4241 35.5429 18.8585C36.4899 19.9517 36.5073 20.8263 36.4639 21.1937C36.4465 21.3161 36.4725 21.4386 36.542 21.5435L39.3395 26.0216C39.4177 26.144 39.4438 26.2927 39.4003 26.4326C39.3135 26.7825 39.0876 27.4297 38.5837 27.8495C38.462 27.9457 38.3839 28.0944 38.3752 28.2518C38.3578 28.7241 38.2883 29.695 38.0277 29.9661C37.7496 30.246 36.8461 31.0506 36.4378 31.4092C36.3162 31.5142 36.2553 31.6716 36.264 31.829C36.2901 32.4063 36.3162 33.8057 35.8905 34.0855C35.3605 34.4441 32.3371 34.619 31.9809 34.0855L28.9141 31.0244C27.776 30.3509 26.4555 29.9661 25.0481 29.9661C22.7545 29.9661 20.6955 30.9806 19.2967 32.5899C19.1056 32.7736 18.9405 32.9748 18.8189 33.1847C18.8102 33.1934 18.8102 33.2022 18.8015 33.2109C17.9154 34.4704 17.3941 36.0009 17.3941 37.654C17.3941 41.9046 20.8171 45.3506 25.0394 45.3506C36.238 45.3506 45.308 36.2109 45.308 24.9458C45.308 13.6807 36.238 4.53223 25.0481 4.53223C17.481 4.53223 10.8869 8.70415 7.41179 14.8877C7.4031 14.8877 7.4031 14.8877 7.41179 14.8877Z" fill="white"/>
<circle cx="24.9037" cy="24.9379" r="24.2816" stroke="white" stroke-width="1.00187"/>
</svg>
