<svg width="149" height="33" viewBox="0 0 149 33" fill="none" xmlns="http://www.w3.org/2000/svg">
<path d="M58.2958 10.5441C59.2 11.0923 59.9652 11.8461 60.452 12.874C61.0085 13.9018 61.2867 15.1353 61.2867 16.5057C61.2867 17.8763 61.0085 19.0412 60.3825 20.069C59.826 21.0969 58.9913 21.8507 57.9479 22.3303C56.9047 22.8785 55.6526 23.1527 54.3311 23.1527C53.5659 23.1527 52.8703 23.0155 52.1748 22.7416C51.4791 22.536 50.8532 22.1247 50.3662 21.6452V28.7717H46.332V9.99594H49.8098L50.1577 11.5035C51.6878 10.27 53.3572 9.65332 55.0961 9.65332C56.2786 9.65332 57.3915 9.92741 58.2958 10.5441ZM56.07 19.0412C56.7655 18.4245 57.1132 17.6021 57.1132 16.5743C57.1132 15.5465 56.7655 14.7242 56.1395 14.0389C55.5135 13.3536 54.6788 13.0795 53.7746 13.0795C53.0095 13.0795 52.3138 13.2166 51.7574 13.5592C51.2009 13.8333 50.7836 14.313 50.4359 14.9298V18.0132C50.6445 18.6301 51.0619 19.1096 51.5488 19.4524C52.1053 19.7949 52.7312 20.0005 53.4964 20.0005C54.5397 20.0005 55.3743 19.6579 56.07 19.0412Z" fill="white"/>
<path d="M63.653 12.9389C64.2791 11.9796 65.1136 11.1573 66.2265 10.6091C67.3395 10.0609 68.5916 9.71826 69.9827 9.71826C71.3739 9.71826 72.6258 9.99237 73.7387 10.6091C74.7821 11.1573 75.6168 11.9796 76.2428 13.0074C76.8688 14.0353 77.147 15.1317 77.147 16.4337C77.147 17.7357 76.8688 18.8321 76.2428 19.8599C75.6168 20.8877 74.8516 21.71 73.7387 22.2583C72.6953 22.8064 71.3739 23.1491 69.9827 23.1491C68.5916 23.1491 67.3395 22.875 66.2265 22.3268C65.1136 21.7786 64.2791 21.0249 63.653 19.9969C63.0965 18.9691 62.7487 17.8041 62.7487 16.4337C62.7487 15.1317 63.0965 13.9668 63.653 12.9389ZM67.7569 18.9005C68.3133 19.5858 69.0785 19.8599 69.9827 19.8599C70.8869 19.8599 71.6521 19.5173 72.2085 18.9005C72.765 18.2838 73.0432 17.393 73.0432 16.4337C73.0432 15.4059 72.765 14.5835 72.2085 13.9668C71.5824 13.2815 70.8869 12.9389 69.9132 12.9389C69.0088 12.9389 68.3133 13.2815 67.6874 13.8983C67.1309 14.5835 66.8527 15.4059 66.8527 16.4337C66.8527 17.393 67.1309 18.2154 67.7569 18.9005Z" fill="white"/>
<path d="M83.6857 0.263672V22.8083H79.6514V0.263672H83.6857Z" fill="white"/>
<path d="M100.241 10.3369L92.0329 28.8385H88.1379L91.1982 22.1917L85.3556 10.3369H89.9463L93.285 17.7375L96.6238 10.3369H100.241Z" fill="white"/>
<path d="M115.678 10.335V22.8064C115.678 23.9714 115.33 25.0678 114.634 26.0272C113.939 26.9864 113.034 27.7403 111.852 28.2884C110.669 28.8367 109.418 29.1107 108.026 29.1107C106.983 29.1107 106.079 28.9737 105.314 28.7681C104.548 28.494 103.922 28.2198 103.436 27.9458C102.879 27.6031 102.323 27.192 101.697 26.6439L104.062 23.9028C104.618 24.4511 105.244 24.8622 105.801 25.1363C106.357 25.4103 107.122 25.6159 107.957 25.6159C109 25.6159 109.835 25.3419 110.53 24.8622C111.226 24.3825 111.574 23.6288 111.574 22.738V20.9563C111.156 21.573 110.6 22.1213 109.765 22.5324C108.931 22.9435 107.957 23.1491 106.844 23.1491C105.731 23.1491 104.618 22.875 103.644 22.2583C102.671 21.71 101.905 20.8877 101.279 19.8599C100.723 18.8321 100.375 17.7357 100.375 16.5023C100.375 15.2687 100.653 14.1038 101.279 13.076C101.905 12.0481 102.671 11.2258 103.714 10.6091C104.688 9.99237 105.731 9.71826 106.844 9.71826C107.887 9.71826 108.791 9.85532 109.626 10.1294C110.461 10.4035 111.087 10.8147 111.504 11.2943L111.922 10.335H115.678ZM111.574 18.0098V14.9262C111.295 14.3094 110.878 13.8297 110.252 13.4871C109.626 13.1445 108.931 12.9389 108.096 12.9389C107.122 12.9389 106.287 13.2815 105.592 13.8983C104.896 14.515 104.548 15.3373 104.548 16.3651C104.548 17.3245 104.896 18.2154 105.592 18.9005C106.287 19.5858 107.122 19.9285 108.096 19.9285C109.696 19.8599 110.878 19.2432 111.574 18.0098Z" fill="white"/>
<path d="M119.019 12.9425C119.645 11.9146 120.48 11.1609 121.593 10.5441C122.706 9.99594 123.958 9.65332 125.349 9.65332C126.74 9.65332 127.992 9.92741 129.105 10.5441C130.149 11.0923 130.983 11.9146 131.609 12.9425C132.166 13.9704 132.513 15.0668 132.513 16.3687C132.513 17.6707 132.235 18.7671 131.609 19.7949C131.053 20.8227 130.218 21.6452 129.105 22.1933C128.062 22.7416 126.74 23.0841 125.349 23.0841C123.958 23.0841 122.706 22.81 121.593 22.2619C120.48 21.7136 119.645 20.9599 119.019 19.9321C118.393 18.9041 118.115 17.7393 118.115 16.3001C118.115 15.1353 118.393 13.9704 119.019 12.9425ZM123.054 18.9041C123.61 19.5893 124.375 19.8635 125.279 19.8635C126.184 19.8635 126.949 19.5208 127.505 18.9041C128.062 18.2874 128.34 17.3965 128.34 16.4373C128.34 15.4093 128.062 14.5871 127.505 13.9704C126.949 13.3536 126.184 13.011 125.279 13.011C124.375 13.011 123.68 13.3536 123.054 13.9704C122.428 14.5871 122.149 15.4779 122.149 16.4373C122.219 17.3965 122.497 18.2188 123.054 18.9041Z" fill="white"/>
<path d="M146.772 10.7461C147.607 11.4314 147.953 12.3222 148.023 13.4186V22.8064H143.919V14.9262C143.85 13.6927 143.224 13.076 142.041 13.076C141.137 13.076 140.372 13.4871 139.816 14.3779C139.259 15.2687 138.981 16.3651 138.981 17.6671V22.8064H134.946V10.335H138.633L138.911 12.3222C139.398 11.4999 140.024 10.8832 140.859 10.4035C141.694 9.92384 142.667 9.71826 143.78 9.71826C144.962 9.71826 146.006 10.0609 146.772 10.7461Z" fill="white"/>
<path d="M29.0814 10.1337C28.3857 9.72257 27.4815 9.72257 26.7165 10.1337L21.291 13.2858L17.6045 15.3416L12.1791 18.4937C11.4835 18.9048 10.5793 18.9048 9.81414 18.4937L5.50161 16.0267C4.80604 15.6156 4.31915 14.8619 4.31915 14.0396V9.17437C4.31915 8.35208 4.73649 7.59831 5.50161 7.18716L9.74457 4.78881C10.4401 4.37766 11.3444 4.37766 12.1095 4.78881L16.3525 7.18716C17.048 7.59831 17.5349 8.35208 17.5349 9.17437V12.3265L21.2215 10.2022V7.05012C21.2215 6.22782 20.8042 5.47405 20.039 5.0629L12.1791 0.540294C11.4835 0.129147 10.5793 0.129147 9.81414 0.540294L1.8151 5.0629C1.04997 5.47405 0.632629 6.22782 0.632629 7.05012V16.1639C0.632629 16.9862 1.04997 17.74 1.8151 18.1511L9.81414 22.6737C10.5097 23.0849 11.4139 23.0849 12.1791 22.6737L17.6045 19.5901L21.291 17.4659L26.7165 14.3822C27.412 13.9711 28.3162 13.9711 29.0814 14.3822L33.3244 16.7806C34.0199 17.1917 34.5068 17.9456 34.5068 18.7678V23.633C34.5068 24.4554 34.0895 25.2091 33.3244 25.6202L29.0814 28.0872C28.3857 28.4983 27.4815 28.4983 26.7165 28.0872L22.4736 25.6888C21.7779 25.2777 21.291 24.5238 21.291 23.7016V20.5495L17.6045 22.6737V25.8258C17.6045 26.648 18.0219 27.4019 18.7869 27.813L26.786 32.3356C27.4815 32.7467 28.3857 32.7467 29.1509 32.3356L37.15 27.813C37.8455 27.4019 38.3325 26.648 38.3325 25.8258V16.712C38.3325 15.8898 37.9151 15.1361 37.15 14.7249L29.0814 10.1337Z" fill="white"/>
</svg>
