<svg width="35" height="34" viewBox="0 0 35 34" fill="none" xmlns="http://www.w3.org/2000/svg">
<path d="M8.75976 33.5483C10.2275 33.5505 11.6702 33.1683 12.9444 32.4399C14.2187 31.7116 15.28 30.6623 16.023 29.3965C16.7659 28.1307 17.1646 26.6925 17.1793 25.2248C17.194 23.7572 16.8242 22.3113 16.1068 21.0308L24.6079 12.5282L27.5758 15.4961L29.7401 13.3318L26.7707 10.3639L29.1983 7.93628L32.1662 10.9042L34.3305 8.73986L31.3626 5.77196L33.3417 3.79286L30.0952 0.546387L12.8588 17.7844C11.7357 17.1555 10.4833 16.7926 9.19799 16.7235C7.91266 16.6544 6.62862 16.881 5.44456 17.3858C4.2605 17.8906 3.20796 18.6602 2.36787 19.6354C1.52778 20.6107 0.922499 21.7656 0.598572 23.0113C0.274646 24.2571 0.240696 25.5605 0.499332 26.8214C0.757969 28.0823 1.3023 29.2672 2.09049 30.2848C2.87868 31.3025 3.88972 32.1258 5.0459 32.6916C6.20207 33.2573 7.47259 33.5504 8.75976 33.5483ZM8.75976 21.3033C9.51659 21.3033 10.2564 21.5277 10.8857 21.9482C11.515 22.3686 12.0054 22.9663 12.2951 23.6655C12.5847 24.3647 12.6605 25.1341 12.5128 25.8764C12.3652 26.6187 12.0007 27.3005 11.4656 27.8357C10.9304 28.3708 10.2486 28.7353 9.50629 28.8829C8.76401 29.0306 7.99461 28.9548 7.29539 28.6652C6.59618 28.3755 5.99855 27.8851 5.57808 27.2558C5.15761 26.6265 4.93318 25.8867 4.93318 25.1299C4.93318 24.115 5.33634 23.1417 6.05396 22.4241C6.77158 21.7064 7.74489 21.3033 8.75976 21.3033Z" fill="#7AD8CD"/>
</svg>
