<svg width="31" height="34" viewBox="0 0 31 34" fill="none" xmlns="http://www.w3.org/2000/svg">
<path d="M2.61943 6.69393C2.05266 6.69393 1.5091 6.91908 1.10833 7.31985C0.707557 7.72062 0.482406 8.26418 0.482406 8.83096V15.242H4.75646V10.968H23.1135L20.3568 13.7248L23.37 16.738L29.781 10.3269C30.1791 9.92648 30.4025 9.38485 30.4025 8.82027C30.4025 8.2557 30.1791 7.71407 29.781 7.31367L23.37 0.902588L20.3568 3.9158L23.1135 6.69393H2.61943ZM26.1267 23.7901H7.76967L10.5264 21.0334L7.51323 18.0202L1.10214 24.4313C0.704121 24.8317 0.480713 25.3733 0.480713 25.9379C0.480713 26.5024 0.704121 27.0441 1.10214 27.4445L7.51323 33.8555L10.5264 30.8423L7.76967 28.0642H28.2638C28.8305 28.0642 29.3741 27.8391 29.7749 27.4383C30.1756 27.0375 30.4008 26.494 30.4008 25.9272V19.5161H26.1267V23.7901Z" fill="#7AD8CD"/>
</svg>
