<svg width="32" height="24" viewBox="0 0 32 24" fill="none" xmlns="http://www.w3.org/2000/svg">
<path d="M24.0599 0.272949H8.47179H0.977735C0.812049 0.272949 0.677734 0.407264 0.677734 0.572949V23.3551C0.677734 23.5208 0.812049 23.6551 0.977734 23.6551H31.554C31.7196 23.6551 31.854 23.5208 31.854 23.3551V0.572948C31.854 0.407263 31.7196 0.272949 31.554 0.272949H24.0599ZM28.7363 20.2375C28.7363 20.4032 28.602 20.5375 28.4363 20.5375H4.09536C3.92967 20.5375 3.79536 20.4032 3.79536 20.2375V3.69057C3.79536 3.52489 3.92967 3.39057 4.09536 3.39057H28.4363C28.602 3.39057 28.7363 3.52489 28.7363 3.69057V20.2375Z" fill="#7AD8CD"/>
<path d="M6.46777 17.9634C6.46777 18.129 6.60209 18.2634 6.76777 18.2634H15.9667C16.1323 18.2634 16.2667 18.129 16.2667 17.9634V5.9648C16.2667 5.79911 16.1323 5.66479 15.9667 5.66479H6.76777C6.60209 5.66479 6.46777 5.79911 6.46777 5.96479V17.9634ZM9.26745 8.76447C9.26745 8.59879 9.40177 8.46447 9.56745 8.46447H13.167C13.3327 8.46447 13.467 8.59879 13.467 8.76447V15.1637C13.467 15.3294 13.3327 15.4637 13.167 15.4637H9.56745C9.40177 15.4637 9.26745 15.3294 9.26745 15.1637V8.76447ZM17.6665 8.76447C17.6665 8.59879 17.8008 8.46447 17.9665 8.46447H24.3657C24.5314 8.46447 24.6657 8.59879 24.6657 8.76447V10.9642C24.6657 11.1298 24.5314 11.2642 24.3657 11.2642H17.9665C17.8008 11.2642 17.6665 11.1298 17.6665 10.9642V8.76447ZM17.6665 12.964C17.6665 12.7983 17.8008 12.664 17.9665 12.664H22.9658C23.1315 12.664 23.2658 12.7983 23.2658 12.964V15.1637C23.2658 15.3294 23.1315 15.4637 22.9658 15.4637H17.9665C17.8008 15.4637 17.6665 15.3294 17.6665 15.1637V12.964Z" fill="#7AD8CD"/>
</svg>
