<svg width="33" height="33" viewBox="0 0 33 33" fill="none" xmlns="http://www.w3.org/2000/svg">
<path d="M30.2934 19.7508V13.2579C31.4577 12.7478 32.2722 11.5882 32.2722 10.2383C32.2723 9.80513 32.1871 9.37621 32.0214 8.97602C31.8557 8.57584 31.6128 8.21221 31.3065 7.90592C31.0003 7.59963 30.6367 7.35667 30.2365 7.19093C29.8363 7.02519 29.4074 6.93991 28.9743 6.93996C28.1717 6.93996 27.4463 7.23916 26.8756 7.71289L19.7229 4.13677C19.7257 4.08255 19.7396 4.02872 19.7396 3.97173C19.7396 3.53863 19.6543 3.10976 19.4886 2.70962C19.3229 2.30947 19.08 1.94589 18.7737 1.63965C18.4675 1.3334 18.1039 1.09048 17.7038 0.92476C17.3036 0.759044 16.8748 0.673776 16.4417 0.673828C16.0085 0.673672 15.5796 0.758869 15.1794 0.924548C14.7792 1.09023 14.4156 1.33314 14.1093 1.63941C13.8031 1.94568 13.5601 2.3093 13.3945 2.70949C13.2288 3.10968 13.1436 3.5386 13.1437 3.97173C13.1437 4.02872 13.1576 4.08255 13.1604 4.13677L6.00931 7.71289C5.43743 7.23916 4.71199 6.93996 3.90899 6.93996C3.47582 6.93981 3.04687 7.02502 2.64666 7.19072C2.24644 7.35642 1.8828 7.59938 1.57653 7.90569C1.27026 8.212 1.02735 8.57567 0.861691 8.9759C0.696034 9.37614 0.610876 9.8051 0.611084 10.2383C0.611084 11.5882 1.42557 12.7478 2.58991 13.2579V19.7508C1.42557 20.261 0.611084 21.4178 0.611084 22.7705C0.611084 24.5899 2.08649 26.0688 3.90899 26.0688C4.71041 26.0688 5.43703 25.7724 6.00772 25.2959L13.1604 28.872C13.1576 28.929 13.1437 28.9801 13.1437 29.0371C13.144 29.9117 13.4915 30.7504 14.1099 31.3688C14.7283 31.9872 15.5671 32.3348 16.4417 32.335C18.2634 32.335 19.7396 30.856 19.7396 29.0371C19.7396 28.9801 19.7257 28.929 19.7229 28.872L26.8756 25.2959C27.4475 25.7724 28.1725 26.0688 28.9743 26.0688C30.796 26.0688 32.2722 24.5899 32.2722 22.7705C32.2722 21.4206 31.4577 20.261 30.2934 19.7508ZM5.22847 19.7508V13.2579C5.5146 13.1341 5.77066 12.9591 6.00772 12.7632L13.1604 16.3394C13.1576 16.3964 13.1437 16.4474 13.1437 16.5044C13.1437 17.8543 13.9578 19.0139 15.1226 19.5241V26.017C14.8364 26.1432 14.5788 26.3162 14.3417 26.5117L7.19027 22.9356C7.19304 22.8813 7.20729 22.8275 7.20729 22.7705C7.20729 21.4178 6.3928 20.261 5.22847 19.7508ZM16.4417 7.27003C17.2427 7.27003 17.9681 6.9736 18.5404 6.4971L25.693 10.0732C25.6903 10.1302 25.676 10.1813 25.676 10.2383C25.676 10.2949 25.6903 10.3487 25.693 10.4029L18.5404 13.9794C17.9697 13.5053 17.2431 13.2065 16.4417 13.2065C15.639 13.2065 14.914 13.5053 14.3417 13.9794L7.19027 10.4029C7.19304 10.3487 7.20729 10.2949 7.20729 10.2383C7.20729 10.1813 7.19304 10.1302 7.19027 10.0732L14.3429 6.4971C14.914 6.9736 15.6406 7.27003 16.4417 7.27003ZM17.7607 26.017V19.5241C18.9255 19.0139 19.7396 17.8543 19.7396 16.5044C19.7396 16.4474 19.7257 16.3964 19.7229 16.3394L26.8756 12.7632C27.1126 12.9591 27.3687 13.1317 27.6548 13.2579V19.7508C26.4917 20.261 25.676 21.4206 25.676 22.7705C25.676 22.8275 25.6903 22.8813 25.693 22.9356L18.5404 26.5117C18.3033 26.3162 18.0469 26.1432 17.7607 26.017Z" fill="#7AD8CD"/>
</svg>
