<svg width="69" height="67" viewBox="0 0 69 67" fill="none" xmlns="http://www.w3.org/2000/svg">
<path fill-rule="evenodd" clip-rule="evenodd" d="M27.1251 21.0686C29.1333 22.7278 31.7045 23.7275 34.5212 23.7275C37.3073 23.7275 39.8532 22.7494 41.8516 21.1225L47.7604 26.9667C46.2859 28.94 45.415 31.392 45.415 34.0366C45.415 36.6807 46.2855 39.1323 47.7596 41.1054L42.3906 46.4096C40.321 44.5048 37.5644 43.3379 34.5212 43.3379C31.4455 43.3379 28.6626 44.5298 26.5857 46.4709L21.188 41.1383C22.6769 39.1596 23.5571 36.6954 23.5571 34.0366C23.5571 31.3793 22.6779 28.9165 21.1906 26.9384L27.1251 21.0686ZM49.846 43.2612L44.3272 48.7136C45.512 50.5571 46.1978 52.7523 46.1978 55.0991C46.1978 61.5531 41.0113 66.8603 34.5212 66.8603C28.0312 66.8603 22.8447 61.5531 22.8447 55.0991C22.8447 52.7852 23.5114 50.6186 24.6658 48.7913L19.0941 43.2867C17.1137 44.8573 14.6126 45.7978 11.8806 45.7978C5.39059 45.7978 0.204101 40.4906 0.204102 34.0366C0.204102 27.5825 5.3906 22.2754 11.8806 22.2754C14.6142 22.2754 17.1165 23.2169 19.0975 24.7891L25.0739 18.8779C23.6699 16.9325 22.8447 14.5406 22.8447 11.9663C22.8447 5.51223 28.0312 0.205078 34.5212 0.205078C41.0113 0.205078 46.1978 5.51223 46.1978 11.9663C46.1978 14.5712 45.3529 16.9893 43.9183 18.9471L49.8471 24.8111C51.8323 23.2257 54.3452 22.2754 57.0916 22.2754C63.5816 22.2754 68.7681 27.5825 68.7681 34.0366C68.7681 40.4906 63.5816 45.7978 57.0916 45.7978C54.3448 45.7978 51.8315 44.8471 49.846 43.2612ZM11.8806 26.2754C13.8639 26.2754 15.6716 27.0358 17.0339 28.284L17.5704 28.8265C18.805 30.2038 19.5571 32.0314 19.5571 34.0366C19.5571 36.102 18.7591 37.979 17.4578 39.3696L17.162 39.6691C15.7859 40.9884 13.9267 41.7978 11.8806 41.7978C7.641 41.7978 4.2041 38.323 4.2041 34.0366C4.2041 29.7502 7.641 26.2754 11.8806 26.2754ZM26.8447 11.9663C26.8447 16.2527 30.2816 19.7275 34.5212 19.7275C38.7609 19.7275 42.1978 16.2527 42.1978 11.9663C42.1978 7.67989 38.7609 4.20508 34.5212 4.20508C30.2816 4.20508 26.8447 7.67988 26.8447 11.9663ZM26.8447 55.0991C26.8447 53.0402 27.6377 51.1686 28.9316 49.7794L29.253 49.454C30.6278 48.1421 32.4816 47.3379 34.5212 47.3379C36.4399 47.3379 38.1941 48.0495 39.5399 49.226L39.4873 49.2779L40.735 50.5409C41.6551 51.8207 42.1978 53.3958 42.1978 55.0991C42.1978 59.3855 38.7609 62.8603 34.5212 62.8603C30.2816 62.8603 26.8447 59.3855 26.8447 55.0991ZM49.415 34.0366C49.415 38.323 52.8519 41.7978 57.0916 41.7978C61.3312 41.7978 64.7681 38.323 64.7681 34.0366C64.7681 29.7502 61.3312 26.2754 57.0916 26.2754C52.8519 26.2754 49.415 29.7502 49.415 34.0366Z" fill="url(#paint0_linear_34_516)"/>
<defs>
<linearGradient id="paint0_linear_34_516" x1="34.4852" y1="0.205078" x2="14.243" y2="60.0078" gradientUnits="userSpaceOnUse">
<stop stop-color="#87F9C2"/>
<stop offset="1" stop-color="#6BB1D9"/>
</linearGradient>
</defs>
</svg>
