<svg width="57" height="58" viewBox="0 0 57 58" fill="none" xmlns="http://www.w3.org/2000/svg">
<path fill-rule="evenodd" clip-rule="evenodd" d="M30.9271 54.1019V4.36133H33.5806H52.4879C52.9104 4.36133 53.2529 4.70385 53.2529 5.12636V23.0559L53.2528 23.0633C53.2528 23.0669 53.2528 23.0686 53.253 23.0757C53.2651 23.3984 53.9306 43.4205 33.5806 52.9659C33.507 53.0005 33.433 53.0349 33.3588 53.0692C32.5791 53.4293 31.7689 53.7741 30.9271 54.1019ZM28.8246 57.6237C28.0157 57.9704 27.0803 58.0225 26.2211 57.7074C0.555588 48.2968 0.714181 24.6276 0.754816 23.0201V5.12636C0.754816 2.77086 2.66433 0.861328 5.01985 0.861328H26.5806H27.4271H30.0806H30.9271H52.4879C54.8434 0.861328 56.7529 2.77086 56.7529 5.12636V23.0201C56.7935 24.6247 56.9526 48.2266 31.3985 57.6663C30.5478 57.9805 29.6293 57.943 28.8246 57.6237ZM26.5806 54.1019C25.7498 53.7784 24.9499 53.4383 24.1797 53.0834C24.0951 53.0444 24.0109 53.0052 23.9271 52.9659C3.57715 43.4205 4.24259 23.3984 4.25466 23.0757C4.25493 23.0686 4.25491 23.0669 4.25486 23.0633L4.25482 23.0559V5.12636C4.25482 4.70385 4.59733 4.36133 5.01985 4.36133H23.9271H26.5806V54.1019ZM0.754929 23.0828L0.754891 23.0698L0.755023 23.0942L0.754929 23.0828Z" fill="url(#paint0_linear_34_513)"/>
<defs>
<linearGradient id="paint0_linear_34_513" x1="28.7531" y1="0.861328" x2="10.7776" y2="51.5397" gradientUnits="userSpaceOnUse">
<stop stop-color="#87F9C2"/>
<stop offset="1" stop-color="#6BB1D9"/>
</linearGradient>
</defs>
</svg>
