<svg width="52" height="63" viewBox="0 0 52 63" fill="none" xmlns="http://www.w3.org/2000/svg">
<path fill-rule="evenodd" clip-rule="evenodd" d="M22.2041 5.71055C18.7247 5.71055 15.9041 8.53116 15.9041 12.0106V22.7137H35.9331V12.0105C35.9331 8.53116 33.1125 5.71055 29.6331 5.71055H22.2041ZM10.5041 12.0106V22.7137H9.61673C4.53909 22.7137 0.422852 26.8299 0.422852 31.9076V52.9299C0.422852 58.0076 4.5391 62.1238 9.61674 62.1238H42.2186C47.2963 62.1238 51.4125 58.0076 51.4125 52.9299V31.9076C51.4125 26.8299 47.2963 22.7137 42.2186 22.7137H41.3331V12.0105C41.3331 5.54881 36.0949 0.310547 29.6331 0.310547H22.2041C15.7424 0.310547 10.5041 5.54883 10.5041 12.0106ZM9.61673 27.4637C7.16245 27.4637 5.17285 29.4533 5.17285 31.9076V52.9299C5.17285 55.3842 7.16245 57.3738 9.61674 57.3738H42.2186C44.6729 57.3738 46.6625 55.3842 46.6625 52.9299V31.9076C46.6625 29.4533 44.6729 27.4637 42.2186 27.4637H9.61673ZM28.6229 39.5105C28.6229 38.0194 27.414 36.8105 25.9229 36.8105C24.4317 36.8105 23.2229 38.0194 23.2229 39.5105L23.2229 45.3236C23.2229 46.8148 24.4317 48.0236 25.9229 48.0236C27.414 48.0236 28.6229 46.8148 28.6229 45.3236V39.5105Z" fill="url(#paint0_linear_34_506)"/>
<defs>
<linearGradient id="paint0_linear_34_506" x1="25.917" y1="0.310547" x2="3.7722" y2="52.7761" gradientUnits="userSpaceOnUse">
<stop stop-color="#87F9C2"/>
<stop offset="1" stop-color="#6BB1D9"/>
</linearGradient>
</defs>
</svg>
