<svg width="65" height="65" viewBox="0 0 65 65" fill="none" xmlns="http://www.w3.org/2000/svg">
<path fill-rule="evenodd" clip-rule="evenodd" d="M0.344727 32.5362C0.344723 50.3573 14.6685 64.8557 32.401 64.8557C50.1335 64.8557 64.4573 50.3573 64.4573 32.5363C64.4573 14.7152 50.1335 0.216801 32.401 0.216797C14.6685 0.216792 0.34473 14.7151 0.344727 32.5362ZM3.64902 32.5362C3.64902 48.5609 16.5217 61.5514 32.401 61.5514C48.2803 61.5514 61.153 48.5609 61.153 32.5363C61.153 16.5116 48.2803 3.52109 32.401 3.52109C16.5217 3.52109 3.64902 16.5116 3.64902 32.5362ZM15.3355 32.5365C15.3355 42.0044 22.9491 49.7311 32.4042 49.7311C41.8593 49.7311 49.4729 42.0044 49.4729 32.5365C49.4729 23.0686 41.8593 15.3418 32.4042 15.3418C22.9491 15.3418 15.3355 23.0686 15.3355 32.5365ZM18.6398 32.5365C18.6398 40.2079 24.8024 46.4268 32.4042 46.4268C40.0061 46.4268 46.1686 40.2079 46.1686 32.5365C46.1686 24.865 40.0061 18.6461 32.4042 18.6461C24.8024 18.6461 18.6398 24.865 18.6398 32.5365Z" fill="url(#paint0_linear_34_510)"/>
<defs>
<linearGradient id="paint0_linear_34_510" x1="32.4001" y1="0.216797" x2="12.1992" y2="57.7637" gradientUnits="userSpaceOnUse">
<stop stop-color="#87F9C2"/>
<stop offset="1" stop-color="#6BB1D9"/>
</linearGradient>
</defs>
</svg>
