<svg width="50" height="50" viewBox="0 0 50 50" fill="none" xmlns="http://www.w3.org/2000/svg">
<g filter="url(#filter0_b_1801_2386)">
<rect x="50" y="50" width="50" height="50" rx="10" transform="rotate(180 50 50)" fill="#14192A"/>
<rect x="49" y="49" width="48" height="48" rx="9" transform="rotate(180 49 49)" stroke="#82EBC7" stroke-width="2"/>
</g>
<path d="M37.3229 24.4029C35.7753 22.3753 33.9165 20.6054 31.8156 19.1588L35.4088 15.5656C35.7706 15.2162 35.7806 14.6398 35.4312 14.278C35.0819 13.9163 34.5054 13.9062 34.1437 14.2556C34.1361 14.2629 34.1286 14.2704 34.1213 14.278L30.1957 18.2C28.5248 17.2803 26.6554 16.7803 24.7485 16.743C17.8279 16.743 12.4017 24.0897 12.174 24.4029C11.942 24.7221 11.942 25.1545 12.174 25.4737C13.7217 27.5013 15.5804 29.2713 17.6813 30.7179L14.0881 34.3111C13.7264 34.6604 13.7163 35.2369 14.0657 35.5986C14.4151 35.9604 14.9915 35.9704 15.3533 35.6211C15.3608 35.6137 15.3683 35.6063 15.3757 35.5986L19.3012 31.6767C20.9722 32.5963 22.8415 33.0963 24.7484 33.1337C31.669 33.1337 37.0952 25.787 37.3229 25.4737C37.555 25.1546 37.555 24.7222 37.3229 24.4029ZM19.0053 29.3966C17.1503 28.1611 15.4876 26.6589 14.0708 24.9384C15.4112 23.3148 19.7584 18.5642 24.7485 18.5642C26.1682 18.5929 27.5641 18.9349 28.8362 19.5658L27.2553 21.1466C25.1638 19.758 22.3426 20.3279 20.954 22.4194C19.9425 23.943 19.9425 25.9244 20.954 27.4479L19.0053 29.3966ZM27.2071 23.7682C27.3853 24.1326 27.4787 24.5327 27.4803 24.9384C27.4803 26.4471 26.2572 27.6701 24.7485 27.6701C24.3428 27.6686 23.9428 27.5752 23.5784 27.397L27.2071 23.7682ZM22.2899 26.1084C22.1117 25.744 22.0183 25.344 22.0167 24.9383C22.0167 23.4296 23.2398 22.2065 24.7485 22.2065C25.1542 22.2081 25.5542 22.3015 25.9186 22.4797L22.2899 26.1084ZM24.7485 31.3125C23.3288 31.2838 21.933 30.9417 20.6608 30.3109L22.2416 28.7301C24.3332 30.1186 27.1544 29.5488 28.543 27.4573C29.5545 25.9337 29.5545 23.9523 28.543 22.4287L30.4917 20.48C32.3467 21.7155 34.0094 23.2178 35.4262 24.9383C34.0857 26.562 29.7386 31.3125 24.7485 31.3125Z" fill="white" stroke="white" stroke-width="0.2"/>
<defs>
<filter id="filter0_b_1801_2386" x="-44.2297" y="-44.2297" width="138.459" height="138.459" filterUnits="userSpaceOnUse" color-interpolation-filters="sRGB">
<feFlood flood-opacity="0" result="BackgroundImageFix"/>
<feGaussianBlur in="BackgroundImageFix" stdDeviation="22.1148"/>
<feComposite in2="SourceAlpha" operator="in" result="effect1_backgroundBlur_1801_2386"/>
<feBlend mode="normal" in="SourceGraphic" in2="effect1_backgroundBlur_1801_2386" result="shape"/>
</filter>
</defs>
</svg>
