<svg width="50" height="50" viewBox="0 0 50 50" fill="none" xmlns="http://www.w3.org/2000/svg">
<g filter="url(#filter0_b_1795_2418)">
<rect x="50" y="50" width="50" height="50" rx="10" transform="rotate(180 50 50)" fill="#14192A"/>
<rect x="49" y="49" width="48" height="48" rx="9" transform="rotate(180 49 49)" stroke="#82EBC7" stroke-width="2"/>
</g>
<path d="M32.7814 22.7477C32.4727 23.0569 31.9691 23.0569 31.6604 22.7477L30.635 21.7222C30.3257 21.4135 30.3257 20.9099 30.635 20.6012L31.6604 19.5757H17.5509C16.239 19.5757 15.1719 20.6428 15.1719 21.9547C15.1719 22.6104 14.6382 23.1441 13.9825 23.1441H13.1895C12.5338 23.1441 12 22.6104 12 21.9547C12 18.8938 14.49 16.4038 17.5509 16.4038H31.6604L30.635 15.3784C30.3257 15.0697 30.3257 14.5661 30.635 14.2574L31.6604 13.2319C31.9691 12.9227 32.4727 12.9227 32.7814 13.2319L37.2593 17.7093C37.4139 17.8644 37.4139 18.1152 37.2593 18.2703L32.7814 22.7477Z" fill="white"/>
<path d="M16.5938 27.7124C16.9026 27.4031 17.4056 27.4031 17.7149 27.7124L18.7403 28.7378C19.0502 29.0477 19.0507 29.5485 18.7403 29.8589L17.7149 30.8843H31.8244C33.1363 30.8843 34.2033 29.8173 34.2033 28.5054C34.2033 27.8497 34.7371 27.3159 35.3928 27.3159H36.1858C36.8415 27.3159 37.3752 27.8497 37.3752 28.5054C37.3752 31.5663 34.8853 34.0562 31.8244 34.0562H17.7149L18.7403 35.0816C19.0502 35.3915 19.0507 35.8923 18.7403 36.2027L17.7149 37.2281C17.4056 37.5374 16.9031 37.5374 16.5938 37.2281L12.116 32.7508C11.9614 32.5956 11.9614 32.3449 12.116 32.1897L16.5938 27.7124Z" fill="white"/>
<defs>
<filter id="filter0_b_1795_2418" x="-44.2297" y="-44.2297" width="138.459" height="138.459" filterUnits="userSpaceOnUse" color-interpolation-filters="sRGB">
<feFlood flood-opacity="0" result="BackgroundImageFix"/>
<feGaussianBlur in="BackgroundImageFix" stdDeviation="22.1148"/>
<feComposite in2="SourceAlpha" operator="in" result="effect1_backgroundBlur_1795_2418"/>
<feBlend mode="normal" in="SourceGraphic" in2="effect1_backgroundBlur_1795_2418" result="shape"/>
</filter>
</defs>
</svg>
