<svg width="51" height="51" viewBox="0 0 51 51" fill="none" xmlns="http://www.w3.org/2000/svg">
<g filter="url(#filter0_b_1795_2416)">
<rect x="50.9854" y="50.8721" width="50" height="50" rx="10" transform="rotate(180 50.9854 50.8721)" fill="#14192A"/>
<rect x="49.9854" y="49.8721" width="48" height="48" rx="9" transform="rotate(180 49.9854 49.8721)" stroke="#82EBC7" stroke-width="2"/>
</g>
<g filter="url(#filter1_b_1795_2416)">
<path d="M25.9855 14.1416C32.4641 14.1416 37.7161 19.3936 37.7161 25.8722C37.7161 32.3508 32.4641 37.6028 25.9855 37.6028C19.5069 37.6028 14.2549 32.3508 14.2549 25.8722C14.2549 19.3936 19.5069 14.1416 25.9855 14.1416ZM29.4325 31.1499H22.5385C23.3033 33.9813 24.6326 35.8435 25.9855 35.8435C27.3384 35.8435 28.6677 33.9813 29.4325 31.1499ZM20.7173 31.1505L17.5241 31.1504C18.6482 32.9485 20.3294 34.3625 22.3261 35.1506C21.7135 34.1891 21.208 32.9853 20.8362 31.6138L20.7173 31.1505ZM34.4468 31.1504L31.2537 31.1505C30.874 32.7149 30.3255 34.0822 29.6436 35.1507C31.5167 34.4117 33.1114 33.1228 34.2296 31.4829L34.4468 31.1504ZM20.2307 23.5257H16.2926L16.287 23.5459C16.1087 24.2922 16.0142 25.0712 16.0142 25.8722C16.0142 27.111 16.2401 28.2969 16.6529 29.3912L20.3746 29.3908C20.2077 28.2776 20.1193 27.0951 20.1193 25.8722C20.1193 25.0699 20.1574 24.2851 20.2307 23.5257ZM29.9697 23.5258H22.0013C21.9215 24.2767 21.8786 25.0622 21.8786 25.8722C21.8786 27.1149 21.9796 28.2999 22.1598 29.391H29.8112C29.9913 28.2999 30.0924 27.1149 30.0924 25.8722C30.0924 25.0622 30.0495 24.2767 29.9697 23.5258ZM35.6789 23.5247L31.7403 23.5257C31.8136 24.2851 31.8517 25.0699 31.8517 25.8722C31.8517 27.0951 31.7632 28.2776 31.5963 29.3908L35.3181 29.3912C35.7309 28.2969 35.9568 27.111 35.9568 25.8722C35.9568 25.0636 35.8605 24.2775 35.6789 23.5247ZM22.3273 16.5937L22.3005 16.604C19.8992 17.5595 17.9569 19.4212 16.8959 21.7668L20.4709 21.7673C20.8385 19.7115 21.4798 17.9217 22.3273 16.5937ZM25.9855 15.9009L25.8498 15.9071C24.3656 16.0429 22.9318 18.391 22.266 21.7668H29.705C29.041 18.4004 27.6134 16.0561 26.1336 15.9083L25.9855 15.9009ZM29.6449 16.5938L29.7702 16.798C30.5551 18.1028 31.151 19.8151 31.5001 21.7673L35.0751 21.7668C34.061 19.525 32.2419 17.7252 29.9864 16.7361L29.6449 16.5938Z" fill="white"/>
</g>
<defs>
<filter id="filter0_b_1795_2416" x="-43.2443" y="-43.3576" width="138.459" height="138.459" filterUnits="userSpaceOnUse" color-interpolation-filters="sRGB">
<feFlood flood-opacity="0" result="BackgroundImageFix"/>
<feGaussianBlur in="BackgroundImageFix" stdDeviation="22.1148"/>
<feComposite in2="SourceAlpha" operator="in" result="effect1_backgroundBlur_1795_2416"/>
<feBlend mode="normal" in="SourceGraphic" in2="effect1_backgroundBlur_1795_2416" result="shape"/>
</filter>
<filter id="filter1_b_1795_2416" x="-280.085" y="-280.198" width="612.14" height="612.141" filterUnits="userSpaceOnUse" color-interpolation-filters="sRGB">
<feFlood flood-opacity="0" result="BackgroundImageFix"/>
<feGaussianBlur in="BackgroundImageFix" stdDeviation="147.17"/>
<feComposite in2="SourceAlpha" operator="in" result="effect1_backgroundBlur_1795_2416"/>
<feBlend mode="normal" in="SourceGraphic" in2="effect1_backgroundBlur_1795_2416" result="shape"/>
</filter>
</defs>
</svg>
