<svg width="51" height="50" viewBox="0 0 51 50" fill="none" xmlns="http://www.w3.org/2000/svg">
<rect opacity="0.2" x="1.9375" y="1.5" width="47" height="47" rx="8.5" fill="#32475F" stroke="#32475F" stroke-width="3"/>
<g filter="url(#filter0_b_1795_2417)">
<path d="M24.7306 13C31.2092 13 36.4612 18.252 36.4612 24.7306C36.4612 31.2092 31.2092 36.4612 24.7306 36.4612C18.252 36.4612 13 31.2092 13 24.7306C13 18.252 18.252 13 24.7306 13ZM28.1776 30.0083H21.2836C22.0484 32.8397 23.3777 34.7019 24.7306 34.7019C26.0835 34.7019 27.4128 32.8397 28.1776 30.0083ZM19.4624 30.0089L16.2693 30.0088C17.3933 31.8069 19.0745 33.2209 21.0712 34.009C20.4586 33.0475 19.9532 31.8437 19.5813 30.4722L19.4624 30.0089ZM33.192 30.0088L29.9988 30.0089C29.6191 31.5733 29.0706 32.9406 28.3888 34.0091C30.2618 33.2701 31.8565 31.9812 32.9747 30.3413L33.192 30.0088ZM18.9758 22.3841H15.0377L15.0321 22.4043C14.8538 23.1506 14.7593 23.9296 14.7593 24.7306C14.7593 25.9693 14.9852 27.1553 15.398 28.2496L19.1198 28.2492C18.9529 27.136 18.8644 25.9535 18.8644 24.7306C18.8644 23.9283 18.9025 23.1435 18.9758 22.3841ZM28.7148 22.3842H20.7464C20.6666 23.1351 20.6237 23.9206 20.6237 24.7306C20.6237 25.9733 20.7248 27.1583 20.9049 28.2493H28.5563C28.7365 27.1583 28.8375 25.9733 28.8375 24.7306C28.8375 23.9206 28.7946 23.1351 28.7148 22.3842ZM34.424 22.3831L30.4854 22.3841C30.5587 23.1435 30.5968 23.9283 30.5968 24.7306C30.5968 25.9535 30.5084 27.136 30.3415 28.2492L34.0632 28.2496C34.476 27.1553 34.7019 25.9693 34.7019 24.7306C34.7019 23.922 34.6057 23.1359 34.424 22.3831ZM21.0725 15.4521L21.0456 15.4624C18.6443 16.4179 16.702 18.2796 15.641 20.6252L19.216 20.6257C19.5836 18.5699 20.225 16.7801 21.0725 15.4521ZM24.7306 14.7593L24.595 14.7655C23.1108 14.9013 21.6769 17.2494 21.0111 20.6252H28.4501C27.7861 17.2588 26.3585 14.9145 24.8787 14.7667L24.7306 14.7593ZM28.39 15.4522L28.5153 15.6564C29.3002 16.9612 29.8962 18.6735 30.2452 20.6257L33.8202 20.6252C32.8061 18.3834 30.987 16.5836 28.7315 15.5945L28.39 15.4522Z" fill="#405A82"/>
</g>
<defs>
<filter id="filter0_b_1795_2417" x="-281.34" y="-281.34" width="612.14" height="612.141" filterUnits="userSpaceOnUse" color-interpolation-filters="sRGB">
<feFlood flood-opacity="0" result="BackgroundImageFix"/>
<feGaussianBlur in="BackgroundImageFix" stdDeviation="147.17"/>
<feComposite in2="SourceAlpha" operator="in" result="effect1_backgroundBlur_1795_2417"/>
<feBlend mode="normal" in="SourceGraphic" in2="effect1_backgroundBlur_1795_2417" result="shape"/>
</filter>
</defs>
</svg>
