<svg width="51" height="51" viewBox="0 0 51 51" fill="none" xmlns="http://www.w3.org/2000/svg">
<rect opacity="0.2" x="1.92285" y="2.37207" width="47" height="47" rx="8.5" fill="#32475F" stroke="#32475F" stroke-width="3"/>
<path d="M33.5165 23.3897C33.2078 23.699 32.7042 23.699 32.3955 23.3897L31.3701 22.3643C31.0608 22.0556 31.0608 21.552 31.3701 21.2433L32.3955 20.2178H18.286C16.9741 20.2178 15.907 21.2849 15.907 22.5968C15.907 23.2525 15.3733 23.7862 14.7176 23.7862H13.9246C13.2689 23.7862 12.7351 23.2525 12.7351 22.5968C12.7351 19.5359 15.2251 17.0459 18.286 17.0459H32.3955L31.3701 16.0205C31.0608 15.7118 31.0608 15.2082 31.3701 14.8995L32.3955 13.874C32.7042 13.5648 33.2078 13.5648 33.5165 13.874L37.9944 18.3514C38.149 18.5065 38.149 18.7573 37.9944 18.9124L33.5165 23.3897Z" fill="#405A82"/>
<path d="M17.3289 28.3545C17.6377 28.0452 18.1408 28.0452 18.45 28.3545L19.4754 29.3799C19.7853 29.6898 19.7858 30.1906 19.4754 30.501L18.45 31.5264H32.5595C33.8714 31.5264 34.9384 30.4593 34.9384 29.1475C34.9384 28.4918 35.4722 27.958 36.1279 27.958H36.9209C37.5766 27.958 38.1104 28.4918 38.1104 29.1475C38.1104 32.2084 35.6204 34.6983 32.5595 34.6983H18.45L19.4754 35.7237C19.7853 36.0336 19.7858 36.5344 19.4754 36.8448L18.45 37.8702C18.1407 38.1795 17.6382 38.1795 17.3289 37.8702L12.8511 33.3929C12.6965 33.2377 12.6965 32.987 12.8511 32.8318L17.3289 28.3545Z" fill="#405A82"/>
</svg>
