<svg width="26" height="25" viewBox="0 0 26 25" fill="none" xmlns="http://www.w3.org/2000/svg">
<path fill-rule="evenodd" clip-rule="evenodd" d="M22.6417 0.0507812H2.88857C1.52491 0.0507812 0.419434 1.15625 0.419434 2.51992V22.273C0.419434 23.6367 1.52491 24.7422 2.88857 24.7422H22.6417C24.0054 24.7422 25.1108 23.6367 25.1108 22.273V2.51992C25.1108 1.15625 24.0054 0.0507812 22.6417 0.0507812Z" fill="#fff"/>
<path fill-rule="evenodd" clip-rule="evenodd" d="M19.3644 6.09593C19.5637 6.01367 19.7812 5.98585 19.9947 6.01533C20.2083 6.04481 20.4101 6.13053 20.5796 6.2637C20.7491 6.39687 20.8802 6.57271 20.9594 6.7732C21.0386 6.9737 21.063 7.19163 21.0303 7.40469C20.5579 10.4766 19.6919 16.1056 19.2322 19.0936C19.2004 19.3003 19.1158 19.4954 18.9865 19.6599C18.8573 19.8244 18.6878 19.9527 18.4944 20.0326C18.3011 20.1124 18.0904 20.141 17.8827 20.1156C17.6751 20.0902 17.4775 20.0117 17.3091 19.8876C15.6829 18.6895 13.2448 16.8931 12.0069 15.9807C11.9114 15.9103 11.8325 15.8198 11.7758 15.7156C11.719 15.6114 11.6859 15.496 11.6787 15.3775C11.6715 15.2591 11.6903 15.1405 11.734 15.0301C11.7776 14.9198 11.8449 14.8203 11.9312 14.7389C13.0655 13.6676 15.3246 11.534 16.8789 10.066C16.9156 10.0312 16.9378 9.98398 16.9415 9.9336C16.9451 9.88322 16.9298 9.83331 16.8985 9.79364C16.8672 9.75397 16.8223 9.72741 16.7724 9.71916C16.7226 9.71091 16.6715 9.72156 16.6291 9.74903C14.6361 11.0489 11.5839 13.0394 10.0879 14.015C9.80759 14.1978 9.49251 14.3208 9.16242 14.3763C8.83234 14.4317 8.49437 14.4184 8.16966 14.3372C7.34594 14.1313 6.1578 13.8342 5.10046 13.5699C4.93492 13.5286 4.78665 13.436 4.67677 13.3055C4.56689 13.1749 4.50101 13.0131 4.48851 12.8429C4.476 12.6727 4.51752 12.5029 4.60713 12.3577C4.69675 12.2125 4.8299 12.0993 4.98762 12.0342C8.66836 10.5139 15.8715 7.53885 19.3644 6.09593Z" fill="#0D1222"/>
</svg>
