<svg width="25" height="25" viewBox="0 0 25 25" fill="none" xmlns="http://www.w3.org/2000/svg">
<path fill-rule="evenodd" clip-rule="evenodd" d="M22.5283 0.0507812H2.81738C1.45663 0.0507812 0.353516 1.15389 0.353516 2.51465V22.2256C0.353516 23.5863 1.45663 24.6895 2.81738 24.6895H22.5283C23.8891 24.6895 24.9922 23.5863 24.9922 22.2256V2.51465C24.9922 1.15389 23.8891 0.0507812 22.5283 0.0507812ZM19.264 7.73726C19.9797 7.65453 20.6616 7.4711 21.2964 7.19852C20.8221 7.88413 20.2218 8.48637 19.53 8.96931C19.5366 9.11618 19.5399 9.2637 19.5399 9.41185C19.5399 13.9328 15.9818 19.1458 9.47331 19.1458C7.47472 19.1458 5.61542 18.5794 4.04932 17.6091C4.32659 17.6411 4.6085 17.6572 4.89373 17.6572C6.55204 17.6572 8.07768 17.1101 9.28824 16.1923C7.74005 16.1647 6.4333 15.1751 5.9829 13.8161C6.19848 13.8552 6.4207 13.877 6.64822 13.877C6.97126 13.877 7.28434 13.8353 7.58085 13.7571C5.96168 13.4434 4.74249 12.0607 4.74249 10.4028V10.3598C5.21942 10.6157 5.76533 10.7696 6.34508 10.7876C5.39586 10.1744 4.77168 9.12709 4.77168 7.94057C4.77168 7.31268 4.94613 6.7252 5.24993 6.21981C6.9958 8.29011 9.60266 9.65236 12.5432 9.79474C12.4835 9.54525 12.4516 9.28358 12.4516 9.01549C12.4516 7.12669 14.0356 5.59448 15.9898 5.59448C17.0073 5.59448 17.9267 6.01008 18.5721 6.67517C19.3787 6.52125 20.1362 6.23648 20.8195 5.84461C20.5555 6.64375 19.9949 7.31397 19.264 7.73726Z" fill="#C7D1E6"/>
</svg>
