<svg width="154" height="35" viewBox="0 0 154 35" fill="none" xmlns="http://www.w3.org/2000/svg">
<g clip-path="url(#clip0_2384_184)">
<path fill-rule="evenodd" clip-rule="evenodd" d="M7.07435 8.15978V15.3038C7.07289 15.3601 7.08363 15.4161 7.1059 15.4679C7.12818 15.5197 7.16141 15.5661 7.20332 15.6038L8.47132 16.8718L14.8784 23.2788C14.9171 23.3193 14.9636 23.3516 15.0152 23.3736C15.0668 23.3957 15.1223 23.407 15.1784 23.407C15.2344 23.407 15.2899 23.3957 15.3415 23.3736C15.3931 23.3516 15.4396 23.3193 15.4783 23.2788L30.2293 8.52778V8.51878V8.50978V8.50078V8.48678V8.47678V8.47178V8.46678V8.46178V8.45678V8.45178V8.44678V8.44178V8.43678V8.43178V8.27978V8.27378V8.26778V8.25978V8.25378V8.24778V1.07278V1.05478V1.03678V1.01978V1.00278V0.985779V0.96978V0.953781V0.938782L30.2243 0.923782L30.2183 0.908783L30.2124 0.893776L30.2053 0.879776L30.1983 0.865776L30.1903 0.852776L30.1823 0.839783L30.1733 0.826782L30.1643 0.814781L30.1544 0.80278L30.1444 0.791779L30.1343 0.780777L30.1234 0.769783L30.1123 0.759781L30.1004 0.749779L30.0883 0.740776L30.0764 0.731781L30.0643 0.722778L30.0513 0.714783L30.0383 0.706779L30.0253 0.699776L30.0114 0.69278L29.9973 0.686783L29.9833 0.680779L29.9694 0.675781H29.9553H29.9414H29.9263H29.9113H29.8963H29.8814H29.8663H29.7753H29.7603H29.7454H29.7304H29.7153H29.7003H29.6853L29.6704 0.680779L29.6563 0.686783L29.6423 0.69278L29.6284 0.699776L29.6143 0.706779L29.6004 0.714783L29.5874 0.723778L29.5744 0.73278L29.5613 0.742783L29.5483 0.752777L29.5353 0.763779L29.5233 0.77578L15.3723 14.9258C15.3336 14.9663 15.287 14.9986 15.2355 15.0206C15.1839 15.0427 15.1284 15.054 15.0723 15.054C15.0163 15.054 14.9608 15.0427 14.9092 15.0206C14.8576 14.9986 14.8111 14.9663 14.7723 14.9258L7.80335 7.85978C7.7434 7.8011 7.66756 7.76129 7.58521 7.74528C7.50287 7.72926 7.41761 7.73774 7.34004 7.76967C7.26246 7.80159 7.19591 7.85557 7.14869 7.9249C7.10147 7.99424 7.07564 8.0759 7.07435 8.15978Z" fill="white"/>
<path fill-rule="evenodd" clip-rule="evenodd" d="M4.11614 4.3308V11.4948C4.11485 11.5787 4.08899 11.6603 4.04177 11.7297C3.99455 11.799 3.92803 11.853 3.85045 11.8849C3.77288 11.9168 3.68764 11.9253 3.60529 11.9093C3.52294 11.8933 3.4471 11.8535 3.38714 11.7948L0.129142 8.5328C0.087182 8.49513 0.0539122 8.44879 0.0316377 8.39699C0.00936321 8.34519 -0.00138337 8.28917 0.000142458 8.2328V1.0718C0.00143527 0.987923 0.0272928 0.906262 0.0745155 0.836925C0.121738 0.767588 0.188254 0.713615 0.265832 0.68169C0.34341 0.649765 0.428646 0.64129 0.510993 0.657306C0.593341 0.673322 0.669185 0.713126 0.729142 0.771801L3.98814 4.0308C4.02992 4.06856 4.063 4.11494 4.0851 4.16674C4.1072 4.21853 4.11779 4.27451 4.11614 4.3308Z" fill="white"/>
<path fill-rule="evenodd" clip-rule="evenodd" d="M15.4801 27.5288L29.6311 13.3787L29.6431 13.3668L29.6561 13.3558L29.6691 13.3458L29.6821 13.3358L29.6951 13.3267L29.7081 13.3177L29.7221 13.3098L29.7361 13.3028L29.7501 13.2957L29.7641 13.2897L29.7781 13.2847L29.7931 13.2797H29.8081H29.8231H29.8381H29.8531H29.8681H29.8831H29.9741H29.9891H30.0041H30.0191H30.0341H30.0491H30.0641H30.0781L30.0921 13.2847L30.1061 13.2907L30.1201 13.2967L30.1341 13.3028L30.1471 13.3098L30.1601 13.3177L30.1731 13.3258L30.1861 13.3338L30.1981 13.3427L30.2101 13.3518L30.2221 13.3618L30.2331 13.3718L30.2441 13.3828L30.2551 13.3937L30.2651 13.4047L30.2751 13.4167L30.2841 13.4288L30.2931 13.4417L30.3011 13.4548L30.3091 13.4687L30.3161 13.4827L30.3231 13.4968L30.3291 13.5118L30.3351 13.5268L30.3401 13.5417V13.5578V13.5738V13.5898V13.6058V13.6228V13.6397V13.6568V13.6748V20.8477V20.8537V20.8597V20.8658V20.8708V20.8768V20.8828V20.8878V20.8928V20.8978V20.9028V20.9078V20.9128V20.9178V20.9228V20.9278V20.9328V20.9427V20.9477V20.9617V20.9708V20.9798V20.9887L17.8701 33.4968L17.5811 33.7857C16.9309 34.4186 16.0571 34.7692 15.1498 34.7612C14.2425 34.7531 13.375 34.3871 12.7361 33.7427L11.1131 32.1197L11.0971 32.1037L0.129142 21.1397C0.087182 21.1021 0.0539122 21.0558 0.0316377 21.004C0.00936321 20.9522 -0.00138337 20.8962 0.000142458 20.8398V13.6788C0.00143527 13.5949 0.0272928 13.5133 0.0745156 13.4439C0.121738 13.3746 0.188254 13.3206 0.265832 13.2886C0.34341 13.2567 0.428646 13.2482 0.510993 13.2642C0.593341 13.2802 0.669185 13.3201 0.729142 13.3787C3.07781 15.7421 5.43081 18.1011 7.78814 20.4558L7.80414 20.4708L14.8791 27.5297C14.9178 27.5704 14.9644 27.6028 15.0159 27.6249C15.0675 27.6471 15.123 27.6584 15.1791 27.6584C15.2353 27.6584 15.2908 27.6471 15.3424 27.6249C15.3939 27.6028 15.4405 27.5704 15.4791 27.5297L15.4801 27.5288Z" fill="white"/>
<path fill-rule="evenodd" clip-rule="evenodd" d="M15.1814 -0.000185953C12.0989 0.00764888 9.02502 0.323552 6.00541 0.942814C5.92785 0.956884 5.85572 0.992249 5.7971 1.04496C5.73848 1.09767 5.69565 1.16564 5.67344 1.24128C5.65124 1.31692 5.65054 1.39725 5.67137 1.47328C5.69219 1.54931 5.73377 1.61805 5.79142 1.67181L14.8824 10.7628C14.9211 10.8035 14.9676 10.8359 15.0192 10.858C15.0708 10.8801 15.1263 10.8915 15.1824 10.8915C15.2385 10.8915 15.2941 10.8801 15.3456 10.858C15.3972 10.8359 15.4437 10.8035 15.4824 10.7628L24.5734 1.67181C24.6311 1.61805 24.6726 1.54931 24.6935 1.47328C24.7143 1.39725 24.7135 1.31692 24.6913 1.24128C24.6691 1.16564 24.6263 1.09767 24.5677 1.04496C24.5091 0.992249 24.437 0.956884 24.3594 0.942814C21.3421 0.304429 18.2655 -0.011677 15.1814 -0.000185953Z" fill="white"/>
<path fill-rule="evenodd" clip-rule="evenodd" d="M138.045 19.953C138.045 13.719 142.27 10.885 146.34 10.885C147.369 10.8659 148.39 11.052 149.346 11.4323C150.301 11.8126 151.171 12.3795 151.905 13.0999C153.811 15.1089 154.12 17.9429 153.966 20.9309C153.955 21.0593 153.896 21.1786 153.8 21.2648C153.704 21.3509 153.579 21.3974 153.45 21.3949H143.35C143.305 21.3941 143.26 21.4033 143.219 21.4219C143.177 21.4404 143.14 21.4679 143.111 21.5023C143.081 21.5367 143.06 21.5771 143.048 21.6208C143.036 21.6645 143.033 21.7103 143.041 21.755C143.763 25.255 149.069 25.0009 151.749 24.0739C151.82 24.0507 151.896 24.0433 151.97 24.0521C152.044 24.0609 152.116 24.0858 152.179 24.125C152.243 24.1642 152.297 24.2168 152.338 24.2791C152.38 24.3415 152.407 24.412 152.418 24.4859C152.573 25.3099 152.779 26.7009 152.882 27.3709C152.903 27.4864 152.883 27.6054 152.827 27.7083C152.771 27.8113 152.681 27.8922 152.573 27.9379C150.761 28.5298 148.864 28.8256 146.957 28.8139C141.394 28.8659 138.045 25.517 138.045 19.953ZM57.5792 19.953C57.5792 13.719 61.8041 10.885 65.8741 10.885C66.902 10.866 67.9233 11.0521 68.8785 11.4325C69.8336 11.8128 70.7035 12.3796 71.4371 13.0999C73.3441 15.1089 73.6521 17.9429 73.4981 20.9309C73.487 21.0591 73.4277 21.1783 73.3321 21.2644C73.2365 21.3505 73.1116 21.3972 72.983 21.3949H62.8834C62.8381 21.3943 62.7933 21.4036 62.752 21.4223C62.7108 21.4409 62.6741 21.4683 62.6446 21.5026C62.6151 21.537 62.5933 21.5774 62.5811 21.621C62.569 21.6646 62.5668 21.7103 62.5743 21.755C63.2963 25.255 68.6033 25.0009 71.2813 24.0739C71.3524 24.0505 71.4276 24.043 71.502 24.0517C71.5764 24.0604 71.6482 24.0852 71.712 24.1245C71.7758 24.1637 71.8298 24.2164 71.8712 24.2788C71.9125 24.3413 71.94 24.4119 71.9512 24.4859C72.1052 25.3099 72.3121 26.7009 72.4141 27.3709C72.4344 27.4865 72.4151 27.6055 72.3589 27.7085C72.3028 27.8115 72.2131 27.8924 72.105 27.9379C70.2923 28.5299 68.3962 28.8257 66.4893 28.8139C60.9273 28.8659 57.5743 25.517 57.5743 19.953H57.5792ZM128.679 24.8529C130.019 24.8529 131.101 24.7529 131.101 23.6159C131.101 21.6069 125.124 21.8639 123.63 18.1549C123.212 17.15 123.127 16.0378 123.387 14.9809C123.646 13.9241 124.238 12.978 125.073 12.281C127.443 10.426 131.925 10.6809 134.759 11.6109C134.877 11.6591 134.973 11.7483 135.03 11.862C135.087 11.9756 135.1 12.106 135.068 12.229L134.45 14.9599C134.437 15.0317 134.407 15.0995 134.364 15.1585C134.321 15.2174 134.265 15.2659 134.201 15.3006C134.137 15.3352 134.066 15.355 133.993 15.3585C133.92 15.3621 133.848 15.3492 133.78 15.3209C132.652 14.9455 131.47 14.754 130.28 14.7539C127.447 14.7539 127.756 16.454 128.528 16.969C130.95 18.721 135.947 18.515 135.947 23.669C135.947 29.8 126.982 29.2849 123.273 27.8939C123.162 27.8528 123.069 27.7727 123.012 27.6685C122.955 27.5643 122.937 27.4429 122.963 27.3269L123.582 24.4419C123.595 24.3701 123.625 24.3022 123.668 24.2431C123.711 24.1841 123.766 24.1354 123.831 24.1008C123.895 24.0661 123.966 24.0464 124.039 24.0429C124.112 24.0395 124.185 24.0525 124.252 24.081C125.679 24.5707 127.175 24.8317 128.683 24.854L128.679 24.8529ZM81.6392 15.1149C81.5302 15.1482 81.4356 15.217 81.3702 15.3103C81.3048 15.4036 81.2725 15.5162 81.2784 15.63V28.299C81.2825 28.3677 81.2716 28.4364 81.2471 28.5008C81.2227 28.5651 81.185 28.6235 81.1363 28.6721C81.0876 28.7208 81.0292 28.7586 80.9649 28.783C80.9006 28.8075 80.8319 28.818 80.7632 28.8139H77.001C76.9323 28.818 76.8637 28.8075 76.7994 28.783C76.735 28.7586 76.6767 28.7208 76.628 28.6721C76.5793 28.6235 76.5416 28.5651 76.5172 28.5008C76.4927 28.4364 76.4823 28.3677 76.4864 28.299V12.482C76.486 12.3695 76.5201 12.2596 76.5845 12.1674C76.649 12.0753 76.7405 12.0053 76.8463 11.9669C78.8984 11.2378 81.0577 10.8549 83.2354 10.8339C84.2565 10.8346 85.2746 10.9382 86.275 11.143C86.3944 11.1642 86.5024 11.2281 86.5782 11.3229C86.654 11.4176 86.6926 11.5367 86.6871 11.6579V14.815C86.6871 14.8823 86.6738 14.9489 86.648 15.0111C86.6222 15.0733 86.5843 15.1298 86.5367 15.1773C86.489 15.2249 86.4329 15.2626 86.3707 15.2882C86.3084 15.3139 86.2417 15.3271 86.1744 15.3269L86.0684 15.3159C84.6234 14.9298 83.1119 14.8595 81.6373 15.1099L81.6392 15.1149ZM62.939 18.052H68.5611C68.6407 18.052 68.7172 18.0203 68.7735 17.9641C68.8298 17.9078 68.8614 17.8315 68.8614 17.752V17.7139C68.8217 16.9969 68.5344 16.3159 68.0484 15.7872C67.5624 15.2585 66.9075 14.9149 66.1963 14.8151C65.4852 14.7154 64.7617 14.8656 64.149 15.2402C63.5363 15.6148 63.0724 16.1905 62.837 16.8689C62.737 17.1269 62.6654 17.4009 62.5694 17.6749C62.5586 17.7218 62.5586 17.7705 62.5699 17.8172C62.5812 17.8639 62.6034 17.9073 62.6343 17.944C62.6653 17.9808 62.704 18.0098 62.7481 18.0289C62.7922 18.048 62.8403 18.0565 62.8882 18.0539L62.939 18.052ZM90.1661 5.94393H93.9273C93.996 5.93985 94.0646 5.95037 94.129 5.97481C94.1933 5.99925 94.2517 6.03705 94.3004 6.08571C94.349 6.13437 94.3868 6.19283 94.4112 6.25716C94.4356 6.32149 94.446 6.39025 94.442 6.45894V10.375C94.446 10.4437 94.4356 10.5124 94.4112 10.5767C94.3868 10.6411 94.349 10.6995 94.3004 10.7482C94.2517 10.7968 94.1933 10.8346 94.129 10.859C94.0646 10.8835 93.996 10.894 93.9273 10.89H90.1661C90.0974 10.894 90.0287 10.8835 89.9644 10.859C89.9001 10.8346 89.8417 10.7968 89.793 10.7482C89.7444 10.6995 89.7066 10.6411 89.6822 10.5767C89.6578 10.5124 89.6469 10.4437 89.6509 10.375V6.45894C89.6461 6.38975 89.6566 6.32034 89.6807 6.25533C89.7049 6.19032 89.7422 6.13122 89.7911 6.08199C89.8399 6.03276 89.8991 5.99453 89.9639 5.96987C90.0288 5.9452 90.0978 5.93462 90.1671 5.93892L90.1661 5.94393ZM116.659 5.94393H120.42C120.489 5.93985 120.558 5.95037 120.622 5.97481C120.686 5.99925 120.745 6.03705 120.794 6.08571C120.842 6.13437 120.88 6.19283 120.904 6.25716C120.929 6.32149 120.939 6.39025 120.935 6.45894V10.375C120.939 10.4437 120.929 10.5124 120.904 10.5767C120.88 10.6411 120.842 10.6995 120.794 10.7482C120.745 10.7968 120.686 10.8346 120.622 10.859C120.558 10.8835 120.489 10.894 120.42 10.89H116.659C116.59 10.8942 116.522 10.8838 116.457 10.8594C116.393 10.835 116.334 10.7972 116.285 10.7486C116.236 10.6999 116.199 10.6414 116.174 10.577C116.15 10.5126 116.139 10.4437 116.143 10.375V6.45894C116.143 6.3908 116.156 6.32322 116.182 6.26015C116.208 6.19708 116.245 6.13978 116.294 6.09145C116.342 6.04312 116.399 6.00476 116.461 5.9786C116.524 5.95243 116.592 5.93892 116.66 5.93892L116.659 5.94393ZM44.9053 28.5089C41.6619 21.3626 38.7913 14.0528 36.3052 6.60897C36.2801 6.52977 36.2747 6.44566 36.2891 6.36385C36.3036 6.28203 36.3376 6.20494 36.3882 6.13912C36.4389 6.0733 36.5047 6.02071 36.5801 5.98586C36.6556 5.95101 36.7384 5.93488 36.8213 5.93892H41.3033C41.4089 5.94166 41.511 5.97819 41.5943 6.04317C41.6776 6.10815 41.7378 6.19816 41.7662 6.29995C42.9512 9.90695 45.7854 18.15 47.2794 21.7C47.3 21.7586 47.338 21.8093 47.3887 21.8452C47.4394 21.8811 47.5 21.9004 47.5621 21.9004C47.6242 21.9004 47.6847 21.8811 47.7354 21.8452C47.7861 21.8093 47.8247 21.7586 47.8453 21.7C49.5453 17.578 51.966 10.4679 53.358 6.29995C53.3864 6.19816 53.447 6.10815 53.5303 6.04317C53.6137 5.97819 53.7157 5.94166 53.8213 5.93892H58.0982C58.1796 5.93521 58.2606 5.95228 58.3336 5.98842C58.4066 6.02457 58.4693 6.07862 58.5157 6.14559C58.5621 6.21255 58.5905 6.29019 58.5987 6.37123C58.6069 6.45228 58.5942 6.5341 58.5621 6.60897C56.0381 13.77 53.2553 21.4989 50.0093 28.5089C49.9633 28.5946 49.8969 28.6676 49.816 28.7215C49.7351 28.7753 49.6418 28.8085 49.545 28.818H45.3721C45.1824 28.779 45.0153 28.6683 44.9053 28.5089ZM90.1671 28.8169H93.9283C93.997 28.821 94.0656 28.8105 94.1299 28.786C94.1943 28.7616 94.2527 28.7238 94.3013 28.6751C94.35 28.6265 94.3877 28.5681 94.4122 28.5037C94.4366 28.4394 94.4475 28.3707 94.4434 28.302V13.5639C94.4475 13.4952 94.4366 13.4265 94.4122 13.3621C94.3877 13.2978 94.35 13.2394 94.3013 13.1908C94.2527 13.1421 94.1943 13.1043 94.1299 13.0799C94.0656 13.0554 93.997 13.0449 93.9283 13.049H90.1671C90.0984 13.0449 90.0297 13.0554 89.9654 13.0799C89.9011 13.1043 89.8427 13.1421 89.794 13.1908C89.7453 13.2394 89.7076 13.2978 89.6832 13.3621C89.6587 13.4265 89.6483 13.4952 89.6524 13.5639V28.3499C89.6545 28.4144 89.6695 28.4778 89.6968 28.5363C89.7242 28.5947 89.7629 28.647 89.8111 28.6899C89.8593 28.7328 89.9159 28.7655 89.9771 28.786C90.0383 28.8064 90.1028 28.8142 90.1671 28.8089V28.8169ZM113.186 27.4539C113.177 27.564 113.14 27.6698 113.076 27.7603C113.013 27.8509 112.927 27.9229 112.826 27.969C110.851 28.4973 108.818 28.7824 106.774 28.818C105.344 28.8707 103.916 28.6706 102.556 28.2269C98.8462 26.8359 97.4044 23.332 97.4044 19.932C97.3685 17.5855 98.0711 15.2871 99.4131 13.362C101.475 10.889 105.029 10.425 107.966 11.562C108.01 11.5846 108.058 11.5955 108.107 11.5935C108.157 11.5916 108.205 11.5768 108.246 11.5507C108.288 11.5247 108.322 11.4882 108.345 11.4449C108.368 11.4016 108.379 11.353 108.378 11.3039V6.46096C108.374 6.39217 108.385 6.32327 108.409 6.25887C108.434 6.19446 108.471 6.13604 108.52 6.08736C108.569 6.03868 108.628 6.00089 108.692 5.97652C108.756 5.95215 108.825 5.94172 108.894 5.94594H112.655C112.725 5.9413 112.795 5.9513 112.86 5.9753C112.926 5.99929 112.985 6.03677 113.036 6.08528C113.086 6.1338 113.126 6.19227 113.152 6.25698C113.178 6.32168 113.19 6.39117 113.188 6.46096L113.186 27.4539ZM102.297 19.7769C102.297 23.9499 104.615 25.187 108.12 24.62C108.195 24.6121 108.264 24.5754 108.312 24.5177C108.36 24.4599 108.383 24.3858 108.377 24.3109V15.9379C108.377 15.8379 108.325 15.8109 108.222 15.7589C107.455 15.365 106.611 15.1448 105.749 15.114C103.481 15.009 102.296 16.6829 102.296 19.7739L102.297 19.7769ZM116.66 28.818H120.421C120.49 28.822 120.559 28.8115 120.623 28.7871C120.687 28.7626 120.746 28.7248 120.794 28.6762C120.843 28.6275 120.881 28.569 120.905 28.5047C120.93 28.4404 120.94 28.3716 120.936 28.3029V13.5639C120.94 13.4952 120.93 13.4265 120.905 13.3621C120.881 13.2978 120.843 13.2394 120.794 13.1908C120.746 13.1421 120.687 13.1043 120.623 13.0799C120.559 13.0554 120.49 13.0449 120.421 13.049H116.66C116.591 13.0447 116.523 13.0551 116.458 13.0795C116.394 13.1039 116.335 13.1416 116.286 13.1903C116.237 13.239 116.2 13.2975 116.175 13.3619C116.151 13.4263 116.14 13.4951 116.144 13.5639V28.3499C116.155 28.4782 116.215 28.5974 116.311 28.6835C116.407 28.7696 116.531 28.8162 116.66 28.8139V28.818ZM143.407 18.0509H149.029C149.109 18.0509 149.185 18.0194 149.241 17.9631C149.298 17.9068 149.329 17.8305 149.329 17.7509V17.713C149.289 16.9964 149.002 16.3159 148.516 15.7877C148.03 15.2595 147.375 14.9163 146.665 14.8166C145.954 14.7169 145.231 14.8669 144.618 15.241C144.006 15.6151 143.542 16.1901 143.306 16.8679C143.206 17.1249 143.133 17.3999 143.037 17.6729C143.027 17.7197 143.027 17.7684 143.039 17.815C143.05 17.8616 143.072 17.9049 143.103 17.9416C143.133 17.9783 143.172 18.0074 143.216 18.0265C143.26 18.0456 143.308 18.0544 143.356 18.052L143.407 18.0509Z" fill="white"/>
</g>
<defs>
<clipPath id="clip0_2384_184">
<rect width="154" height="34.765" fill="white"/>
</clipPath>
</defs>
</svg>
