<svg opacity="0.5" width="107" height="45" viewBox="0 0 107 45" fill="none" xmlns="http://www.w3.org/2000/svg">
<path d="M102.978 28.3389C102.006 28.3389 101.184 28.6749 100.512 29.3457C99.8397 30.0175 99.5039 30.8535 99.5039 31.855C99.5039 32.8269 99.8397 33.6483 100.512 34.3202C101.184 34.991 102.006 35.3269 102.978 35.3269C103.948 35.3269 104.771 34.991 105.443 34.3202C106.114 33.6483 106.451 32.8269 106.451 31.855C106.451 30.8535 106.114 30.0175 105.443 29.3457C104.771 28.6749 103.948 28.3389 102.978 28.3389Z" fill="white"/>
<path d="M15.2623 17.5988L21.2326 8.62797C21.5034 8.22171 21.529 7.70304 21.2982 7.27331C21.0675 6.84158 20.6206 6.57491 20.1326 6.57491H18.718C18.2779 6.57491 17.8675 6.79358 17.6222 7.15878L12.958 14.0946L4.20086 1.00144C3.95393 0.633709 3.54353 0.415039 3.1018 0.415039H1.66073C1.17166 0.415039 0.724731 0.681709 0.494063 1.11345C0.264863 1.54571 0.289929 2.06558 0.562329 2.47078L10.6872 17.5868L0.247131 32.8041C-0.0299362 33.2099 -0.0606052 33.7323 0.167529 34.167C0.396595 34.6031 0.844601 34.8732 1.33833 34.8732H2.705C3.14086 34.8732 3.54713 34.6587 3.79406 34.3004L12.9326 21.0082L21.7591 34.2826C22.005 34.6525 22.4154 34.8732 22.8607 34.8732H24.2742C24.7623 34.8732 25.2075 34.6055 25.4383 34.1764C25.6684 33.7467 25.6446 33.2279 25.3742 32.8216L15.2623 17.5988Z" fill="white"/>
<path d="M36.8061 8.66975C36.5461 7.71508 36.1837 6.81081 35.7316 5.98175C35.2685 5.14001 34.7113 4.38268 34.0753 3.73122C33.4233 3.06455 32.7233 2.53748 32.0086 2.17748C31.5592 1.92282 31.0701 1.69788 30.5529 1.51082C30.0206 1.31762 29.39 1.15775 28.6769 1.03122L28.3685 0.976553C27.6862 0.850953 26.7514 0.679083 25.6222 0.679083L13.7488 0.626953C13.3966 0.626953 13.066 0.764553 12.8154 1.01349C12.5685 1.26029 12.4258 1.60042 12.4258 1.94935V3.11921C12.4258 3.84575 13.0181 4.43748 13.7436 4.44002L15.4889 4.44841C15.5248 4.44841 18.9889 4.40829 22.1769 4.40829C24.8966 4.40829 26.6685 4.43748 27.3009 4.49468C28.4076 4.59468 29.5233 5.09628 30.1914 5.52961C30.6649 5.84415 31.105 6.23895 31.4966 6.70042C31.8925 7.16708 32.2248 7.67495 32.4805 8.21082C32.7461 8.76455 32.9529 9.35091 33.0982 9.95361C33.2394 10.5441 33.3113 11.1296 33.3113 11.6921C33.3113 12.7791 33.1368 13.7963 32.7914 14.7151C32.4566 15.6004 31.8701 16.5108 31.0446 17.4192C30.6196 17.7697 30.2086 18.0457 29.8233 18.2389C29.4102 18.4457 28.9676 18.6083 28.5076 18.7228C28.0258 18.8432 27.5138 18.9228 26.9837 18.9577C26.4034 18.9979 25.7446 19.0192 25.0258 19.0192H23.0624C22.5649 19.0192 22.1154 19.2921 21.8889 19.7323C21.6608 20.1733 21.6966 20.699 21.9837 21.1031L31.1728 34.0963C31.4206 34.4457 31.8233 34.6536 32.2514 34.6536H33.8821C34.3794 34.6536 34.829 34.3791 35.0581 33.9364C35.2848 33.4947 35.2461 32.9697 34.9581 32.5645L27.929 22.716C29.3061 22.5697 30.5352 22.2031 31.5925 21.6244C32.9154 20.8989 34.0154 19.9817 34.8608 18.8963C35.6966 17.8255 36.3128 16.6389 36.6925 15.3723C37.0624 14.1389 37.2504 12.9577 37.2504 11.8588V11.6525C37.2196 10.6375 37.0685 9.63381 36.8061 8.66975Z" fill="white"/>
<path d="M65.3686 15.5643C64.2729 12.9242 62.4967 10.7482 60.0874 9.09767C57.6677 7.43872 54.9369 6.59766 51.9743 6.59766C49.3849 6.59766 46.9489 7.24819 44.7301 8.53099C42.5139 9.81327 40.7395 11.5882 39.4582 13.8039C38.1743 16.0215 37.5234 18.4575 37.5234 21.0466C37.5234 22.1977 37.6557 23.3174 37.9155 24.3747C37.9317 24.4695 37.9541 24.5611 37.9729 24.6122C38.7718 27.7534 40.4874 30.3789 43.0729 32.4174C45.6661 34.4601 48.6593 35.4961 51.9743 35.4961C54.4874 35.4961 56.8505 34.8893 58.9942 33.6934C61.1369 32.4987 62.8795 30.843 64.1754 28.7731C64.4661 28.3133 64.4743 27.7335 64.1983 27.2611L63.6249 26.2857C63.365 25.8414 62.8822 25.5654 62.3582 25.5654C61.8395 25.5679 61.3582 25.8507 61.1035 26.3013C60.1994 27.8919 58.9234 29.1825 57.3077 30.1398C55.6967 31.0909 53.9035 31.5731 51.9743 31.5731C49.5743 31.5731 47.4062 30.831 45.5291 29.3669C43.6915 27.9335 42.4421 26.0857 41.8171 23.8731C41.8103 23.7909 41.7967 23.7065 41.7754 23.6201C41.6182 23.0122 41.5171 22.3893 41.4743 21.7611H64.1915C64.7958 21.7611 65.2822 21.7013 65.6926 21.4081C66.0795 21.1335 66.5077 20.5825 66.3489 19.543C66.2223 18.1731 65.8926 16.8346 65.3686 15.5643ZM41.9462 17.8362C42.5182 16.0133 43.5718 14.4215 45.0863 13.0987C47.041 11.3893 49.3582 10.5226 51.9743 10.5226C54.0806 10.5226 56.0207 11.0945 57.7385 12.2242C59.4609 13.3559 60.7541 14.8669 61.5795 16.7122C61.741 17.0763 61.8838 17.4523 62.0077 17.8362H41.9462Z" fill="white"/>
<path d="M93.5649 7.1706H92.5529C91.7502 7.1706 91.0969 7.82419 91.0969 8.62672V10.0934C90.1475 9.25237 89.0889 8.54659 87.9302 7.99086C86.0289 7.06539 83.9875 6.59766 81.8622 6.59766C81.3622 6.59766 80.8769 6.62259 80.4249 6.67313C77.3115 6.99766 74.5579 8.23619 72.2407 10.3534C69.9502 12.4456 68.4611 15.0549 67.8169 18.1097C67.3945 20.044 67.3741 22.0492 67.7579 24.0706C68.1434 26.0961 68.921 27.9601 70.0705 29.6081C71.221 31.2601 72.7101 32.6294 74.4929 33.6773C76.2741 34.7242 78.1945 35.3576 80.2035 35.5576C80.6542 35.6002 81.1089 35.6226 81.5542 35.6226C83.9209 35.6226 86.1782 35.0242 88.2622 33.8466C88.3649 33.8065 88.4635 33.7549 88.5555 33.692C89.4795 33.0628 90.6182 31.9534 91.2582 31.0294L91.0969 33.4002C90.6369 34.9644 89.8462 36.331 88.7422 37.4628C87.5782 38.6549 86.2689 39.5106 84.8489 40.0065C83.4249 40.504 81.8635 40.6696 80.2582 40.4909C78.9825 40.3524 77.7902 39.9586 76.6997 39.3294C75.8278 38.8065 75.0314 38.1373 74.3355 37.3158C73.5637 36.4065 72.9757 35.4054 72.5913 34.3398C72.4595 33.9721 72.1913 33.68 71.8397 33.5133C71.4902 33.3508 71.0782 33.3346 70.721 33.4669L69.7475 33.8242C69.385 33.956 69.0861 34.231 68.9235 34.5841C68.7621 34.9321 68.7459 35.3388 68.8809 35.7002C69.4459 37.2174 70.2705 38.6242 71.3287 39.8732C71.3502 39.8988 71.373 39.9201 71.3945 39.9456C71.3877 39.9482 71.3825 39.9524 71.3741 39.956C72.0459 40.7321 72.7929 41.4362 73.6262 42.0388C74.0757 42.3654 74.5459 42.6586 75.0314 42.9253C75.0502 42.9373 75.0673 42.9492 75.0861 42.9601C75.1049 42.9696 75.1235 42.9789 75.1434 42.9893C75.197 43.0174 75.2502 43.0456 75.3038 43.0721C75.6246 43.2414 75.9502 43.4002 76.2835 43.5414L76.285 43.5373C76.8407 43.7732 77.4169 43.9732 78.0074 44.1362C79.2423 44.4764 80.4995 44.6482 81.7422 44.6482C82.0915 44.6482 82.4502 44.6346 82.8169 44.6054L82.8915 44.5977C85.8529 44.1988 88.4582 43.0106 90.6355 41.0696C92.8169 39.1226 94.2782 36.731 94.9782 33.956C95.0062 33.8398 95.0209 33.7201 95.0209 33.6029V8.62672C95.0209 7.82419 94.3675 7.1706 93.5649 7.1706ZM90.4409 25.9149C89.4382 27.7414 88.0715 29.256 86.4129 30.3961C84.6315 31.4158 82.6462 31.8414 80.5822 31.6466C79.1637 31.5106 77.7877 31.0549 76.4954 30.2893C75.2006 29.5253 74.1278 28.5321 73.3049 27.3373C72.4782 26.156 71.909 24.8065 71.6126 23.3268C71.3169 21.8456 71.3262 20.3669 71.6407 18.931C72.1339 16.6961 73.2278 14.7816 74.885 13.2414C76.5705 11.6934 78.5689 10.7988 80.8369 10.5816C81.1715 10.5414 81.5075 10.5226 81.8622 10.5226C83.3875 10.5226 84.8529 10.8586 86.2222 11.5242C87.9249 12.3456 89.3049 13.5669 90.3222 15.1524C91.3395 16.7346 91.8769 18.4961 91.9155 20.3816C91.9355 22.2373 91.4395 24.0988 90.4409 25.9149Z" fill="white"/>
</svg>
