<svg width="151" height="25" viewBox="0 0 151 25" fill="none" xmlns="http://www.w3.org/2000/svg">
<g opacity="0.5" clip-path="url(#clip0_947_477)">
<path d="M15.7056 13.6472H4.71863V24.0452H0.015625V0.617188H4.71962V10.1442H15.7046V0.617188H20.4086V24.0452H15.7056V13.6472ZM32.1976 16.4172H37.9976V20.6342H32.1976C30.3216 20.6342 29.5876 19.8242 29.5876 18.5272C29.5876 17.5072 30.1036 16.4172 32.1976 16.4172ZM25.1416 18.5272C25.1416 22.4232 28.1176 24.0422 31.2056 24.0422H42.4856V13.0822C42.4856 7.53219 40.0966 6.23419 34.8056 6.23419H26.4996V9.64219H34.3276C36.6076 9.64219 38.0026 10.0622 38.0026 12.6242V12.9742H31.4256C27.8256 12.9742 25.1416 14.8372 25.1416 18.5242V18.5272ZM47.9616 24.0422H58.4256C61.5116 24.0422 64.4866 22.6702 64.4866 18.7372C64.4866 15.0852 61.8046 13.3972 58.2056 13.3972H54.7956C52.8856 13.3972 52.1956 12.6962 52.1956 11.4332C52.1956 10.4392 52.6736 9.64319 54.7956 9.64319H63.7956V6.23719H54.0256C50.4616 6.23719 47.7436 7.74819 47.7436 11.4372C47.7436 15.3332 50.7196 16.8772 53.8056 16.8772H57.4436C59.5756 16.8772 60.0436 17.7542 60.0436 18.7402C60.0436 20.0052 59.3456 20.6372 57.4436 20.6372H47.9636V24.0452L47.9616 24.0432V24.0422ZM68.7896 24.0442H79.2616C82.3496 24.0442 85.3236 22.6722 85.3236 18.7392C85.3236 15.0872 82.6416 13.3992 79.0416 13.3992H75.6236C73.7136 13.3992 73.0136 12.6982 73.0136 11.4352C73.0136 10.4412 73.4936 9.64519 75.6236 9.64519H84.6236V6.23719H74.8496C71.2876 6.23719 68.5676 7.74819 68.5676 11.4372C68.5676 15.3332 71.5436 16.8772 74.6296 16.8772H78.2676C80.3996 16.8772 80.8676 17.7542 80.8676 18.7402C80.8676 20.0052 80.1696 20.6372 78.2676 20.6372H68.7876V24.0452L68.7896 24.0442ZM96.7876 16.4172H102.588V20.6342H96.7876C94.9136 20.6342 94.1876 19.8242 94.1876 18.5272C94.1876 17.5072 94.6996 16.4172 96.7876 16.4172ZM89.7336 18.5272C89.7336 22.4232 92.7096 24.0422 95.7976 24.0422H107.076V13.0822C107.076 7.53219 104.688 6.23419 99.3976 6.23419H91.0876V9.64219H98.9136C101.194 9.64219 102.588 10.0622 102.588 12.6242V12.9742H96.0116C92.4116 12.9742 89.7296 14.8372 89.7296 18.5242L89.7336 18.5272ZM124.083 13.0142V24.0442H128.641V13.0502C128.641 7.88119 126.213 6.23719 121.403 6.23719H112.624V24.0452H117.181V9.64519H120.703C123.165 9.64519 124.083 10.3802 124.083 13.0252V13.0142ZM133.483 24.0542H143.954C147.04 24.0542 150.016 22.6822 150.016 18.7492C150.016 15.0972 147.334 13.4092 143.734 13.4092H140.322C138.41 13.4092 137.722 12.7082 137.722 11.4452C137.722 10.4512 138.2 9.65519 140.322 9.65519H149.322V6.23719H139.552C135.987 6.23719 133.269 7.74819 133.269 11.4372C133.269 15.3332 136.245 16.8772 139.33 16.8772H142.966C145.1 16.8772 145.566 17.7542 145.566 18.7402C145.566 20.0052 144.868 20.6372 142.966 20.6372H133.489V24.0452" fill="white"/>
</g>
<defs>
<clipPath id="clip0_947_477">
<rect width="150" height="24" fill="white" transform="translate(0.015625 0.617188)"/>
</clipPath>
</defs>
</svg>
