<svg width="148" height="34" viewBox="0 0 148 34" fill="none" xmlns="http://www.w3.org/2000/svg">
<g opacity="0.5">
<path d="M57.7607 11.0529C58.6649 11.6011 59.4301 12.3549 59.9169 13.3828C60.4734 14.4106 60.7516 15.6441 60.7516 17.0145C60.7516 18.385 60.4734 19.55 59.8474 20.5778C59.2909 21.6057 58.4562 22.3595 57.4128 22.8391C56.3696 23.3873 55.1175 23.6615 53.796 23.6615C53.0308 23.6615 52.3352 23.5243 51.6397 23.2503C50.944 23.0448 50.3181 22.6335 49.8311 22.1539V29.2805H45.7969V10.5047H49.2747L49.6226 12.0123C51.1528 10.7788 52.8221 10.1621 54.561 10.1621C55.7435 10.1621 56.8564 10.4362 57.7607 11.0529ZM55.5349 19.55C56.2304 18.9333 56.5782 18.1109 56.5782 17.0831C56.5782 16.0552 56.2304 15.233 55.6044 14.5477C54.9784 13.8624 54.1438 13.5883 53.2395 13.5883C52.4744 13.5883 51.7787 13.7254 51.2223 14.068C50.6658 14.3421 50.2485 14.8218 49.9008 15.4385V18.522C50.1094 19.1389 50.5268 19.6184 51.0137 19.9611C51.5702 20.3037 52.1962 20.5093 52.9613 20.5093C54.0046 20.5093 54.8393 20.1667 55.5349 19.55Z" fill="white"/>
<path d="M63.1151 13.4453C63.7413 12.4859 64.5758 11.6636 65.6887 11.1154C66.8016 10.5672 68.0538 10.2246 69.4449 10.2246C70.836 10.2246 72.088 10.4987 73.2009 11.1154C74.2443 11.6636 75.079 12.4859 75.705 13.5138C76.331 14.5417 76.6092 15.6381 76.6092 16.94C76.6092 18.242 76.331 19.3384 75.705 20.3662C75.079 21.3941 74.3138 22.2163 73.2009 22.7646C72.1575 23.3127 70.836 23.6554 69.4449 23.6554C68.0538 23.6554 66.8016 23.3813 65.6887 22.8332C64.5758 22.2849 63.7413 21.5312 63.1151 20.5032C62.5587 19.4754 62.2109 18.3104 62.2109 16.94C62.2109 15.6381 62.5587 14.4731 63.1151 13.4453ZM67.2191 19.4068C67.7755 20.0921 68.5407 20.3662 69.4449 20.3662C70.3491 20.3662 71.1143 20.0237 71.6707 19.4068C72.2272 18.7901 72.5054 17.8993 72.5054 16.94C72.5054 15.9122 72.2272 15.0899 71.6707 14.4731C71.0446 13.7879 70.3491 13.4453 69.3754 13.4453C68.471 13.4453 67.7755 13.7879 67.1495 14.4046C66.5931 15.0899 66.3149 15.9122 66.3149 16.94C66.3149 17.8993 66.5931 18.7217 67.2191 19.4068Z" fill="white"/>
<path d="M83.1436 0.771484V23.3161H79.1094V0.771484H83.1436Z" fill="white"/>
<path d="M99.7054 10.8457L91.4977 29.3473H87.6026L90.663 22.7005L84.8203 10.8457H89.411L92.7498 18.2463L96.0885 10.8457H99.7054Z" fill="white"/>
<path d="M115.138 10.8413V23.3127C115.138 24.4777 114.791 25.5741 114.095 26.5335C113.4 27.4928 112.495 28.2466 111.313 28.7947C110.13 29.343 108.878 29.617 107.487 29.617C106.444 29.617 105.54 29.48 104.774 29.2744C104.009 29.0003 103.383 28.7262 102.896 28.4522C102.34 28.1095 101.784 27.6983 101.157 27.1502L103.522 24.4091C104.079 24.9574 104.705 25.3685 105.261 25.6427C105.818 25.9167 106.583 26.1222 107.418 26.1222C108.461 26.1222 109.296 25.8482 109.991 25.3685C110.687 24.8888 111.034 24.1351 111.034 23.2443V21.4626C110.617 22.0793 110.061 22.6276 109.226 23.0387C108.391 23.4499 107.418 23.6554 106.305 23.6554C105.192 23.6554 104.079 23.3813 103.105 22.7646C102.131 22.2163 101.366 21.3941 100.74 20.3662C100.184 19.3384 99.8359 18.242 99.8359 17.0086C99.8359 15.7751 100.114 14.6102 100.74 13.5823C101.366 12.5544 102.131 11.7322 103.175 11.1154C104.148 10.4987 105.192 10.2246 106.305 10.2246C107.348 10.2246 108.252 10.3617 109.087 10.6358C109.922 10.9099 110.548 11.321 110.965 11.8007L111.382 10.8413H115.138ZM111.034 18.5161V15.4325C110.756 14.8158 110.339 14.3361 109.713 13.9935C109.087 13.6508 108.391 13.4453 107.557 13.4453C106.583 13.4453 105.748 13.7879 105.053 14.4046C104.357 15.0213 104.009 15.8436 104.009 16.8715C104.009 17.8309 104.357 18.7217 105.053 19.4068C105.748 20.0921 106.583 20.4348 107.557 20.4348C109.157 20.3662 110.339 19.7495 111.034 18.5161Z" fill="white"/>
<path d="M118.482 13.4513C119.108 12.4234 119.943 11.6696 121.056 11.0529C122.169 10.5047 123.421 10.1621 124.812 10.1621C126.203 10.1621 127.455 10.4362 128.568 11.0529C129.612 11.6011 130.446 12.4234 131.072 13.4513C131.629 14.4792 131.976 15.5755 131.976 16.8775C131.976 18.1795 131.698 19.2759 131.072 20.3037C130.516 21.3315 129.681 22.1539 128.568 22.7021C127.525 23.2503 126.203 23.5929 124.812 23.5929C123.421 23.5929 122.169 23.3188 121.056 22.7706C119.943 22.2224 119.108 21.4687 118.482 20.4408C117.856 19.4129 117.578 18.248 117.578 16.8089C117.578 15.6441 117.856 14.4792 118.482 13.4513ZM122.517 19.4129C123.073 20.0981 123.838 20.3723 124.742 20.3723C125.647 20.3723 126.412 20.0296 126.968 19.4129C127.525 18.7962 127.803 17.9053 127.803 16.9461C127.803 15.9181 127.525 15.0959 126.968 14.4792C126.412 13.8624 125.647 13.5198 124.742 13.5198C123.838 13.5198 123.143 13.8624 122.517 14.4792C121.891 15.0959 121.612 15.9867 121.612 16.9461C121.682 17.9053 121.96 18.7276 122.517 19.4129Z" fill="white"/>
<path d="M146.231 11.2525C147.066 11.9377 147.413 12.8285 147.482 13.9249V23.3127H143.379V15.4325C143.31 14.199 142.684 13.5823 141.501 13.5823C140.597 13.5823 139.832 13.9935 139.275 14.8843C138.719 15.7751 138.441 16.8715 138.441 18.1734V23.3127H134.406V10.8413H138.093L138.371 12.8285C138.858 12.0062 139.484 11.3895 140.319 10.9099C141.153 10.4302 142.127 10.2246 143.24 10.2246C144.422 10.2246 145.466 10.5672 146.231 11.2525Z" fill="white"/>
<path d="M28.5425 10.642C27.8469 10.2309 26.9427 10.2309 26.1776 10.642L20.7521 13.7941L17.0656 15.8499L11.6402 19.002C10.9446 19.4131 10.0404 19.4131 9.27526 19.002L4.96273 16.535C4.26716 16.1239 3.78027 15.3702 3.78027 14.5479V9.68267C3.78027 8.86038 4.19761 8.10661 4.96273 7.69546L9.20569 5.29711C9.90127 4.88597 10.8055 4.88597 11.5706 5.29711L15.8136 7.69546C16.5091 8.10661 16.9961 8.86038 16.9961 9.68267V12.8348L20.6826 10.7105V7.55842C20.6826 6.73612 20.2653 5.98235 19.5001 5.5712L11.6402 1.04859C10.9446 0.637448 10.0404 0.637448 9.27526 1.04859L1.27622 5.5712C0.511091 5.98235 0.09375 6.73612 0.09375 7.55842V16.6722C0.09375 17.4945 0.511091 18.2483 1.27622 18.6594L9.27526 23.182C9.97082 23.5932 10.8751 23.5932 11.6402 23.182L17.0656 20.0984L20.7521 17.9742L26.1776 14.8905C26.8731 14.4794 27.7773 14.4794 28.5425 14.8905L32.7855 17.2889C33.481 17.7 33.9679 18.4539 33.9679 19.2761V24.1413C33.9679 24.9637 33.5506 25.7174 32.7855 26.1285L28.5425 28.5955C27.8469 29.0066 26.9427 29.0066 26.1776 28.5955L21.9347 26.1971C21.239 25.786 20.7521 25.0321 20.7521 24.2099V21.0578L17.0656 23.182V26.3341C17.0656 27.1563 17.483 27.9102 18.248 28.3213L26.2472 32.8439C26.9427 33.255 27.8469 33.255 28.612 32.8439L36.6112 28.3213C37.3067 27.9102 37.7936 27.1563 37.7936 26.3341V17.2203C37.7936 16.3981 37.3762 15.6444 36.6112 15.2332L28.5425 10.642Z" fill="white"/>
</g>
</svg>
