<svg width="197" height="73" viewBox="0 0 197 73" fill="none" xmlns="http://www.w3.org/2000/svg">
<path opacity="0.5" d="M79.7791 43.7728C78.2261 43.7728 76.9167 43.4759 75.8509 42.8821C74.7851 42.2883 73.9705 41.4585 73.4072 40.3927C72.8591 39.3117 72.585 38.048 72.585 36.6015V26.6668H75.8281V36.7842C75.8281 37.576 75.9803 38.2763 76.2848 38.8854C76.5894 39.4792 77.0309 39.9435 77.6095 40.2785C78.2033 40.5982 78.9265 40.7581 79.7791 40.7581C80.6165 40.7581 81.3245 40.5982 81.9031 40.2785C82.4969 39.9435 82.9385 39.4792 83.2277 38.8854C83.5323 38.2916 83.6845 37.5912 83.6845 36.7842V26.6668H86.9276V36.6015C86.9276 38.048 86.6535 39.3117 86.1054 40.3927C85.5725 41.4585 84.7731 42.2883 83.7073 42.8821C82.6416 43.4759 81.3321 43.7728 79.7791 43.7728ZM90.4738 43.3389V30.9376H92.986V36.2589H92.7576C92.7576 34.9952 92.9251 33.9446 93.2601 33.1072C93.595 32.2546 94.0899 31.6151 94.7446 31.1888C95.4145 30.7625 96.2443 30.5493 97.234 30.5493H97.371C98.8479 30.5493 99.967 31.0289 100.728 31.9881C101.49 32.9321 101.87 34.3481 101.87 36.2361V43.3389H98.6956V35.962C98.6956 35.2008 98.4749 34.5841 98.0333 34.1121C97.607 33.6401 97.0132 33.4041 96.2519 33.4041C95.4754 33.4041 94.8435 33.6477 94.3563 34.135C93.8843 34.607 93.6483 35.2464 93.6483 36.0534V43.3389H90.4738ZM105.877 43.3389V30.9376H109.051V43.3389H105.877ZM104.141 33.3128V30.9376H109.051V33.3128H104.141ZM107.042 29.4531C106.417 29.4531 105.953 29.2932 105.649 28.9735C105.359 28.6385 105.215 28.2274 105.215 27.7402C105.215 27.2225 105.359 26.8038 105.649 26.4841C105.953 26.1643 106.417 26.0045 107.042 26.0045C107.666 26.0045 108.123 26.1643 108.412 26.4841C108.701 26.8038 108.846 27.2225 108.846 27.7402C108.846 28.2274 108.701 28.6385 108.412 28.9735C108.123 29.2932 107.666 29.4531 107.042 29.4531ZM117.209 43.7271C115.504 43.7271 114.164 43.3693 113.19 42.6537C112.23 41.9229 111.728 40.918 111.682 39.639H114.537C114.583 40.0654 114.819 40.4536 115.245 40.8038C115.671 41.154 116.341 41.3291 117.255 41.3291C118.016 41.3291 118.618 41.1921 119.059 40.918C119.516 40.6439 119.744 40.2709 119.744 39.7989C119.744 39.3878 119.569 39.0605 119.219 38.8168C118.884 38.5732 118.306 38.4134 117.483 38.3372L116.387 38.223C115.002 38.0708 113.936 37.6749 113.19 37.0354C112.444 36.396 112.071 35.5433 112.071 34.4775C112.071 33.6249 112.284 32.9093 112.71 32.3307C113.136 31.7521 113.723 31.3182 114.469 31.0289C115.23 30.7244 116.098 30.5722 117.072 30.5722C118.595 30.5722 119.828 30.9071 120.772 31.577C121.716 32.247 122.211 33.229 122.257 34.5232H119.402C119.371 34.0969 119.158 33.7315 118.762 33.427C118.366 33.1225 117.795 32.9702 117.049 32.9702C116.379 32.9702 115.862 33.0996 115.496 33.3585C115.131 33.6173 114.948 33.9523 114.948 34.3633C114.948 34.7592 115.093 35.0637 115.382 35.2769C115.687 35.49 116.174 35.6347 116.844 35.7108L117.94 35.825C119.402 35.9773 120.544 36.3807 121.366 37.0354C122.203 37.6901 122.622 38.5732 122.622 39.6847C122.622 40.5069 122.394 41.2225 121.937 41.8315C121.495 42.4253 120.871 42.8897 120.064 43.2247C119.257 43.5596 118.306 43.7271 117.209 43.7271ZM129.381 43.3389L131.733 31.3487H135.387L138.105 43.3389H135.593L132.83 31.4172H134.154L131.71 43.3389H129.381ZM128.445 43.3389L128.422 40.7353H130.957V43.3389H128.445ZM127.166 43.3389L123.785 30.9376H126.869L130.089 43.3389H127.166ZM136.392 43.3389V40.7353H138.927L138.905 43.3389H136.392ZM137.397 43.3389L140.252 30.9376H143.13L140.138 43.3389H137.397ZM152.987 43.3389V39.6619H152.462V35.5738C152.462 34.8582 152.287 34.3253 151.937 33.9751C151.587 33.6249 151.046 33.4498 150.315 33.4498C149.935 33.4498 149.478 33.4574 148.945 33.4726C148.412 33.4879 147.872 33.5107 147.323 33.5412C146.79 33.5564 146.311 33.5792 145.885 33.6097V30.9147C146.235 30.8843 146.631 30.8538 147.072 30.8234C147.514 30.7929 147.963 30.7777 148.42 30.7777C148.892 30.7625 149.333 30.7549 149.744 30.7549C151.023 30.7549 152.081 30.9223 152.919 31.2573C153.771 31.5923 154.411 32.1176 154.837 32.8332C155.279 33.5488 155.5 34.4852 155.5 35.6423V43.3389H152.987ZM148.991 43.6586C148.092 43.6586 147.301 43.4987 146.615 43.179C145.945 42.8593 145.42 42.4025 145.04 41.8087C144.674 41.2149 144.491 40.4993 144.491 39.6619C144.491 38.7483 144.712 38.0023 145.154 37.4237C145.611 36.8451 146.242 36.4112 147.049 36.1219C147.872 35.8326 148.831 35.688 149.927 35.688H152.805V37.5836H149.881C149.15 37.5836 148.587 37.7663 148.191 38.1317C147.811 38.4819 147.62 38.9387 147.62 39.502C147.62 40.0654 147.811 40.5221 148.191 40.8723C148.587 41.2225 149.15 41.3976 149.881 41.3976C150.323 41.3976 150.726 41.3215 151.092 41.1692C151.472 41.0017 151.785 40.7277 152.028 40.347C152.287 39.9512 152.432 39.4183 152.462 38.7483L153.239 39.639C153.162 40.5069 152.949 41.2377 152.599 41.8315C152.264 42.4253 151.792 42.8821 151.183 43.2018C150.589 43.5063 149.858 43.6586 148.991 43.6586ZM158.9 47.9066V30.9376H161.412V36.2818L161.024 36.2589C161.085 34.9952 161.344 33.937 161.8 33.0844C162.272 32.2318 162.897 31.5999 163.673 31.1888C164.45 30.7625 165.318 30.5493 166.277 30.5493C167.16 30.5493 167.952 30.7092 168.652 31.0289C169.368 31.3487 169.977 31.7978 170.479 32.3764C170.997 32.955 171.393 33.6325 171.667 34.409C171.941 35.1703 172.078 35.9925 172.078 36.8756V37.3552C172.078 38.2535 171.941 39.0909 171.667 39.8674C171.408 40.6287 171.02 41.3062 170.502 41.9C170 42.4786 169.39 42.9354 168.675 43.2704C167.959 43.5901 167.16 43.75 166.277 43.75C165.348 43.75 164.495 43.5596 163.719 43.179C162.958 42.7831 162.341 42.1817 161.869 41.3748C161.397 40.5526 161.131 39.4944 161.07 38.2002L162.075 39.7304V47.9066H158.9ZM165.477 41.0779C166.163 41.0779 166.756 40.9104 167.259 40.5754C167.777 40.2404 168.18 39.7761 168.469 39.1823C168.759 38.5732 168.903 37.8881 168.903 37.1268C168.903 36.3351 168.759 35.6499 168.469 35.0713C168.18 34.4928 167.777 34.0436 167.259 33.7239C166.756 33.3889 166.163 33.2214 165.477 33.2214C164.853 33.2214 164.275 33.3585 163.742 33.6325C163.224 33.9066 162.798 34.3101 162.463 34.843C162.143 35.3759 161.983 36.0153 161.983 36.7614V37.6749C161.983 38.3905 162.151 38.9996 162.486 39.502C162.821 40.0044 163.255 40.3927 163.787 40.6668C164.32 40.9408 164.884 41.0779 165.477 41.0779Z" fill="white"/>
<g opacity="0.5">
<path d="M16.9309 6.90592C16.1722 6.78888 16.1399 6.77678 16.4991 6.72432C17.1851 6.61939 18.7994 6.76064 19.9132 7.02295C22.5121 7.63635 24.8769 9.21021 27.4031 12.0069L28.073 12.7494L29.0335 12.596C33.0771 11.9504 37.1853 12.4629 40.6276 14.0408C41.576 14.4766 43.0692 15.3402 43.2508 15.5622C43.3153 15.6348 43.4243 16.0868 43.4929 16.5751C43.7512 18.262 43.6261 19.5493 43.1055 20.5138C42.823 21.0384 42.8068 21.2039 42.9965 21.6558C43.0872 21.842 43.2283 21.9989 43.4038 22.1088C43.5794 22.2187 43.7822 22.2771 43.9893 22.2773C44.8448 22.2773 45.7649 20.9052 46.1886 18.9924L46.3581 18.2297L46.6931 18.609C48.5373 20.6833 49.9821 23.5082 50.2282 25.5179L50.2928 26.0425L49.9861 25.5663C49.5403 24.837 48.9413 24.2132 48.2306 23.7382C46.9957 22.927 45.6882 22.6486 42.2338 22.467C39.1103 22.3056 37.3427 22.0392 35.5913 21.4702C32.609 20.5017 31.1078 19.2184 27.5646 14.6017C25.9907 12.5476 25.0222 11.4136 24.0536 10.5016C21.8543 8.42328 19.6952 7.33368 16.9309 6.90995V6.90592Z" fill="white"/>
<path d="M43.9638 11.4898C44.0404 10.1177 44.2261 9.20971 44.6054 8.38242C44.6886 8.17334 44.7927 7.97323 44.9162 7.78516C44.9363 7.78516 44.8718 8.02729 44.7709 8.32188C44.4965 9.12899 44.448 10.2267 44.6417 11.5059C44.8839 13.1282 45.017 13.3623 46.7402 15.1137C47.5514 15.937 48.4917 16.9701 48.8347 17.418L49.4562 18.2251L48.8347 17.648C48.076 16.9418 46.3326 15.5617 45.9452 15.3639C45.6869 15.2348 45.6466 15.2348 45.4892 15.3922C45.3399 15.5374 45.3116 15.7554 45.2874 16.7885C45.2592 18.3987 45.0372 19.4318 44.5045 20.4608C44.218 21.0258 44.1736 20.9047 44.4319 20.2711C44.6256 19.803 44.6458 19.5932 44.6458 18.0355C44.6458 14.9079 44.2664 14.1533 42.0751 12.8699C41.4142 12.4882 40.7354 12.138 40.0412 11.8207C39.6992 11.6832 39.3674 11.5214 39.0485 11.3364C39.109 11.2759 41.2478 11.8974 42.1074 12.2243C43.3907 12.7166 43.6006 12.7771 43.758 12.7206C43.8588 12.6803 43.9113 12.3776 43.9597 11.4898H43.9638ZM18.4066 16.845C16.8691 14.7384 15.9127 11.5059 16.1225 9.08864L16.183 8.34206L16.5341 8.4026C17.196 8.52366 18.33 8.94336 18.8626 9.2662C20.3195 10.146 20.9531 11.3042 21.5947 14.2824C21.7844 15.1541 22.0306 16.1387 22.1435 16.4777C22.3251 17.0145 23.0193 18.2695 23.5802 19.0847C23.9838 19.6739 23.7174 19.9523 22.8215 19.8716C21.4535 19.7506 19.6012 18.4794 18.4066 16.845ZM42.0913 32.5311C34.8919 29.6538 32.3575 27.1518 32.3575 22.9346C32.3575 22.3131 32.3777 21.8047 32.406 21.8047C32.4302 21.8047 32.7086 22.0064 33.0234 22.2607C34.4843 23.4229 36.1187 23.9193 40.6465 24.5771C43.31 24.9645 44.8032 25.2752 46.1874 25.7312C50.5861 27.18 53.302 30.1179 53.9518 34.1252C54.1374 35.2874 54.0325 37.4666 53.7217 38.6168C53.4796 39.5248 52.7451 41.1592 52.5514 41.2237C52.4949 41.2439 52.4425 41.0381 52.4304 40.7556C52.3577 39.2544 51.591 37.7895 50.3077 36.6918C48.8468 35.4448 46.8855 34.4521 42.0913 32.5352V32.5311ZM37.0388 33.7297C36.9542 33.2186 36.8383 32.7132 36.6917 32.2164L36.5061 31.6716L36.8491 32.055C37.3213 32.5796 37.6966 33.2535 38.0113 34.1534C38.2535 34.8395 38.2777 35.0413 38.2777 36.1551C38.2777 37.2487 38.2454 37.4787 38.0194 38.0921C37.7093 39.0018 37.1895 39.8257 36.502 40.4973C35.1865 41.8291 33.4956 42.5635 31.054 42.8702C30.6303 42.9227 29.3954 43.0115 28.3099 43.068C25.5697 43.2092 23.7658 43.5038 22.1476 44.0688C22.0009 44.1332 21.8436 44.1702 21.6835 44.1777C21.6189 44.1132 22.7247 43.4594 23.6327 43.0236C24.916 42.4061 26.1952 42.0712 29.0605 41.599C30.4729 41.365 31.9378 41.0784 32.3091 40.9654C35.812 39.9001 37.6158 37.1438 37.0388 33.7297Z" fill="white"/>
<path d="M40.3334 39.5487C39.377 37.5067 39.1551 35.5334 39.6797 33.6931C39.7362 33.4914 39.825 33.334 39.8815 33.334C39.9339 33.334 40.1639 33.4551 40.3819 33.6044C40.8258 33.899 41.7055 34.3953 44.0623 35.6706C47.0002 37.2646 48.679 38.4955 49.817 39.9079C50.8138 41.1387 51.4312 42.5471 51.7298 44.2582C51.8993 45.2267 51.7984 47.5674 51.5482 48.544C50.7573 51.6271 48.9251 54.0485 46.302 55.4609C45.9186 55.6667 45.5756 55.8362 45.5353 55.8362C45.4989 55.8362 45.6402 55.4851 45.846 55.0533C46.7298 53.2212 46.8307 51.4415 46.1648 49.46C45.7532 48.2453 44.9219 46.7643 43.2431 44.2582C41.2899 41.3526 40.8137 40.5738 40.3334 39.5487ZM13.2872 50.5779C15.9628 48.3341 19.284 46.7441 22.3147 46.2518C23.8757 46.0516 25.4592 46.113 27 46.4334C28.9371 46.9257 30.6723 48.0315 31.5723 49.343C32.452 50.6304 32.8314 51.7482 33.2268 54.2422C33.3802 55.2228 33.5497 56.2115 33.5981 56.4335C33.8927 57.7248 34.4698 58.758 35.18 59.2745C36.31 60.0978 38.2632 60.1502 40.1801 59.4077C40.3792 59.3159 40.5895 59.2508 40.8056 59.214C40.8742 59.2826 39.9097 59.9242 39.2317 60.2632C38.4274 60.6909 37.5276 60.9076 36.6167 60.8928C34.8612 60.8928 33.4044 60.0049 32.1857 58.197C31.7387 57.4316 31.3398 56.6391 30.9911 55.8241C29.7078 52.9145 29.0743 52.0307 27.5851 51.0581C26.2857 50.2107 24.6109 50.0613 23.3519 50.6747C21.6973 51.4819 21.2372 53.5803 22.4237 54.9121C22.9779 55.4843 23.703 55.861 24.4899 55.9855C24.8024 56.0284 25.1205 56.0035 25.4225 55.9126C25.7246 55.8216 26.0035 55.6668 26.2405 55.4586C26.4774 55.2504 26.6668 54.9936 26.7957 54.7057C26.9247 54.4179 26.9902 54.1056 26.9879 53.7902C26.9879 52.9145 26.6489 52.4181 25.7974 52.0307C24.6311 51.5101 23.3841 52.1195 23.3882 53.205C23.3882 53.6691 23.594 53.9597 24.0621 54.1736C24.3607 54.3067 24.3688 54.3148 24.1226 54.2664C23.0573 54.0444 22.8071 52.7652 23.6626 51.9177C24.6957 50.9007 26.8265 51.3487 27.5569 52.7409C27.8636 53.3261 27.8999 54.4883 27.6336 55.1905C27.0282 56.7644 25.2849 57.5917 23.5092 57.1397C22.2986 56.833 21.8103 56.5021 20.3534 55.013C17.8231 52.4221 16.8425 51.9177 13.1944 51.3527L12.4922 51.2438L13.2872 50.5779Z" fill="white"/>
<path fill-rule="evenodd" clip-rule="evenodd" d="M1.41926 4.21078C9.8697 14.4046 15.693 18.6096 16.3387 19.4974C16.8714 20.2319 16.6696 20.8937 15.7576 21.4103C15.109 21.7362 14.403 21.9322 13.6793 21.9874C13.086 21.9874 12.8802 21.7614 12.8802 21.7614C12.5372 21.4385 12.3435 21.495 10.58 18.3836C9.08062 16.0501 7.56321 13.7283 6.02786 11.4183C5.89872 11.2972 5.90276 11.2972 10.3338 19.1786C11.0481 20.8211 10.475 21.4224 10.475 21.6565C10.475 22.1327 10.3419 22.3829 9.75267 23.0407C8.768 24.1303 8.32812 25.3571 8.00932 27.8954C7.65419 30.7405 6.65337 32.7502 3.87691 36.1925C2.25462 38.2063 1.98827 38.5735 1.57665 39.3887C1.0601 40.4097 0.918854 40.9827 0.862356 42.2701C0.801823 43.6381 0.918854 44.5179 1.33855 45.8213C1.70175 46.9674 2.08916 47.718 3.0698 49.2273C3.91727 50.5308 4.40153 51.4994 4.40153 51.8787C4.40153 52.1773 4.45803 52.1773 5.77362 51.8827C8.90521 51.1805 11.4516 49.9457 12.8843 48.4243C13.7721 47.484 13.9779 46.9674 13.986 45.6801C13.99 44.8407 13.9618 44.6631 13.7317 44.1789C13.3605 43.3919 12.6825 42.7341 11.1893 41.7172C9.22805 40.3855 8.38866 39.316 8.16267 37.8431C7.96896 36.6324 8.19092 35.7809 9.27244 33.525C10.3943 31.1844 10.6728 30.1876 10.8624 27.8349C10.9835 26.3135 11.149 25.7122 11.5888 25.2279C12.0489 24.7275 12.4605 24.558 13.5986 24.4047C15.4509 24.1504 16.6252 23.6783 17.5937 22.7905C17.982 22.47 18.2952 22.0684 18.5113 21.6137C18.7275 21.1591 18.8413 20.6626 18.8448 20.1593L18.8851 19.3118L18.413 18.771C16.714 16.8017 0.281237 2.66113 0.176313 2.66113C0.156135 2.66113 0.713041 3.35928 1.41926 4.21078ZM5.35796 43.8197C5.5431 43.4927 5.59815 43.108 5.51213 42.7422C5.42611 42.3764 5.20534 42.0565 4.89387 41.8463C4.28854 41.4428 3.34018 41.6365 3.34018 42.1571C3.34018 42.3185 3.42897 42.4355 3.63074 42.5364C3.96973 42.7099 3.99394 42.9036 3.7276 43.3032C3.45721 43.7027 3.48143 44.0538 3.78813 44.2959C4.2845 44.6793 4.98669 44.4694 5.35796 43.8197ZM20.0514 24.8526C19.1838 25.1149 18.3403 26.031 18.074 26.9915C17.9166 27.5766 18.0094 28.6057 18.2475 28.9205C18.6349 29.433 19.0062 29.5661 20.0191 29.5621C21.9965 29.55 23.7157 28.7066 23.9175 27.6493C24.0789 26.7856 23.3242 25.5911 22.2831 25.0625C21.5758 24.7753 20.7998 24.7023 20.0514 24.8526ZM22.3678 26.6484C22.6705 26.2166 22.5373 25.7525 22.0167 25.4378C21.032 24.8365 19.5348 25.3329 19.5348 26.261C19.5348 26.7251 20.3137 27.2296 21.028 27.2296C21.5042 27.2296 22.158 26.9471 22.3678 26.6484Z" fill="white"/>
</g>
</svg>
