<svg width="157" height="33" viewBox="0 0 157 33" fill="none" xmlns="http://www.w3.org/2000/svg">
<g opacity="0.5">
<path d="M10.961 0.26926C10.4325 0.348537 9.93479 0.533524 9.49875 0.824215C8.88654 1.22942 8.98344 1.07967 4.58783 8.11793C2.33277 11.734 0.42125 14.8259 0.346375 14.9976C0.126155 15.4689 0.046875 15.8521 0.046875 16.407C0.046875 16.9708 0.126155 17.3452 0.337566 17.8076C0.42125 17.9838 1.32416 19.4109 2.35038 20.9876C5.16921 25.3128 6.02367 26.6297 6.99704 28.1228C9.26532 31.6111 9.30055 31.6595 9.88194 32.0427C11.0095 32.7871 12.4894 32.8091 13.6345 32.0956C14.0617 31.8313 14.4053 31.479 14.7664 30.9416C15.7662 29.4617 23.0952 18.16 23.2141 17.9178C23.4564 17.4289 23.5488 16.9444 23.5224 16.2969C23.5004 15.742 23.4387 15.4733 23.2361 15.0152C23.1568 14.8347 22.7076 14.1476 21.4876 12.355C21.0339 11.6899 20.4305 10.8002 19.0211 8.72134C18.7833 8.36898 18.4177 7.83605 18.2151 7.53214C17.7526 6.85386 17.2946 6.17558 16.559 5.0965C16.2507 4.64285 15.8015 3.97778 15.5592 3.62102C15.317 3.26426 14.9074 2.65645 14.6475 2.26886C14.0573 1.38798 13.6257 0.93873 13.1192 0.678869C12.3704 0.291283 11.6922 0.163551 10.961 0.26926ZM17.6778 12.8395C18.9991 14.7862 20.0826 16.4026 20.0914 16.4247C20.1046 16.4599 11.9344 29.0521 11.8243 29.171C11.7935 29.2019 11.701 29.0653 10.8465 27.7484C10.6175 27.4005 10.2563 26.8411 10.0361 26.5064C9.82028 26.1716 9.41067 25.5506 9.13319 25.119C8.85571 24.6918 8.42848 24.0355 8.18624 23.6655C7.94399 23.2956 7.57402 22.7318 7.36702 22.4103C7.1556 22.0887 6.75921 21.4765 6.48173 21.0537C5.6537 19.7852 5.43348 19.4373 5.43348 19.4153C5.43348 19.3976 5.5568 19.3756 5.71096 19.358C5.86071 19.3404 6.23508 19.2787 6.53899 19.2215C9.37543 18.6753 11.8727 16.9972 13.5068 14.5352C13.8944 13.9494 14.4493 12.8218 14.6783 12.1348C14.9558 11.3155 15.2113 10.0427 15.2113 9.49651C15.2113 9.3864 15.2245 9.29391 15.2465 9.29391C15.2641 9.29832 16.3564 10.8927 17.6778 12.8395Z" fill="white"/>
<path d="M39.2203 7.18898C38.978 7.92452 37.2911 13.0336 35.4765 18.548C33.6575 24.0579 32.16 28.6033 32.1424 28.6429C32.116 28.7134 32.3494 28.7178 35.4633 28.7178H38.8107L38.8811 28.5064C38.9164 28.3918 39.1983 27.4669 39.5022 26.4495C39.8061 25.4321 40.0747 24.538 40.1012 24.4631L40.1408 24.331H43.9022H47.6636L48.2626 26.3218C48.5929 27.4141 48.888 28.3963 48.9188 28.502L48.9761 28.6958L52.3366 28.709C55.521 28.7178 55.6972 28.7134 55.6664 28.6429C55.6532 28.5989 54.1424 24.0271 52.3146 18.4775C50.4868 12.9323 48.7999 7.82322 48.5709 7.12292L48.148 5.85885H43.9066H39.6651L39.2203 7.18898ZM45.1134 15.8701C45.7256 17.9093 46.2409 19.605 46.2497 19.6315C46.2674 19.6755 45.7829 19.6887 43.9066 19.6887C42.0347 19.6887 41.5458 19.6755 41.559 19.6315C41.5722 19.605 42.0832 17.9093 42.6954 15.8657C43.704 12.5139 43.8229 12.1572 43.9022 12.1572C43.9859 12.1572 44.1048 12.5183 45.1134 15.8701Z" fill="white"/>
<path d="M57.8906 17.2883V28.7178L60.9209 28.709L63.9467 28.6958L63.9599 22.0539C63.9687 15.7644 63.9731 15.4164 64.048 15.4164C64.1097 15.4164 64.6294 16.7245 66.6598 21.9658L69.1968 28.5196L71.029 28.5328L72.8568 28.5416L73.2092 27.6519C73.403 27.1586 74.5437 24.2253 75.7505 21.129C77.5519 16.5131 77.9616 15.5045 78.0276 15.5045C78.1025 15.5045 78.1069 15.7468 78.1157 22.0979L78.1289 28.6958L81.1592 28.709L84.185 28.7178V17.2883V5.85885L80.3223 5.86766L76.4641 5.88087L73.8743 12.2012C72.4472 15.6763 71.2536 18.5876 71.2184 18.6625C71.1303 18.8519 70.9497 18.8651 70.8704 18.6889C70.844 18.6228 69.646 15.7159 68.2146 12.2276L65.616 5.88087L61.7533 5.86766L57.8906 5.85885V17.2883Z" fill="white"/>
<path d="M87.1367 17.2883V28.7178H94.8444H102.552V26.2073V23.6967H97.9496H93.3469V14.7778V5.85885H90.2418H87.1367V17.2883Z" fill="white"/>
<path d="M105.062 17.2878V28.7217L111.022 28.7041C116.382 28.6908 117.025 28.682 117.479 28.6116C118.588 28.4442 119.487 28.1799 120.284 27.7791C122.204 26.8146 123.398 25.2818 123.764 23.3219C123.852 22.8418 123.865 21.7583 123.786 21.2518C123.601 20.1066 123.099 19.1377 122.271 18.3361C121.429 17.5257 120.412 17.028 119.201 16.8474C118.972 16.8121 118.729 16.7813 118.663 16.7813C118.562 16.7813 118.54 16.7593 118.54 16.6756C118.54 16.5831 118.575 16.5611 118.862 16.495C120.716 16.0458 122.099 14.8478 122.698 13.1785C123.028 12.2492 123.028 10.853 122.702 9.84435C122.015 7.73904 120.095 6.42212 117.043 5.95965C116.584 5.89359 115.968 5.88478 110.801 5.87156L105.062 5.85394V17.2878ZM114.858 10.8265C115.567 11.0203 116.1 11.4211 116.369 11.9673C116.518 12.2668 116.532 12.3284 116.549 12.7733C116.567 13.1697 116.554 13.3018 116.474 13.5573C116.219 14.4029 115.395 14.9535 114.25 15.0548C114.034 15.0768 113.281 15.09 112.576 15.09L111.295 15.0856L111.282 12.8922L111.273 10.6944L112.889 10.712C114.378 10.7296 114.536 10.7428 114.858 10.8265ZM115.369 19.0452C116.021 19.2258 116.593 19.6045 116.91 20.0626C116.981 20.1683 117.091 20.4061 117.157 20.5955C117.258 20.8906 117.276 21.0184 117.272 21.428C117.272 22.3881 116.932 22.9783 116.162 23.3659C115.519 23.6874 115.36 23.7095 113.202 23.7271L111.273 23.7447V21.3399V18.9351L113.18 18.9527C114.836 18.9659 115.118 18.9791 115.369 19.0452Z" fill="white"/>
<path d="M146.861 9.49186V11.5399H145.782H144.703V13.7862V16.0324H145.782H146.857L146.875 20.3796C146.892 25.1231 146.883 24.969 147.152 25.819C147.337 26.4048 147.672 27.0038 148.046 27.4134C148.271 27.6557 148.808 28.0565 149.196 28.2679C150.354 28.9021 152.252 29.1267 154.243 28.8713C154.776 28.8008 156.225 28.4705 156.265 28.4132C156.282 28.378 155.423 24.1365 155.388 24.1013C155.379 24.0925 155.203 24.1189 155.001 24.163C154.802 24.207 154.446 24.2423 154.217 24.2423C153.53 24.2467 153.239 24.0793 153.094 23.5992C153.036 23.401 153.027 22.8637 153.027 19.7013V16.0324H154.503H155.978V13.7862V11.5399H154.503H153.027V9.49186V7.4438H149.944H146.861V9.49186Z" fill="white"/>
<path d="M133.469 11.3645C131.122 11.5451 129.202 12.382 127.805 13.8398C126.229 15.4827 125.396 17.9447 125.515 20.6138C125.603 22.5738 126.07 24.1329 126.973 25.4807C128.281 27.4407 130.228 28.577 132.897 28.9426C133.443 29.0174 135.249 29.0218 135.83 28.947C137.931 28.6783 139.565 27.9207 140.869 26.6082C141.829 25.6349 142.468 24.5337 142.869 23.142C143.164 22.1113 143.225 21.6268 143.225 20.2174C143.225 19.2176 143.208 18.8609 143.146 18.4601C142.82 16.3988 141.891 14.6062 140.539 13.4258C139.543 12.5537 138.178 11.8755 136.861 11.5892C135.883 11.3822 134.487 11.2897 133.469 11.3645ZM134.936 15.8791C135.28 15.9672 135.482 16.0773 135.755 16.3239C136.324 16.8348 136.72 17.7289 136.883 18.8565C136.971 19.4687 136.967 20.7768 136.883 21.4066C136.68 22.838 136.117 23.8467 135.289 24.2563C134.998 24.3972 134.91 24.4192 134.562 24.4369C133.831 24.4721 133.355 24.2871 132.879 23.7806C132.399 23.2741 132.095 22.5958 131.919 21.6268C131.787 20.9001 131.787 19.3674 131.919 18.6318C132.197 17.1079 132.875 16.1521 133.87 15.8835C134.183 15.7998 134.623 15.7954 134.936 15.8791Z" fill="white"/>
</g>
</svg>
