<svg width="201" height="33" viewBox="0 0 201 33" fill="none" xmlns="http://www.w3.org/2000/svg">
<g opacity="0.5" clip-path="url(#clip0_941_402)">
<path d="M46.7132 16.1924C46.7132 20.1334 49.6604 22.7628 53.2335 22.7628C55.1724 22.767 57.0742 22.2322 58.726 21.2182V25.0458C57.9835 25.5056 55.7528 26.3411 53.2627 26.3411C47.4524 26.3314 42.8516 21.9306 42.8516 16.1924C42.8516 10.4543 47.4524 6.06322 53.2627 6.06322C55.7528 6.06322 57.9835 6.89221 58.726 7.35852V11.1635C57.0728 10.1533 55.1715 9.62089 53.2335 9.62529C49.6604 9.62529 46.7132 12.2515 46.7132 16.1924ZM75.8228 16.4256V26.0464H72.2562V17.5622C72.2562 15.8783 71.5105 14.6219 69.5943 14.6219C67.7364 14.6219 66.6502 15.7909 66.6502 17.9055V26.0464H63.0837V5.19537H66.6502V14.1362C66.9064 13.4885 67.9083 11.4776 70.9107 11.4776C73.9941 11.4776 75.8228 13.3072 75.8228 16.4256ZM95.2151 23.0478V26.0464H90.611C90.5361 26.0509 90.4611 26.0399 90.3908 26.0139C90.3204 25.9879 90.2562 25.9476 90.2022 25.8955C90.1483 25.8435 90.1057 25.7808 90.0773 25.7114C90.0489 25.6421 90.0352 25.5676 90.0371 25.4927V22.9345C89.5508 24.6184 88.2377 26.3314 85.4979 26.3314C81.7789 26.3314 79.091 23.5627 79.091 18.9061C79.091 14.1912 82.0351 11.4776 85.6957 11.4776C89.0709 11.4776 89.7583 14.2495 89.7583 14.2495V11.7658H93.3249V23.0478H95.2151ZM89.8653 18.9352C89.8653 16.2507 88.5684 14.5636 86.4349 14.5636C84.376 14.5636 82.8035 16.0791 82.8035 18.9061C82.8035 21.7331 84.1004 23.2486 86.2631 23.2486C88.4646 23.2486 89.8653 21.8205 89.8653 18.9352ZM103.402 12.3357V26.0464H99.8355V14.7644H97.2416V11.7658H102.844C102.919 11.7634 102.994 11.7766 103.064 11.8046C103.133 11.8326 103.196 11.8747 103.249 11.9283C103.301 11.9819 103.342 12.0458 103.368 12.1159C103.395 12.186 103.406 12.2609 103.402 12.3357ZM103.289 8.79306H99.4269V5.19537H103.289V8.79306ZM107.568 11.7658H111.086V14.3078C111.203 13.9354 112.059 11.4776 115.405 11.4776C118.495 11.4776 120.327 13.3072 120.327 16.4191V26.0464H116.76V17.5622C116.76 15.8783 116.018 14.6219 114.102 14.6219C112.241 14.6219 111.154 15.7909 111.154 17.9055V26.0464H107.588L107.568 11.7658ZM139.716 23.0478V26.0464H135.112C135.037 26.0509 134.962 26.0399 134.892 26.0139C134.821 25.9879 134.757 25.9476 134.703 25.8955C134.649 25.8435 134.607 25.7808 134.578 25.7114C134.55 25.6421 134.536 25.5676 134.538 25.4927V22.9345C134.052 24.6184 132.739 26.3314 129.999 26.3314C126.28 26.3314 123.592 23.5627 123.592 18.9061C123.592 14.1912 126.536 11.4776 130.2 11.4776C133.575 11.4776 134.259 14.2495 134.259 14.2495V11.7658H137.826V23.0478H139.716ZM134.366 18.9352C134.366 16.2507 133.069 14.5636 130.936 14.5636C128.877 14.5636 127.304 16.0791 127.304 18.9061C127.304 21.7331 128.618 23.2486 130.78 23.2486C132.966 23.2486 134.366 21.8205 134.366 18.9352ZM147.011 6.06322V26.0464H143.425V8.19398H141.195V5.19537H146.142C146.257 5.19407 146.37 5.21562 146.476 5.25878C146.582 5.30193 146.679 5.36581 146.76 5.44665C146.841 5.5275 146.905 5.62369 146.948 5.72957C146.991 5.83545 147.013 5.94889 147.011 6.06322ZM153.434 32.6168H149.868V29.6182H152.504C153.447 29.6182 153.879 29.3332 154.219 28.4751L155.279 25.7906L149.774 11.7658H153.749L157.095 21.8464L160.558 11.7658H164.533L157.497 29.8449C156.754 31.7587 155.522 32.6168 153.434 32.6168ZM166.514 25.1332V21.678C167 22.0019 168.972 23.2972 171.176 23.2972C172.862 23.2972 173.605 22.8114 173.605 21.8691C173.605 19.0421 166.313 21.1275 166.313 15.7585C166.313 13.3298 168.372 11.4711 172.149 11.4711C174.234 11.4711 175.716 12.0151 176.296 12.3584V15.778C175.579 15.3181 174.15 14.4049 172.204 14.4049C170.518 14.4049 169.889 14.9198 169.889 15.7197C169.889 18.0318 177.152 16.4321 177.152 21.691C177.152 24.5471 174.779 26.3443 171.316 26.3443C169.04 26.3314 167.172 25.5607 166.514 25.1332ZM185.705 12.3357V26.0464H182.139V14.7644H179.545V11.7658H185.151C185.226 11.7634 185.3 11.7766 185.37 11.8046C185.439 11.8326 185.502 11.8748 185.554 11.9285C185.606 11.9821 185.647 12.046 185.673 12.1161C185.699 12.1863 185.71 12.261 185.705 12.3357ZM185.592 8.79306H181.73V5.19537H185.592V8.79306ZM189.528 25.1332V21.678C190.011 22.0019 191.986 23.2972 194.187 23.2972C195.876 23.2972 196.619 22.8114 196.619 21.8691C196.619 19.0421 189.327 21.1275 189.327 15.7585C189.327 13.3298 191.386 11.4711 195.163 11.4711C197.251 11.4711 198.73 12.0151 199.31 12.3584V15.778C198.114 14.9254 196.691 14.4475 195.221 14.4049C193.532 14.4049 192.903 14.9198 192.903 15.7197C192.903 18.0318 200.169 16.4321 200.169 21.691C200.169 24.5471 197.796 26.3443 194.333 26.3443C192.06 26.3314 190.183 25.5607 189.528 25.1332Z" fill="white"/>
<path d="M16.327 0.234375C16.6902 0.234375 17.1019 0.27971 17.1019 0.27971C15.8836 1.73914 15.1494 3.54063 15.0009 5.435C12.7053 5.81854 10.5919 6.92292 8.96747 8.58777C7.34309 10.2526 6.29234 12.3913 5.9678 14.6931C3.87001 14.9198 1.49663 15.8783 0.131612 17.2481C-0.19262 7.85073 7.01831 0.234375 16.327 0.234375ZM18.6615 28.4654C18.2321 28.5288 17.7986 28.5602 17.3646 28.5593C16.6154 28.5504 15.8678 28.4887 15.1274 28.3747C14.5489 29.7659 13.7855 31.0729 12.8577 32.2606C9.94779 31.6197 7.27101 30.1901 5.12146 28.129C2.97191 26.0678 1.43276 23.4548 0.673081 20.577C2.13537 18.8446 5.51387 17.8407 7.61166 17.8407C12.0861 17.8407 14.4595 20.2111 15.283 23.9059C12.5886 23.1773 10.9902 21.6716 9.93965 19.4372C9.32573 19.2145 8.67651 19.1048 8.02343 19.1133C7.43413 19.1109 6.84833 19.2039 6.28879 19.3886C7.47548 23.9059 11.8591 27.2802 17.1992 27.2802C22.1308 27.2802 24.2286 24.7738 24.2286 24.7738V20.9397C24.2286 20.9397 21.8098 23.4493 18.7977 23.9513C18.4588 21.6091 17.3677 19.44 15.6884 17.7704C14.0091 16.1008 11.8324 15.0209 9.48572 14.6931C10.2606 10.8623 13.182 8.71858 17.1538 8.71858C21.1257 8.71858 24.3226 11.5909 24.3226 11.5909V7.80539C24.3226 7.80539 22.267 5.88835 18.6161 5.48033C18.7069 3.79644 19.8028 1.69482 20.9895 0.917645C25.9632 2.46876 30.7586 6.66553 32.1269 12.7761C32.1269 12.7761 29.9351 14.9651 25.827 14.9651C22.4485 14.9651 20.3151 13.278 19.1154 10.315C18.4861 10.0912 17.8218 9.98148 17.1538 9.99121C16.5304 9.98439 15.9113 10.0942 15.3284 10.315C16.6513 15.0591 20.8403 18.2487 25.5093 18.2487C30.0745 18.2487 32.5387 16.1536 32.5387 16.1536C32.5387 25.6384 25.2791 32.4355 16.6513 32.6168C17.6564 31.6453 18.4313 29.5146 18.6615 28.4654Z" fill="white"/>
</g>
<defs>
<clipPath id="clip0_941_402">
<rect width="200.052" height="32.3824" fill="white" transform="translate(0.113281 0.234375)"/>
</clipPath>
</defs>
</svg>
