<svg width="174" height="51" viewBox="0 0 174 51" fill="none" xmlns="http://www.w3.org/2000/svg">
<g opacity="0.5">
<path fill-rule="evenodd" clip-rule="evenodd" d="M17.5651 1.80685L44.3558 31.0435L12.4633 4.28285C12.1644 4.4726 11.8695 4.66862 11.5789 4.87078L43.7006 31.824L7.29426 8.63063C7.06316 8.88482 6.83725 9.14368 6.61667 9.40705L43.1535 32.684L3.46817 14.1777C3.31533 14.4798 3.16759 14.786 3.02596 15.0952L42.7225 33.6066L1.25913 20.5328C1.1913 20.8684 1.13032 21.2054 1.07623 21.5435L42.4163 34.5782L0.816406 27.2429C0.839842 27.5955 0.87041 27.946 0.90811 28.2939L42.2395 35.5813L2.1563 33.8318C2.27857 34.1808 2.40747 34.5262 2.544 34.8686L42.1946 36.5998L5.20952 39.8354C5.43522 40.1614 5.66804 40.4824 5.90851 40.7972L42.2838 37.6146L9.75548 44.8261C10.0902 45.107 10.4322 45.3791 10.781 45.6422L42.5044 38.6096L15.4829 48.4443C15.9363 48.6512 16.3974 48.8453 16.8651 49.0256L42.8529 39.5669L22.0321 50.4057C22.6246 50.4975 23.2242 50.5688 23.8295 50.6187L43.3231 40.4707L28.97 50.5214C29.7566 50.4264 30.5383 50.2941 31.3125 50.125L43.9075 41.3062L35.8931 48.6501C37.1444 48.1088 38.3495 47.4665 39.4965 46.7294L44.5958 42.0571L42.7892 44.2101C47.3326 40.1008 50.369 34.3556 50.9687 27.9037L50.8306 28.6867L51.0334 24.0404C50.9347 22.3544 50.6661 20.6827 50.2315 19.0507L49.8127 28.6424L48.5854 14.6143C48.2172 13.8527 47.8108 13.1101 47.3678 12.3895L48.7978 28.7311L44.2779 8.34278C43.8486 7.88506 43.4025 7.44339 42.9405 7.01868L47.8028 28.9517L38.6671 3.85083C38.2231 3.58938 37.7712 3.34166 37.3119 3.10803L46.8456 29.3001L32.2061 1.17868C31.7741 1.06755 31.3392 0.967995 30.9018 0.880136L45.9418 29.7709L25.3706 0.392578C24.9661 0.401239 24.5641 0.41907 24.1647 0.446581L45.1068 30.3552L18.6283 1.45889C18.2714 1.56693 17.9168 1.68294 17.5651 1.80685Z" fill="white"/>
<path fill-rule="evenodd" clip-rule="evenodd" d="M17.5651 1.80685L44.3558 31.0435L12.4633 4.28285C12.1644 4.4726 11.8695 4.66862 11.5789 4.87078L43.7006 31.824L7.29426 8.63063C7.06316 8.88482 6.83725 9.14368 6.61667 9.40705L43.1535 32.684L3.46817 14.1777C3.31533 14.4798 3.16759 14.786 3.02596 15.0952L42.7225 33.6066L1.25913 20.5328C1.1913 20.8684 1.13032 21.2054 1.07623 21.5435L42.4163 34.5782L0.816406 27.2429C0.839842 27.5955 0.87041 27.946 0.90811 28.2939L42.2395 35.5813L2.1563 33.8318C2.27857 34.1808 2.40747 34.5262 2.544 34.8686L42.1946 36.5998L5.20952 39.8354C5.43522 40.1614 5.66804 40.4824 5.90851 40.7972L42.2838 37.6146L9.75548 44.8261C10.0902 45.107 10.4322 45.3791 10.781 45.6422L42.5044 38.6096L15.4829 48.4443C15.9363 48.6512 16.3974 48.8453 16.8651 49.0256L42.8529 39.5669L22.0321 50.4057C22.6246 50.4975 23.2242 50.5688 23.8295 50.6187L43.3231 40.4707L28.97 50.5214C29.7566 50.4264 30.5383 50.2941 31.3125 50.125L43.9075 41.3062L35.8931 48.6501C37.1444 48.1088 38.3495 47.4665 39.4965 46.7294L44.5958 42.0571L42.7892 44.2101C47.3326 40.1008 50.369 34.3556 50.9687 27.9037L50.8306 28.6867L51.0334 24.0404C50.9347 22.3544 50.6661 20.6827 50.2315 19.0507L49.8127 28.6424L48.5854 14.6143C48.2172 13.8527 47.8108 13.1101 47.3678 12.3895L48.7978 28.7311L44.2779 8.34278C43.8486 7.88506 43.4025 7.44339 42.9405 7.01868L47.8028 28.9517L38.6671 3.85083C38.2231 3.58938 37.7712 3.34166 37.3119 3.10803L46.8456 29.3001L32.2061 1.17868C31.7741 1.06755 31.3392 0.967995 30.9018 0.880136L45.9418 29.7709L25.3706 0.392578C24.9661 0.401239 24.5641 0.41907 24.1647 0.446581L45.1068 30.3552L18.6283 1.45889C18.2714 1.56693 17.9168 1.68294 17.5651 1.80685Z" fill="white"/>
<path d="M70.9169 17.3366C71.6517 16.374 72.6522 15.5633 73.919 14.9051C75.185 14.2461 76.616 13.917 78.212 13.917C80.0355 13.917 81.695 14.3731 83.1895 15.2853C84.7095 16.1712 85.8997 17.4256 86.7607 19.0463C87.6218 20.6678 88.0531 22.5293 88.0531 24.6317C88.0531 26.734 87.6218 28.6211 86.7607 30.2929C85.8997 31.9392 84.7087 33.2315 83.1895 34.1685C81.695 35.0799 80.0355 35.536 78.212 35.536C76.6168 35.536 75.1982 35.2193 73.9569 34.5866C72.7157 33.9277 71.702 33.1169 70.9169 32.1544V45.1487H66.5859V14.2593H70.9169V17.3366ZM83.6455 24.6317C83.6455 23.1883 83.3412 21.947 82.7334 20.9078C82.1511 19.8447 81.3659 19.0463 80.3778 18.5143C79.4326 17.962 78.3565 17.6735 77.2618 17.6788C76.1731 17.6788 75.1347 17.9576 74.1466 18.5143C73.1841 19.0719 72.3989 19.8826 71.7911 20.9465C71.208 22.0097 70.9169 23.2642 70.9169 24.7075C70.9169 26.1517 71.208 27.4178 71.7911 28.5073C72.3989 29.5712 73.1841 30.382 74.1466 30.9387C75.1347 31.4962 76.1731 31.775 77.2618 31.775C78.3769 31.775 79.4145 31.4962 80.3778 30.9387C81.3659 30.3564 82.1511 29.5201 82.7334 28.4314C83.3412 27.3419 83.6455 26.0758 83.6455 24.6317ZM111.296 14.2593V35.1945H106.964V32.7243C106.28 33.5862 105.381 34.2699 104.266 34.7764C103.165 35.2599 101.974 35.5058 100.771 35.4981C99.1247 35.4981 97.6426 35.1566 96.3262 34.472C95.0331 33.7883 94.0078 32.7755 93.2482 31.4327C92.5133 30.09 92.1463 28.4693 92.1463 26.5691V14.2593H96.4393V25.9233C96.4393 27.798 96.9078 29.2421 97.8455 30.255C98.7824 31.243 100.062 31.7371 101.683 31.7371C103.304 31.7371 104.583 31.243 105.52 30.255C106.483 29.2421 106.964 27.798 106.964 25.9233V14.2593H111.296ZM121.341 17.2986C121.975 16.2347 122.811 15.4115 123.85 14.8292C124.914 14.2214 126.167 13.917 127.611 13.917V18.4005H126.509C124.812 18.4005 123.52 18.831 122.634 19.6921C121.773 20.554 121.342 22.0477 121.342 24.1756V35.1945H117.011V14.2593H121.341V17.2986ZM150.78 24.2135C150.78 24.9987 150.729 25.708 150.628 26.3414H134.632C134.759 28.0132 135.38 29.3559 136.494 30.3688C137.609 31.3824 138.976 31.8888 140.598 31.8888C142.927 31.8888 144.574 30.9131 145.537 28.9633H150.21C149.576 30.8884 148.424 32.4711 146.752 33.7124C145.106 34.9281 143.054 35.536 140.597 35.536C138.596 35.536 136.797 35.0931 135.202 34.2064C133.631 33.2943 132.391 32.0282 131.478 30.4067C130.592 28.7605 130.149 26.861 130.149 24.7075C130.149 22.5549 130.579 20.6678 131.44 19.0463C132.327 17.4 133.555 16.1332 135.126 15.2466C136.722 14.3607 138.545 13.917 140.597 13.917C142.573 13.917 144.333 14.3476 145.878 15.2087C147.424 16.0705 148.627 17.2862 149.488 18.8566C150.349 20.4014 150.78 22.187 150.78 24.2135ZM146.258 22.846C146.233 21.2501 145.663 19.9709 144.549 19.0084C143.434 18.0459 142.054 17.565 140.407 17.565C138.913 17.565 137.634 18.0459 136.57 19.0084C135.506 19.9453 134.872 21.2245 134.67 22.846H146.258ZM164.769 17.7926H160.893V35.1945H156.524V17.7926H154.054V14.2593H156.524V12.7772C156.524 10.3713 157.157 8.62284 158.424 7.53411C159.716 6.41983 161.73 5.8623 164.465 5.8623V9.47153C163.148 9.47153 162.223 9.72474 161.691 10.2319C161.16 10.7128 160.893 11.5615 160.893 12.7772V14.2593H164.769V17.7926ZM170.811 11.4856C170.026 11.4856 169.368 11.2192 168.836 10.6872C168.304 10.156 168.038 9.49708 168.038 8.7119C168.038 7.92671 168.304 7.26774 168.836 6.73577C169.368 6.20456 170.026 5.93819 170.811 5.93819C171.571 5.93819 172.217 6.20456 172.749 6.73577C173.281 7.26774 173.547 7.92671 173.547 8.7119C173.547 9.49708 173.281 10.156 172.749 10.6872C172.217 11.2192 171.571 11.4856 170.811 11.4856ZM172.939 14.2593V35.1945H168.607V14.2593H172.939Z" fill="white"/>
</g>
</svg>
