<svg width="235" height="59" viewBox="0 0 235 59" fill="none" xmlns="http://www.w3.org/2000/svg">
<g clip-path="url(#clip0_997_791)">
<path fill-rule="evenodd" clip-rule="evenodd" d="M26.5639 1.06422L7.1776 12.1606C6.82756 12.3586 6.55354 12.6661 6.39838 13.0348C6.24321 13.4036 6.21564 13.8129 6.31997 14.1989C6.4243 14.5848 6.65465 14.9257 6.97503 15.1681C7.29541 15.4105 7.68776 15.5408 8.09077 15.5388C8.4004 15.5388 8.71573 15.461 9.00395 15.2969L27.4771 4.72247L45.9517 15.2969C46.37 15.5221 46.8605 15.5765 47.3187 15.4484C47.7769 15.3203 48.1666 15.02 48.4047 14.6113C48.6428 14.2026 48.7105 13.7179 48.5935 13.2604C48.4764 12.8029 48.1838 12.4088 47.778 12.162L28.3888 1.06281C28.1114 0.903326 27.7964 0.819336 27.4757 0.819336C27.155 0.819336 26.84 0.903326 26.5625 1.06281" fill="#83848F"/>
<path fill-rule="evenodd" clip-rule="evenodd" d="M51.7044 16.7386L30.5645 28.8068C30.286 28.9652 30.0546 29.1937 29.8938 29.4692C29.733 29.7447 29.6483 30.0573 29.6484 30.3756V54.6112C29.6484 55.0914 29.8409 55.552 30.1834 55.8915C30.5259 56.2311 30.9904 56.4219 31.4748 56.4219C31.7901 56.4219 32.1054 56.3398 32.388 56.1786L53.5279 44.0764C53.9337 43.8296 54.2263 43.4355 54.3433 42.978C54.4604 42.5206 54.3926 42.0358 54.1545 41.6271C53.9164 41.2184 53.5268 40.9181 53.0686 40.79C52.6104 40.6619 52.1199 40.7163 51.7015 40.9416L33.3011 51.4763V31.4225L53.525 19.8776C53.8758 19.6799 54.1505 19.3725 54.3062 19.0034C54.4618 18.6344 54.4896 18.2245 54.3852 17.8381C54.2808 17.4517 54.0501 17.1105 53.7292 16.8681C53.4083 16.6256 53.0153 16.4955 52.6118 16.4981C52.3036 16.4981 51.9912 16.5745 51.7044 16.7386Z" fill="#83848F"/>
<path fill-rule="evenodd" clip-rule="evenodd" d="M1.53036 16.7412C0.963907 17.0637 0.617188 17.6607 0.617188 18.3072V42.5102C0.617188 43.1566 0.965334 43.755 1.53036 44.0762L22.6703 56.1784C22.9482 56.338 23.2638 56.422 23.5851 56.4217C23.9063 56.4215 24.2217 56.337 24.4995 56.1769C25.0645 55.8516 25.4126 55.2504 25.4083 54.6025L25.3513 42.5017C25.3501 42.1847 25.2651 41.8737 25.1046 41.5996C24.944 41.3255 24.7137 41.098 24.4367 40.9399L18.8107 37.7287C18.3908 37.4891 17.8922 37.4248 17.4245 37.5497C16.9567 37.6747 16.5582 37.9787 16.3166 38.395C16.075 38.8113 16.01 39.3056 16.1361 39.7694C16.2621 40.2331 16.5688 40.6282 16.9886 40.8678L21.7043 43.5598L21.7428 51.4676L4.26844 41.4633V21.4378L22.6717 31.9443C22.8798 32.0693 23.1109 32.1519 23.3516 32.1871C23.5923 32.2224 23.8377 32.2096 24.0733 32.1495C24.309 32.0894 24.5302 31.9833 24.7238 31.8373C24.9175 31.6913 25.0798 31.5084 25.2012 31.2993C25.3226 31.0903 25.4007 30.8593 25.4308 30.6199C25.4609 30.3805 25.4425 30.1376 25.3765 29.9054C25.3106 29.6731 25.1986 29.4563 25.047 29.2676C24.8954 29.079 24.7073 28.9222 24.4937 28.8066L3.35385 16.7384C3.07639 16.5801 2.76181 16.4971 2.44172 16.4976C2.12163 16.4981 1.80731 16.5821 1.53036 16.7412Z" fill="#83848F"/>
<path fill-rule="evenodd" clip-rule="evenodd" d="M215.718 32.5965L217.437 22.7676C217.523 22.2074 217.608 21.6472 217.664 21.0587C217.749 21.6755 217.832 22.2909 217.946 22.9077L219.604 32.5979L215.718 32.5965ZM220.77 39.4009H222.24L218.624 19.5196H216.704L213.059 39.4009H214.529L215.492 33.8838H219.825L220.77 39.4009ZM226.024 39.4009V19.6328H227.408V38.1716H233.988V39.4023L226.024 39.4009ZM109.694 39.4009V19.6328H111.078V38.1716H117.659V39.4023L109.694 39.4009ZM75.6615 20.8635V28.4799H81.3674V29.6852H75.6615V38.1702H81.3403V39.4009H74.306V19.6328H81.3674V20.8635H75.6615ZM90.8572 39.4009L86.2243 21.3077L86.3384 39.4009H85.0101V19.6328H87.0433L91.8175 38.0641L91.6191 19.6314H92.9746V39.4023L90.8572 39.4009ZM101.897 37.8674H99.5238V30.1718H100.936C102.263 30.1718 103.76 30.3402 104.297 31.7958C104.438 32.216 104.468 32.6644 104.468 33.1397V35.1174C104.468 36.2448 104.396 36.8998 104.064 37.3737C103.229 37.9424 102.163 37.8674 101.897 37.8674ZM101.897 21.1663C102.162 21.1663 103.229 21.0899 104.064 21.66C104.395 22.1325 104.466 22.7888 104.466 23.9149V26.0043C104.466 26.481 104.438 26.9281 104.297 27.3482C103.76 28.8053 102.263 28.9722 100.936 28.9722H99.5238V21.1663H101.897ZM105.85 25.976V23.2995C105.85 22.2357 105.736 21.2554 104.862 20.4703C103.817 19.5748 102.489 19.6314 102.093 19.6314H98.1112V39.4023H102.093C102.489 39.4023 103.817 39.4589 104.862 38.562C105.738 37.7769 105.85 36.798 105.85 35.7327V33.168C105.85 32.1325 105.822 31.0121 104.919 30.2553C104.426 29.8422 103.774 29.6597 103.309 29.572C103.774 29.4871 104.426 29.3018 104.919 28.8887C105.822 28.1319 105.85 27.0129 105.85 25.976ZM126.584 25.2036C126.584 23.5513 126.498 22.6276 126.103 21.8707C125.917 21.4693 125.597 21.1432 125.198 20.947C124.788 20.7373 124.332 20.6313 123.871 20.6386C123.081 20.6386 122.573 20.9187 122.346 21.0587C121.132 21.8439 121.189 23.4113 121.189 23.7466V34.6406C121.189 35.761 121.246 36.3764 121.414 36.8814C121.611 37.4133 122.317 38.422 123.9 38.422C124.465 38.422 125.001 38.2805 125.454 37.9452C126.527 37.1884 126.584 35.9846 126.584 34.8373V25.2036ZM127.317 37.9452C126.893 38.6738 125.847 39.6541 123.814 39.6541C123.42 39.6541 121.697 39.6258 120.708 38.4503C119.917 37.4685 119.832 36.3495 119.832 35.1726V24.0266C119.832 23.8046 119.832 22.6827 120.143 21.7873C120.708 20.135 122.262 19.3796 123.955 19.4065C124.86 19.4065 125.763 19.6031 126.498 20.135C127.911 21.1988 127.911 22.9077 127.911 24.4482V35.3692C127.911 36.2929 127.825 37.1332 127.317 37.9452ZM140.083 37.4968C139.716 38.5337 138.727 39.7093 136.27 39.7093C133.898 39.7093 132.936 38.1419 132.655 37.3016C132.456 36.7131 132.372 36.1529 132.372 34.9207V24.1964C132.372 22.9911 132.344 21.9273 133.107 20.9201C133.898 19.8266 135.055 19.4347 136.326 19.4347C137.824 19.4347 139.264 20.0232 139.829 21.4803C140.111 22.1791 140.111 23.0477 140.111 23.2444V26.017H138.756V24.7C138.756 23.2146 138.727 22.4026 138.388 21.759C138.214 21.4543 137.96 21.2024 137.653 21.0305C137.261 20.799 136.811 20.6827 136.355 20.6952C136.101 20.6952 135.507 20.7235 134.913 21.087C133.644 21.8439 133.729 23.4679 133.729 23.8031V33.55C133.729 34.6138 133.644 36.2944 134.236 37.2733C134.434 37.6368 134.717 37.8901 135.055 38.0853C135.648 38.3937 136.242 38.422 136.496 38.422C137.116 38.422 137.513 38.2522 137.739 38.1419C138.981 37.4968 138.924 36.1246 138.924 35.761V32.5965H140.337V35.6493C140.337 36.6296 140.251 37.0215 140.083 37.4968ZM151.012 39.4009L147.37 29.1533L145.9 31.8977V39.4009H144.545V19.6328H145.929V29.323L150.9 19.6328H152.453L148.216 27.501L152.511 39.4023L151.012 39.4009ZM170.189 37.4968C169.821 38.5337 168.832 39.7093 166.375 39.7093C164.002 39.7093 163.042 38.1419 162.759 37.3016C162.563 36.7131 162.477 36.1529 162.477 34.9207V24.1964C162.477 22.9911 162.448 21.9273 163.212 20.9201C164.002 19.8266 165.161 19.4347 166.432 19.4347C167.929 19.4347 169.368 20.0232 169.934 21.4803C170.216 22.1791 170.216 23.0477 170.216 23.2444V26.017H168.861V24.7C168.861 23.2146 168.832 22.4026 168.492 21.759C168.319 21.4545 168.066 21.2026 167.759 21.0305C167.367 20.799 166.917 20.6827 166.461 20.6952C166.205 20.6952 165.613 20.7235 165.02 21.087C163.75 21.8439 163.834 23.4679 163.834 23.8031V33.55C163.834 34.6138 163.748 36.2944 164.34 37.2733C164.54 37.6368 164.821 37.8901 165.161 38.0853C165.753 38.3937 166.348 38.422 166.602 38.422C167.223 38.422 167.618 38.2522 167.843 38.1419C169.087 37.4968 169.03 36.1246 169.03 35.761V32.5965H170.443V35.6493C170.443 36.6296 170.357 37.0215 170.189 37.4968ZM193.065 24.56C193.065 22.7959 193.037 21.8439 192.245 21.2554C191.737 20.8635 191.286 20.7801 190.127 20.7801H188.009V29.2367H190.269C191.031 29.2367 191.822 29.1519 192.416 28.5365C193.178 27.7797 193.065 26.4358 193.065 26.2674V24.56ZM193.63 29.125C192.613 30.3274 190.946 30.384 190.07 30.384H188.037V39.4009H186.653V19.6328H189.761C190.974 19.6328 192.329 19.5762 193.346 20.4165C194.421 21.2851 194.421 22.5724 194.421 24.0295V26.2674C194.421 27.3312 194.392 28.2281 193.63 29.125ZM198.656 39.4009H200.097V19.6328H198.656V39.4009ZM208.231 20.8635V39.4023H206.818V20.8635H203.344V19.6314H211.762V20.8621L208.231 20.8635ZM68.6101 35.1457C68.6101 35.761 68.5815 36.6565 68.3276 37.2464C68.0736 37.8052 67.4329 38.5054 65.9918 38.5054C65.9062 38.5054 65.8064 38.5083 65.6651 38.4998C64.4195 38.4446 63.7974 37.5392 63.6062 37.1332C63.3066 36.5405 63.2352 35.8487 63.2167 34.7368L63.211 24.56C63.211 23.3278 63.0968 22.0122 64.1712 21.1153C64.849 20.5834 65.6394 20.5834 65.9219 20.5834C67.363 20.5834 67.9837 21.2837 68.2377 21.8425C68.4917 22.4309 68.5202 23.3278 68.5202 23.9432V25.9873H69.8471V23.2429C69.8471 23.1312 69.8471 22.3192 69.7073 21.7873C69.3963 20.7801 68.4917 19.4065 66.0061 19.4065C64.6792 19.4065 63.9729 19.6866 63.4649 20.0232C63.221 20.1652 63.0014 20.3448 62.8143 20.5551C61.9397 21.4237 61.8555 22.7676 61.8555 23.9149L61.8612 35.1726C61.8612 35.6535 61.8954 36.1303 61.9924 36.6027C62.1052 37.2252 62.2964 37.692 62.6174 38.1687C62.6688 38.248 62.7544 38.3739 62.8856 38.5337C62.9812 38.637 63.0668 38.7176 63.1482 38.7884C63.8088 39.3825 64.7006 39.681 65.6109 39.681C65.6109 39.681 65.9861 39.6838 66.0775 39.681C68.6072 39.6386 69.5489 38.3088 69.86 37.3016C70.0027 36.7697 70.0027 35.9577 70.0027 35.8445L69.9884 30.384H65.668V31.5879H68.6058L68.6101 35.1457ZM176.349 32.5965L178.068 22.7676C178.153 22.2074 178.236 21.6472 178.293 21.0587C178.379 21.6755 178.463 22.2909 178.576 22.9077L180.235 32.5979L176.349 32.5965ZM181.4 39.4009H182.869L179.255 19.5196H177.334L173.69 39.4009H175.159L176.123 33.8838H180.456L181.4 39.4009Z" fill="#83848F"/>
</g>
<defs>
<clipPath id="clip0_997_791">
<rect width="234" height="58" fill="white" transform="translate(0.617188 0.238281)"/>
</clipPath>
</defs>
</svg>
