<svg width="153" height="24" viewBox="0 0 153 24" fill="none" xmlns="http://www.w3.org/2000/svg">
<g clip-path="url(#clip0_997_744)">
<path fill-rule="evenodd" clip-rule="evenodd" d="M0.945312 0.754793H18.096V5.73228H6.34553V10.2421H16.0271V15.1026H6.34553V22.5814H0.945312V0.754793ZM20.8953 22.5856H38.1938V17.6081H26.2998V13.9418H35.8335V9.08123H26.2998V5.73228H38.1938V0.754793H20.8953V22.5856ZM57.3795 14.0253L47.1069 0.754793H41.7362V22.5856H46.9886V9.2232L57.4978 22.5814H62.632V0.754793H57.3795V14.0253ZM98.4364 22.5856H103.837V0.754793H98.4364V22.5856ZM118.952 5.35229C120.987 5.35229 122.79 6.25425 124.264 8.11663L128.427 4.85537C126.358 2.09103 123.022 0.287109 118.952 0.287109C112.429 0.287109 107.236 5.41075 107.236 11.666C107.236 17.9255 112.429 23.0449 118.952 23.0449C123.027 23.0449 126.362 21.241 128.427 18.4725L124.264 15.2154C122.786 17.0485 120.987 17.9505 118.952 17.9505C115.38 17.9505 112.695 15.0985 112.695 11.666C112.695 8.23773 115.38 5.35229 118.952 5.35229ZM143.597 9.5155L152.308 0.754793H145.784L136.812 9.94978V0.754793H131.412V22.5856H136.812V16.3261L139.911 13.211L146.346 22.5814H152.84L143.597 9.5155ZM76.3162 22.5856L80.5215 9.54473L84.7522 22.5856H90.4437L95.8398 0.754793H90.4691L87.2517 14.2592L82.8818 0.754793H78.2795L73.9391 14.2007L70.7217 0.754793H65.2329L70.6584 22.5856H76.3162Z" fill="#83848F"/>
</g>
<defs>
<clipPath id="clip0_997_744">
<rect width="152" height="23" fill="white" transform="translate(0.890625 0.169922)"/>
</clipPath>
</defs>
</svg>
