<svg width="174" height="48" viewBox="0 0 174 48" fill="none" xmlns="http://www.w3.org/2000/svg">
<path d="M40.8783 20.2256V4.89559H43.6083L48.1443 15.1226H48.4803L52.9953 4.89559H55.7463V20.2256H53.6883V7.14259L53.8353 7.18458L49.4883 17.0546H46.9683L42.6003 7.18458L42.7683 7.14259V20.2256H40.8783ZM58.5587 20.2256L64.0817 4.89559H67.5677L73.2587 20.2256H71.1377L65.9927 6.23959L67.0007 6.74359H64.5227L65.5937 6.23959L60.6167 20.2256H58.5587ZM61.8557 15.6476L62.5487 13.7996H69.1637L69.8567 15.6476H61.8557ZM80.9237 20.6036C79.6497 20.6036 78.5647 20.3936 77.6687 19.9736C76.7727 19.5536 76.0867 18.9726 75.6107 18.2306C75.1347 17.4886 74.8967 16.6486 74.8967 15.7106H76.9547C76.9547 16.1726 77.0737 16.6346 77.3117 17.0966C77.5637 17.5586 77.9767 17.9436 78.5507 18.2516C79.1387 18.5596 79.9297 18.7136 80.9237 18.7136C81.8477 18.7136 82.6037 18.5806 83.1917 18.3146C83.7797 18.0346 84.2137 17.6776 84.4937 17.2436C84.7737 16.7956 84.9137 16.3126 84.9137 15.7946C84.9137 15.1646 84.6407 14.6466 84.0947 14.2406C83.5487 13.8206 82.7507 13.5616 81.7007 13.4636L79.9997 13.3166C78.6417 13.2046 77.5567 12.7846 76.7447 12.0566C75.9327 11.3286 75.5267 10.3696 75.5267 9.17959C75.5267 8.24159 75.7507 7.42259 76.1987 6.72259C76.6607 6.02259 77.2977 5.47659 78.1097 5.08459C78.9217 4.67858 79.8667 4.47558 80.9447 4.47558C82.0087 4.47558 82.9467 4.67158 83.7587 5.06358C84.5707 5.45559 85.2007 6.00859 85.6487 6.72259C86.1107 7.42259 86.3417 8.26259 86.3417 9.24259H84.2837C84.2837 8.75259 84.1647 8.29059 83.9267 7.85658C83.7027 7.42259 83.3457 7.06559 82.8557 6.78558C82.3657 6.50559 81.7287 6.36559 80.9447 6.36559C80.1887 6.36559 79.5587 6.49859 79.0547 6.76459C78.5647 7.03059 78.1937 7.38059 77.9417 7.81459C77.7037 8.23459 77.5847 8.68959 77.5847 9.17959C77.5847 9.73959 77.8017 10.2366 78.2357 10.6706C78.6697 11.1046 79.3137 11.3566 80.1677 11.4266L81.8687 11.5736C82.9187 11.6576 83.8217 11.8816 84.5777 12.2456C85.3477 12.5956 85.9357 13.0716 86.3417 13.6736C86.7617 14.2616 86.9717 14.9686 86.9717 15.7946C86.9717 16.7326 86.7197 17.5656 86.2157 18.2936C85.7117 19.0216 85.0047 19.5886 84.0947 19.9946C83.1847 20.4006 82.1277 20.6036 80.9237 20.6036ZM93.0381 20.2256V6.32358H95.0961V20.2256H93.0381ZM88.3761 6.74359V4.89559H99.7581V6.74359H88.3761ZM102.525 20.2256V4.89559H104.583V20.2256H102.525ZM104.163 20.2256V18.3776H111.597V20.2256H104.163ZM104.163 13.3586V11.5106H110.946V13.3586H104.163ZM104.163 6.74359V4.89559H111.387V6.74359H104.163ZM115.117 20.2256V4.81159H117.175V20.2256H115.117ZM124.588 20.2256L119.506 13.4006H121.921L127.087 20.2256H124.588ZM116.398 14.6816V12.8546H120.514C121.158 12.8546 121.711 12.7216 122.173 12.4556C122.635 12.1896 122.992 11.8256 123.244 11.3636C123.496 10.8876 123.622 10.3486 123.622 9.74659C123.622 9.14459 123.496 8.61258 123.244 8.15058C122.992 7.67459 122.635 7.30359 122.173 7.03759C121.711 6.75759 121.158 6.61759 120.514 6.61759H116.398V4.81159H120.136C121.256 4.81159 122.236 4.97959 123.076 5.31559C123.916 5.65158 124.567 6.16958 125.029 6.86959C125.491 7.56959 125.722 8.47259 125.722 9.57859V9.91459C125.722 11.0206 125.484 11.9236 125.008 12.6236C124.546 13.3236 123.895 13.8416 123.055 14.1776C122.229 14.5136 121.256 14.6816 120.136 14.6816H116.398ZM44.4273 43.2256L39.1143 27.8956H41.2353L46.0023 41.8816L44.9943 41.3776H47.5143L46.4433 41.8816L50.8323 27.8956H52.8903L47.9553 43.2256H44.4273ZM55.7465 43.2256V27.8956H57.8045V43.2256H55.7465ZM57.3845 43.2256V41.3776H64.8185V43.2256H57.3845ZM57.3845 36.3586V34.5106H64.1675V36.3586H57.3845ZM57.3845 29.7436V27.8956H64.6085V29.7436H57.3845ZM68.3383 43.2256V27.8956H71.6983L79.4893 41.3776H80.1613L79.7413 41.7556V27.8956H81.7153V43.2256H78.3133L70.5223 29.7436H69.8503L70.2703 29.3656V43.2256H68.3383ZM89.1416 43.2256V29.3236H91.1996V43.2256H89.1416ZM84.4796 29.7436V27.8956H95.8616V29.7436H84.4796ZM104.656 43.6036C103.27 43.6036 102.101 43.3376 101.149 42.8056C100.211 42.2596 99.4973 41.5036 99.0073 40.5376C98.5313 39.5576 98.2933 38.4236 98.2933 37.1356V27.8956H100.351V37.3876C100.351 38.2416 100.512 38.9976 100.834 39.6556C101.17 40.2996 101.66 40.8036 102.304 41.1676C102.948 41.5316 103.732 41.7136 104.656 41.7136C105.58 41.7136 106.357 41.5386 106.987 41.1886C107.631 40.8246 108.114 40.3206 108.436 39.6766C108.772 39.0186 108.94 38.2556 108.94 37.3876V27.8956H110.998V37.1356C110.998 38.4236 110.76 39.5576 110.284 40.5376C109.808 41.5036 109.101 42.2596 108.163 42.8056C107.225 43.3376 106.056 43.6036 104.656 43.6036ZM115.158 43.2256V27.8116H117.216V43.2256H115.158ZM124.629 43.2256L119.547 36.4006H121.962L127.128 43.2256H124.629ZM116.439 37.6816V35.8546H120.555C121.199 35.8546 121.752 35.7216 122.214 35.4556C122.676 35.1896 123.033 34.8256 123.285 34.3636C123.537 33.8876 123.663 33.3486 123.663 32.7466C123.663 32.1446 123.537 31.6126 123.285 31.1506C123.033 30.6746 122.676 30.3036 122.214 30.0376C121.752 29.7576 121.199 29.6176 120.555 29.6176H116.439V27.8116H120.177C121.297 27.8116 122.277 27.9796 123.117 28.3156C123.957 28.6516 124.608 29.1696 125.07 29.8696C125.532 30.5696 125.763 31.4726 125.763 32.5786V32.9146C125.763 34.0206 125.525 34.9236 125.049 35.6236C124.587 36.3236 123.936 36.8416 123.096 37.1776C122.27 37.5136 121.297 37.6816 120.177 37.6816H116.439ZM129.862 43.2256V27.8956H131.92V43.2256H129.862ZM131.5 43.2256V41.3776H138.934V43.2256H131.5ZM131.5 36.3586V34.5106H138.283V36.3586H131.5ZM131.5 29.7436V27.8956H138.724V29.7436H131.5ZM147.266 43.6036C145.992 43.6036 144.907 43.3936 144.011 42.9736C143.115 42.5536 142.429 41.9726 141.953 41.2306C141.477 40.4886 141.239 39.6486 141.239 38.7106H143.297C143.297 39.1726 143.416 39.6346 143.654 40.0966C143.906 40.5586 144.319 40.9436 144.893 41.2516C145.481 41.5596 146.272 41.7136 147.266 41.7136C148.19 41.7136 148.946 41.5806 149.534 41.3146C150.122 41.0346 150.556 40.6776 150.836 40.2436C151.116 39.7956 151.256 39.3126 151.256 38.7946C151.256 38.1646 150.983 37.6466 150.437 37.2406C149.891 36.8206 149.093 36.5616 148.043 36.4636L146.342 36.3166C144.984 36.2046 143.899 35.7846 143.087 35.0566C142.275 34.3286 141.869 33.3696 141.869 32.1796C141.869 31.2416 142.093 30.4226 142.541 29.7226C143.003 29.0226 143.64 28.4766 144.452 28.0846C145.264 27.6786 146.209 27.4756 147.287 27.4756C148.351 27.4756 149.289 27.6716 150.101 28.0636C150.913 28.4556 151.543 29.0086 151.991 29.7226C152.453 30.4226 152.684 31.2626 152.684 32.2426H150.626C150.626 31.7526 150.507 31.2906 150.269 30.8566C150.045 30.4226 149.688 30.0656 149.198 29.7856C148.708 29.5056 148.071 29.3656 147.287 29.3656C146.531 29.3656 145.901 29.4986 145.397 29.7646C144.907 30.0306 144.536 30.3806 144.284 30.8146C144.046 31.2346 143.927 31.6896 143.927 32.1796C143.927 32.7396 144.144 33.2366 144.578 33.6706C145.012 34.1046 145.656 34.3566 146.51 34.4266L148.211 34.5736C149.261 34.6576 150.164 34.8816 150.92 35.2456C151.69 35.5956 152.278 36.0716 152.684 36.6736C153.104 37.2616 153.314 37.9686 153.314 38.7946C153.314 39.7326 153.062 40.5656 152.558 41.2936C152.054 42.0216 151.347 42.5886 150.437 42.9946C149.527 43.4006 148.47 43.6036 147.266 43.6036Z" fill="#83848F"/>
<g clip-path="url(#clip0_1006_193)">
<path d="M5.73857 13.5853L13.5461 21.4684L21.3505 13.5821V26.4211L26.543 21.1763V0.241455L13.5461 13.3694L0.546105 0.238281V21.1795L5.73857 26.4243V13.5821V13.5853ZM26.5399 31.1072V23.0082L13.543 36.1393L0.542969 23.0082V31.1072L13.543 44.2383L26.5399 31.1104V31.1072Z" fill="#83848F"/>
</g>
<defs>
<clipPath id="clip0_1006_193">
<rect width="145" height="44" fill="white" transform="translate(0.542969 0.238281)"/>
</clipPath>
</defs>
</svg>
